<svg width="81" height="81" viewBox="0 0 81 81" fill="none" xmlns="http://www.w3.org/2000/svg">
<rect width="81" height="81" fill="#3D9A78"/>
<g opacity="0.5">
<path fill-rule="evenodd" clip-rule="evenodd" d="M38.8891 29.0277C38.8891 20.9908 29.4092 20.9908 29.4092 29.0277C29.4092 31.6698 32.5309 31.6698 32.5309 29.0277C32.5309 26.2708 35.7669 26.2708 35.7669 29.0277C35.7669 31.6698 38.8891 31.6698 38.8891 29.0277Z" fill="white"/>
<path fill-rule="evenodd" clip-rule="evenodd" d="M52.692 29.0277C52.692 20.9908 43.2111 20.9908 43.2111 29.0277C43.2111 31.6698 46.3328 31.6698 46.3328 29.0277C46.3328 26.2708 49.454 26.2708 49.454 29.0277C49.454 31.6698 52.692 31.6698 52.692 29.0277Z" fill="white"/>
<path fill-rule="evenodd" clip-rule="evenodd" d="M55.9305 38.8715C52.6904 59.1515 29.8883 59.751 26.1681 39.4721C25.6879 36.83 22.5708 37.7893 23.0499 40.3105C27.611 64.9097 55.0922 64.1908 58.9323 39.592C59.059 39.1139 59.0067 38.606 58.7852 38.1637C58.5638 37.7214 58.1884 37.3752 57.7297 37.1903C56.8913 37.0698 56.053 37.6694 55.9305 38.8715Z" fill="white"/>
</g>
</svg>
