<svg width="81" height="81" viewBox="0 0 81 81" fill="none" xmlns="http://www.w3.org/2000/svg">
<rect width="81" height="81" fill="#0353CA"/>
<g opacity="0.5">
<path fill-rule="evenodd" clip-rule="evenodd" d="M23.034 40.7298C24.005 44.8087 26.3391 48.4341 29.6503 51.0064C32.9615 53.5787 37.0514 54.9438 41.2438 54.8761C45.4361 54.8083 49.4798 53.3117 52.7062 50.6338C55.9325 47.9559 58.1482 44.257 58.9869 40.1488C59.038 39.7412 58.9382 39.3291 58.7063 38.99C58.4745 38.651 58.1265 38.4085 57.7282 38.3083C57.5237 38.2592 57.3112 38.2535 57.1044 38.2916C56.8975 38.3297 56.701 38.4107 56.5273 38.5293C56.3537 38.648 56.2069 38.8017 56.0963 38.9806C55.9857 39.1594 55.9138 39.3595 55.8852 39.5678C55.1724 42.9514 53.3315 45.9925 50.664 48.1928C47.9965 50.3932 44.6608 51.6221 41.2034 51.6784C37.746 51.7347 34.3721 50.6149 31.6345 48.5025C28.8968 46.3902 26.9579 43.4106 26.1354 40.052C26.095 39.8427 26.0109 39.6442 25.8887 39.4695C25.7664 39.2949 25.6088 39.1479 25.426 39.0382C25.2431 38.9285 25.0393 38.8585 24.8277 38.8329C24.616 38.8072 24.4013 38.8264 24.1976 38.8892C23.8019 38.9836 23.4587 39.2288 23.2413 39.5727C23.0239 39.9166 22.9495 40.3318 23.034 40.7298Z" fill="white"/>
<path fill-rule="evenodd" clip-rule="evenodd" d="M30.9793 29.1018C31.0075 29.9313 31.3568 30.7174 31.9535 31.2942C32.5503 31.871 33.3478 32.1934 34.1777 32.1934C35.0076 32.1934 35.8051 31.871 36.4018 31.2942C36.9986 30.7174 37.3479 29.9313 37.3761 29.1018C37.3479 28.2724 36.9986 27.4863 36.4018 26.9095C35.8051 26.3327 35.0076 26.0103 34.1777 26.0103C33.3478 26.0103 32.5503 26.3327 31.9535 26.9095C31.3568 27.4863 31.0075 28.2724 30.9793 29.1018Z" fill="white"/>
<path fill-rule="evenodd" clip-rule="evenodd" d="M47.3588 26.0005C46.9448 25.993 46.5333 26.0674 46.1481 26.2194C45.7629 26.3714 45.4116 26.598 45.1142 26.8861C44.8168 27.1743 44.5793 27.5184 44.4153 27.8987C44.2513 28.2789 44.1641 28.6878 44.1586 29.1019C44.1868 29.9313 44.5361 30.7174 45.1328 31.2942C45.7295 31.871 46.527 32.1934 47.357 32.1934C48.1869 32.1934 48.9844 31.871 49.5811 31.2942C50.1778 30.7174 50.5271 29.9313 50.5553 29.1019C50.5496 28.6879 50.4621 28.2791 50.298 27.899C50.134 27.5189 49.8964 27.1749 49.5991 26.8868C49.3018 26.5986 48.9505 26.372 48.5655 26.2199C48.1804 26.0679 47.7691 25.9933 47.3551 26.0005H47.3588Z" fill="white"/>
</g>
</svg>
