<svg width="81" height="81" viewBox="0 0 81 81" fill="none" xmlns="http://www.w3.org/2000/svg">
<rect width="81" height="81" fill="#CCAE36"/>
<g opacity="0.5">
<path fill-rule="evenodd" clip-rule="evenodd" d="M49.289 26.0024C48.7195 25.9832 48.1521 26.0787 47.6203 26.2833C47.0886 26.488 46.6035 26.7975 46.1939 27.1935C45.7842 27.5895 45.4585 28.0639 45.236 28.5884C45.0136 29.1129 44.8989 29.6769 44.8989 30.2466C44.8989 30.8164 45.0136 31.3803 45.236 31.9048C45.4585 32.4293 45.7842 32.9037 46.1939 33.2997C46.6035 33.6957 47.0886 34.0052 47.6203 34.2099C48.1521 34.4145 48.7195 34.51 49.289 34.4908C51.6715 34.4908 53.6757 32.5843 53.6757 30.2939C53.6587 29.1445 53.188 28.0484 52.3663 27.2445C51.5446 26.4407 50.4385 25.9942 49.289 26.0024Z" fill="white"/>
<path fill-rule="evenodd" clip-rule="evenodd" d="M35.4567 30.2938C35.4298 29.148 34.9557 28.0582 34.1358 27.2574C33.3159 26.4565 32.2153 26.0082 31.0692 26.0082C29.9231 26.0082 28.8224 26.4565 28.0025 27.2574C27.1826 28.0582 26.7086 29.148 26.6816 30.2938C26.6816 32.5843 28.6854 34.4908 31.07 34.4908C33.4546 34.4908 35.4567 32.5843 35.4567 30.2938Z" fill="white"/>
<path fill-rule="evenodd" clip-rule="evenodd" d="M52.2425 50.0392H28.0175C27.4753 50.0605 26.9623 50.2908 26.5862 50.682C26.2101 51.0732 26 51.5948 26 52.1374C26 52.6801 26.2101 53.2017 26.5862 53.5929C26.9623 53.984 27.4753 54.2144 28.0175 54.2357H52.2425C52.525 54.2468 52.8068 54.2007 53.071 54.1003C53.3353 53.9998 53.5765 53.8471 53.7803 53.6511C53.9841 53.4552 54.1462 53.2201 54.2569 52.96C54.3676 52.6999 54.4247 52.4201 54.4247 52.1374C54.4247 51.8548 54.3676 51.575 54.2569 51.3149C54.1462 51.0548 53.9841 50.8197 53.7803 50.6238C53.5765 50.4278 53.3353 50.275 53.071 50.1746C52.8068 50.0741 52.525 50.0281 52.2425 50.0392Z" fill="white"/>
</g>
</svg>
