<svg width="81" height="81" viewBox="0 0 81 81" fill="none" xmlns="http://www.w3.org/2000/svg">
<rect width="81" height="81" fill="#318B7B"/>
<g opacity="0.5">
<path fill-rule="evenodd" clip-rule="evenodd" d="M50.6547 33.8356C54.7469 33.8356 57.9978 30.2244 57.9978 25.65C58.0247 24.9806 57.7871 24.3274 57.3365 23.8316C56.8859 23.3358 56.2583 23.0371 55.5893 23C54.9083 23.032 54.2657 23.3253 53.7953 23.8188C53.325 24.3124 53.0629 24.9682 53.0637 25.65C53.0637 27.2156 51.9817 28.4198 50.6547 28.4198C49.9552 28.3798 49.2992 28.0675 48.827 27.5498C48.3549 27.0322 48.1041 26.3503 48.1285 25.65C48.1605 25.3146 48.1221 24.9762 48.0157 24.6565C47.9093 24.3368 47.7373 24.0429 47.5106 23.7935C47.284 23.5442 47.0077 23.345 46.6996 23.2087C46.3914 23.0724 46.0582 23.0019 45.7213 23.0019C45.3843 23.0019 45.0511 23.0724 44.743 23.2087C44.4348 23.345 44.1586 23.5442 43.9319 23.7935C43.7053 24.0429 43.5332 24.3368 43.4268 24.6565C43.3204 24.9762 43.282 25.3146 43.3141 25.65C43.3141 30.2244 46.5619 33.8356 50.6526 33.8356H50.6547Z" fill="white"/>
<path fill-rule="evenodd" clip-rule="evenodd" d="M29.3526 33.8356C33.4454 33.8356 36.6962 30.2244 36.6962 25.65C36.7201 25.3113 36.674 24.9713 36.5608 24.6512C36.4475 24.331 36.2696 24.0376 36.0381 23.7892C35.8066 23.5408 35.5264 23.3427 35.215 23.2073C34.9036 23.0719 34.5677 23.002 34.2281 23.002C33.8886 23.002 33.5526 23.0719 33.2413 23.2073C32.9299 23.3427 32.6497 23.5408 32.4182 23.7892C32.1867 24.0376 32.0087 24.331 31.8955 24.6512C31.7823 24.9713 31.7362 25.3113 31.76 25.65C31.76 27.2156 30.6776 28.4198 29.3526 28.4198C28.653 28.3798 27.9969 28.0675 27.5246 27.5499C27.0523 27.0322 26.8013 26.3503 26.8254 25.65C26.8574 25.3146 26.819 24.9762 26.7126 24.6565C26.6062 24.3368 26.4342 24.0428 26.2075 23.7935C25.9809 23.5442 25.7046 23.345 25.3965 23.2087C25.0883 23.0723 24.7551 23.0019 24.4182 23.0019C24.0812 23.0019 23.748 23.0723 23.4399 23.2087C23.1317 23.345 22.8555 23.5442 22.6288 23.7935C22.4022 24.0428 22.2301 24.3368 22.1237 24.6565C22.0173 24.9762 21.9789 25.3146 22.011 25.65C22.011 30.2244 25.2598 33.8356 29.3526 33.8356V33.8356Z" fill="white"/>
<path fill-rule="evenodd" clip-rule="evenodd" d="M53.5462 50.3265C51.5016 50.3265 49.8137 52.1351 49.8137 54.4192C49.8137 56.7034 51.5016 58.512 53.5462 58.512C55.5908 58.512 57.2782 56.7085 57.2782 54.4192C57.2782 52.13 55.5913 50.3265 53.5462 50.3265Z" fill="white"/>
</g>
</svg>
