<svg width="81" height="81" viewBox="0 0 81 81" fill="none" xmlns="http://www.w3.org/2000/svg">
<rect width="81" height="81" fill="#9B427D"/>
<g opacity="0.5">
<path fill-rule="evenodd" clip-rule="evenodd" d="M45.4417 27.0656C45.4357 27.5972 45.5352 28.1246 45.7345 28.6174C45.9338 29.1102 46.2288 29.5586 46.6026 29.9366C46.9763 30.3146 47.4214 30.6147 47.9119 30.8195C48.4024 31.0243 48.9287 31.1297 49.4603 31.1297C49.9919 31.1297 50.5182 31.0243 51.0087 30.8195C51.4992 30.6147 51.9443 30.3146 52.318 29.9366C52.6918 29.5586 52.9868 29.1102 53.1861 28.6174C53.3854 28.1246 53.4849 27.5972 53.4789 27.0656C53.4849 26.5341 53.3854 26.0066 53.1861 25.5138C52.9868 25.021 52.6918 24.5727 52.318 24.1947C51.9443 23.8167 51.4992 23.5166 51.0087 23.3118C50.5182 23.107 49.9919 23.0016 49.4603 23.0016C48.9287 23.0016 48.4024 23.107 47.9119 23.3118C47.4214 23.5166 46.9763 23.8167 46.6026 24.1947C46.2288 24.5727 45.9338 25.021 45.7345 25.5138C45.5352 26.0066 45.4357 26.5341 45.4417 27.0656Z" fill="white"/>
<path fill-rule="evenodd" clip-rule="evenodd" d="M32.4809 31.1455C33.5595 31.1344 34.5908 30.701 35.3536 29.9383C36.1165 29.1755 36.55 28.1443 36.5612 27.0656C36.5672 26.5339 36.4676 26.0062 36.2683 25.5132C36.0689 25.0203 35.7737 24.5717 35.3998 24.1936C35.0259 23.8154 34.5807 23.5153 34.09 23.3104C33.5993 23.1055 33.0728 23 32.5411 23C32.0093 23 31.4828 23.1055 30.9921 23.3104C30.5014 23.5153 30.0562 23.8154 29.6823 24.1936C29.3084 24.5717 29.0132 25.0203 28.8138 25.5132C28.6145 26.0062 28.5149 26.5339 28.5209 27.0656C28.5258 28.126 28.9412 29.1433 29.68 29.904C30.4189 30.6647 31.4236 31.1096 32.4834 31.1455H32.4809Z" fill="white"/>
<path fill-rule="evenodd" clip-rule="evenodd" d="M56.9598 44.8237H25.0403C24.7717 44.8212 24.5054 44.8722 24.2568 44.9738C24.0082 45.0754 23.7823 45.2255 23.5924 45.4153C23.4025 45.6051 23.2523 45.8309 23.1506 46.0795C23.0489 46.328 22.9977 46.5943 23.0001 46.8629C23.0152 47.3994 23.2349 47.9098 23.6142 48.2895C23.9936 48.6692 24.5038 48.8895 25.0403 48.9051H39.3205V52.3855C39.3205 55.7419 42.4397 58.3831 46.3997 58.3831C50.3596 58.3831 53.5992 55.7414 53.5992 52.3855V48.9051H56.9598C57.4961 48.889 58.006 48.6686 58.3853 48.289C58.7645 47.9094 58.9844 47.3992 58.9999 46.8629C59.002 46.5944 58.9507 46.3282 58.8489 46.0798C58.7471 45.8314 58.5969 45.6057 58.407 45.4159C58.2171 45.2261 57.9914 45.076 57.7429 44.9744C57.4944 44.8727 57.2282 44.8215 56.9598 44.8237Z" fill="white"/>
</g>
</svg>
