<svg width="81" height="81" viewBox="0 0 81 81" fill="none" xmlns="http://www.w3.org/2000/svg">
<rect width="81" height="81" fill="#FF9811"/>
<path fill-rule="evenodd" clip-rule="evenodd" d="M39.0673 27.5534C39.0698 27.3488 39.0314 27.1457 38.9542 26.9561C38.8771 26.7666 38.7628 26.5943 38.6181 26.4496C38.4733 26.3049 38.3011 26.1906 38.1116 26.1135C37.922 26.0363 37.7189 25.9979 37.5143 26.0004C37.0907 25.9917 36.6805 26.1495 36.372 26.4398C36.0635 26.7302 35.8812 27.1301 35.8643 27.5534C35.8732 27.9771 35.7155 28.3874 35.4251 28.6961C35.1347 29.0047 34.7347 29.187 34.3112 29.2038C33.8773 29.1914 33.4644 29.0136 33.1572 28.7068C32.85 28.4 32.6717 27.9874 32.6588 27.5534C32.6588 27.1414 32.4951 26.7463 32.2038 26.455C31.9125 26.1637 31.5174 26 31.1054 26C30.6934 26 30.2982 26.1637 30.0069 26.455C29.7156 26.7463 29.5519 27.1414 29.5519 27.5534C29.5519 28.815 30.0531 30.0249 30.9452 30.917C31.8373 31.8091 33.0472 32.3103 34.3088 32.3103C35.5704 32.3103 36.7803 31.8091 37.6724 30.917C38.5645 30.0249 39.0656 28.815 39.0656 27.5534H39.0673Z" fill="white"/>
<path fill-rule="evenodd" clip-rule="evenodd" d="M47.6078 26.0025C47.1933 26.0081 46.7841 26.0955 46.4035 26.2597C46.0229 26.4239 45.6785 26.6616 45.39 26.9593C45.1015 27.2569 44.8747 27.6086 44.7224 27.9941C44.5702 28.3797 44.4957 28.7915 44.503 29.2059C44.4975 29.6152 44.574 30.0216 44.728 30.4009C44.8821 30.7802 45.1106 31.1248 45.3999 31.4143C45.6893 31.7039 46.0338 31.9326 46.413 32.0869C46.7922 32.2412 47.1984 32.318 47.6078 32.3127C48.0225 32.32 48.4345 32.2454 48.8203 32.093C49.206 31.9407 49.5579 31.7137 49.8558 31.425C50.1536 31.1364 50.3915 30.7917 50.5558 30.4109C50.7201 30.0301 50.8076 29.6206 50.8133 29.2059C50.8057 28.3583 50.4656 27.5475 49.866 26.9483C49.2664 26.3491 48.4554 26.0094 47.6078 26.0025Z" fill="white"/>
<path fill-rule="evenodd" clip-rule="evenodd" d="M55.859 39.7864C55.16 43.1816 53.322 46.236 50.6494 48.4436C47.9769 50.6511 44.6303 51.8793 41.1642 51.9245C37.6982 51.9697 34.3207 50.8293 31.5914 48.6922C28.8622 46.5552 26.9451 43.5497 26.1578 40.1739C26.0397 39.771 25.7742 39.4274 25.4141 39.2116C25.054 38.9957 24.6258 38.9235 24.2148 39.0093C24.0099 39.0587 23.817 39.1483 23.6472 39.2731C23.4774 39.3979 23.3342 39.5552 23.2258 39.7359C23.1175 39.9166 23.0462 40.1171 23.0162 40.3257C22.9862 40.5342 22.998 40.7467 23.051 40.9506C23.9812 44.9874 26.2552 48.5883 29.5002 51.1633C32.7452 53.7382 36.7687 55.1344 40.9112 55.1229C45.1571 55.1107 49.2694 53.6376 52.5572 50.9509C55.845 48.2643 58.108 44.5279 58.9658 40.3695C59.0506 39.9709 58.9762 39.5549 58.7584 39.2103C58.5407 38.8658 58.1968 38.6201 57.8004 38.5256C57.3758 38.4387 56.9342 38.5224 56.5709 38.7586C56.2076 38.9948 55.9519 39.3644 55.859 39.7876V39.7864Z" fill="white"/>
</svg>
