<svg width="81" height="81" viewBox="0 0 81 81" fill="none" xmlns="http://www.w3.org/2000/svg">
<rect width="81" height="81" fill="#5C4CB8"/>
<g opacity="0.5">
<path fill-rule="evenodd" clip-rule="evenodd" d="M53.8459 30.0871C53.8459 26.1243 51.4427 23.001 48.5574 23.001C45.6721 23.001 43.2734 26.1207 43.2734 30.0871C43.2734 33.9305 45.6772 37.1733 48.5574 37.1733C51.4376 37.1733 53.8459 33.9305 53.8459 30.0871V30.0871Z" fill="white"/>
<path fill-rule="evenodd" clip-rule="evenodd" d="M36.0702 28.2835C36.0702 25.4022 34.2654 23 32.1037 23C29.942 23 28.1373 25.4022 28.1373 28.2835C28.1373 31.1647 29.937 33.572 32.1037 33.572C34.2705 33.572 36.0702 31.1698 36.0702 28.2835Z" fill="white"/>
<path fill-rule="evenodd" clip-rule="evenodd" d="M42.9138 50.1444C33.186 41.4957 24.1766 49.7839 23.8171 50.2645C23.3884 50.7498 23.1139 51.3517 23.0285 51.9936C22.9431 52.6355 23.0507 53.2883 23.3376 53.8688C23.9376 55.0689 25.2572 55.4284 26.0978 54.5888C26.3378 54.2283 33.3055 47.9843 40.6336 54.5888C43.8734 57.4726 46.8777 58.4322 49.6419 58.4322C51.2923 58.4146 52.9193 58.0406 54.4116 57.3357C55.904 56.6308 57.2263 55.6118 58.2882 54.3483C58.7043 53.8266 58.9504 53.1898 58.9933 52.5238C59.0361 51.8578 58.8736 51.1947 58.5277 50.624C58.3873 50.3755 58.1883 50.1652 57.948 50.0113C57.7077 49.8574 57.4334 49.7645 57.149 49.7409C56.8647 49.7172 56.5788 49.7634 56.3164 49.8755C56.054 49.9876 55.8229 50.1622 55.6434 50.384C55.5234 50.624 50.1194 56.6326 42.9118 50.1444H42.9138Z" fill="white"/>
</g>
</svg>
