<svg width="200" height="200" viewBox="0 0 200 200" fill="none" xmlns="http://www.w3.org/2000/svg">
<path d="M100 200C155.228 200 200 155.228 200 100C200 44.7715 155.228 0 100 0C44.7715 0 0 44.7715 0 100C0 155.228 44.7715 200 100 200Z" fill="#F0F0F0"/>
<path d="M169.976 28.5719C151.939 10.9 127.245 0 100 0C91.3043 0 65.8617 10.9 47.8262 28.5719H169.976Z" fill="#6DA544"/>
<path d="M100 85.7144H198.98C197.537 75.6265 194.59 66.025 190.371 57.1429H95.6523L100 85.7144Z" fill="#6DA544"/>
<path d="M9.62925 142.857H190.371C194.59 133.976 197.537 124.373 198.98 114.286H1.02026C2.46362 124.374 5.40933 133.976 9.62925 142.857Z" fill="#6DA544"/>
<path d="M30.0242 171.428C48.0605 189.1 72.755 200 99.9999 200C127.245 200 151.939 189.1 169.976 171.428H30.0242Z" fill="#6DA544"/>
<path d="M99.9999 0C49.6226 0 7.95308 37.2543 1.02026 85.7145H99.9999V0Z" fill="#D80027"/>
<path d="M50 76.6669L45.6523 67.9716V50.5802L56.5219 41.8845L67.3914 50.5802V63.6236L71.7391 59.2759V67.9716L63.0434 76.6669H50Z" fill="#F0F0F0"/>
<path d="M26.6152 50L27.7664 53.543H31.4914L28.4777 55.7332L29.6292 59.2758L26.6152 57.0859L23.6011 59.2758L24.7527 55.7332L21.739 53.543H25.464L26.6152 50Z" fill="#F0F0F0"/>
<path d="M35.311 41.3044L36.4622 44.8474H40.1875L37.1735 47.0376L38.3247 50.5802L35.311 48.3908L32.2973 50.5802L33.4489 47.0376L30.4348 44.8474H34.1594L35.311 41.3044Z" fill="#F0F0F0"/>
<path d="M44.0065 32.6086L45.1577 36.1516H48.8823L45.869 38.3418L47.0198 41.8844L44.0065 39.695L40.9925 41.8844L42.1437 38.3418L39.1304 36.1516H42.855L44.0065 32.6086Z" fill="#F0F0F0"/>
<path d="M86.428 50L85.2769 53.543H81.5522L84.5655 55.7332L83.4144 59.2758L86.428 57.0859L89.4421 59.2758L88.2909 55.7332L91.3042 53.543H87.5796L86.428 50Z" fill="#F0F0F0"/>
<path d="M77.7322 41.3044L76.5811 44.8474H72.8564L75.8697 47.0376L74.7186 50.5802L77.7322 48.3908L80.7463 50.5802L79.5947 47.0376L82.6084 44.8474H78.8838L77.7322 41.3044Z" fill="#F0F0F0"/>
<path d="M69.0371 32.6086L67.8855 36.1516H64.1609L67.1742 38.3418L66.023 41.8844L69.0371 39.695L72.0507 41.8844L70.8996 38.3418L73.9128 36.1516H70.1882L69.0371 32.6086Z" fill="#F0F0F0"/>
<path d="M56.5217 28.261L55.3701 31.804H51.6455L54.6588 33.9938L53.5076 37.5364L56.5217 35.3469L59.5354 37.5364L58.3842 33.9938L61.3975 31.804H57.6729L56.5217 28.261Z" fill="#F0F0F0"/>
</svg>
