<svg width="200" height="200" viewBox="0 0 200 200" fill="none" xmlns="http://www.w3.org/2000/svg">
<path d="M100 200C155.228 200 200 155.228 200 100C200 44.7715 155.228 0 100 0C44.7715 0 0 44.7715 0 100C0 155.228 44.7715 200 100 200Z" fill="#FFDA44"/>
<path d="M99.9999 200C130.309 200 157.466 186.514 175.805 165.218H24.1948C42.5335 186.514 69.6909 200 99.9999 200Z" fill="#338AF3"/>
<path d="M200 100C200 44.7719 155.228 0 100 0C44.7719 0 0 44.7719 0 100C0 109.026 1.20313 117.769 3.44492 126.087H196.555C198.797 117.769 200 109.026 200 100Z" fill="#338AF3"/>
<path d="M7.94873 139.13C9.87646 143.66 12.13 148.016 14.6772 152.174H185.323C187.87 148.016 190.123 143.66 192.052 139.13H7.94873Z" fill="#338AF3"/>
<path d="M45.827 63.0715L26.2896 54.4488L45.827 45.8262L54.4493 26.2891L63.0716 45.8262L82.6087 54.4488L63.0716 63.0715L54.4493 82.6086L45.827 63.0715Z" fill="#F0F0F0"/>
<path d="M54.449 37.0575L59.7736 49.1235L71.84 54.4489L59.7736 59.7739L54.449 71.8399L49.1236 59.7739L37.0576 54.4489L49.1236 49.1235L54.449 37.0575Z" fill="#D80027"/>
</svg>
