<svg width="200" height="200" viewBox="0 0 200 200" fill="none" xmlns="http://www.w3.org/2000/svg">
<path d="M143.478 9.92266C130.331 3.56563 115.582 0 100 0C84.418 0 69.6688 3.56563 56.5219 9.92266L47.8262 100L56.5219 190.077C69.6688 196.434 84.418 200 100 200C115.582 200 130.331 196.434 143.478 190.077L152.174 100L143.478 9.92266Z" fill="#D80027"/>
<path d="M56.5219 9.92627C23.0727 26.1009 0 60.3544 0 100C0 139.646 23.0727 173.899 56.5219 190.074V9.92627Z" fill="black"/>
<path d="M143.478 9.92627V190.074C176.927 173.899 200 139.646 200 100C200 60.3544 176.927 26.1009 143.478 9.92627Z" fill="#496E2D"/>
<path d="M100 65.2175C80.7898 65.2175 65.2175 80.7902 65.2175 100C65.2175 119.21 80.7902 134.782 100 134.782C119.21 134.782 134.782 119.21 134.782 100C134.782 80.7902 119.21 65.2175 100 65.2175ZM100 121.739C87.9937 121.739 78.2609 112.006 78.2609 100C78.2609 87.9941 87.9941 78.2609 100 78.2609C112.006 78.2609 121.739 87.9941 121.739 100C121.739 112.006 112.006 121.739 100 121.739Z" fill="#FFDA44"/>
<path d="M99.9999 86.9565C95.1972 86.9565 91.3042 90.8495 91.3042 95.6522V108.696H108.696V95.6522C108.696 90.8495 104.803 86.9565 99.9999 86.9565Z" fill="#FFDA44"/>
</svg>
