<svg width="200" height="200" viewBox="0 0 200 200" fill="none" xmlns="http://www.w3.org/2000/svg">
<path d="M0 100C0 44.7719 44.7719 0 100 0C155.228 0 200 44.7719 200 100C195.652 100 100 113.043 100 113.043L0 100Z" fill="#D80027"/>
<path d="M200 100C200 155.228 155.228 200 100 200C44.7719 200 0 155.228 0 100" fill="black"/>
<path d="M86.288 79.5361L94.7654 85.6885L91.5349 95.6525L100.006 89.49L108.484 95.6424L105.241 85.6814L113.711 79.5197L103.237 79.526L99.9935 69.5654L96.7626 79.5295L86.288 79.5361Z" fill="#FFDA44"/>
<path d="M125 56.699C117.12 52.1493 108.504 50.0021 99.9999 50.0169V63.0575C106.285 63.0462 112.653 64.6322 118.478 67.9954C136.126 78.1845 142.194 100.831 132.005 118.479C121.816 136.127 99.1694 142.195 81.5214 132.006C76.38 129.038 72.2296 125.007 69.1702 120.356L58.2811 127.545C62.4206 133.838 68.044 139.286 74.9999 143.301C98.8764 157.086 129.516 148.877 143.301 125C157.086 101.124 148.876 70.4841 125 56.699Z" fill="#FFDA44"/>
<path d="M71.1678 91.3044C67.7107 97.6244 70.0318 105.551 76.3514 109.008L118.714 132.156C115.833 137.422 117.363 143.832 122.629 146.713L134.073 152.972C139.339 155.854 145.945 153.919 148.826 148.653L155.085 137.21L71.1678 91.3044Z" fill="#FFDA44"/>
</svg>
