<svg width="200" height="200" viewBox="0 0 200 200" fill="none" xmlns="http://www.w3.org/2000/svg">
<path d="M200 100C200 155.228 155.228 200 100 200C44.7719 200 0 155.228 0 100C0 100.024 100 0.0109375 100 0C155.228 0 200 44.7719 200 100Z" fill="#0052B4"/>
<path d="M99.7322 100H99.9998C99.9998 99.9102 99.9998 99.8227 99.9998 99.7324C99.9107 99.8219 99.8216 99.9109 99.7322 100Z" fill="#F0F0F0"/>
<path d="M100 52.1738C100 34.5781 100 23.0488 100 0H99.9832C44.7621 0.009375 0 44.777 0 100H52.1738V70.6207L81.5531 100H99.7328C99.8219 99.9109 99.9109 99.8219 100 99.7324C100 92.9953 100 86.984 100 81.5539L70.6203 52.1738H100Z" fill="#F0F0F0"/>
<path d="M50.592 13.0435C34.9518 21.9493 21.949 34.9517 13.0436 50.5919V100H39.1307V39.1313V39.1306H100C100 30.9028 100 23.0646 100 13.0435H50.592Z" fill="#D80027"/>
<path d="M100 87.7028L64.471 52.1743H52.1742V52.1751L99.9996 100H100C100 100 100 91.5208 100 87.7028Z" fill="#D80027"/>
<path d="M169.117 114.638C171.992 110.682 173.913 105.851 173.913 100V56.5218C170.28 59.2515 165.764 60.8695 160.87 60.8695C153.758 60.8695 147.444 57.4542 143.478 52.1746C139.512 57.4542 133.198 60.8695 126.087 60.8695C121.192 60.8695 116.677 59.2511 113.044 56.5226V100C113.044 105.851 114.964 110.682 117.84 114.638H169.117Z" fill="#F3F3F3"/>
<path d="M160.072 91.9339C161.457 88.5566 162.533 83.6202 162.533 81.1636C162.533 77.2163 157.387 74.0167 157.387 74.0167C157.387 74.0167 152.241 77.2163 152.241 81.1636C152.241 83.6206 153.318 88.557 154.702 91.9339L151.731 98.6413C153.477 99.3515 155.386 99.746 157.388 99.746C159.39 99.746 161.298 99.3511 163.044 98.6413L160.072 91.9339Z" fill="#FF9811"/>
<path d="M139.959 70.2156C136.343 70.7054 131.529 72.2426 129.402 73.4707C125.984 75.4445 125.785 81.5004 125.785 81.5004C125.785 81.5004 131.13 84.357 134.548 82.3836C136.676 81.155 140.412 77.7551 142.644 74.8676L149.939 74.0863C149.681 72.2199 149.067 70.3695 148.067 68.6363C147.065 66.9031 145.77 65.4469 144.282 64.2894L139.959 70.2156Z" fill="#FF9811"/>
<path d="M131.208 98.4945C133.44 101.38 137.177 104.78 139.305 106.009C142.723 107.982 148.067 105.127 148.067 105.127C148.067 105.127 147.868 99.0699 144.451 97.0961C142.322 95.8676 137.509 94.332 133.893 93.843L129.57 87.916C128.082 89.073 126.786 90.5301 125.785 92.2617C124.785 93.9957 124.172 95.8453 123.913 97.7129L131.208 98.4945Z" fill="#FF9811"/>
<path d="M116.764 113.045C124.884 126.074 143.478 130.435 143.478 130.435C143.478 130.435 162.072 126.074 170.193 113.045H116.764Z" fill="#338AF3"/>
</svg>
