<svg width="200" height="200" viewBox="0 0 200 200" fill="none" xmlns="http://www.w3.org/2000/svg">
<g clip-path="url(#clip0)">
<path d="M196.555 126.087C198.797 117.769 200 109.026 200 99.9999C200 90.9737 198.797 82.2308 196.555 73.9128L91.3043 0.380371C71.7648 2.06396 53.834 9.36475 39.1305 20.662L3.44492 73.9128C1.20313 82.2308 0 90.9737 0 99.9999C0 108.973 1.18867 117.668 3.40547 125.942L39.1301 179.338C53.8336 190.635 71.7645 197.936 91.3039 199.619L196.555 126.087Z" fill="#FFDA44"/>
<path d="M3.44507 126.087C9.23101 147.556 21.983 166.163 39.1306 179.338V126.087H3.44507Z" fill="#0052B4"/>
<path d="M91.3044 199.62C94.1708 199.866 97.0697 200 100 200C146.203 200 185.08 168.664 196.555 126.087H91.3044V199.62Z" fill="#0052B4"/>
<path d="M196.555 73.9129C185.08 31.3363 146.203 0 100 0C97.0697 0 94.1708 0.133594 91.3044 0.380469V73.9129H196.555Z" fill="#0052B4"/>
<path d="M39.1306 20.6621C21.983 33.8379 9.23101 52.4445 3.44507 73.9129H39.1306V20.6621Z" fill="#0052B4"/>
<path d="M199.154 86.9566H78.2613H78.2609V2.37695C69.0195 4.42617 60.2582 7.74766 52.1738 12.159V86.9562H0.846484C0.289844 91.2262 0 95.5793 0 100C0 104.421 0.289844 108.774 0.846484 113.043H52.1734H52.1738V187.841C60.2582 192.252 69.0195 195.574 78.2609 197.623V113.045V113.044H199.154C199.709 108.774 200 104.421 200 100C200 95.5793 199.709 91.2262 199.154 86.9566Z" fill="#D80027"/>
</g>
<defs>
<clipPath id="clip0">
<rect width="200" height="200" fill="white"/>
</clipPath>
</defs>
</svg>
