<svg width="200" height="200" viewBox="0 0 200 200" fill="none" xmlns="http://www.w3.org/2000/svg">
<path d="M100 200C155.228 200 200 155.228 200 100C200 44.7715 155.228 0 100 0C44.7715 0 0 44.7715 0 100C0 155.228 44.7715 200 100 200Z" fill="#D80027"/>
<path d="M156.522 74.2224H120.301C122.537 71.881 123.913 68.711 123.913 65.2177C123.913 58.0142 118.073 52.1743 110.87 52.1743C106.331 52.1743 102.336 54.4931 100 58.0091C97.6637 54.4931 93.6684 52.1743 89.1305 52.1743C81.927 52.1743 76.0871 58.0142 76.0871 65.2177C76.0871 68.711 77.4633 71.8813 79.6992 74.2224H43.4785C43.4785 83.8274 51.8445 91.6134 61.4488 91.6134H60.8691C60.8691 101.219 68.6555 109.005 78.2609 109.005C78.2609 112.116 79.0809 115.033 80.5121 117.558L66.0863 131.984L77.1543 143.051L92.8543 127.351C93.4691 127.577 94.1055 127.758 94.7625 127.881L85.2754 149.3L100 165.218L114.725 149.3L105.238 127.88C105.895 127.757 106.531 127.576 107.146 127.35L122.846 143.05L133.914 131.983L119.488 117.556C120.919 115.032 121.739 112.115 121.739 109.004C131.344 109.004 139.13 101.218 139.13 91.6122H138.551C148.155 91.613 156.522 83.8274 156.522 74.2224Z" fill="black"/>
</svg>
