<svg width="200" height="200" viewBox="0 0 200 200" fill="none" xmlns="http://www.w3.org/2000/svg">
<g clip-path="url(#clip0)">
<path d="M100 200C155.228 200 200 155.228 200 100C200 44.7715 155.228 0 100 0C44.7715 0 0 44.7715 0 100C0 155.228 44.7715 200 100 200Z" fill="#F0F0F0"/>
<path d="M56.5222 134.782L65.2179 193.781C76.0507 197.801 87.7683 200 100 200C142.996 200 179.651 172.863 193.78 134.782H56.5222Z" fill="black"/>
<path d="M56.5222 65.2176L65.2179 6.21914C76.0507 2.19922 87.7683 0 100 0C142.996 0 179.651 27.1375 193.78 65.2176H56.5222Z" fill="#6DA544"/>
<path d="M0 100C0 142.997 27.1379 179.651 65.2176 193.78V6.21997C27.1379 20.3493 0 57.0036 0 100Z" fill="#A2001D"/>
</g>
<defs>
<clipPath id="clip0">
<rect width="200" height="200" fill="white"/>
</clipPath>
</defs>
</svg>
