<svg width="200" height="200" viewBox="0 0 200 200" fill="none" xmlns="http://www.w3.org/2000/svg">
<path d="M100 200C155.228 200 200 155.228 200 100C200 44.7715 155.228 0 100 0C44.7715 0 0 44.7715 0 100C0 155.228 44.7715 200 100 200Z" fill="#F0F0F0"/>
<path d="M99.9999 0C60.3539 0 26.0976 23.0723 9.92261 56.5219H190.077C173.902 23.0723 139.646 0 99.9999 0Z" fill="#338AF3"/>
<path d="M99.9999 200C139.646 200 173.902 176.928 190.077 143.478H9.92261C26.0976 176.928 60.3539 200 99.9999 200Z" fill="#338AF3"/>
<path d="M129.889 100L117.676 105.745L124.179 117.573L110.918 115.036L109.237 128.432L100 118.579L90.7625 128.432L89.0824 115.036L75.8207 117.572L82.3238 105.745L70.1113 100L82.3242 94.2551L75.8207 82.4278L89.082 84.9645L90.7629 71.5676L100 81.4208L109.237 71.5676L110.918 84.9645L124.18 82.4278L117.676 94.2555L129.889 100Z" fill="#FFDA44"/>
</svg>
