<svg width="200" height="200" viewBox="0 0 200 200" fill="none" xmlns="http://www.w3.org/2000/svg">
<mask id="mask0_306_2531" style="mask-type:alpha" maskUnits="userSpaceOnUse" x="0" y="0" width="200" height="200">
<rect width="200" height="200" rx="100" fill="#C4C4C4"/>
</mask>
<g mask="url(#mask0_306_2531)">
<mask id="mask1_306_2531" style="mask-type:alpha" maskUnits="userSpaceOnUse" x="-34" y="-1" width="268" height="201">
<rect x="-34" y="-1" width="268" height="201" fill="white"/>
</mask>
<g mask="url(#mask1_306_2531)">
<path fill-rule="evenodd" clip-rule="evenodd" d="M-34 -1V200H234V-1H-34Z" fill="#5196ED"/>
<mask id="mask2_306_2531" style="mask-type:alpha" maskUnits="userSpaceOnUse" x="-34" y="-1" width="268" height="201">
<path fill-rule="evenodd" clip-rule="evenodd" d="M-34 -1V200H234V-1H-34Z" fill="white"/>
</mask>
<g mask="url(#mask2_306_2531)">
<path fill-rule="evenodd" clip-rule="evenodd" d="M39.0061 65.11C39.0061 65.11 56.2931 74.5945 58.6973 77.2179C61.1005 79.8418 64.9526 89.4769 70.9599 84.0281C76.9682 78.5812 82.9755 82.8159 82.9755 74.1377C82.9755 65.4602 91.9455 45.3306 104.961 50.3749C117.978 55.4186 128.68 52.2632 131.682 54.2798C134.687 56.2977 141.896 66.3182 147.503 66.3182C153.111 66.3182 155.913 72.1696 156.315 80.6456C156.713 89.1223 154.513 89.9318 159.718 90.9423C164.926 91.9504 166.927 95.7865 164.327 100.83C161.723 105.876 161.921 103.656 162.322 108.903C162.724 114.15 157.117 145.093 139.892 148.124C122.668 151.149 106.343 149.536 110.75 143.681C115.156 137.83 121.254 131.096 112.244 129.683C103.23 128.269 97.551 127.066 88.538 129.487C79.5249 131.909 70.1133 135.742 64.5036 128.479C58.8971 121.213 60.1003 115.966 55.4938 112.535C50.8885 109.105 45.2787 109.709 49.8873 103.05C54.4906 96.3899 58.2955 98.8767 54.4906 93.6301C50.6887 88.3841 36.326 86.0983 36.326 80.853C36.326 75.6037 27.1905 64.1006 39.0061 65.11Z" fill="#F5F8FB"/>
</g>
</g>
</g>
</svg>
