<svg width="200" height="200" viewBox="0 0 200 200" fill="none" xmlns="http://www.w3.org/2000/svg">
<path d="M0 100C0 106.85 0.690625 113.538 2.00273 120L100 126.087L197.998 120C199.31 113.538 200 106.85 200 100C200 93.1503 199.309 86.4621 197.998 80L100 73.9128L2.00273 80C0.690625 86.4621 0 93.1503 0 100H0Z" fill="#0052B4"/>
<path d="M197.998 120H2.00276C11.268 165.645 51.6215 200 100 200C148.379 200 188.732 165.645 197.998 120Z" fill="#F0F0F0"/>
<path d="M2.00276 80H197.998C188.732 34.3555 148.379 0 100 0C51.6207 0 11.268 34.3555 2.00276 80Z" fill="black"/>
<path d="M143.478 80H56.5217L74.2873 71.6429L64.8268 54.4378L84.1178 58.1273L86.5631 38.6394L99.9998 52.973L113.437 38.6394L115.881 58.1273L135.173 54.4378L125.713 71.6437L143.478 80Z" fill="#FFDA44"/>
<path d="M0 100C0 155.228 44.7719 200 100 200L19.9984 39.9966C7.44219 56.711 0 77.4856 0 100Z" fill="#A2001D"/>
<path d="M100 200C155.228 200 200 155.228 200 100C200 77.4856 192.558 56.711 180.002 39.9966L100 200Z" fill="#A2001D"/>
</svg>
