<svg width="200" height="200" viewBox="0 0 200 200" fill="none" xmlns="http://www.w3.org/2000/svg">
<path d="M200 100C200 155.228 155.228 200 100 200C44.7719 200 0 155.228 0 100C0 100.023 100 0.0113281 100 0C155.228 0 200 44.7719 200 100Z" fill="#0052B4"/>
<path d="M100 0C99.9945 0 99.9886 0.000390625 99.9832 0.000390625L100 0Z" fill="#F0F0F0"/>
<path d="M99.7324 100H100C100 99.9094 100 99.8227 100 99.7324C99.9109 99.8219 99.8219 99.9109 99.7324 100Z" fill="#F0F0F0"/>
<path d="M100 52.1748C100 34.5791 100 23.049 100 0.000976562H99.9832C44.7625 0.00996094 0 44.7775 0 100.001H52.1738V70.6209L81.5535 100.001H99.7328C99.8223 99.9115 99.9113 99.8225 100 99.733C100 92.9959 100 86.9846 100 81.5549L70.6203 52.1748H100Z" fill="#F0F0F0"/>
<path d="M50.5917 13.0433C34.9514 21.9492 21.9491 34.9515 13.0432 50.5918V100H39.1303V39.1308V39.1304H99.9999C99.9999 30.9027 99.9999 23.0644 99.9999 13.0433H50.5917Z" fill="#D80027"/>
<path d="M99.9999 87.7027L64.4713 52.1746H52.1741C52.1741 52.1742 52.1741 52.1746 52.1741 52.1746L99.9995 100H99.9999C99.9999 100 99.9999 91.5215 99.9999 87.7027Z" fill="#D80027"/>
<path d="M60.3105 117.391L65.7988 128.867L78.1921 126.003L72.6421 137.449L82.6085 145.352L70.1996 148.149L70.2343 160.869L60.3105 152.911L50.3871 160.869L50.4218 148.149L38.0125 145.352L47.9793 137.449L42.4285 126.003L54.8226 128.867L60.3105 117.391Z" fill="#F0F0F0"/>
<path d="M149.72 139.13L152.464 144.868L158.661 143.436L155.886 149.159L160.869 153.111L154.665 154.509L154.682 160.87L149.72 156.89L144.758 160.87L144.776 154.509L138.571 153.111L143.554 149.159L140.779 143.436L146.976 144.868L149.72 139.13Z" fill="#F0F0F0"/>
<path d="M124.192 78.261L126.936 83.9993L133.133 82.5665L130.358 88.2895L135.341 92.2415L129.137 93.6399L129.154 100L124.192 96.0208L119.231 100L119.248 93.6399L113.043 92.2415L118.026 88.2895L115.251 82.5665L121.448 83.9993L124.192 78.261Z" fill="#F0F0F0"/>
<path d="M149.72 43.4781L152.464 49.2164L158.661 47.784L155.886 53.5071L160.869 57.4586L154.665 58.8574L154.682 65.2176L149.72 61.2383L144.758 65.2176L144.776 58.8574L138.571 57.4586L143.554 53.5071L140.779 47.784L146.976 49.2164L149.72 43.4781Z" fill="#F0F0F0"/>
<path d="M172.019 69.5653L174.762 75.3036L180.959 73.8708L178.184 79.5938L183.167 83.5458L176.963 84.9446L176.98 91.3044L172.019 87.3255L167.057 91.3044L167.074 84.9446L160.869 83.5458L165.853 79.5938L163.078 73.8708L169.274 75.3036L172.019 69.5653Z" fill="#F0F0F0"/>
<path d="M156.074 100L158.232 106.643H165.217L159.566 110.749L161.725 117.391L156.074 113.286L150.423 117.391L152.581 110.749L146.931 106.643H153.915L156.074 100Z" fill="#F0F0F0"/>
</svg>
