<svg width="200" height="200" viewBox="0 0 200 200" fill="none" xmlns="http://www.w3.org/2000/svg">
<path d="M100 200C155.228 200 200 155.228 200 100C200 44.7715 155.228 0 100 0C44.7715 0 0 44.7715 0 100C0 155.228 44.7715 200 100 200Z" fill="#F0F0F0"/>
<path d="M0 100C0 137.904 21.0898 170.881 52.1738 187.841V12.1591C21.0898 29.1192 0 62.0958 0 100Z" fill="#D80027"/>
<path d="M0 100C0 146.203 31.3363 185.08 73.9129 196.555V3.44495C31.3363 14.9199 0 53.7973 0 100Z" fill="#0052B4"/>
<path d="M35.8694 34.7825V51.0868C35.8694 59.1911 42.4389 65.7606 50.5432 65.7606C58.6475 65.7606 65.217 59.1911 65.217 51.0868V34.7825H35.8694Z" fill="#D80027"/>
<path d="M50.5434 57.0652C47.247 57.0652 44.5653 54.3836 44.5653 51.0871V43.4785H56.5219V51.0871C56.5219 54.3836 53.8399 57.0652 50.5434 57.0652Z" fill="#F0F0F0"/>
<path d="M108.696 104.348H82.6088C82.6088 99.5453 78.7154 95.652 73.9131 95.652C69.1107 95.652 65.2174 99.5453 65.2174 104.348H39.1302C39.1302 109.15 43.3135 113.043 48.1154 113.043H47.826C47.826 117.846 51.7185 121.739 56.5217 121.739C56.5217 126.542 60.4142 130.435 65.2174 130.435H82.6088C87.4111 130.435 91.3045 126.542 91.3045 121.739C96.1068 121.739 100 117.846 100 113.043H99.7107C104.513 113.043 108.696 109.15 108.696 104.348Z" fill="#FFDA44"/>
<path d="M112.269 90.4324L109.986 94.0875L112.756 97.3875L108.574 96.3465L106.291 100L105.99 95.7012L101.809 94.6586L105.805 93.0446L105.504 88.7457L108.274 92.0473L112.269 90.4324Z" fill="#FFDA44"/>
<path d="M98.9478 79.2548L98.0529 83.47L101.785 85.6243L97.4986 86.0766L96.6029 90.2907L94.8498 86.354L90.5642 86.804L93.7669 83.9204L92.0146 79.9844L95.7459 82.1387L98.9478 79.2548Z" fill="#FFDA44"/>
<path d="M82.6075 73.3079L83.2071 77.5754L87.4505 78.3235L83.5778 80.2125L84.1774 84.4801L81.1844 81.3801L77.311 83.2692L79.3341 79.4641L76.3407 76.3649L80.5848 77.1126L82.6075 73.3079Z" fill="#FFDA44"/>
<path d="M65.2181 73.3079L67.2415 77.1126L71.4849 76.3645L68.4915 79.4649L70.5146 83.2696L66.6419 81.3801L63.6482 84.4793L64.2482 80.2125L60.3751 78.3239L64.6185 77.5754L65.2181 73.3079Z" fill="#FFDA44"/>
<path d="M48.8781 79.2548L52.0805 82.1387L55.8117 79.9844L54.0602 83.9219L57.2614 86.8044L52.9766 86.354L51.2231 90.2907L50.3285 86.0759L46.0426 85.6259L49.7738 83.4704L48.8781 79.2548Z" fill="#FFDA44"/>
<path d="M35.557 90.4325L39.5534 92.0474L42.3218 88.7462L42.0226 93.0458L46.0175 94.6603L41.8359 95.7017L41.5343 100L39.2527 96.3466L35.0714 97.3884L37.8413 94.0876L35.557 90.4325Z" fill="#FFDA44"/>
</svg>
