<svg width="200" height="200" viewBox="0 0 200 200" fill="none" xmlns="http://www.w3.org/2000/svg">
<g clip-path="url(#clip0)">
<path d="M100.001 0.000976562C155.229 0.000976562 200.001 44.7728 200.001 100.001C200.001 155.229 155.229 200.001 100.001 200.001C44.7728 200.001 0.00100708 155.229 0.00100708 100.001" fill="#FFDA44"/>
<path d="M97.8267 44.4449H183.156C177.537 36.0515 170.681 28.5594 162.849 22.2227H97.8267V44.4449Z" fill="#D80027"/>
<path d="M97.8267 88.8893H199.383C198.531 81.1839 196.804 73.7436 194.303 66.6675H97.8267V88.8893Z" fill="#D80027"/>
<path d="M5.69841 133.334H194.302C196.803 126.258 198.53 118.817 199.382 111.111H0.61795C1.46951 118.817 3.19685 126.258 5.69841 133.334Z" fill="#D80027"/>
<path d="M37.1515 177.778H162.848C170.68 171.442 177.537 163.949 183.155 155.556H16.8449C22.4636 163.949 29.3198 171.441 37.1515 177.778Z" fill="#D80027"/>
<path d="M100 0.000976562C44.7718 0.000976562 -0.000390622 44.7728 2.55604e-09 100.002C22.8226 100.001 44.7718 100.002 99.9998 100.002L100 0.000976562Z" fill="#4A1F63"/>
<path d="M82.6086 52.1741V60.8698H78.261V52.1741H69.5653V60.8698H65.2176V43.4784H47.8263V60.8698H43.4782V52.1741H34.7829V60.8698H30.4349V52.1741H21.7388V78.2608H91.3043V52.1741H82.6086Z" fill="#F0F0F0"/>
</g>
<defs>
<clipPath id="clip0">
<rect width="200" height="200" fill="white"/>
</clipPath>
</defs>
</svg>
