<svg width="200" height="200" viewBox="0 0 200 200" fill="none" xmlns="http://www.w3.org/2000/svg">
<path d="M100 200C155.228 200 200 155.228 200 100C200 44.7715 155.228 0 100 0C44.7715 0 0 44.7715 0 100C0 155.228 44.7715 200 100 200Z" fill="#F0F0F0"/>
<path d="M160.889 20.6649C125.087 -6.88433 74.9124 -6.88433 39.1108 20.6645L99.9999 81.5536L160.889 20.6649Z" fill="#D80027"/>
<path d="M99.9991 118.447L39.1108 179.335C74.9124 206.885 125.087 206.885 160.889 179.335L99.9999 118.446L99.9991 118.447Z" fill="#D80027"/>
<path d="M81.5535 100L20.6648 39.1109C-6.88437 74.9125 -6.88437 125.087 20.6648 160.889L81.5535 100Z" fill="#6DA544"/>
<path d="M118.447 100L179.335 160.889C206.884 125.087 206.884 74.9125 179.335 39.1109L118.447 100Z" fill="#6DA544"/>
<path d="M99.9999 143.478C124.012 143.478 143.478 124.012 143.478 100C143.478 75.9877 124.012 56.5219 99.9999 56.5219C75.9876 56.5219 56.5217 75.9877 56.5217 100C56.5217 124.012 75.9876 143.478 99.9999 143.478Z" fill="#F0F0F0"/>
<path d="M99.9998 69.5653L103.765 76.0872H111.296L107.53 82.6087L111.296 89.1305H103.765L99.9998 95.6524L96.2346 89.1305H88.7041L92.4693 82.6087L88.7041 76.0872H96.2346L99.9998 69.5653Z" fill="#D80027"/>
<path d="M80.8613 100L84.6265 106.522H92.157L88.3918 113.043L92.157 119.565H84.6265L80.8613 126.087L77.0957 119.565H69.5652L73.3304 113.043L69.5652 106.522H77.0957L80.8613 100Z" fill="#D80027"/>
<path d="M119.139 100L122.904 106.522H130.435L126.67 113.043L130.435 119.565H122.904L119.139 126.087L115.373 119.565H107.843L111.608 113.043L107.843 106.522H115.373L119.139 100Z" fill="#D80027"/>
</svg>
