<svg width="200" height="200" viewBox="0 0 200 200" fill="none" xmlns="http://www.w3.org/2000/svg">
<path d="M100 200C155.228 200 200 155.228 200 100C200 44.7715 155.228 0 100 0C44.7715 0 0 44.7715 0 100C0 155.228 44.7715 200 100 200Z" fill="#F0F0F0"/>
<path d="M29.289 29.2891C7.85736 50.7207 -1.80943 79.4606 0.281581 107.486L107.486 0.282043C79.4601 -1.80936 50.7206 7.85743 29.289 29.2891Z" fill="#FFDA44"/>
<path d="M35.707 176.59C74.9965 209.646 133.73 207.691 170.711 170.711C207.691 133.73 209.646 74.9961 176.591 35.707L35.707 176.59Z" fill="#0052B4"/>
<path d="M99.6435 95.9722L108.261 91.3042L99.6435 86.6363C97.6314 73.5656 87.304 63.2378 74.2333 61.2261L69.565 52.6082L64.897 61.2257C51.8267 63.2375 41.4994 73.5652 39.4869 86.6359L30.8689 91.3042L39.4865 95.9722C41.4986 109.043 51.8259 119.371 64.8966 121.382L69.565 130L74.2329 121.383C87.304 119.371 97.6314 109.043 99.6435 95.9722ZM69.5654 108.696C59.9603 108.696 52.174 100.91 52.174 91.3042C52.174 81.6988 59.9599 73.9128 69.5654 73.9128C79.1708 73.9128 86.9568 81.6988 86.9568 91.3042C86.9568 100.91 79.1705 108.696 69.5654 108.696Z" fill="black"/>
<path d="M69.5652 78.261L73.3305 84.7825H80.8613L77.0957 91.3043L80.8613 97.8262H73.3305L69.5652 104.348L65.8 97.8262H58.2695L62.0348 91.3043L58.2695 84.7825H65.8L69.5652 78.261Z" fill="#D80027"/>
</svg>
