<svg width="200" height="200" viewBox="0 0 200 200" fill="none" xmlns="http://www.w3.org/2000/svg">
<g clip-path="url(#clip0)">
<path d="M100 200C155.228 200 200 155.228 200 100C200 44.7715 155.228 0 100 0C44.7715 0 0 44.7715 0 100C0 155.228 44.7715 200 100 200Z" fill="#F0F0F0"/>
<path d="M100 0C79.9314 0 61.247 5.91602 45.5861 16.093L71.3044 33.3309L39.1306 49.9973L71.3044 66.6637L39.1306 83.3301L71.3044 99.9945L39.1306 116.661L71.3044 133.327L39.1306 149.995L71.3044 166.661L45.5829 183.904C61.2446 194.083 79.9302 200 100 200C155.228 200 200 155.228 200 100C200 44.7719 155.228 0 100 0V0Z" fill="#D80027"/>
</g>
<defs>
<clipPath id="clip0">
<rect width="200" height="200" fill="white"/>
</clipPath>
</defs>
</svg>
