<svg width="200" height="200" viewBox="0 0 200 200" fill="none" xmlns="http://www.w3.org/2000/svg">
<path d="M100 200C155.228 200 200 155.228 200 100C200 44.7715 155.228 0 100 0C44.7715 0 0 44.7715 0 100C0 155.228 44.7715 200 100 200Z" fill="#FFDA44"/>
<path d="M60.8694 65.2176H193.78C179.651 27.1375 142.996 0 99.9998 0C72.385 0 47.3877 11.1949 29.2924 29.2926L60.8694 65.2176Z" fill="#338AF3"/>
<path d="M60.8694 134.782H193.78C179.651 172.863 142.996 200 99.9998 200C72.385 200 47.3877 188.805 29.2924 170.707L60.8694 134.782Z" fill="#338AF3"/>
<path d="M29.2894 29.2891C-9.76296 68.3414 -9.76296 131.658 29.2894 170.711C45.4273 154.573 60.948 139.052 100 100L29.2894 29.2891Z" fill="black"/>
</svg>
