<svg width="200" height="200" viewBox="0 0 200 200" fill="none" xmlns="http://www.w3.org/2000/svg">
<g clip-path="url(#clip0)">
<path d="M100 200C155.228 200 200 155.228 200 100C200 44.7715 155.228 0 100 0C44.7715 0 0 44.7715 0 100C0 155.228 44.7715 200 100 200Z" fill="#FCFCFC"/>
<path d="M41.3043 92.7536L30.4348 73.0337L41.3043 53.6232L52.1739 73.0337L41.3043 92.7536Z" fill="#A2001D"/>
<path d="M19.5651 92.7536L8.69556 73.0337L19.5651 53.6232L30.4346 73.0337L19.5651 92.7536Z" fill="#A2001D"/>
<path d="M41.3043 146.377L30.4348 126.657L41.3043 107.246L52.1739 126.657L41.3043 146.377Z" fill="#A2001D"/>
<path d="M19.5651 146.377L8.69556 126.657L19.5651 107.246L30.4346 126.657L19.5651 146.377Z" fill="#A2001D"/>
<path d="M52.1736 19.411L49.0963 13.9156C43.5768 17.186 38.3998 20.9723 33.6299 25.2082L41.3041 39.1305L52.1736 19.411Z" fill="#A2001D"/>
<path d="M41.304 160.87L33.5486 174.72C38.3142 178.961 43.4876 182.753 49.0048 186.03L52.174 180.281L41.304 160.87Z" fill="#A2001D"/>
<path d="M60.8694 126.087V192.049C72.8885 197.165 86.1124 200 99.9999 200C142.996 200 179.651 172.863 193.78 134.782L60.8694 126.087Z" fill="#6DA544"/>
<path d="M193.78 134.782C197.8 123.949 200 112.232 200 100C200 44.7719 155.228 0 99.9999 0C86.1135 0 72.8885 2.8332 60.8694 7.94844V134.783H193.78V134.782Z" fill="#A2001D"/>
</g>
<defs>
<clipPath id="clip0">
<rect width="200" height="200" fill="white"/>
</clipPath>
</defs>
</svg>
