<svg width="200" height="200" viewBox="0 0 200 200" fill="none" xmlns="http://www.w3.org/2000/svg">
<path d="M200 100C200 65.6793 182.707 35.4008 156.362 17.3914L100 13.0433L43.6379 17.391C17.293 35.4008 0 65.6797 0 100C0 134.321 17.293 164.599 43.6379 182.609L100 186.957L156.362 182.609C182.707 164.599 200 134.321 200 100Z" fill="#0052B4"/>
<path d="M156.362 17.3914C140.313 6.42031 120.908 0 100 0C79.0926 0 59.6868 6.42031 43.6379 17.3914H156.362Z" fill="#A2001D"/>
<path d="M43.6379 182.609C59.6864 193.58 79.0926 200 100 200C120.908 200 140.313 193.58 156.362 182.609H43.6379Z" fill="#A2001D"/>
<path d="M100 147.826C126.414 147.826 147.826 126.414 147.826 100C147.826 73.5863 126.414 52.1738 100 52.1738C73.5863 52.1738 52.1738 73.5863 52.1738 100C52.1738 126.414 73.5863 147.826 100 147.826Z" fill="#F0F0F0"/>
<path d="M99.9998 139.131C121.611 139.131 139.13 121.611 139.13 100C139.13 78.3889 121.611 60.8696 99.9998 60.8696C78.3887 60.8696 60.8694 78.3889 60.8694 100C60.8694 121.611 78.3887 139.131 99.9998 139.131Z" fill="#6DA544"/>
<path d="M100 126.087C114.408 126.087 126.087 114.407 126.087 100C126.087 85.5924 114.408 73.9128 100 73.9128C85.5926 73.9128 73.913 85.5924 73.913 100C73.913 114.407 85.5926 126.087 100 126.087Z" fill="#F0F0F0"/>
<path d="M99.9998 93.4781L85.8694 100V110.87L99.9998 119.565L114.13 110.87V100L99.9998 93.4781Z" fill="#0052B4"/>
<path d="M85.8694 86.9567H114.13V100H85.8694V86.9567Z" fill="#FFDA44"/>
</svg>
