<svg width="200" height="200" viewBox="0 0 200 200" fill="none" xmlns="http://www.w3.org/2000/svg">
<path d="M200 100C200 155.228 155.228 200 100 200C44.7719 200 0 155.228 0 100C0 100.024 100 0.0109375 100 0C155.228 0 200 44.7719 200 100Z" fill="#D80027"/>
<path d="M100 47.8262V81.5539L65.2175 47.8262H100Z" fill="#0052B4"/>
<path d="M52.1741 100H81.5534L52.1741 60.8695L47.8264 91.3043L52.1741 100Z" fill="#0052B4"/>
<path d="M99.7322 100H99.9998C99.9998 99.9102 99.9998 99.8227 99.9998 99.7324C99.9107 99.8219 99.8216 99.9109 99.7322 100Z" fill="#F0F0F0"/>
<path d="M100 52.1738C100 34.5781 100 23.0488 100 0H99.9832C44.7621 0.009375 0 44.777 0 100H52.1738V70.6207L81.5531 100H99.7328C99.8219 99.9109 99.9109 99.8219 100 99.7324C100 92.9953 100 86.984 100 81.5539L70.6203 52.1738H100Z" fill="#F0F0F0"/>
<path d="M50.592 13.0433C34.9518 21.9492 21.949 34.9515 13.0436 50.5918V104.348H39.1307V39.1312V39.1304H104.348C104.348 30.9027 104.348 23.0644 104.348 13.0433H50.592Z" fill="#D80027"/>
<path d="M103.976 91.6773L64.471 52.1738H52.1741V52.1746L103.975 103.975H103.975C103.976 103.975 103.976 95.4961 103.976 91.6773Z" fill="#D80027"/>
<path d="M113.044 52.1738V99.9996C113.044 123.296 173.913 123.296 173.913 99.9996V52.1738H113.044Z" fill="#F3F3F3"/>
<path d="M113.044 100V99.9996C113.044 123.297 143.478 130.435 143.478 130.435C143.478 130.435 173.913 123.297 173.913 99.9996V100H113.044Z" fill="#6DA544"/>
<path d="M143.478 80.8696L129.348 86.9567V100L143.478 108.696L157.609 100V86.9567L143.478 80.8696Z" fill="#A2001D"/>
<path d="M129.348 73.9128H157.609V86.9562H129.348V73.9128Z" fill="#338AF3"/>
</svg>
