<svg width="200" height="200" viewBox="0 0 200 200" fill="none" xmlns="http://www.w3.org/2000/svg">
<g clip-path="url(#clip0)">
<path d="M200 100C200 87.7681 197.8 76.0505 193.78 65.2177L100 60.8696L6.21992 65.2173C2.2 76.0505 0 87.7681 0 100C0 112.232 2.2 123.95 6.21992 134.783L100 139.131L193.78 134.783C197.8 123.95 200 112.232 200 100Z" fill="#FFDA44"/>
<path d="M100 200C142.997 200 179.651 172.863 193.78 134.782H6.22002C20.3493 172.863 57.0036 200 100 200Z" fill="#6DA544"/>
<path d="M6.22002 65.2176H193.781C179.651 27.1375 142.997 0 100 0C57.0036 0 20.3493 27.1375 6.22002 65.2176Z" fill="#D80027"/>
</g>
<defs>
<clipPath id="clip0">
<rect width="200" height="200" fill="white"/>
</clipPath>
</defs>
</svg>
