<svg width="200" height="200" viewBox="0 0 200 200" fill="none" xmlns="http://www.w3.org/2000/svg">
<path d="M100 200C155.228 200 200 155.228 200 100C200 44.7715 155.228 0 100 0C44.7715 0 0 44.7715 0 100C0 155.228 44.7715 200 100 200Z" fill="#6DA544"/>
<path d="M100 39.1304L182.609 99.9999L100 160.869L17.3914 99.9999L100 39.1304Z" fill="#FFDA44"/>
<path d="M100 134.782C119.21 134.782 134.782 119.21 134.782 100C134.782 80.7902 119.21 65.2175 100 65.2175C80.7902 65.2175 65.2175 80.7902 65.2175 100C65.2175 119.21 80.7902 134.782 100 134.782Z" fill="#F0F0F0"/>
<path d="M82.6086 97.8261C76.5602 97.8261 70.723 98.746 65.2285 100.453C65.4719 119.453 80.9422 134.783 100 134.783C111.784 134.783 122.192 128.917 128.484 119.951C117.72 106.476 101.157 97.8261 82.6086 97.8261Z" fill="#0052B4"/>
<path d="M134.138 106.664C134.557 104.506 134.783 102.28 134.783 99.9999C134.783 80.7898 119.21 65.2175 100 65.2175C85.6668 65.2175 73.3621 73.8898 68.0371 86.2718C72.7441 85.2964 77.6176 84.7828 82.6094 84.7828C102.811 84.7824 121.087 93.18 134.138 106.664Z" fill="#0052B4"/>
</svg>
