<svg width="200" height="200" viewBox="0 0 200 200" fill="none" xmlns="http://www.w3.org/2000/svg">
<path d="M143.478 9.92266C130.331 3.56563 115.582 0 100 0C84.418 0 69.6688 3.56563 56.5219 9.92266L47.8262 100L56.5219 190.077C69.6688 196.434 84.418 200 100 200C115.582 200 130.331 196.434 143.478 190.077L152.174 100L143.478 9.92266Z" fill="#FFDA44"/>
<path d="M56.5219 9.92615C23.0727 26.1004 0 60.3539 0 100C0 139.646 23.0727 173.9 56.5219 190.074V9.92615Z" fill="#0052B4"/>
<path d="M143.478 9.92615V190.074C176.927 173.9 200 139.646 200 100C200 60.3543 176.927 26.1004 143.478 9.92615Z" fill="#0052B4"/>
<path d="M130.435 60.8695L136.268 63.7859L130.435 60.8695L124.601 57.9531C124.25 58.6566 116.633 74.1539 115.389 97.8262H106.522V60.8695L100 52.1738L93.4783 60.8695V97.8262H84.6115C83.3669 74.1539 75.7505 58.6566 75.3986 57.9531L63.7322 63.7863C63.8126 63.9465 71.7396 80.0813 71.7396 104.348V110.87H93.4787V147.827H106.522V110.87H128.261V104.348C128.261 91.8016 130.432 81.4563 132.253 74.9867C134.239 67.932 136.256 63.8121 136.276 63.7711L130.435 60.8695Z" fill="black"/>
</svg>
