<svg width="200" height="200" viewBox="0 0 200 200" fill="none" xmlns="http://www.w3.org/2000/svg">
<g clip-path="url(#clip0)">
<path d="M0 100C0 44.7719 44.7719 0 100 0C155.228 0 200 44.7719 200 100H0Z" fill="#F0F0F0"/>
<path d="M73.9128 94.5333L68.446 100H73.9128V94.5333Z" fill="#0052B4"/>
<path d="M126.087 94.5337V100H131.553L126.087 94.5337Z" fill="#0052B4"/>
<path d="M2.88516 76.0875C1.0043 83.75 0 91.7574 0 100H31.5535L55.466 76.0875H2.88516Z" fill="#0052B4"/>
<path d="M144.533 76.0875L168.446 100H200C200 91.7574 198.995 83.75 197.115 76.0875H144.533Z" fill="#0052B4"/>
<path d="M138.384 76.0875H126.087L150 100H162.297L138.384 76.0875Z" fill="#D80027"/>
<path d="M73.9129 88.384V76.0875H73.9121L49.9996 100H62.2973L73.9129 88.384Z" fill="#D80027"/>
<path d="M46.8445 15.2898C42.7226 17.882 38.8035 20.7656 35.1156 23.9128H55.4672L46.8445 15.2898Z" fill="#0052B4"/>
<path d="M164.884 23.9128C161.197 20.7652 157.278 17.8816 153.156 15.2898L144.534 23.9128H164.884Z" fill="#0052B4"/>
<path d="M113.043 63.0434H192.946C189.165 53.5438 183.969 44.7633 177.62 36.9562H113.044H113.043V0.846484C108.774 0.290625 104.421 0 99.9999 0C95.5784 0 91.2261 0.290625 86.9565 0.846484V36.9559V36.9562H22.3796C16.0308 44.7633 10.8347 53.5438 7.0542 63.0434H86.9558H86.9562V100H113.043V63.0438V63.0434Z" fill="#D80027"/>
<path d="M73.9128 23.9128V23.9124L58.8374 8.83704C56.0503 10.0976 53.3339 11.4863 50.6906 12.9874L61.6159 23.9128H73.9128Z" fill="#D80027"/>
<path d="M126.087 23.9129L141.163 8.8375C138.295 7.54102 135.355 6.37852 132.351 5.35156L126.087 11.616V23.9129Z" fill="#D80027"/>
<path d="M200 100C200 155.228 155.228 200 100 200C44.7719 200 0 155.228 0 100H200Z" fill="#F0F0F0"/>
<path d="M183.332 112.754C174.999 112.754 174.999 105.134 166.665 105.134C158.332 105.134 158.332 112.754 149.999 112.754C141.666 112.754 141.666 105.134 133.333 105.134C125 105.134 125 112.754 116.666 112.754C108.333 112.754 108.332 105.134 99.9985 105.134C91.6653 105.134 91.6653 112.754 83.3325 112.754C75.0004 112.754 75.0004 105.134 66.6672 105.134C58.3333 105.134 58.3333 112.754 49.9993 112.754C41.6653 112.754 41.6653 105.134 33.3313 105.134C24.9993 105.134 24.9993 112.754 16.6661 112.754C8.37778 112.754 8.32974 105.218 0.130127 105.138C0.360986 109.712 0.90708 114.203 1.73286 118.594C8.37505 119.57 8.95669 126.087 16.6665 126.087C24.9997 126.087 24.9997 118.468 33.3317 118.468C41.6657 118.468 41.6657 126.087 49.9997 126.087C58.3336 126.087 58.3336 118.468 66.6676 118.468C75.0008 118.468 75.0008 126.087 83.3329 126.087C91.6661 126.087 91.6661 118.468 99.9989 118.468C108.333 118.468 108.333 126.087 116.667 126.087C125.001 126.087 125.001 118.468 133.334 118.468C141.667 118.468 141.667 126.087 150 126.087C158.332 126.087 158.333 118.468 166.666 118.468C175 118.468 175 126.087 183.332 126.087C191.043 126.087 191.625 119.571 198.267 118.594C199.093 114.203 199.639 109.712 199.871 105.138C191.67 105.219 191.621 112.754 183.332 112.754Z" fill="#0052B4"/>
<path d="M166.665 131.221C158.332 131.221 158.332 138.841 149.999 138.841C141.666 138.841 141.666 131.221 133.333 131.221C125 131.221 125 138.841 116.666 138.841C108.332 138.841 108.332 131.221 99.9985 131.221C91.6653 131.221 91.6653 138.841 83.3325 138.841C75.0004 138.841 75.0004 131.221 66.6672 131.221C58.3333 131.221 58.3333 138.841 49.9993 138.841C41.6653 138.841 41.6653 131.221 33.3313 131.221C24.9993 131.221 24.9993 138.841 16.6661 138.841C10.7118 138.841 9.01099 134.952 5.4856 132.73C7.83247 139.511 10.8856 145.961 14.5625 151.991C15.202 152.109 15.8981 152.174 16.6661 152.174C24.9993 152.174 24.9993 144.555 33.3313 144.555C41.6653 144.555 41.6653 152.174 49.9993 152.174C58.3333 152.174 58.3333 144.555 66.6672 144.555C75.0004 144.555 75.0004 152.174 83.3325 152.174C91.6657 152.174 91.6657 144.555 99.9985 144.555C108.332 144.555 108.332 152.174 116.666 152.174C125 152.174 125 144.555 133.333 144.555C141.666 144.555 141.666 152.174 149.999 152.174C158.332 152.174 158.332 144.555 166.665 144.555C174.999 144.555 174.999 152.174 183.332 152.174C184.1 152.174 184.797 152.109 185.436 151.991C189.113 145.961 192.166 139.511 194.514 132.73C190.988 134.951 189.288 138.841 183.332 138.841C174.999 138.841 174.999 131.221 166.665 131.221Z" fill="#0052B4"/>
<path d="M199.946 96.8582C199.955 97.1359 199.965 97.4137 199.971 97.6926C199.965 97.4141 199.954 97.1359 199.946 96.8582Z" fill="#F0F0F0"/>
<path d="M0.0291748 97.6922C0.0358154 97.4136 0.0451904 97.1359 0.0537842 96.8578C0.0455811 97.1359 0.0354248 97.414 0.0291748 97.6922Z" fill="#F0F0F0"/>
<path d="M0 99.9999C0 99.2285 0.0117188 98.4601 0.0292969 97.6921C0.0113281 98.4601 0 99.2285 0 99.9999Z" fill="#F0F0F0"/>
<path d="M0 100C0 101.821 0.0515625 103.631 0.148828 105.429C8.32969 105.52 8.38398 113.043 16.6664 113.043C24.9996 113.043 24.9996 105.425 33.3316 105.425C41.6656 105.425 41.6656 113.043 49.9996 113.043C58.3336 113.043 58.3336 105.425 66.6676 105.425C75.0008 105.425 75.0008 113.043 83.3328 113.043C91.666 113.043 91.666 105.425 99.9988 105.425C108.333 105.425 108.333 113.043 116.667 113.043C125.001 113.043 125.001 105.425 133.334 105.425C141.667 105.425 141.667 113.043 150 113.043C158.332 113.043 158.333 105.425 166.666 105.425C175 105.425 175 113.043 183.332 113.043C191.616 113.043 191.67 105.52 199.852 105.429C199.948 103.631 200 101.821 200 100H0Z" fill="#F0F0F0"/>
<path d="M199.971 97.6921C199.988 98.4593 200 99.2281 200 99.9999C200 99.2285 199.989 98.4601 199.971 97.6921Z" fill="#F0F0F0"/>
<path d="M166.665 157.308C158.332 157.308 158.332 164.928 149.999 164.928C141.666 164.928 141.666 157.308 133.333 157.308C125 157.308 125 164.928 116.666 164.928C108.332 164.928 108.332 157.308 99.9983 157.308C91.6651 157.308 91.6651 164.928 83.3323 164.928C75.0003 164.928 75.0003 157.308 66.6671 157.308C58.3331 157.308 58.3331 164.928 49.9991 164.928C41.6651 164.928 41.6651 157.308 33.3311 157.308C27.5757 157.308 25.7948 160.943 22.4979 163.191C31.2436 173.905 42.1694 182.766 54.5932 189.11L99.9999 186.823L145.406 189.11C157.83 182.765 168.755 173.905 177.501 163.192C174.203 160.943 172.422 157.308 166.665 157.308Z" fill="#0052B4"/>
<path d="M155.462 159.693L125.042 165.511L121.188 134.783L100 157.382L78.8125 134.782L74.9571 165.511L44.5387 159.693L59.4563 186.822L54.5844 189.114C68.2125 196.074 83.6473 200 100 200C116.353 200 131.788 196.074 145.416 189.114L140.546 186.823L155.462 159.693Z" fill="#FFDA44"/>
</g>
<defs>
<clipPath id="clip0">
<rect width="200" height="200" fill="white"/>
</clipPath>
</defs>
</svg>
