<svg width="200" height="200" viewBox="0 0 200 200" fill="none" xmlns="http://www.w3.org/2000/svg">
<path d="M100.001 199.986C155.221 199.986 199.986 155.221 199.986 100C199.986 44.7801 155.221 0.0151367 100.001 0.0151367C44.7806 0.0151367 0.015625 44.7801 0.015625 100C0.015625 155.221 44.7806 199.986 100.001 199.986Z" fill="#F0F0F0"/>
<path d="M13.4104 50.0072C8.89739 57.823 5.56841 65.9943 3.35156 74.3175L170.565 170.859C176.665 164.777 182.078 157.808 186.589 149.993L13.4104 50.0072Z" fill="black"/>
<path d="M149.993 13.41C109.986 -9.68773 60.6564 -1.98951 29.4343 29.1408L196.648 125.682C207.997 83.0783 189.999 36.5082 149.993 13.41Z" fill="#FFDA44"/>
<path d="M50.0075 186.59C90.0138 209.688 139.344 201.989 170.566 170.859L3.35139 74.3176C-7.9969 116.922 10.0004 163.492 50.0075 186.59Z" fill="#FFDA44"/>
<path d="M128.257 89.132C128.257 104.737 115.606 117.389 100 117.389C84.3945 117.389 71.7434 104.738 71.7434 89.132C71.7434 84.2663 72.9735 79.6877 75.14 75.6903C69.0082 81.9611 65.2226 90.5363 65.2226 99.9998C65.2226 119.207 80.7928 134.778 100 134.778C119.208 134.778 134.778 119.207 134.778 99.9998C134.778 90.5363 130.993 81.9611 124.861 75.6903C127.027 79.6884 128.257 84.2663 128.257 89.132Z" fill="#D80027"/>
<path d="M93.4803 56.5286H106.522V121.737H93.4803V56.5286Z" fill="#D80027"/>
<path d="M121.736 69.5698H78.2648C78.2648 72.5711 80.8793 75.0039 83.8802 75.0039H83.6989C83.6989 78.0052 86.1322 80.438 89.133 80.438C89.133 83.4393 91.5663 85.8721 94.5671 85.8721H105.435C108.436 85.8721 110.869 83.4393 110.869 80.438C113.87 80.438 116.303 78.0052 116.303 75.0039H116.122C119.122 75.0035 121.736 72.5715 121.736 69.5698Z" fill="#D80027"/>
<path d="M69.5708 126.084H130.431V139.125H69.5708V126.084Z" fill="#D80027"/>
<path d="M113.042 130.431H139.125V143.473H113.042V130.431Z" fill="#D80027"/>
<path d="M60.8764 130.431H86.9594V143.473H60.8764V130.431Z" fill="#D80027"/>
</svg>
