<svg width="200" height="200" viewBox="0 0 200 200" fill="none" xmlns="http://www.w3.org/2000/svg">
<g clip-path="url(#clip0)">
<path d="M170.711 170.711C131.659 209.763 68.3421 209.763 29.2894 170.711C-9.76299 131.659 -9.76299 68.3417 29.2894 29.289C29.3034 29.289 119.156 2.7394 158.208 41.7917C197.261 80.8441 170.738 170.684 170.711 170.711Z" fill="#FFDA44"/>
<path d="M170.71 170.711C209.763 131.659 209.763 68.3418 170.71 29.289C131.658 -9.7637 68.3415 -9.76331 29.2888 29.289L170.71 170.711Z" fill="#D80027"/>
<path d="M126.139 126.149C122.031 127.762 117.258 127.591 113.117 125.267C105.801 121.161 103.189 111.866 107.296 104.549L106.049 103.85C118.577 100.829 127.846 89.4578 127.683 76.039C127.582 67.6964 123.854 60.2328 118.024 55.1257L108.894 64.4796C112.345 67.2304 114.583 71.45 114.64 76.1972C114.742 84.5878 107.999 91.4968 99.6088 91.598L99.6264 93.0265C90.7463 83.6882 76.2651 81.3472 64.7256 88.1972C57.5514 92.4566 52.9522 99.416 51.444 107.019L64.1096 110.25C64.7662 105.885 67.301 101.837 71.3834 99.4136C78.5987 95.1304 87.9533 97.5164 92.2365 104.731L93.4662 104.002C89.8186 116.36 95.0315 130.073 106.734 136.641C114.01 140.725 122.337 141.228 129.676 138.733L126.139 126.149ZM99.7139 100.292L99.7131 100.292L99.7139 100.292Z" fill="#FF9811"/>
<path d="M137.026 67.7269L129.958 92.95L108.751 89.0339L95.0998 60.8953L58.2221 73.9816L55.3139 65.7863L45.6654 64.5976L52.9354 85.0855L78.3139 78.5949L85.526 98.9187L67.9822 124.81L97.7545 150.203L92.1111 156.819L95.9061 165.77L110.015 149.229L91.7045 130.496L105.699 114.089L136.894 116.336L143.999 77.8558L152.55 79.4351L158.405 71.6734L137.026 67.7269ZM99.9924 100.68V100.681V100.68Z" fill="#FFEACF"/>
</g>
<defs>
<clipPath id="clip0">
<rect width="200" height="200" fill="white"/>
</clipPath>
</defs>
</svg>
