<svg width="200" height="200" viewBox="0 0 200 200" fill="none" xmlns="http://www.w3.org/2000/svg">
<g clip-path="url(#clip0)">
<path d="M4.72236 69.5648C1.65908 79.1621 9.77252e-05 89.3859 0.00048835 99.9996C9.77252e-05 110.612 1.65908 120.837 4.72275 130.434L100 134.783L195.278 130.434C198.341 120.837 200 110.612 200 100C200 89.3867 198.341 79.1621 195.278 69.5648L100 65.2172L4.72236 69.5648Z" fill="#F0F0F0"/>
<path d="M200 99.9999C200 94.0675 199.48 88.2566 198.489 82.6082H1.51094C0.519531 88.2566 0 94.0667 0 99.9995C0 105.932 0.519922 111.743 1.51094 117.391H198.489C199.48 111.742 200 105.932 200 99.9999Z" fill="black"/>
<path d="M100.001 200C144.616 200 182.401 170.78 195.278 130.434H4.7229C17.5999 170.779 55.3854 199.999 100.001 200Z" fill="#338AF3"/>
<path d="M100.001 0.000366227C55.3853 0.000366227 17.6001 29.2203 4.72241 69.5648L195.277 69.5652C182.401 29.2203 144.615 -0.000415023 100.001 0.000366227Z" fill="#338AF3"/>
</g>
<defs>
<clipPath id="clip0">
<rect width="200" height="200" fill="white"/>
</clipPath>
</defs>
</svg>
