<svg width="200" height="200" viewBox="0 0 200 200" fill="none" xmlns="http://www.w3.org/2000/svg">
<g clip-path="url(#clip0)">
<path d="M100 200C155.228 200 200 155.228 200 100C200 44.7715 155.228 0 100 0C44.7715 0 0 44.7715 0 100C0 155.228 44.7715 200 100 200Z" fill="#F0F0F0"/>
<path d="M187.841 52.1739C174.919 28.4907 152.699 10.6122 126.087 3.43951L121.739 52.1739H187.841Z" fill="#0052B4"/>
<path d="M12.159 52.1739H78.2606L73.9129 3.43951C47.3008 10.6122 25.0813 28.4911 12.159 52.1739Z" fill="#0052B4"/>
<path d="M121.739 100V147.826H187.84C195.592 133.619 200 117.324 200 100H121.739Z" fill="#6DA544"/>
<path d="M78.2609 100H0C0 117.324 4.40742 133.619 12.159 147.826H78.2605V100H78.2609Z" fill="#6DA544"/>
<path d="M12.159 147.826C25.0813 171.509 47.3008 189.388 73.9129 196.561L78.2606 153.94L12.159 147.826Z" fill="#FFDA44"/>
<path d="M126.087 196.561C152.699 189.388 174.919 171.509 187.841 147.826L121.739 153.939L126.087 196.561Z" fill="#FFDA44"/>
<path d="M121.739 153.939L187.841 147.826H121.739V153.939Z" fill="#FFDA44"/>
<path d="M78.261 147.826H12.159L78.261 153.939V147.826Z" fill="#FFDA44"/>
<path d="M100 0C90.974 0 82.231 1.20313 73.913 3.44492V196.555C82.231 198.797 90.974 200 100 200C109.026 200 117.769 198.797 126.087 196.555V3.44492C117.769 1.20313 109.026 0 100 0V0Z" fill="#D80027"/>
<path d="M53.788 21.739L56.4857 30.0425H65.2173L58.1541 35.1746L60.8521 43.4781L53.788 38.3464L46.7244 43.4781L49.4232 35.1746L42.3599 30.0425H51.0908L53.788 21.739Z" fill="#FFDA44"/>
</g>
<defs>
<clipPath id="clip0">
<rect width="200" height="200" fill="white"/>
</clipPath>
</defs>
</svg>
