<svg width="200" height="200" viewBox="0 0 200 200" fill="none" xmlns="http://www.w3.org/2000/svg">
<path d="M100 200C155.228 200 200 155.228 200 100C200 44.7715 155.228 0 100 0C44.7715 0 0 44.7715 0 100C0 155.228 44.7715 200 100 200Z" fill="#F0F0F0"/>
<path d="M200 99.9999C200 60.3539 176.928 26.0976 143.478 9.92261V190.077C176.928 173.902 200 139.646 200 99.9999Z" fill="#D80027"/>
<path d="M0 99.9999C0 139.646 23.0723 173.902 56.5219 190.077V9.92261C23.0723 26.0976 0 60.3539 0 99.9999Z" fill="#D80027"/>
<path d="M117.391 113.043L134.782 104.348L126.087 99.9999V91.3042L108.696 99.9999L117.391 82.6085H108.696L100 69.5651L91.3042 82.6085H82.6085L91.3042 99.9999L73.9128 91.3042V99.9999L65.2175 104.348L82.6085 113.043L78.2609 121.739H95.6523V134.782H104.348V121.739H121.739L117.391 113.043Z" fill="#D80027"/>
</svg>
