<svg width="200" height="200" viewBox="0 0 200 200" fill="none" xmlns="http://www.w3.org/2000/svg">
<g clip-path="url(#clip0)">
<path d="M99.9998 0C87.7678 0 76.0502 2.20039 65.2174 6.21992L60.8694 100L65.217 193.78C76.0502 197.8 87.7678 200 99.9998 200C112.232 200 123.949 197.8 134.782 193.78L139.13 100L134.783 6.21992C123.949 2.20039 112.232 0 99.9998 0V0Z" fill="#338AF3"/>
<path d="M200 99.9999C200 57.0034 172.863 20.3491 134.782 6.21985V193.78C172.863 179.651 200 142.996 200 99.9999Z" fill="#FFDA44"/>
<path d="M65.2176 193.78V6.21985C27.1375 20.3491 0 57.0034 0 99.9999C0 142.996 27.1375 179.651 65.2176 193.78Z" fill="#F0F0F0"/>
</g>
<defs>
<clipPath id="clip0">
<rect width="200" height="200" fill="white"/>
</clipPath>
</defs>
</svg>
