<svg width="200" height="200" viewBox="0 0 200 200" fill="none" xmlns="http://www.w3.org/2000/svg">
<path d="M100 200C155.228 200 200 155.228 200 100C200 44.7715 155.228 0 100 0C44.7715 0 0 44.7715 0 100C0 155.228 44.7715 200 100 200Z" fill="#F0F0F0"/>
<path d="M100 200C130.309 200 157.466 186.514 175.805 165.218H24.1949C42.5336 186.514 69.691 200 100 200Z" fill="#0052B4"/>
<path d="M200 100C200 44.7719 155.228 0 100 0C44.7719 0 0 44.7719 0 100C0 109.026 1.20313 117.769 3.44492 126.087H196.555C198.797 117.769 200 109.026 200 100Z" fill="#0052B4"/>
<path d="M7.94836 139.131C9.8761 143.66 12.1296 148.017 14.6777 152.174H185.323C187.87 148.016 190.124 143.66 192.052 139.131H7.94836Z" fill="#D80027"/>
<path d="M71.4804 106.522L73.0992 111.504H78.3379L74.1 114.583L75.7187 119.565L71.4804 116.486L67.2422 119.565L68.8613 114.583L64.6234 111.504H69.8621L71.4804 106.522Z" fill="#FFDA44"/>
<path d="M71.4804 171.739L73.0992 176.722H78.3379L74.1 179.801L75.7187 184.783L71.4804 181.704L67.2422 184.783L68.8613 179.801L64.6234 176.722H69.8621L71.4804 171.739Z" fill="#FFDA44"/>
<path d="M41.1225 149.683L42.7413 154.665H47.98L43.7421 157.744L45.3608 162.727L41.1225 159.647L36.8843 162.727L38.5038 157.744L34.2655 154.665H39.5038L41.1225 149.683Z" fill="#FFDA44"/>
<path d="M52.7181 113.044L54.3369 118.026H59.5752L55.3377 121.105L56.9564 126.087L52.7181 123.008L48.4799 126.087L50.0994 121.105L45.8607 118.026H51.0994L52.7181 113.044Z" fill="#FFDA44"/>
<path d="M34.2655 133.561L39.503 133.561L41.1221 128.578L42.7413 133.561L47.98 133.56L43.7417 136.64L45.3608 141.622L41.1221 138.543L36.8843 141.621L38.503 136.639L34.2655 133.561Z" fill="#FFDA44"/>
<path d="M48.4803 177.309L50.099 172.328L45.8604 169.249H51.099L52.7182 164.266L54.3373 169.248H59.5756L55.3373 172.327L56.9561 177.31L52.7178 174.23L48.4803 177.309Z" fill="#FFDA44"/>
<path d="M101.827 149.683L100.209 154.665H94.9698L99.2073 157.744L97.5886 162.727L101.827 159.647L106.065 162.727L104.446 157.744L108.684 154.665H103.446L101.827 149.683Z" fill="#FFDA44"/>
<path d="M90.2309 113.044L88.6126 118.026H83.3739L87.6114 121.105L85.9926 126.087L90.2309 123.008L94.4692 126.087L92.8501 121.105L97.0883 118.026H91.8497L90.2309 113.044Z" fill="#FFDA44"/>
<path d="M108.684 133.561L103.446 133.561L101.827 128.578L100.209 133.561L94.9698 133.56L99.2077 136.64L97.5886 141.622L101.827 138.543L106.065 141.621L104.446 136.639L108.684 133.561Z" fill="#FFDA44"/>
<path d="M94.4689 177.309L92.8505 172.328L97.0888 169.249H91.8501L90.231 164.266L88.6122 169.248H83.3735L87.6118 172.327L85.9931 177.31L90.2313 174.23L94.4689 177.309Z" fill="#FFDA44"/>
</svg>
