<svg width="200" height="200" viewBox="0 0 200 200" fill="none" xmlns="http://www.w3.org/2000/svg">
<path d="M100 200C155.228 200 200 155.228 200 100C200 44.7715 155.228 0 100 0C44.7715 0 0 44.7715 0 100C0 155.228 44.7715 200 100 200Z" fill="#6DA544"/>
<path d="M153.509 143.478L156.254 149.216L162.45 147.784L159.675 153.507L164.659 157.458L158.454 158.857L158.472 165.217L153.509 161.238L148.548 165.217L148.565 158.857L142.361 157.458L147.344 153.507L144.569 147.784L150.765 149.216L153.509 143.478Z" fill="#FFDA44"/>
<path d="M127.981 82.6086L130.726 88.3465L136.923 86.9141L134.147 92.6375L139.131 96.5891L132.926 97.9875L132.943 104.348L127.981 100.369L123.02 104.348L123.036 97.9875L116.833 96.5891L121.816 92.6375L119.04 86.9141L125.238 88.3465L127.981 82.6086Z" fill="#FFDA44"/>
<path d="M153.509 47.8261L156.253 53.564L162.45 52.1312L159.676 57.8547L164.659 61.8066L158.454 63.2047L158.471 69.5652L153.509 65.5859L148.548 69.5652L148.565 63.2047L142.361 61.8066L147.344 57.8547L144.569 52.1312L150.765 53.564L153.509 47.8261Z" fill="#FFDA44"/>
<path d="M175.807 73.9127L178.552 79.6506L184.749 78.2182L181.973 83.9416L186.957 87.8932L180.752 89.2916L180.77 95.6522L175.807 91.6729L170.846 95.6522L170.862 89.2916L164.659 87.8932L169.642 83.9416L166.866 78.2182L173.063 79.6506L175.807 73.9127Z" fill="#FFDA44"/>
<path d="M159.863 104.348L162.022 110.991H169.006L163.355 115.097L165.514 121.739L159.863 117.634L154.212 121.739L156.371 115.097L150.72 110.991H157.704L159.863 104.348Z" fill="#FFDA44"/>
<path d="M110.869 128.261C95.2612 128.261 82.6081 115.608 82.6081 100C82.6081 84.3922 95.2608 71.739 110.869 71.739C115.736 71.739 120.315 72.9699 124.313 75.1359C118.041 69.0023 109.465 65.2172 99.9991 65.2172C80.7897 65.2172 65.217 80.7898 65.217 99.9996C65.217 119.209 80.7897 134.782 99.9991 134.782C109.465 134.782 118.041 130.997 124.312 124.863C120.315 127.03 115.736 128.261 110.869 128.261Z" fill="#FFDA44"/>
<path d="M62.8848 39.1304C59.877 33.9336 54.2618 30.4347 47.8258 30.4347C41.3899 30.4347 35.7747 33.9336 32.7668 39.1304H62.8848Z" fill="#FFDA44"/>
<path d="M62.9429 39.2308L47.8261 54.3476L32.7093 39.2308C31.2644 41.7663 30.4351 44.6987 30.4351 47.8261C30.4351 57.4312 38.2214 65.2175 47.8265 65.2175C57.4315 65.2175 65.2179 57.4316 65.2179 47.8261C65.2175 44.6987 64.3878 41.7663 62.9429 39.2308Z" fill="#FFDA44"/>
<path d="M43.478 50V64.6695C44.8675 65.027 46.3245 65.2172 47.8257 65.2172C49.3269 65.2172 50.7839 65.0266 52.1733 64.6695V50H43.478Z" fill="#A2001D"/>
</svg>
