<svg width="200" height="200" viewBox="0 0 200 200" fill="none" xmlns="http://www.w3.org/2000/svg">
<path d="M100 200C155.228 200 200 155.228 200 100C200 44.7715 155.228 0 100 0C44.7715 0 0 44.7715 0 100C0 155.228 44.7715 200 100 200Z" fill="#F0F0F0"/>
<path d="M99.9997 0C72.3853 0 47.3853 11.193 29.2888 29.2891L99.9997 100V0Z" fill="black"/>
<path d="M0 100C0 127.614 11.193 152.614 29.2891 170.711L100 100H0Z" fill="black"/>
<path d="M100 200C127.614 200 152.614 188.807 170.711 170.711L100 100V200Z" fill="black"/>
<path d="M200 100C200 72.3855 188.807 47.3855 170.711 29.2891L100 100H200Z" fill="black"/>
<path d="M65.2176 69.5653L100 73.9141L134.782 69.5653V48.6958L120.87 55.6524L100 34.7825L79.1305 55.6524L65.2176 48.6958V69.5653Z" fill="#FFDA44"/>
<path d="M100 152.174C80.8207 152.174 65.2176 136.57 65.2176 117.391V82.6104L78.2609 69.5659H121.739L134.782 82.6104V117.391C134.782 136.57 119.179 152.174 100 152.174Z" fill="#D80027"/>
<path d="M100 139.13C88.0131 139.13 78.2612 129.378 78.2612 117.391V82.6094H121.739V117.391C121.739 129.378 111.987 139.13 100 139.13Z" fill="#F0F0F0"/>
<path d="M65.2176 69.5653H78.2609V82.6087H65.2176V69.5653Z" fill="#FFDA44"/>
<path d="M121.739 69.5653H134.782V82.6087H121.739V69.5653Z" fill="#FFDA44"/>
<path d="M121.739 97.8263H134.782V110.87H121.739V97.8263Z" fill="#FFDA44"/>
<path d="M65.2176 97.8263H78.2609V110.87H65.2176V97.8263Z" fill="#FFDA44"/>
<path d="M100 139.131C97.7283 139.131 95.5381 138.779 93.4783 138.13V151.552C95.5924 151.955 97.7705 152.174 100 152.174C102.23 152.174 104.408 151.955 106.522 151.552V138.13C104.462 138.779 102.272 139.131 100 139.131Z" fill="#FFDA44"/>
<path d="M78.5513 120.921L68.142 131.33C69.9467 135.439 72.5217 139.134 75.6865 142.231L84.9053 133.013C81.6154 129.834 79.3236 125.631 78.5513 120.921Z" fill="#FFDA44"/>
<path d="M131.858 131.33L121.449 120.921C120.676 125.631 118.385 129.834 115.095 133.014L124.314 142.232C127.478 139.134 130.053 135.439 131.858 131.33Z" fill="#FFDA44"/>
<path d="M95.6529 89.8555V97.1016C95.6529 99.5023 97.5994 101.449 100.001 101.449C102.402 101.449 104.348 99.5023 104.348 97.1016V89.8555H95.6529Z" fill="#0052B4"/>
<path d="M95.6529 118.841V126.087C95.6529 128.488 97.5994 130.435 100.001 130.435C102.402 130.435 104.348 128.488 104.348 126.087V118.841H95.6529Z" fill="#0052B4"/>
<path d="M108.696 104.348V111.595C108.696 113.995 110.642 115.942 113.044 115.942C115.445 115.942 117.391 113.995 117.391 111.595V104.348H108.696Z" fill="#0052B4"/>
<path d="M95.6529 104.348V111.595C95.6529 113.995 97.5994 115.942 100.001 115.942C102.402 115.942 104.348 113.995 104.348 111.595V104.348H95.6529Z" fill="#0052B4"/>
<path d="M82.6089 104.348V111.595C82.6089 113.995 84.5554 115.942 86.9565 115.942C89.3577 115.942 91.3042 113.995 91.3042 111.595V104.348H82.6089Z" fill="#0052B4"/>
</svg>
