<svg width="200" height="200" viewBox="0 0 200 200" fill="none" xmlns="http://www.w3.org/2000/svg">
<g clip-path="url(#clip0)">
<path d="M100 200C155.228 200 200 155.228 200 100C200 44.7715 155.228 0 100 0C44.7715 0 0 44.7715 0 100C0 155.228 44.7715 200 100 200Z" fill="#F0F0F0"/>
<path d="M200 100C200 155.228 155.228 200 100 200C44.7719 200 0 155.228 0 100C0 44.7719 100 100 100 100C100 100 175.688 100 200 100Z" fill="#D80027"/>
<path d="M0 100C0 44.7719 44.7719 0 100 0V100C100 100 34.7824 100 0 100Z" fill="#0052B4"/>
<path d="M59.5271 34.7824L66.0025 54.7113H86.9568L70.0044 67.0278L76.4794 86.9567L59.5271 74.6399L42.5748 86.9567L49.0498 67.0278L32.0974 54.7113H53.0517L59.5271 34.7824Z" fill="#F0F0F0"/>
</g>
<defs>
<clipPath id="clip0">
<rect width="200" height="200" fill="white"/>
</clipPath>
</defs>
</svg>
