<svg width="200" height="200" viewBox="0 0 200 200" fill="none" xmlns="http://www.w3.org/2000/svg">
<path d="M100 200C155.228 200 200 155.228 200 100C200 44.7715 155.228 0 100 0C44.7715 0 0 44.7715 0 100C0 155.228 44.7715 200 100 200Z" fill="#D80027"/>
<path d="M54.7266 60.8595L63.3594 87.422H91.2891L68.7109 103.867L77.3438 130.43L54.7266 114.024L32.1094 130.43L40.7812 103.867L18.1641 87.422H46.0938L54.7266 60.8595Z" fill="#FFDA44"/>
<path d="M118.555 154.883L111.953 146.758L102.188 150.547L107.852 141.758L101.25 133.594L111.367 136.289L117.07 127.5L117.617 137.969L127.773 140.664L117.969 144.414L118.555 154.883Z" fill="#FFDA44"/>
<path d="M131.68 131.055L134.805 121.055L126.25 115L136.719 114.844L139.805 104.844L143.203 114.766L153.672 114.649L145.273 120.899L148.633 130.82L140.078 124.766L131.68 131.055Z" fill="#FFDA44"/>
<path d="M149.375 73.3986L144.766 82.8127L152.266 90.1174L141.914 88.633L137.305 98.008L135.508 87.6955L125.117 86.2111L134.414 81.3283L132.617 70.9767L140.117 78.2814L149.375 73.3986Z" fill="#FFDA44"/>
<path d="M118.828 44.8829L118.047 55.3126L127.773 59.2579L117.578 61.7579L116.836 72.2266L111.328 63.3204L101.133 65.8204L107.891 57.8126L102.344 48.9454L112.07 52.8907L118.828 44.8829Z" fill="#FFDA44"/>
</svg>
