<svg width="200" height="200" viewBox="0 0 200 200" fill="none" xmlns="http://www.w3.org/2000/svg">
<path d="M143.478 9.92266C130.331 3.56563 115.582 0 100 0C84.418 0 69.6688 3.56563 56.5219 9.92266L47.8262 100L56.5219 190.077C69.6688 196.434 84.418 200 100 200C115.582 200 130.331 196.434 143.478 190.077L152.174 100L143.478 9.92266Z" fill="#D80027"/>
<path d="M99.9991 65.2175L108.632 91.7875H136.573L113.969 108.211L122.603 134.782L99.9991 118.36L77.3956 134.782L86.0304 108.211L63.4272 91.7875H91.3659L99.9991 65.2175Z" fill="#FFDA44"/>
<path d="M56.5219 9.92627C23.0727 26.1005 0 60.354 0 100C0 139.646 23.0727 173.9 56.5219 190.074V9.92627Z" fill="#496E2D"/>
<path d="M143.478 9.92627V190.074C176.927 173.9 200 139.646 200 100C200 60.3544 176.927 26.1005 143.478 9.92627Z" fill="#FFDA44"/>
</svg>
