<svg width="200" height="200" viewBox="0 0 200 200" fill="none" xmlns="http://www.w3.org/2000/svg">
<g clip-path="url(#clip0)">
<path d="M188.896 54.147C184.275 45.1943 178.219 36.7912 170.714 29.2865C163.209 21.7814 154.805 15.7248 145.853 11.1044L75.4041 75.4037L11.1045 145.852C15.7252 154.805 21.7818 163.209 29.2865 170.713C36.7912 178.218 45.1947 184.275 54.1471 188.895L124.596 124.596L188.896 54.147Z" fill="#FFDA44"/>
<path d="M29.2867 170.714C33.4816 174.909 37.9578 178.65 42.6527 181.944L181.943 42.6527C178.65 37.9578 174.909 33.4816 170.714 29.2867C166.518 25.0918 162.043 21.3507 157.348 18.057L18.057 157.348C21.3504 162.042 25.0914 166.519 29.2867 170.714Z" fill="#D80027"/>
<path d="M29.2866 29.286C-2.26297 60.8356 -8.31961 108.218 11.1046 145.852L145.853 11.1043C108.218 -8.31949 60.8359 -2.26206 29.2866 29.286Z" fill="#338AF3"/>
<path d="M170.714 170.714C202.263 139.164 208.319 91.7823 188.896 54.1476L54.1476 188.896C91.7823 208.319 139.165 202.263 170.714 170.714Z" fill="#338AF3"/>
<path d="M53.2915 30.4318L58.6876 47.04H76.1501L62.0228 57.304L67.4188 73.9118L53.2915 63.6474L39.1634 73.9118L44.5603 57.304L30.4321 47.04H47.8946L53.2915 30.4318Z" fill="#FFDA44"/>
</g>
<defs>
<clipPath id="clip0">
<rect width="200" height="200" fill="white"/>
</clipPath>
</defs>
</svg>
