<svg width="200" height="200" viewBox="0 0 200 200" fill="none" xmlns="http://www.w3.org/2000/svg">
<path d="M200 100C200 155.228 155.228 200 100 200C44.7719 200 0 155.228 0 100C0 100.024 100 0.0109375 100 0C155.228 0 200 44.7719 200 100Z" fill="#0052B4"/>
<path d="M99.7322 100H99.9998C99.9998 99.9102 99.9998 99.8227 99.9998 99.7325C99.9107 99.8219 99.8216 99.911 99.7322 100Z" fill="#F0F0F0"/>
<path d="M100 52.1738C100 34.5781 100 23.0488 100 0H99.9832C44.7621 0.009375 0 44.777 0 100H52.1738V70.6207L81.5531 100H99.7328C99.8219 99.9109 99.9109 99.8219 100 99.7324C100 92.9953 100 86.984 100 81.5539L70.6203 52.1738H100Z" fill="#F0F0F0"/>
<path d="M50.592 13.0433C34.9518 21.9491 21.949 34.9515 13.0436 50.5917V99.9999H39.1307V39.1312V39.1304H100C100 30.9027 100 23.0644 100 13.0433H50.592Z" fill="#D80027"/>
<path d="M100 87.7028L64.4711 52.1743H52.1742V52.175L99.9996 100H100C100 100 100 91.5207 100 87.7028Z" fill="#D80027"/>
<path d="M134.782 100L136.633 105.694H142.619L137.776 109.213L139.626 114.907L134.782 111.388L129.939 114.907L131.789 109.213L126.946 105.694H132.932L134.782 100Z" fill="#F0F0F0"/>
<path d="M110.188 110.188L115.522 112.905L119.755 108.672L118.819 114.585L124.153 117.303L118.24 118.239L117.303 124.153L114.585 118.819L108.672 119.755L112.906 115.522L110.188 110.188Z" fill="#F0F0F0"/>
<path d="M100 134.782L105.694 132.932L105.695 126.947L109.213 131.789L114.907 129.939L111.388 134.782L114.907 139.627L109.213 137.777L105.695 142.62V136.633L100 134.782Z" fill="#F0F0F0"/>
<path d="M110.188 159.377L112.905 154.043L108.672 149.81L114.585 150.747L117.303 145.412L118.24 151.325L124.153 152.261L118.819 154.98L119.755 160.893L115.522 156.659L110.188 159.377Z" fill="#F0F0F0"/>
<path d="M134.782 169.565L132.932 163.871H126.945L131.789 160.352L129.939 154.659L134.782 158.177L139.626 154.659L137.776 160.352L142.619 163.871H136.633L134.782 169.565Z" fill="#F0F0F0"/>
<path d="M159.377 159.377L154.043 156.66L149.81 160.893L150.747 154.98L145.412 152.262L151.326 151.325L152.262 145.412L154.98 150.747L160.893 149.81L156.659 154.043L159.377 159.377Z" fill="#F0F0F0"/>
<path d="M169.565 134.782L163.871 136.633V142.62L160.352 137.776L154.659 139.627L158.178 134.782L154.659 129.939L160.352 131.789L163.871 126.947V132.932L169.565 134.782Z" fill="#F0F0F0"/>
<path d="M159.377 110.188L156.66 115.522L160.893 119.755L154.98 118.819L152.262 124.153L151.326 118.239L145.412 117.303L150.747 114.585L149.81 108.673L154.043 112.905L159.377 110.188Z" fill="#F0F0F0"/>
</svg>
