<svg width="200" height="200" viewBox="0 0 200 200" fill="none" xmlns="http://www.w3.org/2000/svg">
<g clip-path="url(#clip0)">
<path d="M100 200C155.228 200 200 155.228 200 100C200 44.7715 155.228 0 100 0C44.7715 0 0 44.7715 0 100C0 155.228 44.7715 200 100 200Z" fill="#F0F0F0"/>
<path d="M199.997 99.7107H91.5942C70.072 121.233 57.0571 137.849 43.7681 151.138L100.29 156.232L187.999 147.536C195.653 133.398 200 117.207 200 100C200 99.9033 199.997 99.8076 199.997 99.7107Z" fill="#D80027"/>
<path d="M43.7685 51.8844H187.679C170.672 20.9594 137.786 0 100 0C72.4591 0 47.5232 11.1371 29.4392 29.15L43.7685 51.8844Z" fill="#FFDA44"/>
<path d="M48.1159 147.536C39.1261 156.526 35.6519 164.058 29.1476 170.562C47.255 188.745 72.3116 200 99.9999 200C138.022 200 171.086 178.779 187.999 147.536H48.1159Z" fill="#0052B4"/>
<path d="M29.289 28.9998C-9.76333 68.0521 -9.76333 131.369 29.289 170.422C45.4269 154.284 60.9476 138.763 99.9999 99.7107L29.289 28.9998Z" fill="#6DA544"/>
<path d="M26.3771 99.7104C26.3771 85.1409 36.6166 72.9694 50.29 69.9835C48.1885 69.5245 46.008 69.2757 43.7681 69.2757C26.9592 69.2757 13.3334 82.9015 13.3334 99.7104C13.3334 116.519 26.9592 130.145 43.7681 130.145C46.0076 130.145 48.1881 129.896 50.29 129.437C36.6166 126.451 26.3771 114.28 26.3771 99.7104Z" fill="#F0F0F0"/>
<path d="M49.9546 73.6234L51.5737 78.6054H56.812L52.5737 81.6847L54.1929 86.6668L49.9546 83.5879L45.7163 86.6668L47.3354 81.6847L43.0972 78.6054H48.3354L49.9546 73.6234Z" fill="#F0F0F0"/>
<path d="M49.9546 86.6667L51.5737 91.6491H56.812L52.5737 94.728L54.1929 99.7104L49.9546 96.6311L45.7163 99.7104L47.3354 94.728L43.0972 91.6491H48.3354L49.9546 86.6667Z" fill="#F0F0F0"/>
<path d="M49.9546 99.7104L51.5737 104.692H56.812L52.5737 107.772L54.1929 112.754L49.9546 109.674L45.7163 112.754L47.3354 107.772L43.0972 104.692H48.3354L49.9546 99.7104Z" fill="#F0F0F0"/>
<path d="M49.9546 112.754L51.5737 117.736H56.812L52.5737 120.815L54.1929 125.797L49.9546 122.718L45.7163 125.797L47.3354 120.815L43.0972 117.736H48.3354L49.9546 112.754Z" fill="#F0F0F0"/>
</g>
<defs>
<clipPath id="clip0">
<rect width="200" height="200" fill="white"/>
</clipPath>
</defs>
</svg>
