<svg width="200" height="200" viewBox="0 0 200 200" fill="none" xmlns="http://www.w3.org/2000/svg">
<path d="M100 200C155.228 200 200 155.228 200 100C200 44.7715 155.228 0 100 0C44.7715 0 0 44.7715 0 100C0 155.228 44.7715 200 100 200Z" fill="#FCFCFC"/>
<path d="M134.819 84.7005C134.819 63.5505 117.674 46.4055 96.5241 46.4055C80.917 46.4055 67.5002 55.7454 61.5346 69.1376L56.8115 86.2606L61.1592 90.6083L52.4635 108L61.1592 112.347L56.8115 116.695V121.043L61.1592 125.39V134.086L65.5069 138.434L78.5502 134.086C78.5502 134.086 78.5502 138.434 82.8979 142.782C87.2455 147.129 91.594 155.825 91.594 155.825C91.594 155.825 104.637 160.173 113.333 147.13C122.029 134.086 130.724 129.738 130.724 129.738L122.343 112.975C130.008 105.974 134.819 95.9009 134.819 84.7005Z" fill="black"/>
<path d="M137.94 99.3446C155.608 96.3645 158.551 61.7684 158.551 61.7684H134.203C146.812 92.2031 133.614 94.2504 133.614 94.2504C131.826 92.9203 67.8428 62.6094 65.8147 61.8387C65.326 62.4926 63.5272 64.2102 61.3405 69.5578C59.1534 74.9055 58.6166 79.7164 58.6166 79.7164C59.6409 80.384 127.591 104.111 129.387 104.309C132.952 106.639 137.338 113.608 134.887 134.271L158.322 127.667C158.323 127.667 150.369 106.509 137.94 99.3446Z" fill="#ACABB1"/>
</svg>
