<svg width="200" height="200" viewBox="0 0 200 200" fill="none" xmlns="http://www.w3.org/2000/svg">
<g clip-path="url(#clip0)">
<path d="M0.000390625 17.3914H0V182.609H0.000390625V100V17.3914Z" fill="#FF9811"/>
<path d="M99.9996 200C155.228 200 199.999 155.229 199.999 100.001C199.999 44.7724 155.228 0.000999451 99.9996 0.000999451C44.7714 0.000999451 0 44.7724 0 100.001C0 155.229 44.7714 200 99.9996 200Z" fill="#F0F0F0"/>
<path d="M100 0.000808716C67.2848 0.000808716 38.2402 15.7129 19.9961 40.0008H180.004C161.761 15.7125 132.716 0.000808716 100 0.000808716Z" fill="#0052B4"/>
<path d="M100 200C132.716 200 161.761 184.287 180.005 160H19.9961C38.2398 184.288 67.2848 200 100 200Z" fill="#0052B4"/>
<path d="M0.000488281 100.001C0.000488281 106.85 0.691113 113.538 2.00322 120.001H197.998C199.31 113.538 200 106.85 200 100.001C200 93.1509 199.31 86.4626 197.998 80.0005H2.00322C0.691113 86.4626 0.000488281 93.1509 0.000488281 100.001Z" fill="#0052B4"/>
<path d="M29.2895 29.2899C-9.7625 68.3418 -9.7625 131.659 29.2895 170.711C45.4273 154.573 60.9477 139.053 100 100.001L29.2895 29.2899Z" fill="#D80027"/>
<path d="M40.473 73.9138L46.9472 93.8416H67.9027L50.9507 106.159L57.425 126.087L40.473 113.77L23.5203 126.087L29.996 106.159L13.0437 93.8416H33.9976L40.473 73.9138Z" fill="#F0F0F0"/>
</g>
<defs>
<clipPath id="clip0">
<rect width="200" height="200" fill="white"/>
</clipPath>
</defs>
</svg>
