<svg width="200" height="200" viewBox="0 0 200 200" fill="none" xmlns="http://www.w3.org/2000/svg">
<g clip-path="url(#clip0)">
<path d="M100 200C155.228 200 200 155.228 200 100C200 44.7715 155.228 0 100 0C44.7715 0 0 44.7715 0 100C0 155.228 44.7715 200 100 200Z" fill="#FFDA44"/>
<path d="M100 200C132.813 200 161.933 184.196 180.168 159.786H19.8325C38.0669 184.196 67.1876 200 100 200Z" fill="#0052B4"/>
<path d="M200 100C200 44.7719 155.228 0 100 0C44.7719 0 0 44.7719 0 100C0 111.825 2.0582 123.169 5.82656 133.699H194.173C197.942 123.169 200 111.825 200 100Z" fill="#0052B4"/>
<path d="M68.446 64.1335L73.8417 80.7398H91.3042L77.1773 91.0046L82.573 107.612L68.446 97.3476L54.3191 107.612L59.7156 91.0046L45.5886 80.7398H63.0503L68.446 64.1335Z" fill="#F0F0F0"/>
<path d="M38.4585 46.7421L41.6959 56.7062H52.1737L43.6975 62.8648L46.935 72.8292L38.4585 66.6706L29.9823 72.8292L33.2202 62.8648L24.7444 56.7062H35.2217L38.4585 46.7421Z" fill="#F0F0F0"/>
</g>
<defs>
<clipPath id="clip0">
<rect width="200" height="200" fill="white"/>
</clipPath>
</defs>
</svg>
