<svg width="200" height="200" viewBox="0 0 200 200" fill="none" xmlns="http://www.w3.org/2000/svg">
<mask id="mask0_306_2561" style="mask-type:alpha" maskUnits="userSpaceOnUse" x="0" y="0" width="200" height="200">
<rect width="200" height="200" rx="100" fill="#C4C4C4"/>
</mask>
<g mask="url(#mask0_306_2561)">
<mask id="mask1_306_2561" style="mask-type:alpha" maskUnits="userSpaceOnUse" x="-32" y="2" width="262" height="196">
<rect x="-31.6665" y="2" width="261.333" height="196" fill="white"/>
</mask>
<g mask="url(#mask1_306_2561)">
<path fill-rule="evenodd" clip-rule="evenodd" d="M-31.6665 2H229.667V198H-31.6665V2Z" fill="#5EAA22"/>
<path fill-rule="evenodd" clip-rule="evenodd" d="M-31.6665 2L229.667 198H-31.6665V2Z" fill="#4141DB"/>
<path fill-rule="evenodd" clip-rule="evenodd" d="M17.3335 75.5L9.16679 81.4784L10.2609 71.4167L1.00012 67.3333L10.2609 63.25L9.16679 53.1883L17.3335 59.1667L25.5001 53.1883L24.406 63.25L33.6668 67.3333L24.406 71.4167L25.5001 81.4784L17.3335 75.5Z" fill="white"/>
<path fill-rule="evenodd" clip-rule="evenodd" d="M1.00008 124.5L-7.16658 130.478L-6.07246 120.417L-15.3333 116.333L-6.07246 112.25L-7.16658 102.188L1.00008 108.167L9.16675 102.188L8.07262 112.25L17.3334 116.333L8.07262 120.417L9.16675 130.478L1.00008 124.5Z" fill="white"/>
<path fill-rule="evenodd" clip-rule="evenodd" d="M33.6668 173.5L25.5002 179.478L26.5943 169.417L17.3335 165.333L26.5943 161.25L25.5002 151.188L33.6668 157.167L41.8335 151.188L40.7394 161.25L50.0002 165.333L40.7394 169.417L41.8335 179.478L33.6668 173.5Z" fill="white"/>
<path fill-rule="evenodd" clip-rule="evenodd" d="M41.8334 95.9167L37.7501 98.906L38.2971 93.8751L33.6667 91.8334L38.2971 89.7917L37.7501 84.7609L41.8334 87.7501L45.9167 84.7609L45.3697 89.7917L50.0001 91.8334L45.3697 93.8751L45.9167 98.906L41.8334 95.9167Z" fill="white"/>
<path fill-rule="evenodd" clip-rule="evenodd" d="M144.415 101.829C141.362 98.6443 168.835 91.1612 171.683 81.512C175.456 73.111 172.935 66.3037 158.675 60.3253C144.415 54.3469 130.003 42.7871 146.575 42.7871C163.147 42.7871 163.147 45.15 167.6 52.1203C172.052 59.0905 181.674 60.5836 181.878 52.1203C181.878 37.6996 183.24 35.7601 171.598 23.2228C159.957 10.6856 200.79 28.3714 197.415 49.8643C194.04 71.3573 189.977 64.422 192.556 68.03C195.135 71.6379 210.656 60.4381 208.718 75.3571C203.288 83.9374 192.519 96.7039 144.415 101.829Z" fill="#FECA00"/>
<path fill-rule="evenodd" clip-rule="evenodd" d="M99.0002 140.833C121.552 140.833 139.834 122.552 139.834 100C139.834 77.4485 121.552 59.1667 99.0002 59.1667C76.4486 59.1667 58.1669 77.4485 58.1669 100C58.1669 122.552 76.4486 140.833 99.0002 140.833Z" fill="#FECA00"/>
<path fill-rule="evenodd" clip-rule="evenodd" d="M74.1168 84.9912C78.7484 83.9585 85.0819 96.3613 96.513 91.7095C107.944 87.0577 110.331 78.1767 115.763 81.4271C121.194 84.6774 121.907 92.5035 118.289 96.4369C114.671 100.37 108.531 101.301 108.531 106.272C108.531 111.244 107.327 128.973 104.981 123.835C97.9443 118.126 102.237 109.033 93.5703 106.272C84.9033 103.512 79.6394 103.604 73.246 104.769C66.8526 105.934 77.5411 101.569 79.8079 97.4255C84.4234 92.9853 71.9989 86.4677 74.1168 84.9912Z" fill="#548650"/>
</g>
</g>
</svg>
