<svg width="200" height="200" viewBox="0 0 200 200" fill="none" xmlns="http://www.w3.org/2000/svg">
<path d="M200 100C200 155.228 155.228 200 100 200C44.7719 200 0 155.228 0 100C0 100.024 100 0.0109375 100 0C155.228 0 200 44.7719 200 100Z" fill="#0052B4"/>
<path d="M99.7322 100H99.9998C99.9998 99.9102 99.9998 99.8227 99.9998 99.7325C99.9107 99.8219 99.8216 99.911 99.7322 100Z" fill="#F0F0F0"/>
<path d="M100 52.1738C100 34.5781 100 23.0488 100 0H99.9832C44.7621 0.009375 0 44.777 0 100H52.1738V70.6207L81.5531 100H99.7328C99.8219 99.9109 99.9109 99.8219 100 99.7324C100 92.9953 100 86.984 100 81.5539L70.6203 52.1738H100Z" fill="#F0F0F0"/>
<path d="M143.478 73.9132C153.083 73.9132 160.869 66.1268 160.869 56.5218C160.869 46.9168 153.083 39.1304 143.478 39.1304C133.873 39.1304 126.087 46.9168 126.087 56.5218C126.087 66.1268 133.873 73.9132 143.478 73.9132Z" fill="#6DA544"/>
<path d="M50.592 13.0433C34.9518 21.9491 21.949 34.9515 13.0436 50.5917V99.9999H39.1307V39.1312V39.1304H100C100 30.9027 100 23.0644 100 13.0433H50.592Z" fill="#D80027"/>
<path d="M100 87.7026L64.4711 52.1741H52.1742V52.1749L99.9996 99.9998H100C100 99.9998 100 91.5205 100 87.7026Z" fill="#D80027"/>
<path d="M113.044 52.1737H173.913V78.2608H113.044V52.1737Z" fill="#D80027"/>
<path d="M113.044 117.391V134.783H122.194C127.68 140.159 135.19 143.479 143.478 143.479C151.767 143.479 159.277 140.159 164.763 134.783H165.217H173.913V117.391H113.044Z" fill="#FFDA44"/>
<path d="M113.044 73.9128V100C113.044 123.296 143.478 130.435 143.478 130.435C143.478 130.435 173.913 123.296 173.913 100V73.9128H113.044Z" fill="#338AF3"/>
<path d="M143.477 87.8473C135.869 87.8473 135.869 94.8039 128.26 94.8039C120.652 94.8039 120.652 87.8473 113.044 87.8473V100.021C120.652 100.021 120.652 106.978 128.26 106.978C135.869 106.978 135.869 100.021 143.477 100.021C151.086 100.021 151.086 106.978 158.695 106.978C166.304 106.978 166.304 100.021 173.913 100.021V87.8473C166.304 87.8473 166.304 94.8039 158.695 94.8039C151.086 94.8039 151.086 87.8473 143.477 87.8473Z" fill="#F3F3F3"/>
<path d="M143.477 63.4781C135.869 63.4781 135.869 70.4348 128.26 70.4348C120.652 70.4348 120.652 63.4781 113.044 63.4781V75.652C120.652 75.652 120.652 82.6086 128.26 82.6086C135.869 82.6086 135.869 75.652 143.477 75.652C151.086 75.652 151.086 82.6086 158.695 82.6086C166.304 82.6086 166.304 75.652 173.913 75.652V63.4781C166.304 63.4781 166.304 70.4348 158.695 70.4348C151.086 70.4348 151.086 63.4781 143.477 63.4781Z" fill="#F3F3F3"/>
</svg>
