<svg width="200" height="200" viewBox="0 0 200 200" fill="none" xmlns="http://www.w3.org/2000/svg">
<path d="M100 200C155.228 200 200 155.228 200 100C200 44.7715 155.228 0 100 0C44.7715 0 0 44.7715 0 100C0 155.228 44.7715 200 100 200Z" fill="#FCFCFC"/>
<path d="M156.522 86.9567C153.478 86.9567 149.71 86.9567 143.478 86.9567C143.478 110.969 124.012 130.435 100 130.435C75.9874 130.435 56.5221 110.969 56.5221 86.9567C52.319 86.9567 47.6811 86.9567 43.4788 86.9567C43.4788 112.822 60.8522 134.629 84.567 141.345C81.967 146.284 82.3631 152.503 86.0772 157.138C90.9553 153.228 96.0057 149.181 100.29 145.748C104.574 149.181 109.625 153.228 114.503 157.138C118.254 152.457 118.623 146.159 115.937 141.197C139.392 134.316 156.522 112.638 156.522 86.9567Z" fill="#6DA544"/>
<path d="M65.2175 82.6086C65.2175 82.6086 65.2175 104.348 86.9566 104.348L91.3042 108.695H100C100 108.695 104.348 95.652 113.043 95.652C113.043 95.652 113.043 86.9563 121.739 86.9563C130.435 86.9563 134.782 86.9563 134.782 86.9563C134.782 86.9563 130.435 69.5649 152.174 56.5215L143.478 52.1739C143.478 52.1739 113.043 73.9129 91.3042 69.5653V78.261H82.6085L78.2609 73.9133L65.2175 82.6086Z" fill="#FFDA44"/>
</svg>
