<svg width="200" height="200" viewBox="0 0 200 200" fill="none" xmlns="http://www.w3.org/2000/svg">
<g clip-path="url(#clip0)">
<path d="M100 200C155.228 200 200 155.228 200 100C200 44.7715 155.228 0 100 0C44.7715 0 0 44.7715 0 100C0 155.228 44.7715 200 100 200Z" fill="#F0F0F0"/>
<path d="M91.3043 100C91.3043 100 29.3477 170.725 29.2891 170.711C47.3852 188.807 72.3855 200 100 200C155.228 200 200 155.228 200 100H91.3043Z" fill="#D80027"/>
<path d="M29.289 29.2891C-9.76333 68.3414 -9.76333 131.658 29.289 170.711C45.4269 154.573 60.9476 139.052 99.9999 100L29.289 29.2891Z" fill="#0052B4"/>
</g>
<defs>
<clipPath id="clip0">
<rect width="200" height="200" fill="white"/>
</clipPath>
</defs>
</svg>
