<svg width="200" height="200" viewBox="0 0 200 200" fill="none" xmlns="http://www.w3.org/2000/svg">
<path d="M91.304 108.696C91.304 108.696 29.3474 29.2754 29.2888 29.2895C47.3849 11.193 72.3853 0 99.9997 0C155.228 0 200 44.7719 200 100L91.304 108.696Z" fill="#338AF3"/>
<path d="M91.304 100C91.304 100 29.3474 170.725 29.2888 170.711C47.3849 188.807 72.3853 200 99.9997 200C155.228 200 200 155.228 200 100H91.304Z" fill="#6DA544"/>
<path d="M29.2894 29.2891C-9.76296 68.3414 -9.76296 131.658 29.2894 170.711C45.4273 154.573 60.948 139.052 100 100L29.2894 29.2891Z" fill="#F0F0F0"/>
<path d="M40.4729 73.913L46.9475 93.8411H67.903L50.9506 106.158L57.4248 126.087L40.4729 113.77L23.5201 126.087L29.9959 106.158L13.0436 93.8411H33.9975L40.4729 73.913Z" fill="#D80027"/>
</svg>
