<svg width="200" height="200" viewBox="0 0 200 200" fill="none" xmlns="http://www.w3.org/2000/svg">
<g clip-path="url(#clip0)">
<path d="M100 200C155.228 200 200 155.228 200 100C200 44.7715 155.228 0 100 0C44.7715 0 0 44.7715 0 100C0 155.228 44.7715 200 100 200Z" fill="#F0F0F0"/>
<path d="M119.565 198.081C159.098 190.239 190.239 159.097 198.081 119.565H119.565V198.081Z" fill="#496E2D"/>
<path d="M1.91907 119.565C9.76086 159.097 40.9023 190.239 80.4347 198.081V119.565H1.91907Z" fill="#496E2D"/>
<path d="M198.081 80.4347C190.239 40.9027 159.098 9.76128 119.565 1.91909V80.4347H198.081Z" fill="#496E2D"/>
<path d="M80.4347 1.91909C40.9023 9.76128 9.76086 40.9027 1.91907 80.4347H80.4347V1.91909Z" fill="#496E2D"/>
<path d="M93.4781 119.565H80.4347V198.081C84.6913 198.925 89.0456 199.497 93.4781 199.782V119.565Z" fill="#FFDA44"/>
<path d="M93.4781 80.4347V0.217499C89.0456 0.502655 84.6909 1.07492 80.4347 1.91906V80.4347H93.4781Z" fill="#FFDA44"/>
<path d="M106.522 0.217578C104.365 0.078125 102.192 0 100 0C97.8083 0 95.6353 0.078125 93.4783 0.217578V80.4352H106.522V0.217578H106.522Z" fill="black"/>
<path d="M93.4783 199.782C95.6353 199.922 97.8083 200 100 200C102.192 200 104.365 199.922 106.522 199.782V119.565H93.4787V199.782H93.4783Z" fill="black"/>
<path d="M80.435 93.4781V80.4347H1.91934C1.0748 84.6917 0.50293 89.0457 0.217773 93.4781H80.435Z" fill="#FFDA44"/>
<path d="M119.565 93.4781H199.783C199.498 89.0457 198.925 84.6917 198.081 80.4347H119.566V93.4781H119.565Z" fill="#FFDA44"/>
<path d="M119.565 106.522H199.783C199.922 104.365 200 102.192 200 99.9999C200 97.8081 199.922 95.6346 199.782 93.478H119.565V106.522Z" fill="black"/>
<path d="M0.217578 93.478C0.0785156 95.6346 0 97.8081 0 99.9999C0 102.192 0.0785156 104.365 0.217578 106.522H80.4352V93.4784H0.217578V93.478Z" fill="black"/>
<path d="M99.9998 147.826C126.413 147.826 147.826 126.414 147.826 100C147.826 73.5864 126.413 52.1739 99.9998 52.1739C73.5861 52.1739 52.1736 73.5864 52.1736 100C52.1736 126.414 73.5861 147.826 99.9998 147.826Z" fill="#D80027"/>
<path d="M110.896 105.336C107.339 98.2214 102.715 91.0105 102.715 91.0105C102.715 91.0105 102.83 87.7273 102.83 85.7711C102.83 82.8242 100.441 80.4351 97.4937 80.4351C94.7019 80.4351 92.4144 82.58 92.1812 85.3109C89.9859 85.4543 88.2488 87.2754 88.2488 89.5066C88.2488 91.1289 89.1679 92.5347 90.5132 93.2375C91.182 91.6734 92.4914 90.4523 94.1109 89.8957C94.3749 90.1117 94.6585 90.3046 94.9613 90.4683L95.6449 90.7957C95.6449 90.7957 93.1101 97.9406 93.1101 101.779C93.1101 112.569 100.225 115.897 100.225 115.897V116.009L96.6675 119.566H103.782V112.451L107.339 116.008C107.371 115.941 114.078 111.7 110.896 105.336Z" fill="#496E2D"/>
<path d="M100 60.8694L101.619 65.8515H106.857L102.62 68.9308L104.239 73.9128L100 70.8339L95.7621 73.9128L97.3813 68.9308L93.1434 65.8515H98.3817L100 60.8694Z" fill="#496E2D"/>
<path d="M77.0005 68.3429L81.238 71.4222L85.4763 68.3426L83.8575 73.3254L88.0958 76.4039L82.8572 76.4043L81.2384 81.3863L79.6193 76.4043L74.381 76.4039L78.6189 73.3246L77.0005 68.3429Z" fill="#496E2D"/>
<path d="M62.785 87.9082H68.0229L69.6421 82.9262L71.2608 87.9082L76.4995 87.9078L72.2616 90.9875L73.8807 95.9695L69.6421 92.8902L65.4042 95.9691L67.0225 90.9871L62.785 87.9082Z" fill="#496E2D"/>
<path d="M62.785 112.092L67.0225 109.013L65.4038 104.031L69.6421 107.11L73.8803 104.031L72.2616 109.013L76.4999 112.092L71.2608 112.092L69.6421 117.074L68.0229 112.092H62.785Z" fill="#496E2D"/>
<path d="M77.0005 131.657L78.6189 126.676L74.3806 123.596H79.6193L81.2384 118.614L82.8572 123.596H88.0959L83.8576 126.676L85.4763 131.657L81.238 128.578L77.0005 131.657Z" fill="#496E2D"/>
<path d="M100 139.13L98.3817 134.149H93.1434L97.3813 131.069L95.7621 126.087L100 129.166L104.238 126.087L102.62 131.069L106.857 134.149L101.619 134.149L100 139.13Z" fill="#496E2D"/>
<path d="M123 131.657L118.763 128.578L114.525 131.658L116.143 126.676L111.905 123.596L117.144 123.596L118.762 118.614L120.381 123.596H125.62L121.382 126.676L123 131.657Z" fill="#496E2D"/>
<path d="M137.216 112.092H131.978L130.359 117.074L128.74 112.092H123.501L127.739 109.013L126.12 104.031L130.359 107.11L134.596 104.031L132.978 109.013L137.216 112.092Z" fill="#496E2D"/>
<path d="M137.216 87.9082L132.978 90.9871L134.597 95.9692L130.359 92.8902L126.12 95.9699L127.739 90.9875L123.501 87.9086L128.74 87.9078L130.358 82.9266L131.978 87.9082H137.216Z" fill="#496E2D"/>
<path d="M123 68.343L121.382 73.3246L125.62 76.4039H120.381L118.763 81.3863L117.144 76.4043L111.905 76.4047L116.143 73.3246L114.524 68.3433L118.763 71.4219L123 68.343Z" fill="#496E2D"/>
</g>
<defs>
<clipPath id="clip0">
<rect width="200" height="200" fill="white"/>
</clipPath>
</defs>
</svg>
