<svg width="200" height="200" viewBox="0 0 200 200" fill="none" xmlns="http://www.w3.org/2000/svg">
<path d="M100 200C155.228 200 200 155.228 200 100C200 44.7715 155.228 0 100 0C44.7715 0 0 44.7715 0 100C0 155.228 44.7715 200 100 200Z" fill="#F0F0F0"/>
<path d="M78.2615 86.9566H199.154C192.762 37.8914 150.808 0 100 0C92.5334 0 85.2611 0.825391 78.2611 2.37695V86.9566H78.2615Z" fill="#D80027"/>
<path d="M52.1738 86.9563V12.159C24.7156 27.141 5.05855 54.6219 0.846436 86.9567H52.1738V86.9563Z" fill="#D80027"/>
<path d="M52.1734 113.043H0.846436C5.05855 145.378 24.7156 172.859 52.1738 187.841L52.1734 113.043Z" fill="#D80027"/>
<path d="M78.2611 113.044V197.623C85.2611 199.175 92.5334 200 100 200C150.808 200 192.762 162.109 199.154 113.043H78.2611V113.044Z" fill="#D80027"/>
</svg>
