<svg width="200" height="200" viewBox="0 0 200 200" fill="none" xmlns="http://www.w3.org/2000/svg">
<path d="M100 200C155.228 200 200 155.228 200 100C200 44.7715 155.228 0 100 0C44.7715 0 0 44.7715 0 100C0 155.228 44.7715 200 100 200Z" fill="#F0F0F0"/>
<path d="M3.4447 126.087C12.6783 160.346 39.6537 187.322 73.9131 196.555V126.087H3.4447Z" fill="#D80027"/>
<path d="M73.9127 3.44501C39.6537 12.6782 12.6779 39.654 3.4447 73.913H73.9131V3.44501H73.9127Z" fill="#0052B4"/>
<path d="M196.555 73.913C187.322 39.654 160.346 12.6782 126.087 3.44501V73.9134H196.555V73.913Z" fill="#D80027"/>
<path d="M126.087 196.555C160.346 187.321 187.322 160.346 196.555 126.087H126.087V196.555Z" fill="#0052B4"/>
<path d="M126.087 100C126.087 114.408 114.408 126.087 100 126.087C85.5927 126.087 73.913 114.408 73.913 100C73.913 85.5923 100 73.913 100 73.913C100 73.913 126.087 85.5923 126.087 100Z" fill="#496E2D"/>
<path d="M73.913 100C73.913 85.5923 85.5927 73.913 100 73.913C114.408 73.913 126.087 85.5923 126.087 100" fill="#0052B4"/>
<path d="M85.3264 86.9567V103.261C85.3264 111.365 91.8959 117.935 100 117.935C108.105 117.935 114.674 111.365 114.674 103.261V86.9567H85.3264Z" fill="#D80027"/>
</svg>
