<svg width="200" height="200" viewBox="0 0 200 200" fill="none" xmlns="http://www.w3.org/2000/svg">
<g clip-path="url(#clip0)">
<path d="M100 0C155.228 0 200 44.7719 200 100C200 155.228 155.228 200 100 200C100 195.652 86.9567 100 86.9567 100L100 0Z" fill="#F0F0F0"/>
<path d="M100 200C44.7719 200 0 155.228 0 100C0 44.7719 44.7719 0 100 0" fill="#496E2D"/>
<path d="M121.486 80.8187L113.281 92.1254L99.993 87.816L108.211 99.1129L100.007 110.42L113.29 106.095L121.508 117.391L121.499 103.422L134.782 99.0972L121.495 94.7886L121.486 80.8187Z" fill="#D80027"/>
<path d="M108.296 128.261C92.6878 128.261 80.0347 115.608 80.0347 100C80.0347 84.3922 92.6878 71.739 108.296 71.739C113.162 71.739 117.741 72.9695 121.739 75.1359C115.467 69.0027 106.891 65.2172 97.4261 65.2172C78.2159 65.2172 62.6437 80.7898 62.6437 99.9996C62.6437 119.209 78.2163 134.782 97.4261 134.782C106.891 134.782 115.468 130.996 121.739 124.863C117.741 127.03 113.162 128.261 108.296 128.261Z" fill="#D80027"/>
</g>
<defs>
<clipPath id="clip0">
<rect width="200" height="200" fill="white"/>
</clipPath>
</defs>
</svg>
