<svg width="200" height="200" viewBox="0 0 200 200" fill="none" xmlns="http://www.w3.org/2000/svg">
<g clip-path="url(#clip0)">
<path d="M100 200C155.228 200 200 155.228 200 100C200 44.7715 155.228 0 100 0C44.7715 0 0 44.7715 0 100C0 155.228 44.7715 200 100 200Z" fill="#FFDA44"/>
<path d="M100 0C75.5168 0 53.0926 8.80352 35.709 23.4117L143.478 100L35.709 176.588C53.0926 191.196 75.5168 200 100 200C155.228 200 200 155.228 200 100C200 44.7719 155.228 0 100 0Z" fill="#D80027"/>
<path d="M29.2893 29.2891C-9.76299 68.3414 -9.76299 131.658 29.2893 170.711C45.4272 154.573 60.9479 139.052 100 100L29.2893 29.2891Z" fill="black"/>
<path d="M27.7263 77.0918L42.9451 91.4949L61.3467 81.4699L52.3525 100.396L67.5717 114.799L46.7927 112.093L37.7974 131.018L33.951 110.42L13.172 107.713L31.5728 97.6891L27.7263 77.0918Z" fill="#F0F0F0"/>
</g>
<defs>
<clipPath id="clip0">
<rect width="200" height="200" fill="white"/>
</clipPath>
</defs>
</svg>
