<svg width="200" height="200" viewBox="0 0 200 200" fill="none" xmlns="http://www.w3.org/2000/svg">
<path d="M0 100C0 44.7719 44.7719 0 100 0C155.228 0 200 44.7719 200 100L100 108.696L0 100Z" fill="#FFDA44"/>
<path d="M13.3811 150C30.6721 179.889 62.9862 200 99.9999 200C137.014 200 169.328 179.889 186.619 150L99.9999 143.478L13.3811 150Z" fill="#D80027"/>
<path d="M186.619 150C195.127 135.291 200 118.215 200 100H0C0 118.215 4.87266 135.291 13.3813 150H186.619Z" fill="#0052B4"/>
<path d="M100 134.782C119.21 134.782 134.782 119.21 134.782 100C134.782 80.7902 119.21 65.2176 100 65.2176C80.7902 65.2176 65.2175 80.7902 65.2175 100C65.2175 119.21 80.7902 134.782 100 134.782Z" fill="#FFDA44"/>
<path d="M100 121.739C88.0129 121.739 78.261 111.987 78.261 100V86.9566C78.261 74.9695 88.0133 65.2176 100 65.2176C111.987 65.2176 121.739 74.9699 121.739 86.9566V100C121.739 111.987 111.987 121.739 100 121.739Z" fill="#338AF3"/>
<path d="M134.782 47.8263H108.695C108.695 43.0239 104.802 39.1306 99.9996 39.1306C95.1973 39.1306 91.3039 43.0239 91.3039 47.8263H65.2168C65.2168 52.629 69.4 56.522 74.202 56.522H73.9125C73.9125 61.3247 77.8055 65.2177 82.6082 65.2177C82.6082 70.0204 86.5012 73.9134 91.3039 73.9134H108.695C113.498 73.9134 117.391 70.0204 117.391 65.2177C122.194 65.2177 126.087 61.3247 126.087 56.522H125.797C130.6 56.522 134.782 52.6286 134.782 47.8263Z" fill="black"/>
</svg>
