<svg width="200" height="200" viewBox="0 0 200 200" fill="none" xmlns="http://www.w3.org/2000/svg">
<g clip-path="url(#clip0)">
<path d="M100 200C155.228 200 200 155.228 200 100C200 44.7715 155.228 0 100 0C44.7715 0 0 44.7715 0 100C0 155.228 44.7715 200 100 200Z" fill="#F0F0F0"/>
<path d="M100 0C57.0036 0 20.3493 27.1375 6.21997 65.2176H193.781C179.651 27.1375 142.997 0 100 0Z" fill="#D80027"/>
<path d="M100 200C142.997 200 179.651 172.863 193.78 134.782H6.21997C20.3493 172.863 57.0036 200 100 200Z" fill="black"/>
<path d="M134.782 89.1304H108.695C108.695 84.3281 104.802 80.4347 99.9996 80.4347C95.1973 80.4347 91.3039 84.3281 91.3039 89.1304H65.2168C65.2168 93.9331 69.4 97.8261 74.2023 97.8261H73.9125C73.9125 102.629 77.8055 106.522 82.6082 106.522C82.6082 111.325 86.5012 115.218 91.3039 115.218H108.695C113.498 115.218 117.391 111.325 117.391 106.522C122.194 106.522 126.087 102.629 126.087 97.8261H125.797C130.6 97.8261 134.782 93.9331 134.782 89.1304Z" fill="#FF9811"/>
</g>
<defs>
<clipPath id="clip0">
<rect width="200" height="200" fill="white"/>
</clipPath>
</defs>
</svg>
