<svg width="200" height="200" viewBox="0 0 200 200" fill="none" xmlns="http://www.w3.org/2000/svg">
<g clip-path="url(#clip0)">
<path d="M91.3043 91.3044C91.3043 91.3044 29.3477 170.725 29.2891 170.711C47.3852 188.807 72.3855 200 100 200C155.228 200 200 155.228 200 100L91.3043 91.3044Z" fill="#338AF3"/>
<path d="M91.3043 100C91.3043 100 29.3477 29.2754 29.2891 29.2895C47.3852 11.193 72.3855 0 100 0C155.228 0 200 44.7719 200 100H91.3043Z" fill="#6DA544"/>
<path d="M29.289 29.2891C-9.76333 68.3414 -9.76333 131.658 29.289 170.711C29.2863 170.727 200 100 200 100L29.289 29.2891Z" fill="#D80027"/>
<path d="M52.1739 58.6956C32.9946 58.6956 17.3915 74.2991 17.3915 93.478V106.521C17.3915 125.701 32.995 141.304 52.1739 141.304C71.3528 141.304 86.9563 125.7 86.9563 106.521V93.478C86.9567 74.2991 71.3532 58.6956 52.1739 58.6956ZM73.913 106.522C73.913 116.237 67.5059 124.483 58.6954 127.26V113.044L67.9235 103.815L58.7005 94.5924L58.6954 91.31V86.9569H45.6524V99.9999L36.4305 109.221L45.6524 118.443V127.26C36.8419 124.483 30.4348 116.238 30.4348 106.522V93.4788C30.4348 81.4916 40.1872 71.7397 52.1739 71.7397C64.1606 71.7397 73.913 81.492 73.913 93.4788V106.522Z" fill="#FFDA44"/>
</g>
<defs>
<clipPath id="clip0">
<rect width="200" height="200" fill="white"/>
</clipPath>
</defs>
</svg>
