<svg width="200" height="200" viewBox="0 0 200 200" fill="none" xmlns="http://www.w3.org/2000/svg">
<path d="M0 100C0 112.232 2.20039 123.949 6.21992 134.783L100 143.478L193.78 134.783C197.8 123.949 200 112.232 200 100C200 87.7681 197.8 76.0509 193.78 65.2177L100 56.522L6.21992 65.2177C2.20039 76.0509 0 87.7681 0 100H0Z" fill="#FFDA44"/>
<path d="M193.78 65.2176C179.65 27.1379 142.996 0 99.9996 0C57.0031 0 20.3488 27.1379 6.21948 65.2176H193.78Z" fill="#D80027"/>
<path d="M6.21948 134.782C20.3488 172.862 57.0031 200 99.9996 200C142.996 200 179.65 172.862 193.78 134.782H6.21948Z" fill="#D80027"/>
</svg>
