<svg width="200" height="200" viewBox="0 0 200 200" fill="none" xmlns="http://www.w3.org/2000/svg">
<g clip-path="url(#clip0)">
<path d="M0 99.9999C0 112.232 2.20039 123.949 6.21992 134.782L100 139.13L193.78 134.783C197.8 123.949 200 112.232 200 99.9999C200 87.7679 197.8 76.0507 193.78 65.2175L100 60.8694L6.21992 65.2171C2.20039 76.0507 0 87.7679 0 99.9999H0Z" fill="black"/>
<path d="M100 0C57.0036 0 20.3493 27.1375 6.21997 65.2176H193.781C179.651 27.1375 142.997 0 100 0Z" fill="#0052B4"/>
<path d="M193.78 134.782H6.21997C20.3493 172.862 57.0036 200 100 200C142.997 200 179.651 172.862 193.78 134.782Z" fill="#F0F0F0"/>
</g>
<defs>
<clipPath id="clip0">
<rect width="200" height="200" fill="white"/>
</clipPath>
</defs>
</svg>
