<svg width="200" height="200" viewBox="0 0 200 200" fill="none" xmlns="http://www.w3.org/2000/svg">
<g clip-path="url(#clip0)">
<path d="M0 100C0 112.233 2.20039 123.95 6.22031 134.784L100 143.478L193.78 134.783C197.8 123.95 200 112.233 200 100C200 87.9357 197.863 76.3704 193.948 65.6622L100 56.522L6.05234 65.6626C2.13711 76.3704 0 87.9357 0 100H0Z" fill="#FFDA44"/>
<path d="M100 200C142.997 200 179.651 172.863 193.78 134.782H6.22003C20.3493 172.863 57.0036 200 100 200Z" fill="#D80027"/>
<path d="M100 0C57.0036 0 20.3493 27.1375 6.22003 65.2176H193.781C179.651 27.1375 142.997 0 100 0Z" fill="#6DA544"/>
<path d="M99.9998 147.826C126.413 147.826 147.826 126.414 147.826 100C147.826 73.5864 126.413 52.1739 99.9998 52.1739C73.5861 52.1739 52.1736 73.5864 52.1736 100C52.1736 126.414 73.5861 147.826 99.9998 147.826Z" fill="#0052B4"/>
<path d="M99.9898 62.9653L108.623 89.5364H136.607L113.959 105.959L122.66 132.609L99.9898 116.108L77.3539 132.578L86.0203 105.959L63.3933 89.5364H91.3562L99.9898 62.9653Z" fill="#FFDA44"/>
<path d="M134.423 106.613L107.034 97.7133L123.961 74.4164L116.927 69.3047L99.9992 92.6032L83.0731 69.3051L76.0379 74.416L92.9645 97.7149L65.5766 106.613L68.2633 114.884L95.6524 105.985V134.782H104.348V105.984L131.736 114.884L134.423 106.613Z" fill="#FFDA44"/>
</g>
<defs>
<clipPath id="clip0">
<rect width="200" height="200" fill="white"/>
</clipPath>
</defs>
</svg>
