<svg width="200" height="200" viewBox="0 0 200 200" fill="none" xmlns="http://www.w3.org/2000/svg">
<path d="M100 200C155.228 200 200 155.228 200 100C200 44.7715 155.228 0 100 0C44.7715 0 0 44.7715 0 100C0 155.228 44.7715 200 100 200Z" fill="#0052B4"/>
<path d="M100.001 39.1306L103.238 49.095H113.715L105.239 55.2532L108.477 65.2177L100.001 59.0591L91.524 65.2177L94.7619 55.2532L86.2858 49.095H96.7627L100.001 39.1306Z" fill="#FFDA44"/>
<path d="M56.959 56.9587L66.2949 61.7149L73.7031 54.3071L72.0637 64.6548L81.3992 69.4114L71.0512 71.0505L69.4121 81.3989L64.6555 72.0634L54.3078 73.7028L61.716 66.2946L56.959 56.9587Z" fill="#FFDA44"/>
<path d="M39.131 100L49.0954 96.7623V86.2854L55.2532 94.7619L65.2181 91.524L59.0591 100L65.2181 108.476L55.2532 105.239L49.0954 113.715V103.238L39.131 100Z" fill="#FFDA44"/>
<path d="M56.959 143.042L61.7156 133.706L54.3078 126.297L64.6559 127.937L69.4117 118.602L71.0512 128.95L81.3988 130.589L72.0644 135.346L73.7031 145.693L66.2949 138.285L56.959 143.042Z" fill="#FFDA44"/>
<path d="M100.001 160.87L96.7623 150.905H86.2858L94.7623 144.747L91.524 134.783L100.001 140.941L108.477 134.783L105.239 144.747L113.715 150.905H103.238L100.001 160.87Z" fill="#FFDA44"/>
<path d="M143.042 143.042L133.706 138.285L126.298 145.694L127.937 135.345L118.602 130.589L128.95 128.95L130.589 118.602L135.345 127.937L145.693 126.297L138.285 133.706L143.042 143.042Z" fill="#FFDA44"/>
<path d="M160.87 100L150.905 103.238V113.715L144.747 105.239L134.783 108.476L140.941 100L134.783 91.524L144.747 94.7619L150.905 86.2854V96.7627L160.87 100Z" fill="#FFDA44"/>
<path d="M143.042 56.9587L138.285 66.2946L145.693 73.7028L135.345 72.063L130.589 81.3985L128.95 71.0505L118.602 69.411L127.937 64.6548L126.298 54.3075L133.707 61.7153L143.042 56.9587Z" fill="#FFDA44"/>
</svg>
