<svg width="200" height="200" viewBox="0 0 200 200" fill="none" xmlns="http://www.w3.org/2000/svg">
<g clip-path="url(#clip0)">
<path d="M100 200C155.228 200 200 155.228 200 100C200 44.7715 155.228 0 100 0C44.7715 0 0 44.7715 0 100C0 155.228 44.7715 200 100 200Z" fill="#F0F0F0"/>
<path d="M199.154 86.9566H78.2613H78.2609V2.37695C69.0195 4.42617 60.2582 7.74766 52.1738 12.159V86.9559V86.9562H0.846484C0.289844 91.2262 0 95.5793 0 100C0 104.421 0.289844 108.774 0.846484 113.043H52.1734H52.1738V187.841C60.2582 192.252 69.0195 195.574 78.2609 197.623V113.045V113.044H199.154C199.709 108.774 200 104.421 200 100C200 95.5793 199.709 91.2262 199.154 86.9566Z" fill="#0052B4"/>
</g>
<defs>
<clipPath id="clip0">
<rect width="200" height="200" fill="white"/>
</clipPath>
</defs>
</svg>
