<svg width="200" height="200" viewBox="0 0 200 200" fill="none" xmlns="http://www.w3.org/2000/svg">
<path d="M200 100C200 155.228 155.228 200 100 200C44.7719 200 0 155.228 0 100C0 100.024 100 0.0109375 100 0C155.228 0 200 44.7719 200 100Z" fill="#338AF3"/>
<path d="M100 47.8261V81.5538L65.2175 47.8261H100Z" fill="#0052B4"/>
<path d="M52.1738 99.9998H81.5535L52.1738 60.8694L47.8262 91.3041L52.1738 99.9998Z" fill="#0052B4"/>
<path d="M99.7324 100H100C100 99.9102 100 99.8227 100 99.7325C99.9109 99.8219 99.8219 99.911 99.7324 100Z" fill="#F0F0F0"/>
<path d="M100 52.1738C100 34.5781 100 23.0488 100 0H99.9832C44.7625 0.009375 0 44.777 0 100H52.1738V70.6207L81.5535 100H99.7332C99.8223 99.9109 99.9113 99.8219 100.001 99.7324C100.001 92.9953 100.001 86.984 100.001 81.5539L70.6203 52.1738H100Z" fill="#F0F0F0"/>
<path d="M50.5917 13.0433C34.9514 21.9491 21.9491 34.9515 13.0432 50.5917V99.9999H39.1303V39.1312V39.1304H99.9999C99.9999 30.9027 99.9999 23.0644 99.9999 13.0433H50.5917Z" fill="#D80027"/>
<path d="M99.9999 87.7028L64.4713 52.1743H52.1741V52.175L99.9991 100H99.9999C99.9999 100 99.9999 91.5207 99.9999 87.7028Z" fill="#D80027"/>
<path d="M113.043 65.2177V99.9997C113.043 123.297 143.478 130.435 143.478 130.435C143.478 130.435 173.913 123.297 173.913 99.9997V65.2177L143.478 56.522L113.043 65.2177Z" fill="#F3F3F3"/>
<path d="M173.913 65.2176V52.1743H113.043V65.2176H139.13V91.3051H113.043V100V100.001L139.13 100.001V129.102C141.754 130.03 143.478 130.435 143.478 130.435C143.478 130.435 145.201 130.031 147.825 129.102V100.001H173.913V100V91.3047H147.825V65.2172H173.913V65.2176Z" fill="#D80027"/>
</svg>
