<svg width="200" height="200" viewBox="0 0 200 200" fill="none" xmlns="http://www.w3.org/2000/svg">
<path d="M200 100C200 155.228 155.228 200 100 200C44.7719 200 0 155.228 0 100C0 100.024 100 0.0109375 100 0C155.228 0 200 44.7719 200 100Z" fill="#0052B4"/>
<path d="M99.7322 100H99.9997C99.9997 99.9102 99.9997 99.8227 99.9997 99.7325C99.9107 99.8219 99.8216 99.911 99.7322 100Z" fill="#F0F0F0"/>
<path d="M100 52.1738C100 34.5781 100 23.0488 100 0H99.9832C44.7625 0.009375 0 44.777 0 100H52.1738V70.6207L81.5535 100H99.7328L100 99.7324C100 92.9953 100 86.984 100 81.5539L70.6203 52.1738H100Z" fill="#F0F0F0"/>
<path d="M50.592 13.0433C34.9518 21.9491 21.9494 34.9515 13.0436 50.5917V99.9999H39.1307V39.1312V39.1304H100C100 30.9027 100 23.0644 100 13.0433H50.592Z" fill="#D80027"/>
<path d="M100 87.7028L64.4718 52.1743H52.1746V52.175L99.9996 100H100C100 100 100 91.5207 100 87.7028Z" fill="#D80027"/>
<path d="M160.87 117.391V121.739H126.087V117.391H113.044V134.782H121.739V139.13H165.218V134.782H173.913V117.391H160.87Z" fill="#FFDA44"/>
<path d="M113.044 52.1739V100C113.044 123.297 143.478 130.435 143.478 130.435C143.478 130.435 173.913 123.297 173.913 100V52.1739H113.044Z" fill="#338AF3"/>
<path d="M143.477 87.8475C135.869 87.8475 135.869 94.8041 128.26 94.8041C120.652 94.8041 120.652 87.8475 113.044 87.8475V100.021C120.652 100.021 120.652 106.978 128.26 106.978C135.869 106.978 135.869 100.021 143.477 100.021C151.086 100.021 151.086 106.978 158.695 106.978C166.305 106.978 166.304 100.021 173.914 100.021V87.8475C166.305 87.8475 166.305 94.8041 158.695 94.8041C151.086 94.8041 151.086 87.8475 143.477 87.8475Z" fill="#F3F3F3"/>
<path d="M143.477 63.4782C135.869 63.4782 135.869 70.4348 128.26 70.4348C120.652 70.4348 120.652 63.4782 113.044 63.4782V75.652C120.652 75.652 120.652 82.6087 128.26 82.6087C135.869 82.6087 135.869 75.652 143.477 75.652C151.086 75.652 151.086 82.6087 158.695 82.6087C166.305 82.6087 166.304 75.652 173.914 75.652V63.4782C166.305 63.4782 166.305 70.4348 158.695 70.4348C151.086 70.4348 151.086 63.4782 143.477 63.4782Z" fill="#F3F3F3"/>
</svg>
