<svg width="200" height="200" viewBox="0 0 200 200" fill="none" xmlns="http://www.w3.org/2000/svg">
<path d="M100 200C155.228 200 200 155.228 200 100C200 44.7715 155.228 0 100 0C44.7715 0 0 44.7715 0 100C0 155.228 44.7715 200 100 200Z" fill="#338AF3"/>
<path d="M99.9987 43.4781L104.315 56.7641H118.285L106.984 64.9754L111.3 78.261L99.9987 70.05L88.6968 78.261L93.0144 64.9754L81.7124 56.7641H95.6823L99.9987 43.4781Z" fill="#F0F0F0"/>
<path d="M43.4778 100.001L56.7637 95.6837V81.7134L64.975 93.0157L78.2606 88.6989L70.0497 100.001L78.2606 111.302L64.975 106.984L56.7637 118.286V104.317L43.4778 100.001Z" fill="#F0F0F0"/>
<path d="M99.9995 156.522L95.6827 143.236H81.7124L93.0147 135.025L88.6979 121.739L99.9995 129.95L111.301 121.739L106.983 135.025L118.285 143.236H104.316L99.9995 156.522Z" fill="#F0F0F0"/>
<path d="M156.522 99.9997L143.236 104.316V118.286L135.025 106.984L121.739 111.301L129.95 99.9997L121.739 88.6985L135.025 93.0157L143.236 81.7134V95.6833L156.522 99.9997Z" fill="#F0F0F0"/>
</svg>
