<svg width="200" height="200" viewBox="0 0 200 200" fill="none" xmlns="http://www.w3.org/2000/svg">
<g clip-path="url(#clip0)">
<path d="M193.78 134.783C197.8 123.95 200 112.232 200 100C200 87.7681 197.8 76.0513 193.78 65.2177L100 56.522L6.21992 65.2177C2.20039 76.0513 0 87.7681 0 100C0 112.232 2.20039 123.95 6.21992 134.783L100 143.478L193.78 134.783Z" fill="#FFDA44"/>
<path d="M100 200C142.996 200 179.651 172.863 193.78 134.782H6.2196C20.3493 172.863 57.0032 200 100 200Z" fill="#0052B4"/>
<path d="M100 0C57.0032 0 20.3493 27.1375 6.2196 65.2176H193.78C179.651 27.1375 142.996 0 100 0Z" fill="#6DA544"/>
</g>
<defs>
<clipPath id="clip0">
<rect width="200" height="200" fill="white"/>
</clipPath>
</defs>
</svg>
