<svg width="200" height="200" viewBox="0 0 200 200" fill="none" xmlns="http://www.w3.org/2000/svg">
<path d="M100 200C155.228 200 200 155.228 200 100C200 44.7715 155.228 0 100 0C44.7715 0 0 44.7715 0 100C0 155.228 44.7715 200 100 200Z" fill="#F0F0F0"/>
<path d="M199.154 86.9566H113.044H113.044V0.846484C108.774 0.290625 104.421 0 100 0C95.5793 0 91.2262 0.290625 86.9566 0.846484V86.9559V86.9563H0.846484C0.290625 91.2262 0 95.5793 0 100C0 104.421 0.290625 108.774 0.846484 113.043H86.9559H86.9563V199.154C91.2262 199.709 95.5793 200 100 200C104.421 200 108.774 199.71 113.043 199.154V113.044V113.044H199.154C199.709 108.774 200 104.421 200 100C200 95.5793 199.709 91.2262 199.154 86.9566Z" fill="#D80027"/>
<path d="M60.8696 47.8262V34.7825H47.8262V47.8262H34.7824V60.8696H47.8262V73.9129H60.8696V60.8696H73.9129V47.8262H60.8696Z" fill="#D80027"/>
<path d="M152.174 47.8262V34.7825H139.13V47.8262H126.087V60.8696H139.13V73.9129H152.174V60.8696H165.217V47.8262H152.174Z" fill="#D80027"/>
<path d="M60.8696 139.13V126.087H47.8262V139.13H34.7824V152.174H47.8262V165.217H60.8696V152.174H73.9129V139.13H60.8696Z" fill="#D80027"/>
<path d="M152.174 139.13V126.087H139.13V139.13H126.087V152.174H139.13V165.217H152.174V152.174H165.217V139.13H152.174Z" fill="#D80027"/>
</svg>
