<svg width="200" height="200" viewBox="0 0 200 200" fill="none" xmlns="http://www.w3.org/2000/svg">
<g clip-path="url(#clip0)">
<path d="M100 200C155.228 200 200 155.228 200 100C200 44.7715 155.228 0 100 0C44.7715 0 0 44.7715 0 100C0 155.228 44.7715 200 100 200Z" fill="#F0F0F0"/>
<path d="M199.154 86.9566H113.044H113.044V0.846484C108.774 0.290625 104.421 0 100 0C95.5793 0 91.2262 0.290625 86.9566 0.846484V86.9566H0.846484C0.290625 91.2262 0 95.5793 0 100C0 104.421 0.290625 108.774 0.846484 113.043H86.9559H86.9563V199.154C91.2262 199.709 95.5793 200 100 200C104.421 200 108.774 199.71 113.043 199.154V113.045V113.044H199.154C199.709 108.774 200 104.421 200 100C200 95.5793 199.709 91.2262 199.154 86.9566Z" fill="#D80027"/>
<path d="M128.261 104.348L134.782 108.696V91.3042L128.261 95.6523H104.348V71.739L108.696 65.2175H91.3042L95.6523 71.739V95.6523H71.739L65.2175 91.3042V108.696L71.739 104.348H95.6523V128.261L91.3042 134.782H108.696L104.348 128.261V104.348H128.261Z" fill="#FFDA44"/>
</g>
<defs>
<clipPath id="clip0">
<rect width="200" height="200" fill="white"/>
</clipPath>
</defs>
</svg>
