<svg width="200" height="200" viewBox="0 0 200 200" fill="none" xmlns="http://www.w3.org/2000/svg">
<g clip-path="url(#clip0)">
<path d="M134.784 6.22031C123.95 2.20039 112.232 0 99.9999 0C87.7683 0 76.0511 2.20039 65.2183 6.21953L60.8702 100L65.2179 193.78C76.0511 197.8 87.7683 200 99.9999 200C112.233 200 123.95 197.8 134.784 193.78L139.131 100L134.784 6.22031Z" fill="#FFDA44"/>
<path d="M0 100C0 142.996 27.1375 179.651 65.2176 193.78V6.2196C27.1375 20.3493 0 57.0032 0 100Z" fill="#D80027"/>
<path d="M200 100C200 57.0032 172.863 20.3493 134.782 6.2196V193.78C172.863 179.651 200 142.996 200 100Z" fill="#6DA544"/>
</g>
<defs>
<clipPath id="clip0">
<rect width="200" height="200" fill="white"/>
</clipPath>
</defs>
</svg>
