<svg width="200" height="200" viewBox="0 0 200 200" fill="none" xmlns="http://www.w3.org/2000/svg">
<g clip-path="url(#clip0)">
<path d="M100 200C155.228 200 200 155.228 200 100C200 44.7715 155.228 0 100 0C44.7715 0 0 44.7715 0 100C0 155.228 44.7715 200 100 200Z" fill="#F0F0F0"/>
<path d="M100 0C58.6584 0 23.1787 25.0883 7.94867 60.8695H192.052C176.822 25.0883 141.342 0 100 0Z" fill="#A2001D"/>
<path d="M100 200C141.342 200 176.822 174.912 192.052 139.131H7.94867C23.1787 174.912 58.6584 200 100 200Z" fill="#496E2D"/>
<path d="M196.555 73.913H3.44492C1.20313 82.2306 0 90.974 0 100C0 109.026 1.20313 117.77 3.44492 126.087H196.555C198.797 117.77 200 109.026 200 100C200 90.974 198.797 82.2306 196.555 73.913Z" fill="#0052B4"/>
</g>
<defs>
<clipPath id="clip0">
<rect width="200" height="200" fill="white"/>
</clipPath>
</defs>
</svg>
