<svg width="200" height="200" viewBox="0 0 200 200" fill="none" xmlns="http://www.w3.org/2000/svg">
<path d="M100 0C90.9742 0 82.2304 1.20313 73.9129 3.44492L65.2176 100L73.9133 196.555C82.2305 198.797 90.9742 200 100 200C155.228 200 200 155.228 200 100C200 44.7719 155.228 0 100 0Z" fill="#FFDA44"/>
<path d="M65.2176 100L73.9133 196.555C82.2305 198.797 90.9742 200 100 200C155.228 200 200 155.228 200 100H65.2176Z" fill="#6DA544"/>
<path d="M0 100C0 137.904 21.0898 170.881 52.1738 187.841V12.159C21.0898 29.1192 0 62.0957 0 100Z" fill="#D80027"/>
<path d="M0 99.9998C0 146.203 31.3363 185.08 73.9129 196.555V3.4447C31.3363 14.9197 0 53.797 0 99.9998Z" fill="#D80027"/>
<path d="M37.7878 73.913L44.2624 93.8411H65.2178L48.2655 106.158L54.7397 126.087L37.7878 113.77L20.835 126.087L27.3108 106.158L10.3585 93.8411H31.3128L37.7878 73.913Z" fill="black"/>
</svg>
