<svg width="200" height="200" viewBox="0 0 200 200" fill="none" xmlns="http://www.w3.org/2000/svg">
<g clip-path="url(#clip0)">
<path d="M100 200C155.228 200 200 155.228 200 100C200 44.7715 155.228 0 100 0C44.7715 0 0 44.7715 0 100C0 155.228 44.7715 200 100 200Z" fill="#F0F0F0"/>
<path d="M60.8697 65.2176H193.78C179.651 27.1375 142.996 0 100 0C72.3853 0 47.388 11.1949 29.2927 29.2926L60.8697 65.2176Z" fill="#6DA544"/>
<path d="M60.8697 134.782H193.78C179.651 172.863 142.996 200 100 200C72.3853 200 47.388 188.805 29.2927 170.707L60.8697 134.782Z" fill="#D80027"/>
<path d="M29.289 29.2891C-9.76333 68.3414 -9.76333 131.658 29.289 170.711C45.4269 154.573 60.9476 139.052 99.9999 100L29.289 29.2891Z" fill="#0052B4"/>
<path d="M117.391 82.6086V104.348C117.391 117.66 134.783 121.739 134.783 121.739C134.783 121.739 152.174 117.66 152.174 104.348V82.6086H117.391Z" fill="#DEDDE0"/>
<path d="M130.435 100.435H139.13V113.043H130.435V100.435Z" fill="#786145"/>
<path d="M143.478 95.6524C143.478 90.8497 139.585 86.9567 134.782 86.9567C129.98 86.9567 126.087 90.8497 126.087 95.6524C123.686 95.6524 121.739 97.5989 121.739 100C121.739 102.401 123.686 104.348 126.087 104.348H143.478C145.879 104.348 147.826 102.401 147.826 100C147.826 97.5989 145.88 95.6524 143.478 95.6524Z" fill="#6DA544"/>
</g>
<defs>
<clipPath id="clip0">
<rect width="200" height="200" fill="white"/>
</clipPath>
</defs>
</svg>
