<svg width="200" height="200" viewBox="0 0 200 200" fill="none" xmlns="http://www.w3.org/2000/svg">
<path d="M100 200C155.228 200 200 155.228 200 100C200 44.7715 155.228 0 100 0C44.7715 0 0 44.7715 0 100C0 155.228 44.7715 200 100 200Z" fill="#F0F0F0"/>
<path d="M100 73.9132H196.555C194.048 64.6108 190.237 55.8448 185.323 47.826H100V73.9132Z" fill="#338AF3"/>
<path d="M37.7511 178.261H162.248C171.375 170.992 179.201 162.163 185.322 152.174H14.6772C20.7987 162.163 28.6253 170.992 37.7511 178.261Z" fill="#338AF3"/>
<path d="M34.7823 24.1946C26.9206 30.9646 20.1241 38.9368 14.6772 47.8259H34.7823V24.1946Z" fill="#338AF3"/>
<path d="M100 100C100 89.8141 100 81.2895 100 73.913H60.8695V100H34.7824V73.913H3.44492C1.20313 82.2309 0 90.9739 0 100C0 109.026 1.20313 117.769 3.44492 126.087H196.555C198.797 117.769 200 109.026 200 100H100Z" fill="#338AF3"/>
<path d="M99.9999 0C86.1135 0 72.8889 2.8332 60.8694 7.94844V47.8262H99.9999C99.9999 38.7199 99.9999 30.975 99.9999 21.7391H162.249C145.166 8.13438 123.535 0 99.9999 0Z" fill="#338AF3"/>
</svg>
