<svg width="200" height="200" viewBox="0 0 200 200" fill="none" xmlns="http://www.w3.org/2000/svg">
<g clip-path="url(#clip0)">
<path d="M100 200C155.228 200 200 155.228 200 100C200 44.7715 155.228 0 100 0C44.7715 0 0 44.7715 0 100C0 155.228 44.7715 200 100 200Z" fill="#FFDA44"/>
<path d="M43.6379 17.3914C59.6868 6.42031 79.0922 0 100 0C120.908 0 140.313 6.42031 156.362 17.3914L100 21.7391L43.6379 17.3914Z" fill="#A2001D"/>
<path d="M99.9999 99.9999L93.6179 93.6179L91.9233 96.6535L99.9999 99.9999Z" fill="#0052B4"/>
<path d="M29.289 29.2888C-9.76333 68.3411 -9.76333 131.658 29.289 170.711C45.4269 154.573 60.9476 139.052 99.9999 99.9997L29.289 29.2888Z" fill="#496E2D"/>
<path d="M170.711 29.2888C209.763 68.3411 209.763 131.658 170.711 170.711C154.573 154.573 139.052 139.052 100 99.9997L170.711 29.2888Z" fill="#496E2D"/>
<path d="M100 134.782C119.21 134.782 134.782 119.21 134.782 100C134.782 80.7902 119.21 65.2175 100 65.2175C80.7902 65.2175 65.2175 80.7902 65.2175 100C65.2175 119.21 80.7902 134.782 100 134.782Z" fill="#A2001D"/>
<path d="M99.9998 65.2175L107.796 89.2132H133.03L112.617 104.046L120.413 128.043L99.9998 113.213L79.5857 128.043L87.3837 104.046L66.9705 89.2132H92.2025L99.9998 65.2175Z" fill="#FFDA44"/>
<path d="M100 0C99.9887 0 99.9778 0.00078125 99.9664 0.00078125H100.033C100.022 0.00078125 100.011 0 100 0Z" fill="#FFDA44"/>
<path d="M100.033 0H99.9667C72.3679 0.00898437 47.3831 11.1977 29.2944 29.2844H170.706C152.617 11.1977 127.632 0.00898437 100.033 0Z" fill="#A2001D"/>
<path d="M29.2948 170.716C47.3909 188.809 72.3886 200 99.9999 200C127.611 200 152.609 188.809 170.705 170.716H29.2948Z" fill="#A2001D"/>
<path d="M100 10.8694L101.619 15.8515H106.858L102.62 18.9308L104.239 23.9128L100 20.8339L95.7622 23.9128L97.3814 18.9308L93.1427 15.8515H98.381L100 10.8694Z" fill="#FFDA44"/>
<path d="M75.7511 10.8694L77.3702 15.8515H82.6085L78.3706 18.9308L79.9898 23.9128L75.7511 20.8339L71.5136 23.9128L73.1323 18.9308L68.8937 15.8515H74.132L75.7511 10.8694Z" fill="#FFDA44"/>
<path d="M124.249 10.8694L125.868 15.8515H131.106L126.868 18.9308L128.487 23.9128L124.249 20.8339L120.011 23.9128L121.63 18.9308L117.391 15.8515H122.63L124.249 10.8694Z" fill="#FFDA44"/>
<path d="M100 176.087L101.619 181.069H106.858L102.62 184.148L104.239 189.13L100 186.051L95.7622 189.13L97.3814 184.148L93.1427 181.069H98.381L100 176.087Z" fill="#FFDA44"/>
<path d="M75.7511 176.087L77.3702 181.069H82.6085L78.3706 184.148L79.9898 189.13L75.7511 186.051L71.5136 189.13L73.1323 184.148L68.8937 181.069H74.132L75.7511 176.087Z" fill="#FFDA44"/>
<path d="M124.249 176.087L125.868 181.069H131.106L126.868 184.148L128.487 189.13L124.249 186.051L120.011 189.13L121.63 184.148L117.391 181.069H122.63L124.249 176.087Z" fill="#FFDA44"/>
<path d="M30.4699 98.3481C33.0383 102.406 31.8312 107.778 27.773 110.347C23.7152 112.915 18.3434 111.708 15.7746 107.65C11.1242 100.303 13.8207 88.3043 13.8207 88.3043C13.8207 88.3043 25.8191 91.0008 30.4699 98.3481Z" fill="#FFDA44"/>
<path d="M25.4476 111.021C27.8488 111.021 29.7953 109.075 29.7953 106.674C29.7953 104.273 27.8488 102.326 25.4476 102.326C23.0465 102.326 21.1 104.273 21.1 106.674C21.1 109.075 23.0465 111.021 25.4476 111.021Z" fill="#A2001D"/>
</g>
<defs>
<clipPath id="clip0">
<rect width="200" height="200" fill="white"/>
</clipPath>
</defs>
</svg>
