<svg width="200" height="200" viewBox="0 0 200 200" fill="none" xmlns="http://www.w3.org/2000/svg">
<path d="M0 100C0 44.7719 44.7719 0 100 0C155.228 0 200 44.7719 200 100C195.652 100 100 113.043 100 113.043L0 100Z" fill="#F0F0F0"/>
<path d="M200 100C200 155.228 155.228 200 100 200C44.7719 200 0 155.228 0 100" fill="#D80027"/>
<path d="M69.5654 147.826C95.9791 147.826 117.392 126.413 117.392 99.9998C117.392 73.5861 95.9791 52.1736 69.5654 52.1736C43.1518 52.1736 21.7393 73.5861 21.7393 99.9998C21.7393 126.413 43.1518 147.826 69.5654 147.826Z" fill="#F0F0F0"/>
<path d="M21.7393 99.9998C21.7393 73.5869 43.1518 52.1736 69.5654 52.1736C95.9795 52.1736 117.392 73.5865 117.392 99.9998" fill="#D80027"/>
</svg>
