<svg width="200" height="200" viewBox="0 0 200 200" fill="none" xmlns="http://www.w3.org/2000/svg">
<g clip-path="url(#clip0)">
<path d="M100 200C155.228 200 200 155.228 200 100C200 44.7715 155.228 0 100 0C44.7715 0 0 44.7715 0 100C0 155.228 44.7715 200 100 200Z" fill="#F0F0F0"/>
<path d="M200 99.9997C200 60.3537 176.928 26.0974 143.478 9.92242V190.077C176.928 173.902 200 139.645 200 99.9997Z" fill="#338AF3"/>
<path d="M0 99.9998C0 139.645 23.0723 173.902 56.5219 190.077V9.92242C23.0723 26.0974 0 60.3537 0 99.9998Z" fill="#338AF3"/>
<path d="M126.132 116.909L109.224 100.001L125.319 83.9049L124.589 75.4041L119.981 70.7955L100 90.7768L80.019 70.7955L75.4112 75.4041L74.6819 83.9049L90.7768 100.001L73.8678 116.909L83.0912 126.132L100 109.224L116.909 126.132L126.132 116.909Z" fill="#ACABB1"/>
<path d="M124.595 75.405L115.372 84.6281C119.306 88.5621 121.739 93.9968 121.739 100C121.739 112.006 112.006 121.739 100 121.739C87.9945 121.739 78.2609 112.006 78.2609 100C78.2609 93.9968 80.6945 88.5621 84.6285 84.6281L75.4054 75.405C69.1105 81.6988 65.2175 90.3945 65.2175 100C65.2175 119.21 80.7902 134.782 100 134.782C119.21 134.782 134.782 119.21 134.782 100C134.782 90.3949 130.889 81.6992 124.595 75.405Z" fill="#6DA544"/>
</g>
<defs>
<clipPath id="clip0">
<rect width="200" height="200" fill="white"/>
</clipPath>
</defs>
</svg>
