<svg width="200" height="200" viewBox="0 0 200 200" fill="none" xmlns="http://www.w3.org/2000/svg">
<g clip-path="url(#clip0)">
<path d="M43.6379 182.609C59.6864 193.579 79.0926 200 100 200C120.907 200 140.313 193.579 156.362 182.609L100 173.913L43.6379 182.609Z" fill="#D80027"/>
<path d="M156.362 17.3914C140.313 6.4207 120.907 0 100 0C79.0926 0 59.6864 6.4207 43.6379 17.3914L100 26.0871L156.362 17.3914Z" fill="#D80027"/>
<path d="M200 99.9997C200 66.9099 180.189 33.6794 156.362 17.3911H43.6379C17.293 35.4005 0 65.6794 0 99.9997C0 134.321 17.293 164.599 43.6379 182.608H156.362C182.707 164.599 200 134.321 200 99.9997Z" fill="#0052B4"/>
<path d="M94.3409 163.124C92.9745 161.952 60.8694 134.042 60.8694 99.9998C60.8694 65.9572 92.9741 38.0474 94.3409 36.8759L99.9998 32.0251L105.659 36.8755C107.025 38.0474 139.13 65.9568 139.13 99.9998C139.13 134.043 107.026 161.952 105.659 163.124L99.9998 167.974L94.3409 163.124Z" fill="#D80027"/>
<path d="M130.435 100C130.435 69.5654 100 43.4783 100 43.4783C100 43.4783 69.5653 69.5662 69.5653 100C69.5653 109.311 72.4157 118.213 76.3696 126.087H123.631C127.584 118.213 130.435 109.311 130.435 100Z" fill="#338AF3"/>
<path d="M130.435 100C130.435 109.311 127.584 118.212 123.631 126.087L100 130.435L76.3696 126.087C72.4157 118.213 69.5653 109.311 69.5653 100H130.435Z" fill="#0052B4"/>
<path d="M100 156.522C100 156.522 114.659 143.953 123.631 126.087H76.3696C85.3407 143.953 100 156.522 100 156.522Z" fill="#FFDA44"/>
<path d="M80.4347 82.6089H119.565L99.9999 102.174L80.4347 82.6089Z" fill="#6DA544"/>
<path d="M93.4783 95.6522H106.522V134.783H93.4783V95.6522Z" fill="#A2001D"/>
</g>
<defs>
<clipPath id="clip0">
<rect width="200" height="200" fill="white"/>
</clipPath>
</defs>
</svg>
