<svg width="200" height="200" viewBox="0 0 200 200" fill="none" xmlns="http://www.w3.org/2000/svg">
<g clip-path="url(#clip0)">
<path d="M100 200C155.228 200 200 155.228 200 100C200 44.7715 155.228 0 100 0C44.7715 0 0 44.7715 0 100C0 155.228 44.7715 200 100 200Z" fill="#F0F0F0"/>
<path d="M99.9999 0C82.3198 0 65.7151 4.59453 51.3042 12.6453V187.355C65.7155 195.405 82.3198 200 99.9999 200C155.228 200 200 155.228 200 100C200 44.7719 155.228 0 99.9999 0Z" fill="#6DA544"/>
<path d="M51.5983 12.4807C45.3073 15.967 39.4331 20.1108 34.0663 24.8217C34.6089 24.3459 35.1569 23.8756 35.7093 23.4116L112.297 99.9999L35.7089 176.588C35.1562 176.124 34.6085 175.654 34.0659 175.178C39.4327 179.889 45.3073 184.032 51.5979 187.519L200 99.9999L51.5983 12.4807Z" fill="#F0F0F0"/>
<path d="M43.1522 17.7274C40.1026 19.8391 37.1737 22.1114 34.3827 24.5399L99.9999 100L34.3823 175.46C37.1733 177.889 40.1022 180.161 43.1519 182.273L182.882 100L43.1522 17.7274Z" fill="#FFDA44"/>
<path d="M35.709 23.412C33.4859 25.28 31.3406 27.2382 29.2891 29.2893L91.3043 100L29.2891 170.711C31.3406 172.763 33.4855 174.721 35.709 176.589L112.297 100L35.709 23.412Z" fill="black"/>
<path d="M29.289 29.2888C-9.76333 68.3412 -9.76333 131.658 29.289 170.711C45.4269 154.573 60.9476 139.052 99.9999 99.9997L29.289 29.2888Z" fill="#D80027"/>
</g>
<defs>
<clipPath id="clip0">
<rect width="200" height="200" fill="white"/>
</clipPath>
</defs>
</svg>
