<svg width="200" height="200" viewBox="0 0 200 200" fill="none" xmlns="http://www.w3.org/2000/svg">
<g clip-path="url(#clip0)">
<path d="M100 200C155.228 200 200 155.228 200 100C200 44.7715 155.228 0 100 0C44.7715 0 0 44.7715 0 100C0 155.228 44.7715 200 100 200Z" fill="#F0F0F0"/>
<path d="M100 200C125.358 200 148.508 190.556 166.135 175H33.865C51.4927 190.556 74.6419 200 100 200Z" fill="#D80027"/>
<path d="M3.15039 125C5.43359 133.869 8.90469 142.261 13.3813 150H186.618C191.095 142.261 194.566 133.869 196.849 125L100 117.391L3.15039 125Z" fill="#0052B4"/>
<path d="M196.849 75C194.566 66.1305 191.095 57.7383 186.619 50L99.9999 47.8262C99.9999 30.3602 99.9999 13.8535 99.9999 0C92.5713 0 85.3315 0.810547 78.3647 2.34687C78.2311 2.37656 13.0432 53.7961 13.0432 100C14.71 100.29 99.9999 108.696 99.9999 108.696C99.9999 108.696 99.9999 89.6484 99.9999 75H196.849Z" fill="#0052B4"/>
<path d="M100 62.3912V12.3912H68.3301L78.368 2.35327C37.1605 11.4416 5.49844 45.9431 0.652344 88.5869C0.226562 92.333 0 96.1396 0 99.9998H50.6523V80.0689L70.7805 99.9998H106.556L68.3297 62.3912H100Z" fill="#F0F0F0"/>
<path d="M100.046 99.9999L62.4371 62.3913H50.6523V62.3917L88.2606 99.9999H38.0434V49.9999H186.619C181.174 40.5886 174.238 32.1495 166.136 24.9999H38.0434V21.5135C27.9543 29.4889 19.4418 39.3671 13.0434 50.6069V99.9999H0C0 108.632 1.09375 117.01 3.15039 125H196.85C198.906 117.009 200 108.632 200 99.9999H100.046Z" fill="#D80027"/>
</g>
<defs>
<clipPath id="clip0">
<rect width="200" height="200" fill="white"/>
</clipPath>
</defs>
</svg>
