<svg width="200" height="200" viewBox="0 0 200 200" fill="none" xmlns="http://www.w3.org/2000/svg">
<path d="M100 200C155.228 200 200 155.228 200 100C200 44.7715 155.228 0 100 0C44.7715 0 0 44.7715 0 100C0 155.228 44.7715 200 100 200Z" fill="#D80027"/>
<path d="M110.324 75.6518C108.052 85.1045 104.014 83.3018 102.032 91.5455C90.3589 88.7389 83.1699 77.0006 85.9765 65.3268C88.782 53.6537 100.521 46.4647 112.195 49.2713C108.231 65.7584 112.357 67.1975 110.324 75.6518Z" fill="#F0F0F0"/>
<path d="M80.0339 82.6564C88.3218 87.7385 85.3593 91.0224 92.5866 95.4549C86.3101 105.69 72.9253 108.899 62.6901 102.622C52.4554 96.3463 49.2456 82.9607 55.5222 72.726C69.9776 81.59 72.6202 78.1107 80.0339 82.6564Z" fill="#F0F0F0"/>
<path d="M77.3351 113.63C84.73 107.318 86.9367 111.15 93.3855 105.646C101.18 114.778 100.096 128.5 90.9648 136.295C81.8328 144.089 68.1109 143.004 60.3171 133.873C73.2132 122.864 70.7207 119.275 77.3351 113.63Z" fill="#F0F0F0"/>
<path d="M105.958 125.768C102.24 116.785 106.566 115.869 103.324 108.036C114.418 103.445 127.133 108.716 131.725 119.809C136.316 130.903 131.044 143.618 119.951 148.209C113.467 132.542 109.284 133.803 105.958 125.768Z" fill="#F0F0F0"/>
<path d="M126.348 102.296C116.655 103.056 117.12 98.6578 108.669 99.3211C107.73 87.3527 116.673 76.8875 128.643 75.948C140.611 75.0109 151.076 83.9531 152.014 95.9226C135.109 97.248 135.016 101.616 126.348 102.296Z" fill="#F0F0F0"/>
</svg>
