<svg width="200" height="200" viewBox="0 0 200 200" fill="none" xmlns="http://www.w3.org/2000/svg">
<mask id="mask0_306_2465" style="mask-type:alpha" maskUnits="userSpaceOnUse" x="0" y="0" width="200" height="200">
<rect width="200" height="200" rx="100" fill="#C4C4C4"/>
</mask>
<g mask="url(#mask0_306_2465)">
<mask id="mask1_306_2465" style="mask-type:alpha" maskUnits="userSpaceOnUse" x="-33" y="0" width="266" height="200">
<rect x="-33" y="0.25" width="266" height="199.5" fill="white"/>
</mask>
<g mask="url(#mask1_306_2465)">
<path fill-rule="evenodd" clip-rule="evenodd" d="M-33 0.25V199.75H233V0.25H-33Z" fill="#2E42A5"/>
<mask id="mask2_306_2465" style="mask-type:alpha" maskUnits="userSpaceOnUse" x="-33" y="0" width="266" height="200">
<path fill-rule="evenodd" clip-rule="evenodd" d="M-33 0.25V199.75H233V0.25H-33Z" fill="white"/>
</mask>
<g mask="url(#mask2_306_2465)">
<rect x="-33" y="0.25" width="149.625" height="116.375" fill="#2B409A"/>
<mask id="mask3_306_2465" style="mask-type:alpha" maskUnits="userSpaceOnUse" x="-33" y="0" width="150" height="117">
<rect x="-33" y="0.25" width="149.625" height="116.375" fill="white"/>
</mask>
<g mask="url(#mask3_306_2465)">
<path d="M-49.6599 108.309L-16.7345 122.749L117.373 15.948L134.74 -5.51102L99.5311 -10.3375L44.832 35.6863L0.804813 66.6955L-49.6599 108.309Z" fill="#F7FCFF"/>
<path d="M-45.1514 118.428L-28.3774 126.808L128.505 -7.5029H104.952L-45.1514 118.428Z" fill="#F50100"/>
<path d="M133.283 108.309L100.357 122.749L-33.7499 15.948L-51.1173 -5.51102L-15.9083 -10.3375L38.7908 35.6863L82.818 66.6955L133.283 108.309Z" fill="#F7FCFF"/>
<path d="M132.159 115.571L115.385 123.951L48.5827 66.4452L28.7774 60.0202L-52.789 -5.43684H-29.2364L52.2842 58.4665L73.9378 66.1707L132.159 115.571Z" fill="#F50100"/>
<path fill-rule="evenodd" clip-rule="evenodd" d="M49.9949 0.249756H33.3699V50.1248H-33.0002V66.7498H33.3699V116.625H49.9949V66.7498H116.625V50.1248H49.9949V0.249756Z" fill="#F50100"/>
<path fill-rule="evenodd" clip-rule="evenodd" d="M25.697 -7.4231H57.6682V42.4519H124.298V74.4231H57.6682V124.298H25.697V74.4231H-40.6731V42.4519H25.697V-7.4231ZM33.3701 50.125H-33V66.75H33.3701V116.625H49.9951V66.75H116.625V50.125H49.9951V0.249982H33.3701V50.125Z" fill="#F7FCFF"/>
</g>
</g>
<g clip-path="url(#clip0_306_2465)">
<path d="M41.8125 170.656L30.9925 180.655L32.064 165.962L17.5002 163.737L29.6564 155.413L22.3156 142.639L36.4025 146.954L41.8125 133.25L47.2225 146.954L61.3094 142.639L53.9686 155.413L66.1248 163.737L51.561 165.962L52.6325 180.655L41.8125 170.656Z" fill="#F7FCFF"/>
<path d="M149.875 108.313L142.662 114.979L143.376 105.183L133.667 103.699L141.771 98.1503L136.877 89.6345L146.268 92.5107L149.875 83.375L153.482 92.5107L162.873 89.6345L157.979 98.1503L166.083 103.699L156.374 105.183L157.088 114.979L149.875 108.313Z" fill="#F7FCFF"/>
<path d="M166.5 41.8125L159.287 48.4786L160.001 38.6828L150.292 37.1994L158.396 31.6503L153.502 23.1345L162.893 26.0107L166.5 16.875L170.107 26.0107L179.498 23.1345L174.604 31.6503L182.708 37.1994L172.999 38.6828L173.713 48.4786L166.5 41.8125Z" fill="#F7FCFF"/>
<path d="M208.062 75.0625L200.849 81.7286L201.564 71.9328L191.854 70.4494L199.958 64.9003L195.065 56.3845L204.456 59.2607L208.062 50.125L211.669 59.2607L221.06 56.3845L216.167 64.9003L224.271 70.4494L214.561 71.9328L215.276 81.7286L208.062 75.0625Z" fill="#F7FCFF"/>
<path d="M174.812 183.125L167.599 189.791L168.314 179.995L158.604 178.512L166.708 172.963L161.815 164.447L171.206 167.323L174.812 158.188L178.419 167.323L187.81 164.447L182.917 172.963L191.021 178.512L181.311 179.995L182.026 189.791L174.812 183.125Z" fill="#F7FCFF"/>
<path d="M203.906 118.703L196.577 122.556L197.977 114.395L192.048 108.616L200.242 107.425L203.906 100L207.571 107.425L215.765 108.616L209.835 114.395L211.235 122.556L203.906 118.703Z" fill="#F7FCFF"/>
</g>
</g>
</g>
<defs>
<clipPath id="clip0_306_2465">
<rect width="207.812" height="174.562" fill="white" transform="translate(16.875 16.875)"/>
</clipPath>
</defs>
</svg>
