<svg width="200" height="200" viewBox="0 0 200 200" fill="none" xmlns="http://www.w3.org/2000/svg">
<g clip-path="url(#clip0)">
<path d="M200 99.9999C200 87.7679 197.8 76.0503 193.78 65.2175L100 60.8694L6.21992 65.2171C2.20039 76.0503 0 87.7679 0 99.9999C0 112.232 2.20039 123.95 6.21992 134.782L100 139.13L193.78 134.783C197.8 123.95 200 112.232 200 99.9999Z" fill="#F0F0F0"/>
<path d="M100 200C142.997 200 179.651 172.863 193.78 134.782H6.22002C20.3493 172.863 57.0036 200 100 200Z" fill="#0052B4"/>
<path d="M6.22002 65.2176H193.781C179.651 27.1375 142.997 0 100 0C57.0036 0 20.3493 27.1375 6.22002 65.2176Z" fill="#D80027"/>
<path d="M126.087 69.5657H108.696L111.595 47.8263L123.188 39.1306L134.783 47.8263V65.2177L126.087 69.5657Z" fill="#338AF3"/>
<path d="M73.9129 69.5657H91.3043L88.4054 47.8263L76.8113 39.1306L65.2176 47.8263V65.2177L73.9129 69.5657Z" fill="#338AF3"/>
<path d="M111.594 69.5657H88.4052V47.8263L99.9998 39.1306L111.594 47.8263V69.5657Z" fill="#0052B4"/>
<path d="M65.2176 65.218V113.044C65.2176 124.432 70.7183 134.559 79.2027 140.908L85.2898 139.385L92.9711 147.112C95.2426 147.58 97.5929 147.827 100 147.827C102.395 147.827 104.734 147.583 106.993 147.12L115.761 139.819L120.797 140.894C129.278 134.545 134.783 124.428 134.783 113.044V65.218H65.2176Z" fill="#F0F0F0"/>
<path d="M65.2176 65.2176H79.1305V79.1305H65.2176V65.2176Z" fill="#D80027"/>
<path d="M93.0431 65.2176H106.956V79.1305H93.0431V65.2176Z" fill="#D80027"/>
<path d="M120.87 65.2176H134.783V79.1305H120.87V65.2176Z" fill="#D80027"/>
<path d="M79.1303 79.1303H93.0432V93.0432H79.1303V79.1303Z" fill="#D80027"/>
<path d="M106.957 79.1303H120.87V93.0432H106.957V79.1303Z" fill="#D80027"/>
<path d="M65.2176 93.0389H79.1305V106.952H65.2176V93.0389Z" fill="#D80027"/>
<path d="M79.1303 106.952H93.0432V120.865H79.1303V106.952Z" fill="#D80027"/>
<path d="M93.0431 93.0389H106.956V106.952H93.0431V93.0389Z" fill="#D80027"/>
<path d="M120.87 93.0389H134.783V106.952H120.87V93.0389Z" fill="#D80027"/>
<path d="M106.957 106.952H120.87V120.865H106.957V106.952Z" fill="#D80027"/>
<path d="M93.0431 120.865H106.956V134.778H93.0431V120.865Z" fill="#D80027"/>
<path d="M79.1305 120.866H66.1153C67.3091 126.038 69.6559 130.771 72.8739 134.779H79.1305V120.866Z" fill="#D80027"/>
<path d="M120.87 134.78H127.126C130.345 130.771 132.691 126.038 133.885 120.867H120.87V134.78Z" fill="#D80027"/>
<path d="M79.1303 134.78V140.85C83.1768 143.895 87.9057 146.078 93.0432 147.126V134.78H79.1303Z" fill="#D80027"/>
<path d="M106.957 134.78V147.126C112.095 146.079 116.823 143.895 120.87 140.85V134.78H106.957Z" fill="#D80027"/>
</g>
<defs>
<clipPath id="clip0">
<rect width="200" height="200" fill="white"/>
</clipPath>
</defs>
</svg>
