<svg width="200" height="200" viewBox="0 0 200 200" fill="none" xmlns="http://www.w3.org/2000/svg">
<path d="M200 100C200 155.228 155.228 200 100 200C44.7719 200 0 155.228 0 100C0 44.7719 100 0 100 0C100 0 200 44.7719 200 100Z" fill="#A2001D"/>
<path d="M0 100C0 44.7719 44.7719 0 100 0C155.228 0 200 44.7719 200 100" fill="#0052B4"/>
<path d="M134.782 126.087L100 121.739L65.2175 126.087V73.913H134.782V126.087Z" fill="#F0F0F0"/>
<path d="M100 121.739C109.605 121.739 117.391 113.952 117.391 104.347C117.391 94.7425 109.605 86.9561 100 86.9561C90.395 86.9561 82.6086 94.7425 82.6086 104.347C82.6086 113.952 90.395 121.739 100 121.739Z" fill="#0052B4"/>
<path d="M100 113.043C104.803 113.043 108.696 109.15 108.696 104.348C108.696 99.5451 104.803 95.6519 100 95.6519C95.1976 95.6519 91.3044 99.5451 91.3044 104.348C91.3044 109.15 95.1976 113.043 100 113.043Z" fill="#A2001D"/>
<path d="M86.9568 82.6089H113.044L100 95.6526L86.9568 82.6089Z" fill="#6DA544"/>
<path d="M95.6523 91.3042H104.348V117.391H95.6523V91.3042Z" fill="#FFDA44"/>
<path d="M113.913 114.783H86.0863L65.2175 126.087H134.782L113.913 114.783Z" fill="#6DA544"/>
</svg>
