<svg width="200" height="200" viewBox="0 0 200 200" fill="none" xmlns="http://www.w3.org/2000/svg">
<g clip-path="url(#clip0)">
<path d="M6.21992 65.2174C2.20039 76.051 0 87.7678 0 99.9999C0 112.232 2.20039 123.949 6.21992 134.782L100 143.478L193.78 134.782C197.8 123.949 200 112.232 200 99.9999C200 87.7678 197.8 76.051 193.78 65.2174L100 56.5217L6.21992 65.2174Z" fill="#F0F0F0"/>
<path d="M100 0C57.0041 0 20.3494 27.1375 6.22046 65.2176H193.781C179.651 27.1375 142.997 0 100 0Z" fill="#D80027"/>
<path d="M100 200C142.997 200 179.651 172.863 193.781 134.782H6.22046C20.3494 172.863 57.0041 200 100 200Z" fill="#6DA544"/>
</g>
<defs>
<clipPath id="clip0">
<rect width="200" height="200" fill="white"/>
</clipPath>
</defs>
</svg>
