<svg width="200" height="200" viewBox="0 0 200 200" fill="none" xmlns="http://www.w3.org/2000/svg">
<path d="M100 200C155.228 200 200 155.228 200 100C200 44.7715 155.228 0 100 0C44.7715 0 0 44.7715 0 100C0 155.228 44.7715 200 100 200Z" fill="#D80027"/>
<path d="M137.026 67.0359L129.958 92.2589L108.751 88.3429L95.1006 60.2042L58.2229 73.2905L55.3147 65.0952L45.6663 63.9066L52.9362 84.3945L78.3147 77.9042L85.5268 98.2281L67.9831 124.119L97.7553 149.512L92.1124 156.128L95.9069 165.079L110.015 148.539L91.7053 129.805L105.7 113.398L136.895 115.646L144 77.1652L152.551 78.7445L158.406 70.9827L137.026 67.0359Z" fill="#F0F0F0"/>
</svg>
