<svg width="200" height="200" viewBox="0 0 200 200" fill="none" xmlns="http://www.w3.org/2000/svg">
<g clip-path="url(#clip0)">
<path d="M100 200C155.228 200 200 155.228 200 100C200 44.7715 155.228 0 100 0C44.7715 0 0 44.7715 0 100C0 155.228 44.7715 200 100 200Z" fill="#F0F0F0"/>
<path d="M99.9997 0C60.3537 0 26.0974 23.0723 9.92242 56.5219H190.077C173.902 23.0723 139.645 0 99.9997 0Z" fill="#FF9811"/>
<path d="M99.9998 200C139.645 200 173.902 176.928 190.077 143.478H9.92242C26.0974 176.928 60.3537 200 99.9998 200Z" fill="#6DA544"/>
<path d="M100 134.782C119.21 134.782 134.782 119.21 134.782 100C134.782 80.7902 119.21 65.2175 100 65.2175C80.7902 65.2175 65.2175 80.7902 65.2175 100C65.2175 119.21 80.7902 134.782 100 134.782Z" fill="#0052B4"/>
<path d="M100 121.739C112.006 121.739 121.739 112.006 121.739 100C121.739 87.994 112.006 78.2611 100 78.2611C87.9941 78.2611 78.2612 87.994 78.2612 100C78.2612 112.006 87.9941 121.739 100 121.739Z" fill="#F0F0F0"/>
<path d="M99.9998 73.1741L106.706 88.3842L123.231 86.587L113.413 99.9998L123.231 113.413L106.706 111.615L99.9998 126.826L93.2931 111.615L76.7681 113.412L86.5869 99.9998L76.7681 86.587L93.2931 88.3842L99.9998 73.1741Z" fill="#0052B4"/>
</g>
<defs>
<clipPath id="clip0">
<rect width="200" height="200" fill="white"/>
</clipPath>
</defs>
</svg>
