<svg width="200" height="200" viewBox="0 0 200 200" fill="none" xmlns="http://www.w3.org/2000/svg">
<g clip-path="url(#clip0)">
<path d="M100 200C155.228 200 200 155.228 200 100C200 44.7715 155.228 0 100 0C44.7715 0 0 44.7715 0 100C0 155.228 44.7715 200 100 200Z" fill="#F0F0F0"/>
<path d="M132.48 73.913H119.396C119.504 75.3509 119.566 76.8017 119.566 78.2606C119.566 87.9341 117.148 97.3103 112.932 103.984C111.632 106.043 109.447 108.95 106.522 110.911V73.9126H93.4784V110.911C90.5538 108.95 88.3683 106.043 87.0679 103.984C82.8522 97.3103 80.4347 87.9341 80.4347 78.2606C80.4347 76.8017 80.4964 75.3505 80.6042 73.913H67.5206C67.4366 75.3438 67.3909 76.7931 67.3909 78.2606C67.3909 105.079 81.7143 126.087 99.9995 126.087C118.285 126.087 132.608 105.079 132.608 78.2606C132.609 76.7931 132.563 75.3438 132.48 73.913Z" fill="#D80027"/>
<path d="M41.3041 47.8262H54.3475V56.5219H67.3908V47.8262H80.4342V56.5219H93.4775V47.8262H106.521V56.5219H119.564V47.8262H132.608V56.5219H145.651V47.8262H158.694V56.5219H190.076C173.902 23.0723 139.645 0 99.9998 0C60.3541 0 26.0975 23.0723 9.92245 56.5219H41.3041V47.8262Z" fill="#6DA544"/>
<path d="M158.695 143.478V152.174H145.652V143.478H132.609V152.174H119.565V143.478H106.522V152.174H93.4787V143.478H80.4353V152.174H67.392V143.478H54.3475V152.174H41.3041V143.478H9.92245C26.0975 176.928 60.3537 200 99.9998 200C139.646 200 173.902 176.928 190.077 143.478H158.695Z" fill="#D80027"/>
</g>
<defs>
<clipPath id="clip0">
<rect width="200" height="200" fill="white"/>
</clipPath>
</defs>
</svg>
