<svg width="200" height="200" viewBox="0 0 200 200" fill="none" xmlns="http://www.w3.org/2000/svg">
<g clip-path="url(#clip0)">
<path d="M100 200C155.228 200 200 155.228 200 100C200 44.7715 155.228 0 100 0C44.7715 0 0 44.7715 0 100C0 155.228 44.7715 200 100 200Z" fill="#F0F0F0"/>
<path d="M100 0C57.0036 0 20.3493 27.1375 6.21997 65.2176H193.781C179.651 27.1375 142.997 0 100 0Z" fill="#A2001D"/>
<path d="M100 200C142.997 200 179.651 172.863 193.78 134.782H6.21997C20.3493 172.863 57.0036 200 100 200Z" fill="black"/>
<path d="M76.0872 93.4782C76.0325 93.4782 75.979 93.4817 75.9243 93.4825V93.4782H56.8083C57.7774 89.7337 61.175 86.9563 65.2176 86.9563V73.913C53.2305 73.913 43.4786 83.6653 43.4786 95.652V106.304V106.522H75.9243H76.0872C77.286 106.522 78.261 107.497 78.261 108.696V113.043H34.7825V126.087H91.3043V108.695C91.3043 100.305 84.4778 93.4782 76.0872 93.4782Z" fill="#496E2D"/>
<path d="M108.696 113.043V73.913H95.6523V126.087H117.391V113.043H108.696Z" fill="#496E2D"/>
<path d="M152.174 113.044V73.913H139.131V113.044H134.783V100H121.739V126.088H160.87V113.044H152.174Z" fill="#496E2D"/>
</g>
<defs>
<clipPath id="clip0">
<rect width="200" height="200" fill="white"/>
</clipPath>
</defs>
</svg>
