<svg width="200" height="200" viewBox="0 0 200 200" fill="none" xmlns="http://www.w3.org/2000/svg">
<path d="M100 200C155.228 200 200 155.228 200 100C200 44.7715 155.228 0 100 0C44.7715 0 0 44.7715 0 100C0 155.228 44.7715 200 100 200Z" fill="#F0F0F0"/>
<path d="M137.653 78.2608H112.55L99.9997 56.5217L87.4493 78.2608H62.3462L74.8985 99.9999L62.3462 121.739H87.4493L99.9997 143.478L112.55 121.739H137.653L125.101 99.9999L137.653 78.2608ZM115.42 99.9999L107.71 113.355H92.2903L84.5798 99.9999L92.2899 86.6452H107.71L115.42 99.9999ZM99.9997 73.2901L102.869 78.2604H97.131L99.9997 73.2901ZM76.8692 86.6452H82.6083L79.7388 91.6155L76.8692 86.6452ZM76.8692 113.355L79.7392 108.384L82.6087 113.355H76.8692ZM99.9997 126.709L97.1306 121.739H102.869L99.9997 126.709ZM123.13 113.355H117.391L120.261 108.384L123.13 113.355ZM117.391 86.6452H123.13L120.261 91.6155L117.391 86.6452Z" fill="#0052B4"/>
<path d="M162.249 21.7389H37.7511C28.6249 29.0076 20.7983 37.8365 14.6772 47.826H185.323C179.201 37.8369 171.375 29.0076 162.249 21.7389Z" fill="#0052B4"/>
<path d="M37.7511 178.261H162.248C171.375 170.992 179.201 162.163 185.322 152.174H14.6772C20.7987 162.163 28.6253 170.992 37.7511 178.261Z" fill="#0052B4"/>
</svg>
