<svg width="200" height="200" viewBox="0 0 200 200" fill="none" xmlns="http://www.w3.org/2000/svg">
<g clip-path="url(#clip0)">
<path d="M100 200C155.228 200 200 155.228 200 100C200 44.7715 155.228 0 100 0C44.7715 0 0 44.7715 0 100C0 155.228 44.7715 200 100 200Z" fill="#F0F0F0"/>
<path d="M200 100C200 57.0036 172.863 20.3493 134.782 6.21997V193.781C172.863 179.651 200 142.997 200 100Z" fill="#D80027"/>
<path d="M0 100C0 142.997 27.1375 179.651 65.2176 193.78V6.21997C27.1375 20.3493 0 57.0036 0 100Z" fill="#6DA544"/>
</g>
<defs>
<clipPath id="clip0">
<rect width="200" height="200" fill="white"/>
</clipPath>
</defs>
</svg>
