<svg width="200" height="200" viewBox="0 0 200 200" fill="none" xmlns="http://www.w3.org/2000/svg">
<g clip-path="url(#clip0)">
<path d="M100 200C155.228 200 200 155.228 200 100C200 44.7715 155.228 0 100 0C44.7715 0 0 44.7715 0 100C0 155.228 44.7715 200 100 200Z" fill="#FFDA44"/>
<path d="M160.882 20.6719C144.019 7.71055 122.912 0 100 0C77.0886 0 55.9808 7.71094 39.1187 20.6719L100 81.5531L160.882 20.6719Z" fill="#6DA544"/>
<path d="M20.6715 39.119C7.71094 55.9811 0 77.0886 0 100C0 122.912 7.71094 144.02 20.6719 160.882L81.5535 100L20.6715 39.119Z" fill="black"/>
<path d="M39.1187 179.328C55.9812 192.29 77.0886 200 100 200C122.912 200 144.019 192.289 160.882 179.328L100 118.447L39.1187 179.328Z" fill="#6DA544"/>
<path d="M179.328 160.882C192.29 144.019 200 122.912 200 100C200 77.0886 192.29 55.9811 179.328 39.119L118.447 100L179.328 160.882Z" fill="black"/>
</g>
<defs>
<clipPath id="clip0">
<rect width="200" height="200" fill="white"/>
</clipPath>
</defs>
</svg>
