<svg width="200" height="200" viewBox="0 0 200 200" fill="none" xmlns="http://www.w3.org/2000/svg">
<path d="M100 200C155.228 200 200 155.228 200 100C200 44.7715 155.228 0 100 0C44.7715 0 0 44.7715 0 100C0 155.228 44.7715 200 100 200Z" fill="#F0F0F0"/>
<path d="M179.335 160.888L118.446 100H118.446L179.335 39.1108C176.709 35.6983 173.836 32.4151 170.711 29.2889C167.585 26.1631 164.302 23.2901 160.889 20.6647L100 81.5533L99.9998 81.5537L39.1111 20.6647C35.699 23.2905 32.4154 26.1627 29.2893 29.2889C26.1631 32.4151 23.2904 35.6983 20.665 39.1108L81.5537 99.999L81.5541 99.9994L20.6646 160.889C23.2908 164.301 26.1635 167.585 29.2889 170.711C32.415 173.837 35.6978 176.71 39.1107 179.335L99.9998 118.446L100 118.446L160.889 179.335C164.301 176.709 167.585 173.836 170.711 170.71C173.837 167.584 176.709 164.301 179.335 160.888Z" fill="#D80027"/>
<path d="M82.6089 30.4349L100 34.7825L117.392 30.4349V15.6524L110.435 19.1306L100 8.6958L89.5655 19.1306L82.6089 15.6524V30.4349Z" fill="#FFDA44"/>
<path d="M82.6089 30.4347V41.305C82.6089 54.6175 100 58.6964 100 58.6964C100 58.6964 117.392 54.6171 117.392 41.305V30.4347H82.6089Z" fill="#D80027"/>
</svg>
