<svg width="200" height="200" viewBox="0 0 200 200" fill="none" xmlns="http://www.w3.org/2000/svg">
<g clip-path="url(#clip0)">
<path d="M100 200C155.228 200 200 155.228 200 100C200 44.7715 155.228 0 100 0C44.7715 0 0 44.7715 0 100C0 155.228 44.7715 200 100 200Z" fill="#F0F0F0"/>
<path d="M60.8694 65.2176H193.78C179.651 27.1375 142.996 0 99.9998 0C72.385 0 47.3877 11.1949 29.2924 29.2926L60.8694 65.2176Z" fill="black"/>
<path d="M60.8694 134.782H193.78C179.651 172.863 142.996 200 99.9998 200C72.385 200 47.3877 188.805 29.2924 170.707L60.8694 134.782Z" fill="#6DA544"/>
<path d="M29.2893 29.2888C-9.76299 68.3412 -9.76299 131.658 29.2893 170.711C45.4272 154.573 60.9479 139.052 100 99.9997L29.2893 29.2888Z" fill="#D80027"/>
<path d="M39.6892 78.2611L45.1771 89.7373L57.5712 86.8728L52.0204 98.3185L61.9872 106.222L49.5782 109.019L49.6126 121.739L39.6892 113.781L29.7653 121.739L29.8001 109.019L17.3911 106.222L27.3575 98.3185L21.8075 86.8728L34.2009 89.7373L39.6892 78.2611Z" fill="#F0F0F0"/>
</g>
<defs>
<clipPath id="clip0">
<rect width="200" height="200" fill="white"/>
</clipPath>
</defs>
</svg>
