<svg width="200" height="200" viewBox="0 0 200 200" fill="none" xmlns="http://www.w3.org/2000/svg">
<path d="M100 200C155.228 200 200 155.228 200 100C200 44.7715 155.228 0 100 0C44.7715 0 0 44.7715 0 100C0 155.228 44.7715 200 100 200Z" fill="#338AF3"/>
<path d="M156.522 101.087H43.4783C43.4783 108.891 50.2755 115.217 58.0791 115.217H57.6087C57.6087 123.022 63.9349 129.348 71.7392 129.348C71.7392 137.152 78.0654 143.478 85.8697 143.478H114.131C121.935 143.478 128.261 137.152 128.261 129.348C136.065 129.348 142.392 123.022 142.392 115.217H141.921C149.724 115.217 156.522 108.891 156.522 101.087Z" fill="#FFDA44"/>
<path d="M139.131 82.6089C139.131 104.22 121.611 121.739 100 121.739C78.3888 121.739 60.8696 104.22 60.8696 82.6089" fill="#338AF3"/>
<path d="M129.889 82.6083L117.676 88.3532L124.179 100.181L110.918 97.6443L109.237 111.041L100 101.188L90.7625 111.041L89.0824 97.6443L75.8207 100.181L82.3238 88.3529L70.1113 82.6083L82.3242 76.8638L75.8207 65.0361L89.082 67.5728L90.7629 54.1759L100 64.0294L109.237 54.1759L110.918 67.5728L124.18 65.0361L117.676 76.8642L129.889 82.6083Z" fill="#FFDA44"/>
</svg>
