<svg width="200" height="200" viewBox="0 0 200 200" fill="none" xmlns="http://www.w3.org/2000/svg">
<g clip-path="url(#clip0)">
<path d="M100 200C155.228 200 200 155.228 200 100C200 44.7715 155.228 0 100 0C44.7715 0 0 44.7715 0 100C0 155.228 44.7715 200 100 200Z" fill="#F0F0F0"/>
<path d="M100 0C60.3541 0 26.0979 23.0723 9.92285 56.5219H190.077C173.903 23.0723 139.646 0 100 0Z" fill="black"/>
<path d="M100 200C60.3541 200 26.0979 176.928 9.92285 143.478H190.077C173.903 176.928 139.646 200 100 200Z" fill="#496E2D"/>
<path d="M195.278 69.5652H4.72227C1.65898 79.1625 0 89.3871 0 99.9999C0 110.613 1.65898 120.837 4.72227 130.435H195.277C198.341 120.837 200 110.613 200 99.9999C200 89.3871 198.341 79.1625 195.278 69.5652Z" fill="#A2001D"/>
<path d="M131.139 46.2116L119.296 40.7456L100 84.4374L80.7039 40.7456L68.8613 46.2116L92.8176 100L68.8613 153.789L80.7039 159.255L100 115.563L119.296 159.255L131.139 153.789L107.182 100L131.139 46.2116Z" fill="#F0F0F0"/>
<path d="M108.043 51.3632C103.459 46.3565 99.9999 43.4784 99.9999 43.4784C99.9999 43.4784 96.5409 46.3561 91.9565 51.3632V148.637C96.5409 153.644 99.9999 156.522 99.9999 156.522C99.9999 156.522 103.459 153.644 108.043 148.637V51.3632Z" fill="#F0F0F0"/>
<path d="M78.2607 70.0166V129.982C83.1053 138.566 89.0346 145.602 93.4783 150.267V49.7322C89.0346 54.3966 83.1049 61.433 78.2607 70.0166Z" fill="#A2001D"/>
<path d="M121.739 70.0166C116.894 61.4326 110.965 54.3966 106.521 49.7322V150.267C110.965 145.602 116.894 138.566 121.739 129.982V70.0166Z" fill="#A2001D"/>
<path d="M121.739 70.0166V129.982C126.644 121.291 130.435 111.014 130.435 99.9998C130.435 88.9854 126.644 78.708 121.739 70.0166Z" fill="black"/>
<path d="M78.2609 70.0166V129.982C73.3566 121.291 69.5652 111.014 69.5652 99.9998C69.5652 88.9854 73.3566 78.708 78.2609 70.0166Z" fill="black"/>
</g>
<defs>
<clipPath id="clip0">
<rect width="200" height="200" fill="white"/>
</clipPath>
</defs>
</svg>
