<svg width="200" height="200" viewBox="0 0 200 200" fill="none" xmlns="http://www.w3.org/2000/svg">
<path d="M100 200C155.228 200 200 155.228 200 100C200 44.7715 155.228 0 100 0C44.7715 0 0 44.7715 0 100C0 155.228 44.7715 200 100 200Z" fill="#D80027"/>
<path d="M148.905 99.9998L128.922 109.399L139.563 128.753L117.863 124.601L115.115 146.522L99.9994 130.401L84.8854 146.522L82.1357 124.601L60.4373 128.753L71.0779 109.398L51.0947 99.9998L71.0779 90.6009L60.4373 71.2463L82.135 75.3986L84.8861 53.4779L99.9994 69.5994L115.115 53.4779L117.863 75.3986L139.564 71.2463L128.923 90.6021L148.905 99.9998Z" fill="#FFDA44"/>
<path d="M100 130.435C116.809 130.435 130.435 116.809 130.435 99.9999C130.435 83.1913 116.809 69.5652 100 69.5652C83.1914 69.5652 69.5653 83.1913 69.5653 99.9999C69.5653 116.809 83.1914 130.435 100 130.435Z" fill="#D80027"/>
<path d="M84.7822 100C84.049 100 83.3252 100.038 82.6107 100.109C82.6369 104.324 84.1619 108.182 86.6806 111.179C88.0244 107.563 90.0306 104.266 92.5607 101.444C90.1443 100.515 87.5228 100 84.7822 100Z" fill="#FFDA44"/>
<path d="M94.1501 116.38C95.9783 117.033 97.9466 117.392 99.9998 117.392C102.053 117.392 104.021 117.033 105.849 116.38C104.853 112.469 102.795 108.978 99.9998 106.234C97.2041 108.977 95.1466 112.469 94.1501 116.38Z" fill="#FFDA44"/>
<path d="M115.06 91.3073C112.053 86.1097 106.437 82.6089 99.9999 82.6089C93.5624 82.6089 87.9464 86.1093 84.9393 91.3073C90.4214 91.3351 95.562 92.8257 99.9999 95.3995C104.438 92.8257 109.578 91.3351 115.06 91.3073Z" fill="#FFDA44"/>
<path d="M107.438 101.445C109.968 104.266 111.975 107.563 113.318 111.18C115.837 108.183 117.362 104.324 117.388 100.109C116.673 100.038 115.95 100 115.217 100C112.477 100 109.855 100.515 107.438 101.445Z" fill="#FFDA44"/>
</svg>
