<svg width="200" height="200" viewBox="0 0 200 200" fill="none" xmlns="http://www.w3.org/2000/svg">
<g clip-path="url(#clip0)">
<path d="M0 100C0 44.7719 44.7719 0 100 0C155.228 0 200 44.7719 200 100" fill="#D80027"/>
<path d="M134.782 92.9992L120.569 99.6839L128.138 113.449L112.705 110.496L110.75 126.087L100 114.62L89.25 126.087L87.2949 110.496L71.8617 113.448L79.43 99.6839L65.2175 92.9992L79.43 86.3132L71.8617 72.5495L87.2945 75.5011L89.2503 59.9113L100 71.3773L110.75 59.9113L112.705 75.5011L128.139 72.5495L120.571 86.3144L134.782 92.9992Z" fill="#FFDA44"/>
<path d="M126.087 32.6084H106.522C106.522 29.0073 103.602 26.0865 100 26.0865C96.3986 26.0865 93.4783 29.0069 93.4783 32.6084H73.9131C73.9131 36.21 77.0506 39.1303 80.6521 39.1303H80.4346C80.4346 42.7319 83.3541 45.6522 86.9564 45.6522C86.9564 49.2537 89.876 52.174 93.4783 52.174H106.522C110.123 52.174 113.044 49.2541 113.044 45.6522C116.645 45.6522 119.565 42.7323 119.565 39.1303H119.348C122.95 39.1303 126.087 36.2104 126.087 32.6084Z" fill="#FFDA44"/>
<path d="M200 100C200 155.228 155.228 200 100 200C44.7719 200 0 155.228 0 100H200Z" fill="#F0F0F0"/>
<path d="M100 200C131.259 200 159.163 185.655 177.501 163.192C174.202 160.944 172.421 157.308 166.665 157.308C158.332 157.308 158.332 164.928 149.999 164.928C141.666 164.928 141.666 157.308 133.333 157.308C125 157.308 125 164.928 116.666 164.928C108.333 164.928 108.332 157.308 99.9984 157.308C91.6652 157.308 91.6652 164.928 83.3324 164.928C75.0004 164.928 75.0004 157.308 66.6672 157.308C58.3332 157.308 58.3332 164.928 49.9992 164.928C41.6652 164.928 41.6652 157.308 33.3313 157.308C27.5758 157.308 25.7949 160.943 22.498 163.192C40.8355 185.655 68.741 200 100 200Z" fill="#0052B4"/>
<path d="M183.332 112.754C174.999 112.754 174.999 105.135 166.665 105.135C158.332 105.135 158.332 112.754 149.999 112.754C141.666 112.754 141.666 105.135 133.333 105.135C125 105.135 125 112.754 116.666 112.754C108.333 112.754 108.332 105.135 99.9985 105.135C91.6653 105.135 91.6653 112.754 83.3325 112.754C75.0004 112.754 75.0004 105.135 66.6672 105.135C58.3333 105.135 58.3333 112.754 49.9993 112.754C41.6653 112.754 41.6653 105.135 33.3313 105.135C24.9993 105.135 24.9993 112.754 16.6661 112.754C8.37778 112.754 8.32974 105.219 0.130127 105.138C0.360986 109.713 0.90708 114.203 1.73286 118.595C8.37505 119.571 8.95669 126.087 16.6665 126.087C24.9997 126.087 24.9997 118.469 33.3317 118.469C41.6657 118.469 41.6657 126.087 49.9997 126.087C58.3336 126.087 58.3336 118.469 66.6676 118.469C75.0008 118.469 75.0008 126.087 83.3329 126.087C91.6661 126.087 91.6661 118.469 99.9989 118.469C108.333 118.469 108.333 126.087 116.667 126.087C125.001 126.087 125.001 118.469 133.334 118.469C141.667 118.469 141.667 126.087 150 126.087C158.332 126.087 158.333 118.469 166.666 118.469C175 118.469 175 126.087 183.332 126.087C191.043 126.087 191.625 119.571 198.267 118.595C199.093 114.203 199.639 109.713 199.871 105.139C191.67 105.22 191.621 112.754 183.332 112.754Z" fill="#0052B4"/>
<path d="M166.665 131.222C158.332 131.222 158.332 138.841 149.999 138.841C141.666 138.841 141.666 131.222 133.333 131.222C125 131.222 125 138.841 116.666 138.841C108.332 138.841 108.332 131.222 99.9985 131.222C91.6653 131.222 91.6653 138.841 83.3325 138.841C75.0004 138.841 75.0004 131.222 66.6672 131.222C58.3333 131.222 58.3333 138.841 49.9993 138.841C41.6653 138.841 41.6653 131.222 33.3313 131.222C24.9993 131.222 24.9993 138.841 16.6661 138.841C10.7118 138.841 9.01099 134.952 5.4856 132.73C7.83247 139.511 10.8856 145.962 14.5625 151.991C15.202 152.109 15.8981 152.174 16.6661 152.174C24.9993 152.174 24.9993 144.556 33.3313 144.556C41.6653 144.556 41.6653 152.174 49.9993 152.174C58.3333 152.174 58.3333 144.556 66.6672 144.556C75.0004 144.556 75.0004 152.174 83.3325 152.174C91.6657 152.174 91.6657 144.556 99.9985 144.556C108.332 144.556 108.332 152.174 116.666 152.174C125 152.174 125 144.556 133.333 144.556C141.666 144.556 141.666 152.174 149.999 152.174C158.332 152.174 158.332 144.556 166.665 144.556C174.999 144.556 174.999 152.174 183.332 152.174C184.101 152.174 184.797 152.109 185.436 151.991C189.113 145.962 192.166 139.511 194.514 132.731C190.988 134.951 189.287 138.841 183.332 138.841C174.999 138.841 174.999 131.222 166.665 131.222Z" fill="#0052B4"/>
<path d="M199.69 92.0997C191.67 92.2891 191.56 99.7106 183.332 99.7106C174.999 99.7106 174.999 92.0911 166.665 92.0911C158.332 92.0911 158.332 99.7106 149.999 99.7106C141.666 99.7106 141.666 92.0911 133.333 92.0911C125 92.0911 125 99.7106 116.666 99.7106C108.333 99.7106 108.332 92.0911 99.9984 92.0911C91.6652 92.0911 91.6652 99.7106 83.3324 99.7106C75.0004 99.7106 75.0004 92.0911 66.6672 92.0911C58.3332 92.0911 58.3332 99.7106 49.9992 99.7106C41.6652 99.7106 41.6652 92.0911 33.3313 92.0911C24.9992 92.0911 24.9992 99.7106 16.666 99.7106C8.43984 99.7106 8.32852 92.2899 0.309766 92.0997C0.10625 94.7067 0 97.3411 0 100C0 101.822 0.0515625 103.631 0.148828 105.429C8.32969 105.52 8.38398 113.043 16.6664 113.043C24.9996 113.043 24.9996 105.425 33.3316 105.425C41.6656 105.425 41.6656 113.043 49.9996 113.043C58.3336 113.043 58.3336 105.425 66.6676 105.425C75.0008 105.425 75.0008 113.043 83.3328 113.043C91.666 113.043 91.666 105.425 99.9988 105.425C108.333 105.425 108.333 113.043 116.667 113.043C125.001 113.043 125.001 105.425 133.334 105.425C141.667 105.425 141.667 113.043 150 113.043C158.332 113.043 158.333 105.425 166.666 105.425C175 105.425 175 113.043 183.332 113.043C191.616 113.043 191.67 105.52 199.852 105.429C199.948 103.631 200 101.822 200 100C200 97.3411 199.894 94.7067 199.69 92.0997Z" fill="#F0F0F0"/>
</g>
<defs>
<clipPath id="clip0">
<rect width="200" height="200" fill="white"/>
</clipPath>
</defs>
</svg>
