<svg width="200" height="200" viewBox="0 0 200 200" fill="none" xmlns="http://www.w3.org/2000/svg">
<path d="M100 200C155.228 200 200 155.228 200 100C200 44.7715 155.228 0 100 0C44.7715 0 0 44.7715 0 100C0 155.228 44.7715 200 100 200Z" fill="#0052B4"/>
<path d="M43.9254 60.8704L46.084 67.5141H53.0684L47.418 71.6192L49.5762 78.2618L43.9254 74.1567L38.2743 78.2618L40.4333 71.6192L34.7825 67.5141H41.7665L43.9254 60.8704Z" fill="#F0F0F0"/>
<path d="M65.6645 54.3485L67.8231 60.9919H74.8075L69.1571 65.0969L71.3153 71.7395L65.6645 67.6344L60.0138 71.7395L62.1724 65.0969L56.522 60.9919H63.5063L65.6645 54.3485Z" fill="#F0F0F0"/>
<path d="M87.4036 47.8268L89.5622 54.4701H96.5465L90.8961 58.5756L93.0543 65.2182L87.4036 61.1127L81.7528 65.2182L83.9114 58.5756L78.261 54.4701H85.2454L87.4036 47.8268Z" fill="#F0F0F0"/>
<path d="M156.075 60.8704L153.916 67.5141H146.932L152.582 71.6192L150.424 78.2618L156.075 74.1567L161.726 78.2618L159.567 71.6192L165.218 67.5141H158.233L156.075 60.8704Z" fill="#F0F0F0"/>
<path d="M134.336 54.3485L132.177 60.9919H125.193L130.843 65.0969L128.685 71.7395L134.336 67.6344L139.986 71.7395L137.828 65.0969L143.478 60.9919H136.494L134.336 54.3485Z" fill="#F0F0F0"/>
<path d="M112.597 47.8268L110.438 54.4701H103.454L109.104 58.5756L106.946 65.2182L112.597 61.1127L118.247 65.2182L116.089 58.5756L121.739 54.4701H114.755L112.597 47.8268Z" fill="#F0F0F0"/>
<path d="M117.391 104.348L99.9999 82.6089L91.3042 86.9565V95.6522L78.2609 104.348H69.5652V115.582C82.3105 120.743 91.3042 133.231 91.3042 147.826H99.9999V139.131L108.696 130.435L117.391 139.131L126.087 130.435V121.739L134.783 108.696L117.391 104.348Z" fill="#FFDA44"/>
</svg>
