<svg width="200" height="200" viewBox="0 0 200 200" fill="none" xmlns="http://www.w3.org/2000/svg">
<g clip-path="url(#clip0)">
<path d="M193.78 134.782C197.8 123.949 200 112.232 200 99.9999C200 87.7678 197.8 76.0506 193.78 65.2174L100 56.5217L6.21992 65.2174C2.20039 76.0506 0 87.7678 0 99.9999C0 112.232 2.20039 123.949 6.21992 134.782L100 143.478L193.78 134.782Z" fill="#F0F0F0"/>
<path d="M100 200C142.996 200 179.651 172.863 193.78 134.782H6.2196C20.3493 172.863 57.0032 200 100 200Z" fill="#D80027"/>
<path d="M100 0C57.0032 0 20.3493 27.1375 6.2196 65.2176H193.78C179.651 27.1375 142.996 0 100 0Z" fill="#6DA544"/>
<path d="M29.289 29.2888C-9.76333 68.3412 -9.76333 131.658 29.289 170.711C39.4824 160.517 49.4316 150.568 65.2171 134.783V65.2173L29.289 29.2888Z" fill="black"/>
</g>
<defs>
<clipPath id="clip0">
<rect width="200" height="200" fill="white"/>
</clipPath>
</defs>
</svg>
