<svg width="200" height="200" viewBox="0 0 200 200" fill="none" xmlns="http://www.w3.org/2000/svg">
<g clip-path="url(#clip0)">
<path d="M190.077 56.5219C173.902 23.0723 139.646 0 99.9998 0C60.3537 0 26.0975 23.0723 9.92249 56.5219L99.9998 65.2176L190.077 56.5219Z" fill="#D80027"/>
<path d="M9.92249 143.478C26.0975 176.928 60.3537 200 99.9998 200C139.646 200 173.902 176.928 190.077 143.478L99.9998 134.782L9.92249 143.478Z" fill="#D80027"/>
<path d="M190.077 56.5217H9.92266C3.56563 69.6682 0 84.4174 0 99.9999C0 115.582 3.56563 130.331 9.92266 143.478H190.077C196.435 130.331 200 115.582 200 99.9999C200 84.4174 196.435 69.6682 190.077 56.5217Z" fill="#0052B4"/>
<path d="M100 134.782C119.21 134.782 134.782 119.21 134.782 100C134.782 80.7902 119.21 65.2175 100 65.2175C80.7902 65.2175 65.2175 80.7902 65.2175 100C65.2175 119.21 80.7902 134.782 100 134.782Z" fill="#F0F0F0"/>
</g>
<defs>
<clipPath id="clip0">
<rect width="200" height="200" fill="white"/>
</clipPath>
</defs>
</svg>
