<svg width="200" height="200" viewBox="0 0 200 200" fill="none" xmlns="http://www.w3.org/2000/svg">
<g clip-path="url(#clip0)">
<path d="M100 200C155.228 200 200 155.228 200 100C200 44.7715 155.228 0 100 0C44.7715 0 0 44.7715 0 100C0 155.228 44.7715 200 100 200Z" fill="#F0F0F0"/>
<path d="M99.9998 0C60.3537 0 26.0975 23.0723 9.92245 56.5219H190.077C173.902 23.0723 139.645 0 99.9998 0Z" fill="#D80027"/>
<path d="M99.9998 200C139.645 200 173.902 176.928 190.077 143.478H9.92245C26.0975 176.928 60.3537 200 99.9998 200Z" fill="#D80027"/>
<path d="M126.087 117.391L100 69.5652L73.913 117.391H93.4783V130.435H106.522V117.391H126.087Z" fill="#6DA544"/>
</g>
<defs>
<clipPath id="clip0">
<rect width="200" height="200" fill="white"/>
</clipPath>
</defs>
</svg>
