<svg width="200" height="200" viewBox="0 0 200 200" fill="none" xmlns="http://www.w3.org/2000/svg">
<g clip-path="url(#clip0)">
<path d="M100 200C155.228 200 200 155.228 200 100C200 44.7715 155.228 0 100 0C44.7715 0 0 44.7715 0 100C0 155.228 44.7715 200 100 200Z" fill="#F0F0F0"/>
<path d="M22.858 36.364H177.142C171.444 29.4636 164.835 23.3445 157.503 18.1824H42.4975C35.1658 23.3437 28.5569 29.4632 22.858 36.364Z" fill="#F0F0F0"/>
<path d="M0 100C0 103.065 0.145703 106.096 0.415625 109.091H199.584C199.854 106.096 200 103.065 200 100C200 96.9348 199.854 93.9043 199.584 90.9094H0.415625C0.145703 93.9043 0 96.9348 0 100H0Z" fill="#F0F0F0"/>
<path d="M10.9049 145.454H189.096C192.04 139.694 194.442 133.612 196.235 127.273H3.76584C5.55842 133.612 7.96076 139.695 10.9049 145.454Z" fill="#F0F0F0"/>
<path d="M42.4975 181.818H157.503C164.834 176.656 171.444 170.537 177.142 163.637H22.858C28.5569 170.536 35.1658 176.656 42.4975 181.818Z" fill="#F0F0F0"/>
<path d="M3.76544 72.7273H196.235C194.442 66.3882 192.04 60.3054 189.096 54.5457H10.9049C7.96075 60.3054 5.55841 66.3882 3.76544 72.7273Z" fill="#F0F0F0"/>
<path d="M47.8258 18.1816H157.502C141.237 6.7293 121.405 0 99.9997 0C86.9563 0 64.0915 6.7293 47.8258 18.1816Z" fill="#D80027"/>
<path d="M95.6523 54.5457H189.095C185.77 48.0406 181.753 41.9472 177.142 36.364H95.6523V54.5457Z" fill="#D80027"/>
<path d="M95.6523 90.9094H199.584C199.022 84.6665 197.891 78.5868 196.235 72.7278H95.6523V90.9094Z" fill="#D80027"/>
<path d="M3.76534 127.273H196.234C197.891 121.414 199.022 115.334 199.584 109.091H0.415344C0.977844 115.334 2.10831 121.414 3.76534 127.273Z" fill="#D80027"/>
<path d="M22.8578 163.636H177.142C181.754 158.052 185.77 151.959 189.095 145.454H10.9047C14.2301 151.959 18.2465 158.053 22.8578 163.636Z" fill="#D80027"/>
<path d="M100 200C121.405 200 141.237 193.271 157.503 181.818H42.4973C58.7629 193.271 78.5949 200 100 200Z" fill="#D80027"/>
<path d="M3.76495 72.7273C2.10792 78.5867 0.977844 84.666 0.415344 90.909H99.9997V0C54.2263 0 15.6368 30.7547 3.76495 72.7273Z" fill="#0052B4"/>
<path d="M59.5266 26.0872L66.0012 46.0149H86.9567L70.0043 58.3321L76.4785 78.261L59.5266 65.9446L42.5739 78.261L49.0496 58.3321L32.0973 46.0149H53.0516L59.5266 26.0872Z" fill="#F0F0F0"/>
</g>
<defs>
<clipPath id="clip0">
<rect width="200" height="200" fill="white"/>
</clipPath>
</defs>
</svg>
