<svg width="200" height="200" viewBox="0 0 200 200" fill="none" xmlns="http://www.w3.org/2000/svg">
<g clip-path="url(#clip0)">
<path d="M9.92266 56.5219C3.56563 69.6688 0 84.4176 0 100C0 115.582 3.56563 130.331 9.92266 143.478L100 152.174L190.077 143.478C196.434 130.331 200 115.582 200 100C200 84.4176 196.434 69.6688 190.077 56.5219L100 47.8262L9.92266 56.5219Z" fill="black"/>
<path d="M9.92609 143.478C26.1003 176.928 60.3538 200 99.9999 200C139.646 200 173.9 176.928 190.074 143.478H9.92609Z" fill="#496E2D"/>
<path d="M9.92609 56.5219H190.074C173.9 23.0723 139.646 0 99.9999 0C60.3538 0 26.1003 23.0723 9.92609 56.5219Z" fill="#D80027"/>
<path d="M123.276 81.7133L131.481 93.0199L144.768 88.7113L136.55 100.008L144.754 111.314L131.472 106.989L123.254 118.286L123.262 104.317L109.979 99.9922L123.267 95.6836L123.276 81.7133Z" fill="#F0F0F0"/>
<path d="M100.883 128.261C85.2756 128.261 72.6225 115.608 72.6225 100C72.6225 84.3922 85.2756 71.739 100.883 71.739C105.75 71.739 110.329 72.9695 114.327 75.1359C108.055 69.0027 99.4784 65.2172 90.0139 65.2172C70.8038 65.2172 55.2315 80.7898 55.2315 99.9996C55.2315 119.209 70.8042 134.782 90.0139 134.782C99.4788 134.782 108.055 130.996 114.327 124.863C110.329 127.03 105.75 128.261 100.883 128.261Z" fill="#F0F0F0"/>
</g>
<defs>
<clipPath id="clip0">
<rect width="200" height="200" fill="white"/>
</clipPath>
</defs>
</svg>
