<svg width="200" height="200" viewBox="0 0 200 200" fill="none" xmlns="http://www.w3.org/2000/svg">
<path d="M200 100C200 155.228 155.228 200 100 200C44.7719 200 0 155.228 0 100C4.34766 100 100 86.9567 100 86.9567L200 100Z" fill="#D80027"/>
<path d="M0 100C0 44.7719 44.7719 0 100 0C155.228 0 200 44.7719 200 100" fill="#0052B4"/>
<path d="M73.9127 69.5651C73.9127 62.3616 68.0728 56.5218 60.8693 56.5218C57.5275 56.5218 54.4818 57.7796 52.1736 59.8456V52.1737H56.5213V43.478H52.1736V39.1304H43.4779V43.478H39.1302V52.1737H43.4779V59.8456C41.1697 57.7796 38.124 56.5218 34.7822 56.5218C27.5787 56.5218 21.7388 62.3616 21.7388 69.5651C21.7388 73.4272 23.4189 76.896 26.0865 79.2847V86.9565H69.5646V79.2847C72.233 76.896 73.9127 73.4272 73.9127 69.5651Z" fill="#FFDA44"/>
</svg>
