<svg width="200" height="200" viewBox="0 0 200 200" fill="none" xmlns="http://www.w3.org/2000/svg">
<path d="M0.000390626 17.3912H0V182.608H0.000390626V100V17.3912Z" fill="#FF9811"/>
<path d="M99.9998 200C155.228 200 200 155.228 200 99.9998C200 44.7714 155.228 0 99.9998 0C44.7714 0 0 44.7714 0 99.9998C0 155.228 44.7714 200 99.9998 200Z" fill="#FFDA44"/>
<path d="M78.2614 17.3912H43.6383C42.104 18.44 40.6024 19.5318 39.1309 20.6619L30.4352 99.9995L39.1309 179.337C40.6024 180.468 42.104 181.559 43.6383 182.608H78.2614V17.3912Z" fill="#FF9811"/>
<path d="M0.000411987 100C0.000411987 132.323 15.3395 161.058 39.131 179.338V20.6622C15.3395 38.9427 0.000411987 67.6779 0.000411987 100Z" fill="#6DA544"/>
<path d="M160.87 60.9623V63.4643L160.963 63.4784L160.87 60.9623Z" fill="#FFDA44"/>
<path d="M192.03 126.087H173.188L165.218 134.782V152.174H147.826V143.478H156.522V126.087H117.391V136.956H108.696V116.241C106.028 113.853 104.348 110.384 104.348 106.521V49.9998C104.348 42.7963 110.188 36.9564 117.391 36.9564V117.391H134.783L140.75 112.418C139.708 109.936 139.131 107.21 139.131 104.348V91.3046H126.087V65.2178H152.174C152.174 60.8702 158.696 56.5221 158.696 56.5221C158.696 56.5221 165.218 60.8698 165.218 65.2178V71.7397V91.305C170.055 91.3624 177.74 91.237 186.043 91.305C183.862 87.4925 182.609 82.9687 182.609 78.2616C182.609 70.5893 185.921 63.6917 191.194 58.9182C183.594 42.0764 171.467 27.7162 156.362 17.3912H91.3047V182.609H156.363C174.729 170.054 188.694 151.534 195.469 129.839L192.03 126.087Z" fill="#A2001D"/>
</svg>
