<svg width="200" height="200" viewBox="0 0 200 200" fill="none" xmlns="http://www.w3.org/2000/svg">
<g clip-path="url(#clip0)">
<path d="M0 99.9998C0 115.582 3.56523 130.331 9.92266 143.478L100 147.826L190.077 143.478C196.435 130.331 200 115.582 200 99.9998C200 84.4177 196.435 69.6685 190.077 56.5216L100 52.1736L9.92266 56.5212C3.56523 69.6685 0 84.4177 0 99.9998H0Z" fill="#F0F0F0"/>
<path d="M99.9998 200C139.645 200 173.902 176.928 190.077 143.478H9.92245C26.0975 176.928 60.3537 200 99.9998 200Z" fill="#6DA544"/>
<path d="M99.9998 0C60.3537 0 26.0975 23.0723 9.92245 56.5219H190.077C173.902 23.0723 139.645 0 99.9998 0Z" fill="#0052B4"/>
<path d="M106.522 97.8262V73.9133H93.4788V97.8262L77.7249 113.581C82.3065 121.081 90.5686 126.087 100.001 126.087C109.433 126.087 117.694 121.081 122.276 113.581L106.522 97.8262Z" fill="black"/>
</g>
<defs>
<clipPath id="clip0">
<rect width="200" height="200" fill="white"/>
</clipPath>
</defs>
</svg>
