<svg width="200" height="200" viewBox="0 0 200 200" fill="none" xmlns="http://www.w3.org/2000/svg">
<g clip-path="url(#clip0)">
<path d="M193.78 134.782C197.8 123.95 200 112.232 200 100C200 87.7679 197.8 76.0504 193.78 65.2176L100 56.5219L6.21992 65.2176C2.2 76.0504 0 87.7679 0 100C0 112.232 2.2 123.95 6.21992 134.782L100 143.478L193.78 134.782Z" fill="#6DA544"/>
<path d="M193.78 65.2176C179.651 27.1375 142.997 0 100 0C57.0036 0 20.3493 27.1375 6.21997 65.2176H193.78Z" fill="#FFDA44"/>
<path d="M100 200C142.997 200 179.651 172.863 193.78 134.782H6.21997C20.3493 172.863 57.0036 200 100 200Z" fill="#D80027"/>
</g>
<defs>
<clipPath id="clip0">
<rect width="200" height="200" fill="white"/>
</clipPath>
</defs>
</svg>
