<svg width="200" height="200" viewBox="0 0 200 200" fill="none" xmlns="http://www.w3.org/2000/svg">
<path d="M100 200C155.228 200 200 155.228 200 100C200 44.7715 155.228 0 100 0C44.7715 0 0 44.7715 0 100C0 155.228 44.7715 200 100 200Z" fill="#496E2D"/>
<path d="M117.391 95.8301C114.937 95.8301 112.606 96.3196 110.442 97.0985C111.628 94.4563 112.423 91.5165 112.423 88.377C112.423 75.9547 100 66.6379 100 66.6379C100 66.6379 87.5781 75.9547 87.5781 88.377C87.5781 91.5161 88.373 94.4563 89.5585 97.0985C87.3941 96.3204 85.0636 95.8301 82.6093 95.8301C70.187 95.8301 60.8702 108.252 60.8702 108.252C60.8702 108.252 70.187 120.675 82.6093 120.675C89.8925 120.675 96.1042 116.406 100.001 112.873C103.897 116.406 110.109 120.675 117.392 120.675C129.814 120.675 139.131 108.252 139.131 108.252C139.131 108.252 129.814 95.8301 117.391 95.8301Z" fill="#F0F0F0"/>
<path d="M100 39.1304L102.566 47.0272H110.87L104.153 51.9085L106.717 59.8054L100 54.9241L93.2833 59.8054L95.8474 51.9085L89.1306 47.0272H97.4341L100 39.1304Z" fill="#FFDA44"/>
<path d="M68.4242 52.9424L73.3609 57.3869L79.1137 54.0658L76.4121 60.1342L81.3484 64.5795L74.7422 63.885L72.0406 69.9533L70.6586 63.4561L64.0527 62.7615L69.8051 59.4396L68.4242 52.9424Z" fill="#FFDA44"/>
<path d="M45.3101 76.0573L51.8077 77.4382L55.1292 71.6854L55.8237 78.2913L62.3206 79.6733L56.2526 82.3753L56.9472 88.9807L52.5015 84.0452L46.4335 86.7468L49.755 80.9936L45.3101 76.0573Z" fill="#FFDA44"/>
<path d="M131.575 52.9424L126.639 57.3869L120.886 54.0658L123.587 60.1342L118.651 64.5795L125.258 63.885L127.959 69.9533L129.341 63.4561L135.947 62.7615L130.195 59.4396L131.575 52.9424Z" fill="#FFDA44"/>
<path d="M154.69 76.0573L148.192 77.4382L144.871 71.6854L144.176 78.2913L137.679 79.6733L143.747 82.3753L143.053 88.9807L147.498 84.0452L153.566 86.7468L150.245 80.9936L154.69 76.0573Z" fill="#FFDA44"/>
<path d="M100 155.458C109.868 155.458 118.963 152.166 126.259 146.626H73.7417C81.0378 152.165 90.1327 155.458 100 155.458Z" fill="#F0F0F0"/>
<path d="M60.1434 129.371C61.5235 132.529 63.2735 135.488 65.329 138.202H134.672C136.727 135.488 138.477 132.529 139.858 129.371H60.1434Z" fill="#F0F0F0"/>
</svg>
