<svg width="200" height="200" viewBox="0 0 200 200" fill="none" xmlns="http://www.w3.org/2000/svg">
<path d="M143.478 9.92266C130.331 3.56563 115.582 0 99.9998 0C84.4173 0 69.6685 3.56563 56.5216 9.92266L47.8259 100L56.5216 190.077C69.6685 196.434 84.4173 200 99.9998 200C115.582 200 130.331 196.434 143.478 190.077L152.174 100L143.478 9.92266Z" fill="#FFDA44"/>
<path d="M56.5219 9.92627C23.0723 26.1009 0 60.3544 0 100C0 139.646 23.0723 173.899 56.5219 190.074V9.92627Z" fill="#0052B4"/>
<path d="M143.478 9.92627V190.074C176.927 173.899 200 139.646 200 100C200 60.3544 176.927 26.1009 143.478 9.92627Z" fill="#0052B4"/>
<path d="M128.261 108.696L134.782 117.391V82.6085L128.261 91.3042H108.696V71.739L117.391 65.2175H82.6085L91.3042 71.739V91.3042H71.739L65.2175 82.6085V117.391L71.739 108.696H91.3042V128.261L82.6085 134.782H117.391L108.696 128.261V108.696H128.261Z" fill="#D80027"/>
<path d="M126.087 95.6523H104.348V73.9128H95.6525V95.6523H73.9131V104.348H95.6525V126.087H104.348V104.348H126.087V95.6523Z" fill="#F0F0F0"/>
</svg>
