<svg width="200" height="200" viewBox="0 0 200 200" fill="none" xmlns="http://www.w3.org/2000/svg">
<path d="M100 200C155.228 200 200 155.228 200 100C200 44.7715 155.228 0 100 0C44.7715 0 0 44.7715 0 100C0 155.228 44.7715 200 100 200Z" fill="#D80027"/>
<path d="M159.096 82.0663H113.95L99.9995 39.1304L86.0487 82.0663H40.9026L77.4264 108.602L63.4752 151.539L99.9995 125.003L136.524 151.54L122.572 108.603L159.096 82.0663ZM87.6487 105.281L92.3663 90.7616H107.632L112.35 105.281V105.281L99.9995 114.254L87.6491 105.281L87.6487 105.281ZM104.807 82.0663H95.192L99.9995 67.2694L104.807 82.0663ZM119.747 99.9069L116.775 90.762H132.333L119.747 99.9069ZM83.2233 90.762L80.2518 99.9069L67.6647 90.762H83.2233ZM80.0155 128.774L84.8233 113.977L92.6026 119.629L80.0155 128.774ZM107.396 119.629L115.176 113.978L119.983 128.774L107.396 119.629Z" fill="#FFDA44"/>
</svg>
