<svg width="200" height="200" viewBox="0 0 200 200" fill="none" xmlns="http://www.w3.org/2000/svg">
<g clip-path="url(#clip0)">
<path d="M143.478 9.92266C130.332 3.56563 115.582 0 100 0C84.4182 0 69.669 3.56563 56.5221 9.92266L47.8264 100L56.5221 190.077C69.669 196.434 84.4182 200 100 200C115.582 200 130.332 196.434 143.478 190.077L152.174 100L143.478 9.92266Z" fill="#FFDA44"/>
<path d="M56.5219 9.92615C23.0727 26.1008 0 60.3543 0 100C0 139.646 23.0727 173.899 56.5219 190.074V9.92615Z" fill="#0052B4"/>
<path d="M143.478 9.92615V190.074C176.927 173.899 200 139.646 200 100C200 60.3543 176.927 26.1008 143.478 9.92615Z" fill="#D80027"/>
<path d="M134.782 78.6793H110.87C110.87 72.6762 106.003 67.8098 100 67.8098C93.9969 67.8098 89.1305 72.6762 89.1305 78.6793H65.2176C65.2176 84.5899 70.3664 89.3809 76.2762 89.3809H75.9199C75.9199 95.2918 80.7113 100.084 86.6223 100.084C86.6223 105.317 90.3808 109.665 95.3449 110.595L86.9113 129.635C90.9523 131.277 95.3687 132.19 100 132.19C104.631 132.19 109.048 131.277 113.088 129.635L104.655 110.595C109.619 109.665 113.378 105.317 113.378 100.084C119.289 100.084 124.08 95.2918 124.08 89.3809H123.723C129.634 89.3809 134.782 84.5895 134.782 78.6793Z" fill="#FF9811"/>
<path d="M99.9999 93.4781L85.8694 100V113.043L99.9999 121.739L114.13 113.043V100L99.9999 93.4781Z" fill="#0052B4"/>
<path d="M85.8694 86.9567H114.13V100H85.8694V86.9567Z" fill="#D80027"/>
</g>
<defs>
<clipPath id="clip0">
<rect width="200" height="200" fill="white"/>
</clipPath>
</defs>
</svg>
