<svg width="200" height="200" viewBox="0 0 200 200" fill="none" xmlns="http://www.w3.org/2000/svg">
<path d="M100 200C155.228 200 200 155.228 200 100C200 44.7715 155.228 0 100 0C44.7715 0 0 44.7715 0 100C0 155.228 44.7715 200 100 200Z" fill="#F0F0F0"/>
<path d="M65.2175 99.9999V193.78C76.0503 197.8 87.7679 200 100 200C155.228 200 200 155.228 200 99.9999C200 44.7718 65.2175 99.9999 65.2175 99.9999Z" fill="#6DA544"/>
<path d="M100 0C87.7679 0 76.0503 2.20039 65.2175 6.21992V100H200C200 44.7719 155.228 0 100 0Z" fill="#D80027"/>
</svg>
