<svg width="200" height="200" viewBox="0 0 200 200" fill="none" xmlns="http://www.w3.org/2000/svg">
<path d="M100 200C155.228 200 200 155.228 200 100C200 44.7715 155.228 0 100 0C44.7715 0 0 44.7715 0 100C0 155.228 44.7715 200 100 200Z" fill="#D80027"/>
<path d="M34.7824 52.1738H165.217V147.826H34.7824V52.1738Z" fill="#6DA544"/>
<path d="M116.104 128.261C100.496 128.261 87.8431 115.608 87.8431 100C87.8431 84.3922 100.496 71.739 116.104 71.739C120.97 71.739 125.55 72.9695 129.547 75.1359C123.276 69.0027 114.7 65.2172 105.235 65.2172C86.0251 65.2172 70.4521 80.7898 70.4521 99.9996C70.4521 119.209 86.0251 134.782 105.235 134.782C114.7 134.782 123.276 130.996 129.547 124.863C125.55 127.03 120.97 128.261 116.104 128.261Z" fill="#F0F0F0"/>
</svg>
