<svg width="200" height="200" viewBox="0 0 200 200" fill="none" xmlns="http://www.w3.org/2000/svg">
<path d="M100 200C155.228 200 200 155.228 200 100C200 44.7715 155.228 0 100 0C44.7715 0 0 44.7715 0 100C0 155.228 44.7715 200 100 200Z" fill="#338AF3"/>
<path d="M47.8259 108.696H152.174V121.739H47.8259V108.696Z" fill="#818085"/>
<path d="M65.2175 69.5653L100 73.9137L134.782 69.5653V48.6958L120.869 55.6524L100 34.7825L79.1304 55.6524L65.2175 48.6958V69.5653Z" fill="#FFDA44"/>
<path d="M56.5215 134.783H43.4778V110.87L47.8258 104.348L43.4778 97.8262V82.609H56.5215V134.783Z" fill="#F0F0F0"/>
<path d="M156.522 134.783H143.478V82.609H156.522V97.8258L152.173 104.457L156.522 110.871V134.783Z" fill="#F0F0F0"/>
<path d="M43.4778 97.8262H156.521V110.87H43.4778V97.8262Z" fill="#ACABB1"/>
<path d="M99.9999 152.174C80.8207 152.174 65.2175 136.57 65.2175 117.391V69.5657H134.783V117.391C134.782 136.57 119.179 152.174 99.9999 152.174Z" fill="#F0F0F0"/>
<path d="M100 139.13C88.0132 139.13 78.2612 129.378 78.2612 117.391V82.6094H121.739V117.391C121.739 129.378 111.987 139.13 100 139.13Z" fill="#0052B4"/>
<path d="M65.2175 69.5652H78.2609V82.6085H65.2175V69.5652Z" fill="#D80027"/>
<path d="M121.739 69.5652H134.782V82.6085H121.739V69.5652Z" fill="#D80027"/>
<path d="M121.739 97.826H134.782V110.869H121.739V97.826Z" fill="#D80027"/>
<path d="M65.2175 97.826H78.2609V110.869H65.2175V97.826Z" fill="#D80027"/>
<path d="M93.4778 69.5652H106.521V82.6085H93.4778V69.5652Z" fill="#D80027"/>
<path d="M99.9997 139.13C97.7278 139.13 95.5375 138.779 93.4778 138.13V151.552C95.5918 151.955 97.77 152.174 99.9997 152.174C102.229 152.174 104.407 151.955 106.522 151.552V138.13C104.462 138.778 102.272 139.13 99.9997 139.13Z" fill="#D80027"/>
<path d="M78.552 120.92L68.1426 131.33C69.9473 135.439 72.5223 139.134 75.6871 142.231L84.9059 133.012C81.616 129.834 79.3242 125.631 78.552 120.92Z" fill="#D80027"/>
<path d="M131.858 131.33L121.449 120.921C120.676 125.631 118.385 129.834 115.095 133.014L124.314 142.232C127.478 139.134 130.053 135.439 131.858 131.33Z" fill="#D80027"/>
</svg>
