<svg width="200" height="200" viewBox="0 0 200 200" fill="none" xmlns="http://www.w3.org/2000/svg">
<g clip-path="url(#clip0)">
<path d="M100 200C155.228 200 200 155.228 200 100C200 83.2176 195.859 67.4039 188.554 53.5156L99.8824 100.117L146.484 11.4461C132.596 4.14062 116.782 0 100 0C44.7719 0 0 44.7719 0 100C0 127.614 11.193 152.614 29.2891 170.711C47.3855 188.807 72.3855 200 100 200Z" fill="#0052B4"/>
<path d="M188.449 53.6246C183.871 44.9121 177.92 36.7321 170.594 29.4063C163.268 22.0805 155.089 16.1293 146.376 11.5524L29.1725 170.828L188.449 53.6246Z" fill="#F0F0F0"/>
<path d="M29.1725 170.828L188.449 53.6246C183.871 44.9121 177.92 36.732 170.594 29.4062L29.1725 170.828Z" fill="#FF9811"/>
<path d="M86.8389 58.6414L74.6264 64.386L81.1299 76.2141L67.8682 73.677L66.1877 87.0739L56.9502 77.2203L47.7127 87.0739L46.033 73.677L32.7713 76.2133L39.274 64.3856L27.0615 58.6414L39.2744 52.8965L32.7713 41.0692L46.0322 43.6055L47.7131 30.2086L56.9502 40.0621L66.1877 30.2086L67.8682 43.6055L81.1303 41.0692L74.6268 52.8969L86.8389 58.6414Z" fill="#F0F0F0"/>
</g>
<defs>
<clipPath id="clip0">
<rect width="200" height="200" fill="white"/>
</clipPath>
</defs>
</svg>
