<svg width="200" height="200" viewBox="0 0 200 200" fill="none" xmlns="http://www.w3.org/2000/svg">
<path d="M100 200C155.228 200 200 155.228 200 100C200 44.7715 155.228 0 100 0C44.7715 0 0 44.7715 0 100C0 155.228 44.7715 200 100 200Z" fill="#FFDA44"/>
<path d="M115.208 198.85C131.472 196.369 146.443 189.964 159.136 180.64L100 100L115.208 198.85Z" fill="#D80027"/>
<path d="M84.7916 1.14969C68.5279 3.63094 53.5568 10.0356 40.8631 19.3595L99.9998 100L84.7916 1.14969Z" fill="#D80027"/>
<path d="M40.8631 180.64C53.556 189.964 68.5271 196.369 84.7908 198.851L99.9998 100L40.8631 180.64Z" fill="#D80027"/>
<path d="M19.3591 40.8634C10.0349 53.5571 3.63102 68.5278 1.14938 84.7919L99.9998 100L19.3591 40.8634Z" fill="#D80027"/>
<path d="M1.14938 115.208C3.63063 131.472 10.0353 146.443 19.3595 159.136L99.9998 100L1.14938 115.208Z" fill="#D80027"/>
<path d="M198.85 84.7919C196.369 68.5282 189.964 53.5571 180.64 40.8638L100 100L198.85 84.7919Z" fill="#D80027"/>
<path d="M159.136 19.3591C146.443 10.0352 131.472 3.63094 115.208 1.14969L100 100L159.136 19.3591Z" fill="#D80027"/>
<path d="M180.641 159.136C189.965 146.443 196.369 131.471 198.851 115.208L100 100L180.641 159.136Z" fill="#D80027"/>
<path d="M100 134.782C119.21 134.782 134.782 119.21 134.782 100C134.782 80.7902 119.21 65.2176 100 65.2176C80.7902 65.2176 65.2176 80.7902 65.2176 100C65.2176 119.21 80.7902 134.782 100 134.782Z" fill="#D80027"/>
<path d="M100 126.087C114.408 126.087 126.087 114.408 126.087 100C126.087 85.5926 114.408 73.913 100 73.913C85.5926 73.913 73.913 85.5926 73.913 100C73.913 114.408 85.5926 126.087 100 126.087Z" fill="#FFDA44"/>
</svg>
