<svg width="200" height="200" viewBox="0 0 200 200" fill="none" xmlns="http://www.w3.org/2000/svg">
<g clip-path="url(#clip0)">
<path d="M134.782 6.21992C123.949 2.20039 112.232 0 99.9999 0C87.7678 0 76.0506 2.20039 65.2174 6.21992L56.5217 100L65.2174 193.78C76.0506 197.8 87.7678 200 99.9999 200C112.232 200 123.949 197.8 134.782 193.78L143.478 100L134.782 6.21992Z" fill="#FFDA44"/>
<path d="M200 100C200 57.0039 172.863 20.3492 134.782 6.22034V193.781C172.863 179.651 200 142.997 200 100Z" fill="#D80027"/>
<path d="M0 100C0 142.997 27.1375 179.651 65.2176 193.78V6.22034C27.1375 20.3492 0 57.0039 0 100Z" fill="#6DA544"/>
</g>
<defs>
<clipPath id="clip0">
<rect width="200" height="200" fill="white"/>
</clipPath>
</defs>
</svg>
