<svg width="200" height="200" viewBox="0 0 200 200" fill="none" xmlns="http://www.w3.org/2000/svg">
<g clip-path="url(#clip0)">
<path d="M193.78 134.782C197.8 123.95 200 112.232 200 100C200 87.7679 197.8 76.0504 193.78 65.2176L100 56.5219L6.21992 65.2176C2.20039 76.0504 0 87.7679 0 100C0 112.232 2.20039 123.95 6.21992 134.782L100 143.478L193.78 134.782Z" fill="#6DA544"/>
<path d="M193.78 65.2176C179.65 27.1375 142.996 0 99.9996 0C57.0031 0 20.3488 27.1375 6.21948 65.2176H193.78Z" fill="#FFDA44"/>
<path d="M99.9996 200C142.996 200 179.65 172.863 193.78 134.782H6.21948C20.3488 172.863 57.0031 200 99.9996 200Z" fill="#D80027"/>
<path d="M168.574 84.604H116.188L99.9999 34.7825L83.8116 84.604H31.426L73.8069 115.395L57.6186 165.218L99.9999 134.782L142.381 165.217L126.193 115.395L168.574 84.604Z" fill="#F0F0F0"/>
</g>
<defs>
<clipPath id="clip0">
<rect width="200" height="200" fill="white"/>
</clipPath>
</defs>
</svg>
