<svg width="200" height="200" viewBox="0 0 200 200" fill="none" xmlns="http://www.w3.org/2000/svg">
<g clip-path="url(#clip0)">
<path d="M100 200C155.228 200 200 155.228 200 100C200 44.7715 155.228 0 100 0C44.7715 0 0 44.7715 0 100C0 155.228 44.7715 200 100 200Z" fill="#FFDA44"/>
<path d="M200 100C200 65.6794 182.707 35.4005 156.362 17.3915H43.6379C17.293 35.4005 0 65.6794 0 100C0 134.322 17.293 164.6 43.6379 182.609H156.362C182.707 164.6 200 134.322 200 100Z" fill="#A2001D"/>
<path d="M78.2606 73.9129H121.739V56.5219L113.043 60.8695L99.9997 47.8262L86.9563 60.8695L78.2606 56.5219V73.9129Z" fill="#FFDA44"/>
<path d="M139.13 100H117.4C118.252 98.5259 118.747 96.82 118.747 94.995C118.747 89.4532 114.255 84.9614 108.714 84.9614C104.885 84.9614 101.56 87.1067 99.8683 90.2591C98.1765 87.1063 94.8515 84.9614 91.0229 84.9614C85.4819 84.9614 80.9894 89.4532 80.9894 94.995C80.9894 96.8204 81.4854 98.5263 82.337 100H60.8687C60.8687 106.65 66.6604 112.04 73.3097 112.04H72.9089C72.9089 117.494 76.5366 122.1 81.5105 123.579L71.7382 133.352L80.9612 142.575L94.0444 129.492C94.5569 129.68 95.087 129.83 95.6351 129.933L87.7296 147.783C91.5179 149.323 95.6581 150.178 99.9999 150.178C104.341 150.178 108.482 149.323 112.27 147.783L104.365 129.933C104.912 129.83 105.442 129.68 105.955 129.492L119.038 142.575L128.26 133.352L118.488 123.579C123.461 122.099 127.089 117.495 127.089 112.04H126.688C133.338 112.04 139.13 106.65 139.13 100Z" fill="#FFDA44"/>
<path d="M99.9998 106.522L85.8694 113.043V126.087L99.9998 134.782L114.13 126.087V113.043L99.9998 106.522Z" fill="#6DA544"/>
<path d="M85.8694 100H114.13V117.391H85.8694V100Z" fill="#0052B4"/>
</g>
<defs>
<clipPath id="clip0">
<rect width="200" height="200" fill="white"/>
</clipPath>
</defs>
</svg>
