<svg width="200" height="200" viewBox="0 0 200 200" fill="none" xmlns="http://www.w3.org/2000/svg">
<path d="M99.9999 200C112.232 200 123.95 197.8 134.782 193.78L139.13 100L134.783 6.21992C123.95 2.20039 112.232 0 99.9999 0C87.7679 0 76.0503 2.20039 65.2175 6.21992L60.8694 100L65.2171 193.78C76.0503 197.8 87.7679 200 99.9999 200Z" fill="#0052B4"/>
<path d="M0 100C0 142.997 27.1375 179.651 65.2176 193.78V6.21997C27.1375 20.3493 0 57.0036 0 100Z" fill="#A2001D"/>
<path d="M134.782 6.21997V193.781C172.863 179.651 200 142.997 200 100C200 57.0036 172.863 20.3493 134.782 6.21997Z" fill="#A2001D"/>
<path d="M47.8264 100H56.5221V134.782H47.8264V100Z" fill="#FFDA44"/>
<path d="M13.0436 100H21.7393V134.782H13.0436V100Z" fill="#FFDA44"/>
<path d="M34.7829 121.739C39.5854 121.739 43.4786 117.846 43.4786 113.043C43.4786 108.241 39.5854 104.348 34.7829 104.348C29.9804 104.348 26.0872 108.241 26.0872 113.043C26.0872 117.846 29.9804 121.739 34.7829 121.739Z" fill="#FFDA44"/>
<path d="M34.7823 86.9563C37.1835 86.9563 39.13 85.0098 39.13 82.6086C39.13 80.2075 37.1835 78.261 34.7823 78.261C32.3812 78.261 30.4347 80.2075 30.4347 82.6086C30.4347 85.0098 32.3812 86.9563 34.7823 86.9563Z" fill="#FFDA44"/>
<path d="M26.0876 126.087H43.479V134.783H26.0876V126.087Z" fill="#FFDA44"/>
<path d="M26.0876 91.3042H43.479V99.9999H26.0876V91.3042Z" fill="#FFDA44"/>
<path d="M34.7828 52.1738L37.8625 61.6504H47.8265L39.766 67.5074L42.8433 76.984L34.7828 71.127L26.7226 76.984L29.8 67.5074L21.7394 61.6504H31.7035L34.7828 52.1738Z" fill="#FFDA44"/>
</svg>
