<svg width="200" height="200" viewBox="0 0 200 200" fill="none" xmlns="http://www.w3.org/2000/svg">
<g clip-path="url(#clip0)">
<path d="M100 200C155.228 200 200 155.228 200 100C200 44.7715 155.228 0 100 0C44.7715 0 0 44.7715 0 100C0 155.228 44.7715 200 100 200Z" fill="#F0F0F0"/>
<path d="M54.0516 139.13L29.293 170.707C47.3883 188.805 72.3855 200 100 200C141.34 200 176.814 174.91 192.044 139.13H54.0516Z" fill="#FFDA44"/>
<path d="M192.199 61.2316C177.055 25.2586 141.48 0 100 0C72.3855 0 47.3883 11.1949 29.293 29.2926L54.3359 61.2316H192.199Z" fill="#496E2D"/>
<path d="M21.7388 73.5508V126.087H196.555C198.798 117.77 200 109.026 200 100C200 90.843 198.766 81.9758 196.46 73.5508H21.7388Z" fill="black"/>
<path d="M29.2888 29.2891C-9.76357 68.3414 -9.76357 131.658 29.2888 170.711C45.4267 154.573 60.9474 139.052 99.9997 100L29.2888 29.2891Z" fill="#A2001D"/>
<path d="M40.473 73.9128L46.9476 93.841H67.9031L50.9507 106.158L57.425 126.087L40.473 113.77L23.5203 126.087L29.996 106.158L13.0437 93.841H33.9976L40.473 73.9128Z" fill="#FFDA44"/>
<path d="M21.5259 100H59.4259V117.391H21.5259V100Z" fill="#F0F0F0"/>
<path d="M66.6013 80.0621L60.4524 73.9128L40.4728 93.8925L20.4931 73.9128L14.3442 80.0621L34.3415 100.024L14.3442 120.021L20.4931 126.087L40.4728 106.143L60.4524 126.087L66.6013 120.021L46.604 100.024L66.6013 80.0621Z" fill="black"/>
</g>
<defs>
<clipPath id="clip0">
<rect width="200" height="200" fill="white"/>
</clipPath>
</defs>
</svg>
