<svg width="200" height="200" viewBox="0 0 200 200" fill="none" xmlns="http://www.w3.org/2000/svg">
<path d="M200 100C200 155.228 155.228 200 100 200C44.7719 200 0 155.228 0 100C0 100.024 100 0.0109375 100 0C155.228 0 200 44.7719 200 100Z" fill="#0052B4"/>
<path d="M99.7328 100H100C100 99.9102 100 99.8227 100 99.7324C99.9113 99.8219 99.8222 99.9109 99.7328 100Z" fill="#F0F0F0"/>
<path d="M100 52.1738C100 34.5781 100 23.0488 100 0H99.9832C44.7621 0.009375 0 44.777 0 100H52.1738V70.6207L81.5531 100H99.7328C99.8219 99.9109 99.9109 99.8219 100 99.7324C100 92.9953 100 86.984 100 81.5539L70.6203 52.1738H100Z" fill="#F0F0F0"/>
<path d="M50.592 13.0433C34.9518 21.9492 21.949 34.9515 13.0436 50.5918V100H39.1307V39.1312V39.1304H100C100 30.9027 100 23.0644 100 13.0433H50.592Z" fill="#D80027"/>
<path d="M100 87.7027L64.4711 52.1742H52.1742V52.175L99.9996 100H100C100 100 100 91.5207 100 87.7027Z" fill="#D80027"/>
<path d="M113.044 52.1738V99.9996C113.044 123.296 143.478 130.435 143.478 130.435C143.478 130.435 173.913 123.296 173.913 99.9996V52.1738H113.044Z" fill="#338AF3"/>
<path d="M113.044 99.9996C113.044 123.297 143.478 130.435 143.478 130.435C143.478 130.435 173.913 123.297 173.913 99.9996H113.044Z" fill="#A2001D"/>
<path d="M156.522 73.9136H147.826V65.2175H139.131V73.9136H130.435V82.6089H139.131V108.696H147.826V82.6089H156.522V73.9136Z" fill="black"/>
</svg>
