<svg width="200" height="200" viewBox="0 0 200 200" fill="none" xmlns="http://www.w3.org/2000/svg">
<path d="M100 200C155.228 200 200 155.228 200 100C200 44.7715 155.228 0 100 0C44.7715 0 0 44.7715 0 100C0 155.228 44.7715 200 100 200Z" fill="#F0F0F0"/>
<path d="M199.143 86.9563C196.385 65.868 186.912 45.4907 170.711 29.2895C154.51 13.0883 134.132 3.61528 113.044 0.856689L113.044 86.9563H199.143Z" fill="#0052B4"/>
<path d="M86.9561 0.856689C65.8678 3.61528 45.49 13.0879 29.2889 29.2891C13.0881 45.4907 3.61504 65.8684 0.856445 86.9571L86.9564 86.9567L86.9561 0.856689Z" fill="#0052B4"/>
<path d="M0.856445 113.044C3.61504 134.132 13.0881 154.51 29.2889 170.711C45.49 186.912 65.8674 196.384 86.9564 199.144L86.9561 113.045L0.856445 113.044Z" fill="#0052B4"/>
<path d="M113.043 199.143C134.132 196.384 154.509 186.912 170.71 170.711C186.911 154.509 196.384 134.132 199.143 113.044H113.043V199.143Z" fill="#0052B4"/>
<path d="M134.136 63.4523C134.136 62.1227 135.217 61.0418 136.547 61.0418H141.713C149.878 61.0418 156.522 54.3988 156.522 46.2336C156.522 38.0684 149.879 31.425 141.713 31.425H136.807C135.206 30.2223 133.058 29.4805 130.688 29.4805C125.746 29.4805 121.739 32.6855 121.739 36.6395C121.739 40.5551 125.669 43.7316 130.546 43.7934L130.544 43.8219H141.713C143.043 43.8219 144.124 44.9031 144.124 46.2328C144.124 47.5625 143.043 48.6434 141.713 48.6434H136.547C128.381 48.6434 121.739 55.2863 121.739 63.4516C121.739 71.6168 128.381 78.2602 136.547 78.2602H156.521V65.8625H136.547C135.217 65.8629 134.136 64.782 134.136 63.4523Z" fill="#F0F0F0"/>
<path d="M55.8766 63.4523C55.8766 62.1227 56.9575 61.0418 58.2876 61.0418H63.4532C71.6188 61.0418 78.2622 54.3988 78.2622 46.2336C78.2622 38.0684 71.6192 31.425 63.4532 31.425H58.5477C56.9465 30.2223 54.7985 29.4805 52.429 29.4805C47.4864 29.4805 43.4797 32.6855 43.4797 36.6395C43.4797 40.5551 47.4098 43.7316 52.2864 43.7934L52.284 43.8219H63.4536C64.7836 43.8219 65.8645 44.9031 65.8645 46.2328C65.8645 47.5625 64.7836 48.6434 63.4536 48.6434H58.2879C50.1223 48.6434 43.4797 55.2863 43.4797 63.4516C43.4797 71.6168 50.1219 78.2602 58.2879 78.2602H78.2618V65.8625H58.2876C56.9575 65.8629 55.8766 64.782 55.8766 63.4523Z" fill="#F0F0F0"/>
<path d="M134.137 155.711C134.137 154.381 135.218 153.3 136.548 153.3H141.713C149.879 153.3 156.522 146.657 156.522 138.492C156.522 130.327 149.879 123.684 141.713 123.684H136.808C135.207 122.481 133.059 121.739 130.689 121.739C125.746 121.739 121.74 124.944 121.74 128.898C121.74 132.814 125.67 135.99 130.546 136.052L130.544 136.08H141.713C143.043 136.08 144.124 137.162 144.124 138.491C144.124 139.821 143.043 140.902 141.713 140.902H136.547C128.382 140.902 121.739 147.545 121.739 155.71C121.739 163.875 128.381 170.519 136.547 170.519H156.522V158.121H136.548C135.218 158.122 134.137 157.04 134.137 155.711Z" fill="#F0F0F0"/>
<path d="M55.876 155.711C55.876 154.381 56.9569 153.3 58.287 153.3H63.4526C71.6182 153.3 78.2616 146.657 78.2616 138.492C78.2616 130.327 71.6186 123.684 63.4526 123.684H58.5471C56.9459 122.481 54.7979 121.739 52.4284 121.739C47.4854 121.739 43.4788 124.944 43.4788 128.898C43.4788 132.814 47.4088 135.99 52.2854 136.052L52.2831 136.08H63.4526C64.7827 136.08 65.8635 137.162 65.8635 138.491C65.8635 139.821 64.7827 140.902 63.4526 140.902H58.287C50.1213 140.902 43.4788 147.545 43.4788 155.71C43.4788 163.875 50.1209 170.519 58.287 170.519H78.2612V158.121H58.287C56.9569 158.122 55.876 157.04 55.876 155.711Z" fill="#F0F0F0"/>
</svg>
