<svg width="200" height="200" viewBox="0 0 200 200" fill="none" xmlns="http://www.w3.org/2000/svg">
<path d="M12.1589 52.1738L100 60.8695L187.841 52.1738C170.88 21.0895 137.904 0 100 0C62.0957 0 29.1195 21.0895 12.1589 52.1738Z" fill="#D80027"/>
<path d="M12.159 147.826L100 156.522L187.841 147.826C195.593 133.619 200 117.324 200 100L100 91.3043L0 100C0 117.324 4.40742 133.619 12.159 147.826Z" fill="#FFDA44"/>
<path d="M12.159 52.1738C4.40742 66.3812 0 82.6758 0 100H200C200 82.6758 195.593 66.3812 187.841 52.1738H100H12.159Z" fill="#0052B4"/>
<path d="M100 200C137.904 200 170.88 178.911 187.841 147.826H12.1589C29.1195 178.911 62.0957 200 100 200Z" fill="#6DA544"/>
</svg>
