<svg width="200" height="200" viewBox="0 0 200 200" fill="none" xmlns="http://www.w3.org/2000/svg">
<g clip-path="url(#clip0)">
<path d="M0 100C0 112.232 2.20039 123.949 6.21992 134.782L100 139.13L193.78 134.783C197.8 123.949 200 112.232 200 100C200 87.7679 197.8 76.0508 193.78 65.2176L100 60.8695L6.21992 65.2172C2.20039 76.0508 0 87.7679 0 100H0Z" fill="#D80027"/>
<path d="M99.9996 0C57.0031 0 20.3488 27.1375 6.21948 65.2176H193.78C179.65 27.1375 142.996 0 99.9996 0Z" fill="black"/>
<path d="M193.78 134.782H6.21948C20.3488 172.862 57.0031 200 99.9996 200C142.996 200 179.65 172.862 193.78 134.782Z" fill="#496E2D"/>
<path d="M129.889 47.8261L117.677 42.0816L124.18 30.2539L110.918 32.791L109.238 19.3933L100 29.2468L90.7634 19.3933L89.0825 32.791L75.8212 30.2539L82.3247 42.0816L70.1118 47.8261H129.889Z" fill="#D80027"/>
</g>
<defs>
<clipPath id="clip0">
<rect width="200" height="200" fill="white"/>
</clipPath>
</defs>
</svg>
