<svg width="200" height="200" viewBox="0 0 200 200" fill="none" xmlns="http://www.w3.org/2000/svg">
<g clip-path="url(#clip0)">
<path d="M100 200C155.228 200 200 155.228 200 100C200 44.7715 155.228 0 100 0C44.7715 0 0 44.7715 0 100C0 155.228 44.7715 200 100 200Z" fill="#F0F0F0"/>
<path d="M95.6528 100H200C200 90.9738 198.797 82.2308 196.556 73.9128H95.6528V100Z" fill="#D80027"/>
<path d="M95.6528 47.8261H185.323C179.202 37.8371 171.375 29.0078 162.249 21.739H95.6528V47.8261Z" fill="#D80027"/>
<path d="M100 200C123.535 200 145.167 191.866 162.249 178.261H37.7515C54.8339 191.866 76.4655 200 100 200Z" fill="#D80027"/>
<path d="M14.6777 152.174H185.323C190.238 144.155 194.048 135.389 196.555 126.087H3.44531C5.95195 135.389 9.76328 144.155 14.6777 152.174Z" fill="#D80027"/>
<path d="M100 100C100 44.7719 100 38.2609 100 0C44.7719 0 0 44.7719 0 100H100Z" fill="#0052B4"/>
<path d="M66.4979 85.5976C52.8409 85.5976 41.7698 74.5261 41.7698 60.8694C41.7698 47.2128 52.8413 36.1413 66.4979 36.1413C70.7561 36.1413 74.7628 37.2183 78.2608 39.1136C72.7733 33.7476 65.2687 30.4351 56.987 30.4351C40.1788 30.4351 26.5522 44.0612 26.5522 60.8698C26.5522 77.6784 40.1788 91.3046 56.987 91.3046C65.2687 91.3046 72.7733 87.9921 78.2608 82.6261C74.7628 84.5206 70.7565 85.5976 66.4979 85.5976Z" fill="#FFDA44"/>
<path d="M73.4665 43.478L77.8567 52.6585L87.7712 50.3679L83.3313 59.5237L91.3048 65.8468L81.3774 68.0847L81.4052 78.2608L73.4665 71.8944L65.5274 78.2608L65.5548 68.0847L55.6274 65.8468L63.6009 59.5237L59.1606 50.3679L69.0759 52.6585L73.4665 43.478Z" fill="#FFDA44"/>
</g>
<defs>
<clipPath id="clip0">
<rect width="200" height="200" fill="white"/>
</clipPath>
</defs>
</svg>
