<svg width="200" height="200" viewBox="0 0 200 200" fill="none" xmlns="http://www.w3.org/2000/svg">
<mask id="mask0_306_2725" style="mask-type:alpha" maskUnits="userSpaceOnUse" x="0" y="0" width="200" height="200">
<rect width="200" height="200" rx="100" fill="#C4C4C4"/>
</mask>
<g mask="url(#mask0_306_2725)">
<rect x="-33.3335" width="266.667" height="200" fill="white"/>
<path d="M59.0863 176.908C53.5372 178.585 45.5429 182.023 42.3452 183.952C41.3106 184.623 41.4046 185.377 43.0035 188.229C44.1321 190.073 45.2607 191.667 45.4488 191.667C45.731 191.667 48.8347 190.409 52.3146 188.816C55.7945 187.306 60.2409 185.315 62.284 184.958C63.8465 184.685 65.2735 184.427 66.1566 184.1C66.5123 184.871 66.2937 184.441 66.9417 185.651C67.8732 187.389 67.2933 187.35 68.9045 187.826C70.6032 188.327 74.7928 186.3 74.7928 186.3C79.6834 184.79 82.4109 184.623 99.9985 184.623C117.586 184.623 120.313 184.79 125.204 186.384C125.204 186.384 129.14 187.577 129.646 187.722C130.148 187.865 130.414 187.978 130.945 187.865C131.429 187.761 131.934 187.101 132.157 186.702C132.157 186.702 133.238 184.385 133.516 183.572C134.453 183.974 136.161 184.497 137.807 184.958C139.782 185.545 144.202 187.306 147.682 188.816C151.162 190.409 154.266 191.667 154.548 191.667C154.736 191.667 155.865 190.073 156.993 188.229C159.251 184.287 159.439 184.623 151.256 180.849C140.346 175.818 129.436 173.553 128.402 175.985C128.214 176.447 128.054 176.716 127.796 177.315C126.703 177.09 123.84 176.488 120.972 176.069C112.131 174.644 87.8658 174.644 79.025 176.069C76.1565 176.488 74.2172 177.188 72.5965 177.589C71.6789 175.952 71.871 176.603 71.6829 176.142C70.9305 174.465 65.9519 174.727 59.0862 176.908H59.0863Z" fill="#DFDFDF"/>
<path d="M67.0789 73.2748C66.8894 76.0075 67.4579 77.9404 68.9422 79.4067C69.6054 80.1065 70.1739 80.9397 70.1739 80.9397C70.1739 80.9397 69.4159 81.7728 68.7843 82.406C67.3 83.8723 66.6999 85.7719 66.6999 87.7714C66.6999 89.8375 67.3 91.2705 68.9106 93.1368C68.9106 93.1368 70.2702 93.821 70.2371 94.6697C70.2039 95.5184 68.7843 96.3693 68.7843 96.3693C65.8788 99.7685 65.9735 103.668 69.0054 106.9L70.3002 108.333H100.05H129.769L131.221 106.7C134.032 103.534 134.032 100.102 131.253 96.4693C131.253 96.4693 129.854 95.4718 129.832 94.6364C129.809 93.8011 131.158 92.9702 131.158 92.9702C134.064 89.3044 134.001 85.9385 131 82.406C129.642 80.8397 129.611 80.5398 130.684 79.8066C132.421 78.5736 133.495 74.4079 132.706 71.8751C131.537 68.076 126.516 65.5433 123.452 67.2096C122.884 67.5095 121.747 68.3426 120.894 69.0425C120.041 69.7756 119.252 70.3422 119.094 70.3422C118.968 70.3422 118.21 69.7423 117.42 69.0091C114.357 66.2431 110.668 65.9099 107.604 69.0425C107.604 69.0425 107.168 70.7183 106.524 70.7754C105.881 70.8325 104.977 69.2757 104.977 69.2757C101.85 66.1765 97.9343 66.3098 94.7445 69.5757C94.7445 69.5757 94.2973 70.94 93.576 70.7754C92.8547 70.6108 92.2618 69.0091 92.2618 69.0091C90.3985 67.2096 89.2177 67.2429 87.0702 67.2096C85.8341 67.1895 83.5944 67.4903 82.2418 68.5015C80.8891 69.5127 81.128 70.7241 80.817 70.6421C80.0354 70.4359 79.1748 69.1758 79.1748 69.1758C76.1429 66.4431 73.7112 65.9765 70.774 67.6095C68.4685 68.8759 67.2684 70.7421 67.0789 73.2748Z" fill="#171796"/>
<path d="M69.0405 120.766C69.0405 120.766 70.2512 121.355 70.2094 122.111C70.1676 122.866 68.8825 123.62 68.8825 123.62C68.1559 124.44 67.3661 125.621 67.1134 126.211C66.1025 128.737 66.8607 132.116 68.851 134.051C70.0514 135.265 70.083 135.757 68.9457 137.2C68.4403 137.823 67.84 138.709 67.6189 139.168C65.2495 143.827 68.7878 149.666 74.032 149.666C76.117 149.666 77.6966 148.977 79.1182 147.402C80.2555 146.156 80.8557 146.123 81.8667 147.238C83.3515 148.944 85.3101 149.994 86.9529 149.994C88.88 149.994 90.0805 149.37 92.0391 147.435C92.0391 147.435 92.8154 145.918 93.5239 145.926C94.2325 145.934 94.8824 147.468 94.8824 147.468C97.8204 150.748 100.79 150.847 104.739 147.73C104.739 147.73 105.607 146.467 106.35 146.484C107.094 146.5 107.74 147.796 107.74 147.796C109.478 149.37 110.773 149.994 112.479 149.994C114.185 149.994 115.448 149.305 117.439 147.271C117.439 147.271 118.466 145.728 119.082 145.631C119.697 145.534 120.345 146.812 120.345 146.812C122.778 149.075 124.105 149.797 125.874 149.797C127.706 149.797 129.001 149.174 130.834 147.468C132.54 145.86 133.456 143.991 133.235 142.449C133.013 140.776 131.56 137.725 130.486 136.675C130.486 136.675 129.409 136.581 129.57 135.757C129.731 134.932 130.992 134.084 130.992 134.084C134.088 130.311 134.119 127.392 131.055 123.652C131.055 123.652 129.775 122.913 129.791 122.078C129.807 121.242 131.118 120.405 131.118 120.405C134.088 116.764 134.056 113.385 131.055 110.072L129.444 108.333L99.8739 108.366L70.3042 108.399L68.9774 109.94C65.8814 113.516 65.9129 117.157 69.0405 120.766Z" fill="#D42E12"/>
<path fill-rule="evenodd" clip-rule="evenodd" d="M115.17 113.513C116.602 113.513 117.793 114.488 118.04 115.773L118.087 116.269V121.393L124.218 118.138C125.574 117.418 127.265 117.921 127.994 119.262C128.642 120.454 128.311 121.907 127.277 122.721L126.857 122.994L121.719 125.722L126.857 128.45L127.277 128.723C128.311 129.537 128.642 130.99 127.994 132.182C127.265 133.523 125.574 134.026 124.218 133.305L118.087 130.051V135.757C118.087 137.279 116.781 138.513 115.17 138.513C113.739 138.513 112.548 137.538 112.301 136.252L112.254 135.757V130.747L107.435 133.305C106.078 134.026 104.388 133.523 103.659 132.182C103.011 130.99 103.341 129.537 104.376 128.723L104.796 128.45L109.934 125.722L104.796 122.994L104.376 122.721C103.341 121.907 103.011 120.454 103.659 119.262C104.388 117.921 106.078 117.418 107.435 118.138L112.254 120.697V116.269C112.254 114.747 113.56 113.513 115.17 113.513Z" fill="#E9D315"/>
<path fill-rule="evenodd" clip-rule="evenodd" d="M86.8441 113.513C88.2759 113.513 89.4668 114.488 89.7138 115.773L89.7607 116.269V121.393L95.8914 118.138C97.2481 117.418 98.9387 117.921 99.6675 119.262C100.315 120.454 99.9851 121.907 98.9508 122.721L98.5306 122.994L93.3925 125.722L98.5306 128.45L98.9509 128.723C99.9851 129.537 100.315 130.99 99.6675 132.182C98.9387 133.523 97.2481 134.026 95.8914 133.305L89.7607 130.051V135.757C89.7607 137.279 88.4549 138.513 86.8441 138.513C85.4122 138.513 84.2214 137.538 83.9744 136.252L83.9274 135.757V130.747L79.1086 133.305C77.7519 134.026 76.0613 133.523 75.3325 132.182C74.6847 130.99 75.0149 129.537 76.0491 128.723L76.4694 128.45L81.6075 125.722L76.4694 122.994L76.0491 122.721C75.0149 121.907 74.6847 120.454 75.3325 119.262C76.0613 117.921 77.7519 117.418 79.1086 118.138L83.9274 120.697V116.269C83.9274 114.747 85.2332 113.513 86.8441 113.513Z" fill="#E9D315"/>
<path d="M141.794 151.57V107.137V58.3333V58.1833H141.644H100.001H58.3577H58.2077V58.3333V107.137H58.3577V107.138C58.3577 107.14 58.3577 107.162 58.3577 107.204C58.2755 107.202 58.2135 107.143 58.2081 107.138L58.2077 107.138L58.2077 107.139L58.2077 107.144L58.2077 107.163L58.2077 107.24L58.2079 107.538L58.2085 108.682C58.2091 109.672 58.21 111.098 58.2112 112.842C58.2137 116.33 58.2176 121.088 58.2231 126.169C58.2342 136.33 58.2521 147.786 58.2792 152.97C58.2329 153.771 58.4422 154.286 58.8393 154.729C59.0336 154.946 59.2705 155.143 59.5343 155.347C59.6391 155.427 59.7469 155.508 59.8585 155.592C60.0329 155.724 60.2168 155.862 60.4136 156.018C60.9615 156.452 62.0398 156.876 63.5094 157.255C64.9865 157.637 66.8809 157.98 69.0804 158.24C73.4782 158.762 79.1052 158.958 85.0741 158.485C87.7889 158.505 89.8326 159.032 91.4321 159.805C93.0331 160.579 94.1967 161.604 95.1464 162.632C95.6218 163.146 96.0429 163.661 96.44 164.146L96.4482 164.156C96.841 164.636 97.212 165.09 97.5851 165.48C98.3366 166.265 99.1194 166.817 100.156 166.817C101.193 166.817 101.961 166.264 102.685 165.477C103.047 165.084 103.403 164.627 103.778 164.143L103.81 164.103C104.177 163.629 104.564 163.129 105.001 162.629C105.897 161.601 106.995 160.577 108.519 159.804C110.043 159.031 112 158.505 114.621 158.485C121.425 158.59 127.197 158.424 131.514 158.019C133.672 157.817 135.47 157.554 136.853 157.235C138.226 156.918 139.215 156.539 139.734 156.089L139.735 156.087L139.748 156.077C139.759 156.068 139.775 156.055 139.795 156.039C139.836 156.005 139.894 155.956 139.965 155.894C140.106 155.771 140.299 155.594 140.503 155.383C140.908 154.966 141.376 154.397 141.571 153.826C141.783 153.204 141.839 152.639 141.841 152.229C141.842 152.024 141.83 151.857 141.817 151.741C141.811 151.683 141.805 151.637 141.8 151.606C141.797 151.591 141.795 151.579 141.794 151.57Z" stroke="black" stroke-width="0.3"/>
<path d="M90.5735 82.2135C88.3366 86.3783 88.2421 88.2472 90.1009 91.5843C91.5501 94.1473 93.2514 95.7759 95.5827 96.8171C101.663 99.5669 109.445 97.5379 112.501 92.412C114.391 89.2617 114.171 84.0023 112.091 81.7063L111.524 81.0922L110.989 82.9076C110.232 85.4973 109.476 86.8055 107.964 88.1938C105.129 90.7834 101.222 91.3708 97.1895 89.7689C94.0705 88.5141 92.8103 86.7788 91.6446 81.9465L91.3611 80.7451L90.5735 82.2135L90.5735 82.2135Z" fill="white"/>
<path fill-rule="evenodd" clip-rule="evenodd" d="M120.653 29.1667C120.653 36.3828 115.458 41.6667 108.15 41.6667C100.842 41.6667 95.6908 36.3828 95.6908 29.1667C95.6908 21.9112 100.842 16.6667 108.15 16.6667C115.458 16.6667 120.653 21.9112 120.653 29.1667ZM21.025 41.2728V24.4353L28.4652 41.2728H31.7231L38.9873 24.4353V41.2728H43.3898V17.0614H38.2829L30.1382 35.6734L21.9055 17.0614H16.6665V41.2728H21.025ZM51.8861 41.2728L54.6597 34.5693H65.0056L67.7792 41.2728H72.4458L62.0559 17.0614H57.6534L47.2634 41.2728H51.8861ZM59.8121 22.0681L56.1139 31.0192H63.5102L59.8121 22.0681ZM85.4343 41.2728V31.6119L95.2519 17.0614H90.4092L83.2771 27.9053L76.101 17.0614H71.1261L80.8997 31.6119V41.2728H85.4343ZM108.152 37.9985C103.397 37.9985 100.315 34.2919 100.315 29.1657C100.315 24.0396 103.397 20.3329 108.152 20.3329C112.906 20.3329 116.032 24.0396 116.032 29.1657C116.032 34.2919 112.906 37.9985 108.152 37.9985ZM135.534 20.6892V41.2728H130.956V20.6892H121.975V17.0614H144.515V20.6892H135.534ZM160.717 41.2728V20.6892H169.699V17.0614H147.158V20.6892H156.139V41.2728H160.717ZM191.667 37.6056V41.2728H174.013V17.0614H191.667V20.6892H178.504V27.0772H190.434V30.6655H178.504V37.6056H191.667Z" fill="#FF2500"/>
<path fill-rule="evenodd" clip-rule="evenodd" d="M189.804 156.67C189.804 156.67 186.97 151.089 194.136 148.334C201.302 145.58 204.804 149.174 207.961 152.51C211.117 155.846 210.77 165.914 210.77 165.914L202.971 178.389L179.045 183.336L169.511 178.389L158.333 156.67L159.168 135.347C159.168 135.347 160.299 127.18 160.299 125.489C160.299 123.798 165.492 110.694 165.492 110.694L170.41 105.822L184.317 98.4235L190.866 95.1524L198.997 84.8743L198.098 76.692L188.831 88.4965H180.981L172.81 91.9194L169.511 95.0291L165.492 95.1524L163.917 91.9194L168.305 84.8743L174.933 78.2018L171.884 72.5591L176.397 70.5035L175.529 67.3931L180.537 70.5035L184.317 67.3931L185.037 64.5325L176.397 59.902C176.397 59.902 184.851 56.3546 188.831 56.7248C192.811 57.095 196.565 61.778 196.565 61.778L207.961 59.902C207.961 59.902 204.91 67.3931 205.896 67.3931C206.882 67.3931 213.071 67.3931 213.071 67.3931L210.77 76.692H219.595L213.071 83.8558L218.164 86.6484L210.415 91.9194L218.164 97.1331L210.959 101.865L215.018 109.713L221.407 105.822L225 110.694L219.595 122.689L210.77 128.949L202.364 131.068L194.136 133.206L190.866 135.347L188.831 127.14L174.933 136.671L167.713 151.617L169.838 165.197L174.933 172.15L184.317 175.51L196.565 173.209L202.971 165.416L204.5 157.463C204.5 157.463 200.789 152.062 198.098 152.51C195.406 152.958 189.804 156.67 189.804 156.67Z" fill="#DFDFDF"/>
<path fill-rule="evenodd" clip-rule="evenodd" d="M175.914 58.7498L173.494 59.7651L183.587 65.174L183.206 66.6898L180.436 68.9693L173.462 64.6389L174.906 69.81L170.149 71.9768L173.392 77.98L167.319 84.0942L162.491 91.8459L164.723 96.4272L170.024 96.2646L173.503 92.9852L181.233 89.7471H189.439L197.19 79.8733L197.699 84.5016L190.059 94.1592L183.73 97.3202L169.661 104.806L164.427 109.99L164.33 110.234L164.271 110.383L164.106 110.804C163.963 111.167 163.76 111.687 163.516 112.316C163.028 113.574 162.376 115.271 161.724 117.022C161.074 118.77 160.418 120.583 159.924 122.071C159.678 122.813 159.467 123.488 159.317 124.039C159.181 124.535 159.049 125.084 159.049 125.49C159.049 126.236 158.782 128.6 158.494 130.897C158.353 132.02 158.212 133.09 158.106 133.88L157.979 134.825L157.931 135.171L157.922 135.238L157.072 156.951L168.582 179.315L178.863 184.65L203.748 179.505L212.008 166.293L212.02 165.958L212.02 165.948L212.021 165.923L212.023 165.831L212.029 165.491C212.033 165.198 212.034 164.78 212.025 164.269C212.008 163.248 211.951 161.847 211.793 160.333C211.634 158.825 211.372 157.174 210.932 155.663C210.499 154.177 209.859 152.698 208.869 151.651C207.315 150.009 205.491 148.087 203.064 146.998C200.553 145.872 197.536 145.689 193.688 147.168C191.738 147.918 190.375 148.896 189.467 150.01C188.555 151.13 188.157 152.321 188.04 153.402C187.925 154.47 188.086 155.415 188.267 156.083C188.358 156.42 188.458 156.695 188.536 156.892C188.576 156.99 188.611 157.069 188.637 157.127L188.671 157.199L188.682 157.222L188.686 157.23C188.687 157.231 188.69 157.237 189.804 156.671L188.686 157.23L189.325 158.488L190.494 157.713L190.508 157.704L190.552 157.675L190.728 157.56C190.882 157.461 191.107 157.317 191.385 157.143C191.941 156.795 192.71 156.327 193.558 155.846C194.409 155.364 195.326 154.878 196.184 154.488C197.063 154.088 197.797 153.828 198.303 153.744C198.538 153.704 198.955 153.779 199.583 154.162C200.184 154.529 200.817 155.081 201.414 155.692C202.004 156.296 202.522 156.919 202.894 157.396C202.999 157.531 203.092 157.653 203.171 157.758L201.804 164.868L195.888 172.065L184.42 174.22L175.715 171.103L171.027 164.704L169.009 151.809L175.914 137.515L188.052 129.191L190.077 137.359L194.649 134.365L202.67 132.28L202.679 132.278L211.303 130.105L220.595 123.513L226.44 110.541L221.734 104.16L215.513 107.949L212.587 102.292L220.422 97.1462L212.646 91.9143L220.555 86.5345L215.065 83.5239L222.424 75.4426H212.368L214.668 66.1437H213.071H207.104C207.249 65.5591 207.479 64.8233 207.742 64.0521C208.054 63.1366 208.399 62.2166 208.666 61.5225C208.8 61.1762 208.913 60.8879 208.993 60.6866L209.087 60.4538L209.111 60.3935L209.117 60.3785L209.961 58.3066L197.054 60.4314C196.986 60.3565 196.912 60.2755 196.832 60.1893C196.393 59.7182 195.763 59.0851 194.999 58.4372C193.515 57.1797 191.333 55.7028 188.947 55.4808C187.765 55.3709 186.345 55.5535 184.955 55.8418C183.544 56.1345 182.068 56.5573 180.739 56.9854C179.406 57.4143 178.203 57.8542 177.334 58.1865C176.899 58.3529 176.546 58.4928 176.301 58.5915L176.017 58.707L175.942 58.7382L175.914 58.7498ZM195.591 62.5612L196.048 63.1307L206.004 61.4916C205.802 62.0337 205.583 62.6381 205.376 63.2442C205.053 64.1893 204.743 65.1856 204.58 65.9665C204.502 66.3377 204.434 66.763 204.454 67.1385C204.463 67.3133 204.497 67.6281 204.676 67.9366C204.905 68.3313 205.338 68.6437 205.896 68.6437H211.474L209.174 77.9426H216.766L211.078 84.1889L215.773 86.7636L208.185 91.9256L215.906 97.1212L209.332 101.44L214.524 111.479L221.08 107.485L223.56 110.848L218.595 121.867L210.238 127.795L202.05 129.858L193.623 132.048L191.655 133.337L189.61 125.09L173.952 135.829L166.418 151.425L168.651 165.691L174.151 173.199L184.215 176.802L197.243 174.354L204.139 165.965L205.827 157.186L205.531 156.755L205.526 156.748L205.516 156.734L205.48 156.682L205.347 156.497C205.233 156.34 205.069 156.119 204.864 155.857C204.456 155.334 203.877 154.635 203.203 153.945C202.536 153.262 201.737 152.548 200.885 152.028C200.06 151.525 199.004 151.092 197.893 151.278C197.053 151.417 196.078 151.79 195.149 152.212C194.2 152.644 193.212 153.169 192.326 153.671C191.663 154.047 191.049 154.414 190.54 154.726C190.499 154.402 190.486 154.043 190.526 153.67C190.597 153.011 190.834 152.291 191.405 151.589C191.982 150.882 192.951 150.13 194.585 149.502C197.902 148.227 200.22 148.463 202.041 149.28C203.946 150.134 205.451 151.676 207.053 153.37C207.641 153.991 208.141 155.022 208.532 156.362C208.914 157.677 209.157 159.168 209.306 160.594C209.455 162.015 209.509 163.34 209.526 164.311C209.534 164.795 209.533 165.19 209.53 165.461L209.528 165.545L202.195 177.273L179.227 182.022L170.441 177.463L159.595 156.391L160.415 135.458L160.456 135.163L160.584 134.211C160.691 133.417 160.832 132.34 160.974 131.209C161.252 128.999 161.549 126.434 161.549 125.49C161.549 125.493 161.549 125.49 161.549 125.49C161.55 125.49 161.554 125.436 161.583 125.292C161.614 125.14 161.662 124.943 161.728 124.698C161.862 124.209 162.057 123.582 162.297 122.858C162.777 121.413 163.42 119.633 164.067 117.894C164.714 116.157 165.361 114.472 165.846 113.22C166.089 112.595 166.291 112.078 166.433 111.718L166.559 111.397L171.159 106.84L184.89 99.5353L191.674 96.1469L200.296 85.2482L199.006 73.512L188.223 87.2471H180.73L172.118 90.8548L168.999 93.7949L166.262 93.8788L165.344 91.9941L169.292 85.6556L176.474 78.4248L173.62 73.1427L177.889 71.1983L177.596 70.1485L180.64 72.0389L185.429 68.0976L186.488 63.8921L179.391 60.0887C180.025 59.8593 180.744 59.61 181.505 59.3651C182.786 58.9525 184.17 58.5579 185.463 58.2897C186.778 58.0169 187.907 57.8949 188.715 57.9701C190.308 58.1183 191.994 59.168 193.383 60.3445C194.054 60.9136 194.612 61.4744 195.002 61.8929C195.196 62.1016 195.347 62.2731 195.448 62.3904L195.56 62.5231L195.586 62.5545L195.591 62.5612Z" fill="black"/>
<path d="M175.686 101.875L175.378 105.194C184.997 106.086 191.361 105.606 194.686 103.535L195.352 103.067L193.278 100.458C191.254 102.067 185.977 102.666 177.659 102.041L175.686 101.875Z" fill="black"/>
<path d="M164.531 111.494L164.223 114.813C173.842 115.705 180.206 115.225 183.531 113.154L184.197 112.686L182.122 110.077C180.098 111.686 174.822 112.285 166.504 111.66L164.531 111.494Z" fill="black"/>
<path d="M161.851 120.462L161.298 123.749C166.965 124.702 170.521 124.265 171.719 121.785L171.969 121.123L168.763 120.211C168.596 120.798 166.798 121.148 163.139 120.658L161.851 120.462Z" fill="black"/>
<path fill-rule="evenodd" clip-rule="evenodd" d="M181.25 79.1711C180.099 79.1711 179.167 78.2383 179.167 77.0877C179.167 75.9371 180.099 75.0044 181.25 75.0044C182.401 75.0044 183.333 75.9371 183.333 77.0877C183.333 78.2383 182.401 79.1711 181.25 79.1711Z" fill="black"/>
<path fill-rule="evenodd" clip-rule="evenodd" d="M10.1958 156.67C10.1958 156.67 13.0296 151.089 5.86363 148.334C-1.3023 145.58 -4.80479 149.174 -7.96117 152.51C-11.1175 155.846 -10.7708 165.914 -10.7708 165.914L-2.97124 178.389L20.9549 183.336L30.4885 178.389L41.6664 156.67L40.8311 135.347C40.8311 135.347 39.7005 127.18 39.7005 125.489C39.7005 123.798 34.5075 110.694 34.5075 110.694L29.59 105.822L15.6825 98.4235L9.13366 95.1524L1.00217 84.8743L1.90184 76.692L11.169 88.4965H19.0186L27.1894 91.9194L30.4885 95.0291L34.5075 95.1524L36.0822 91.9194L31.6945 84.8743L25.0669 78.2018L28.1154 72.5591L23.6028 70.5035L24.471 67.3931L19.4623 70.5035L15.6825 67.3931L14.9624 64.5325L23.6028 59.902C23.6028 59.902 15.1488 56.3546 11.169 56.7248C7.18909 57.095 3.43429 61.778 3.43429 61.778L-7.96117 59.902C-7.96117 59.902 -4.91041 67.3931 -5.89634 67.3931C-6.88227 67.3931 -13.0714 67.3931 -13.0714 67.3931L-10.7708 76.692H-19.5951L-13.0714 83.8558L-18.1641 86.6484L-10.4155 91.9194L-18.1641 97.1331L-10.9596 101.865L-15.0187 109.713L-21.4071 105.822L-25.0002 110.694L-19.5951 122.689L-10.7708 128.949L-2.36428 131.068L5.86363 133.206L9.13366 135.347L11.169 127.14L25.0669 136.671L32.2865 151.617L30.1612 165.197L25.0669 172.15L15.6825 175.51L3.43429 173.209L-2.97124 165.416L-4.50075 157.463C-4.50075 157.463 -0.78956 152.062 1.90184 152.51C4.59323 152.958 10.1958 156.67 10.1958 156.67Z" fill="#DFDFDF"/>
<path fill-rule="evenodd" clip-rule="evenodd" d="M24.0859 58.7498L26.5055 59.7651L16.4124 65.174L16.794 66.6898L19.5641 68.9693L26.5373 64.6389L25.0941 69.81L29.8507 71.9768L26.6075 77.98L32.6805 84.0942L37.5083 91.8459L35.277 96.4272L29.9759 96.2646L26.4969 92.9852L18.7671 89.7471H10.5608L2.80935 79.8733L2.30045 84.5016L9.94096 94.1592L16.2695 97.3202L30.339 104.806L35.5729 109.99L35.6693 110.234L35.7283 110.383L35.8939 110.804C36.0364 111.167 36.2399 111.687 36.484 112.316C36.9721 113.574 37.6234 115.271 38.2752 117.022C38.9261 118.77 39.5813 120.583 40.0751 122.071C40.3216 122.813 40.5324 123.488 40.683 124.039C40.8182 124.535 40.9502 125.084 40.9502 125.49C40.9502 126.236 41.2177 128.6 41.5058 130.897C41.6466 132.02 41.7874 133.09 41.8931 133.88L42.0208 134.825L42.0683 135.171L42.0775 135.238L42.928 156.951L31.4174 179.315L21.1362 184.65L-3.74806 179.505L-12.0088 166.293L-12.0203 165.958L-12.0207 165.948L-12.0214 165.923L-12.0238 165.831L-12.0297 165.491C-12.0331 165.198 -12.0344 164.78 -12.0257 164.269C-12.0085 163.248 -11.9519 161.847 -11.7931 160.333C-11.6348 158.825 -11.372 157.174 -10.9322 155.663C-10.4996 154.177 -9.85975 152.698 -8.86943 151.651C-7.31555 150.009 -5.49088 148.087 -3.06409 146.998C-0.552917 145.872 2.46339 145.689 6.31183 147.168C8.26115 147.918 9.62479 148.896 10.5324 150.01C11.4447 151.13 11.8431 152.321 11.9595 153.402C12.0744 154.47 11.914 155.415 11.7327 156.083C11.6412 156.42 11.542 156.695 11.4631 156.892C11.4236 156.99 11.3889 157.069 11.3623 157.127L11.3289 157.199L11.3175 157.222L11.3133 157.23C11.3129 157.231 11.3101 157.237 10.1955 156.671L11.3133 157.23L10.6748 158.488L9.5052 157.713L9.49173 157.704L9.44724 157.675L9.27118 157.56C9.11716 157.461 8.89291 157.317 8.61497 157.143C8.0583 156.795 7.29007 156.327 6.44168 155.846C5.5909 155.364 4.67326 154.878 3.81538 154.488C2.93642 154.088 2.20262 153.828 1.69614 153.744C1.46137 153.704 1.04458 153.779 0.416851 154.162C-0.184389 154.529 -0.817858 155.081 -1.41485 155.692C-2.00486 156.296 -2.52208 156.919 -2.89397 157.396C-2.99939 157.531 -3.09242 157.653 -3.17136 157.758L-1.80405 164.868L4.11124 172.065L15.5799 174.22L24.2847 171.103L28.973 164.704L30.9909 151.809L24.0856 137.515L11.9481 129.191L9.92251 137.359L5.35022 134.365L-2.66998 132.28L-2.67898 132.278L-11.3034 130.105L-20.5955 123.513L-26.4407 110.541L-21.7342 104.16L-15.5135 107.949L-12.5877 102.292L-20.4222 97.1462L-12.6465 91.9143L-20.5552 86.5345L-15.0651 83.5239L-22.4243 75.4426H-12.368L-14.6686 66.1437H-13.0717H-7.10419C-7.24934 65.5591 -7.47894 64.8233 -7.74227 64.0521C-8.05484 63.1366 -8.39915 62.2166 -8.6666 61.5225C-8.80002 61.1762 -8.91366 60.8879 -8.99376 60.6866L-9.08689 60.4538L-9.11128 60.3935L-9.11736 60.3785L-9.96113 58.3066L2.94609 60.4314C3.01368 60.3565 3.08778 60.2755 3.16807 60.1893C3.6067 59.7182 4.23618 59.0851 5.00077 58.4372C6.48478 57.1797 8.6662 55.7028 11.0529 55.4808C12.2348 55.3709 13.6546 55.5535 15.0444 55.8418C16.4557 56.1345 17.9316 56.5573 19.2611 56.9854C20.5936 57.4143 21.7966 57.8542 22.6658 58.1865C23.1009 58.3529 23.4537 58.4928 23.6987 58.5915L23.9825 58.707L24.058 58.7382L24.0859 58.7498ZM4.40866 62.5612L3.95206 63.1307L-6.00459 61.4916C-5.80231 62.0337 -5.58335 62.6381 -5.37638 63.2442C-5.05369 64.1893 -4.74382 65.1856 -4.57997 65.9665C-4.50207 66.3377 -4.43402 66.763 -4.45407 67.1385C-4.4634 67.3133 -4.4971 67.6281 -4.67599 67.9366C-4.90487 68.3313 -5.3388 68.6437 -5.89663 68.6437H-11.4747L-9.1741 77.9426H-16.7664L-11.0783 84.1889L-15.7736 86.7636L-8.18502 91.9256L-15.9066 97.1212L-9.33207 101.44L-14.5245 111.479L-21.0805 107.485L-23.5604 110.848L-18.5952 121.867L-10.2387 127.795L-2.05017 129.858L6.37645 132.048L8.34422 133.337L10.3892 125.09L26.0476 135.829L33.5815 151.425L31.3489 165.691L25.8486 173.199L15.7845 176.802L2.75675 174.354L-4.13902 165.965L-5.82725 157.186L-5.53127 156.755L-5.52645 156.748L-5.51623 156.734L-5.48001 156.682L-5.34735 156.497C-5.23338 156.34 -5.06924 156.119 -4.86427 155.857C-4.4562 155.334 -3.87742 154.635 -3.2032 153.945C-2.53597 153.262 -1.73701 152.548 -0.885443 152.028C-0.0603771 151.525 0.996008 151.092 2.10694 151.278C2.94616 151.417 3.92196 151.79 4.85044 152.212C5.8 152.644 6.78763 153.169 7.67392 153.671C8.33681 154.047 8.95071 154.414 9.45973 154.726C9.50097 154.402 9.51407 154.043 9.47383 153.67C9.40294 153.011 9.16608 152.291 8.59436 151.589C8.01784 150.882 7.04847 150.13 5.41483 149.502C2.09734 148.227 -0.220562 148.463 -2.04121 149.28C-3.94624 150.134 -5.451 151.676 -7.0535 153.37C-7.64136 153.991 -8.14182 155.022 -8.53188 156.362C-8.91482 157.677 -9.15711 159.168 -9.30672 160.594C-9.45578 162.015 -9.50971 163.34 -9.52609 164.311C-9.53427 164.795 -9.53307 165.19 -9.52987 165.461L-9.52843 165.545L-2.19502 177.273L20.7729 182.022L29.559 177.463L40.4042 156.391L39.5842 135.458L39.5437 135.163L39.4152 134.211C39.3089 133.417 39.1671 132.34 39.0253 131.209C38.7481 128.999 38.4502 126.434 38.4502 125.49C38.4502 125.493 38.4503 125.49 38.4502 125.49C38.4497 125.49 38.4456 125.436 38.4165 125.292C38.3861 125.14 38.3381 124.943 38.2712 124.698C38.1378 124.209 37.9428 123.582 37.7025 122.858C37.2227 121.413 36.5796 119.633 35.9323 117.894C35.2858 116.157 34.6389 114.472 34.1533 113.22C33.9105 112.595 33.7083 112.078 33.5669 111.718L33.4409 111.397L28.8405 106.84L15.1093 99.5353L8.32577 96.1469L-0.296707 85.2482L0.993732 73.512L11.7765 87.2471H19.2696L27.8814 90.8548L31.0005 93.7949L33.7375 93.8788L34.6554 91.9941L30.7078 85.6556L23.5257 78.4248L26.3794 73.1427L22.111 71.1983L22.404 70.1485L19.3599 72.0389L14.5704 68.0976L13.5118 63.8921L20.6089 60.0887C19.9746 59.8593 19.2559 59.61 18.495 59.3651C17.2136 58.9525 15.8297 58.5579 14.5366 58.2897C13.2218 58.0169 12.0924 57.8949 11.2844 57.9701C9.69126 58.1183 8.00535 59.168 6.617 60.3445C5.9454 60.9136 5.38744 61.4744 4.99767 61.8929C4.80341 62.1016 4.65255 62.2731 4.55194 62.3904L4.43996 62.5231L4.4141 62.5545L4.40866 62.5612Z" fill="black"/>
<path d="M24.3137 101.875L24.6215 105.194C15.0025 106.086 8.63826 105.606 5.31371 103.535L4.64776 103.067L6.72211 100.458C8.74608 102.067 14.0227 102.666 22.3404 102.041L24.3137 101.875Z" fill="black"/>
<path d="M35.4687 111.494L35.7765 114.813C26.1575 115.705 19.7933 115.225 16.4687 113.154L15.8028 112.686L17.8771 110.077C19.9011 111.686 25.1778 112.285 33.4954 111.66L35.4687 111.494Z" fill="black"/>
<path d="M38.1491 120.462L38.7018 123.749C33.0351 124.702 29.4789 124.265 28.2809 121.785L28.0307 121.123L31.2369 120.211C31.4039 120.798 33.2018 121.148 36.8604 120.658L38.1491 120.462Z" fill="black"/>
<path fill-rule="evenodd" clip-rule="evenodd" d="M18.7498 79.1711C19.9004 79.1711 20.8332 78.2383 20.8332 77.0877C20.8332 75.9371 19.9004 75.0044 18.7498 75.0044C17.5992 75.0044 16.6665 75.9371 16.6665 77.0877C16.6665 78.2383 17.5992 79.1711 18.7498 79.1711Z" fill="black"/>
</g>
</svg>
