<svg width="200" height="200" viewBox="0 0 200 200" fill="none" xmlns="http://www.w3.org/2000/svg">
<path d="M100 200C155.228 200 200 155.228 200 100C200 44.7715 155.228 0 100 0C44.7715 0 0 44.7715 0 100C0 155.228 44.7715 200 100 200Z" fill="#F0F0F0"/>
<path d="M29.2891 170.711C33.484 174.906 37.9598 178.647 42.6547 181.941L181.939 42.6553C178.646 37.9604 174.905 33.4846 170.71 29.2897C166.515 25.0948 162.039 21.3542 157.344 18.0604L18.0598 157.346C21.3532 162.04 25.0942 166.516 29.2891 170.711Z" fill="#A2001D"/>
<path d="M29.2893 29.2891C-2.2591 60.8376 -8.31536 108.217 11.1077 145.851L145.851 11.1083C108.217 -8.31479 60.837 -2.25776 29.2893 29.2891Z" fill="#0052B4"/>
<path d="M170.711 170.711C202.259 139.163 208.315 91.7832 188.893 54.1492L54.1497 188.892C91.7829 208.315 139.163 202.259 170.711 170.711Z" fill="#496E2D"/>
<path d="M82.6086 56.5218L71.4031 61.7925L77.3703 72.6448L65.2027 70.3175L63.6605 82.6085L55.1855 73.5683L46.7101 82.6085L45.1687 70.3175L33.0007 72.6445L38.9675 61.7921L27.7625 56.5218L38.9679 51.2507L33.0007 40.3991L45.1683 42.7265L46.7105 30.4347L55.1855 39.4753L63.6609 30.4347L65.2027 42.7265L77.3703 40.3991L71.4039 51.2511L82.6086 56.5218Z" fill="#FFDA44"/>
</svg>
