<svg width="200" height="200" viewBox="0 0 200 200" fill="none" xmlns="http://www.w3.org/2000/svg">
<path d="M100 200C155.228 200 200 155.228 200 100C200 44.7715 155.228 0 100 0C44.7715 0 0 44.7715 0 100C0 155.228 44.7715 200 100 200Z" fill="#0052B4"/>
<path d="M142.916 106.976C143.284 104.704 143.478 102.374 143.478 99.9999C143.478 102.374 143.284 104.704 142.916 106.976L160.87 99.9999L142.916 93.0237L133.055 89.1921L117.033 82.9667L110.808 66.9452C121.306 70.3862 129.613 78.6936 133.054 89.1917L142.916 93.0233C139.936 74.6265 125.373 60.0632 106.976 57.0835L100 39.1304L93.0236 57.0839C74.6267 60.0644 60.0642 74.6269 57.0841 93.0237L39.1306 99.9999L57.0845 106.976C60.0646 125.373 74.6271 139.936 93.024 142.916L100 160.869L106.977 142.916C125.373 139.936 139.936 125.373 142.916 106.976ZM110.316 89.6847L100 99.9999H136.861L110.315 110.316L100 99.9999V136.862L89.6845 110.315L100 99.9999H63.1388L89.6845 89.6847L100 99.9999V63.1386L110.316 89.6847ZM89.1919 66.9456L82.9662 82.9671L66.9455 89.1925C70.3865 78.6936 78.6939 70.387 89.1919 66.9456ZM66.9458 110.808L82.9662 117.033L89.1919 133.054C78.6939 129.613 70.3873 121.306 66.9458 110.808ZM110.808 133.054L117.034 117.033L133.054 110.808C129.613 121.306 121.306 129.613 110.808 133.054Z" fill="#F0F0F0"/>
<path d="M136.861 100H100L110.316 110.316L136.861 100Z" fill="#0052B4"/>
<path d="M63.1389 100H100L89.6846 89.6848L63.1389 100Z" fill="#0052B4"/>
<path d="M100 136.862V100L89.6846 110.316L100 136.862Z" fill="#0052B4"/>
<path d="M100 100L110.316 89.6848L100 63.1387V100Z" fill="#0052B4"/>
<path d="M95.6531 13.0433H104.349V30.4347H95.6531V13.0433Z" fill="#F0F0F0"/>
<path d="M13.0437 95.6522H30.4351V104.348H13.0437V95.6522Z" fill="#F0F0F0"/>
<path d="M95.6531 169.565H104.349V186.957H95.6531V169.565Z" fill="#F0F0F0"/>
<path d="M169.566 95.6522H186.957V104.348H169.566V95.6522Z" fill="#F0F0F0"/>
</svg>
