<svg width="200" height="200" viewBox="0 0 200 200" fill="none" xmlns="http://www.w3.org/2000/svg">
<g clip-path="url(#clip0)">
<path d="M9.92266 56.5219C3.56563 69.6688 0 84.4176 0 100C0 115.582 3.56563 130.331 9.92266 143.478L100 152.174L190.077 143.478C196.434 130.331 200 115.582 200 100C200 84.4176 196.434 69.6688 190.077 56.5219L100 47.8262L9.92266 56.5219Z" fill="#F0F0F0"/>
<path d="M9.92664 143.478C26.1009 176.928 60.3544 200 100 200C139.647 200 173.9 176.928 190.074 143.478H9.92664Z" fill="#6DA544"/>
<path d="M9.92664 56.5219H190.074C173.9 23.0723 139.646 0 100 0C60.3548 0 26.1009 23.0723 9.92664 56.5219Z" fill="#FF9811"/>
<path d="M100 134.782C119.21 134.782 134.782 119.21 134.782 100C134.782 80.7902 119.21 65.2175 100 65.2175C80.7902 65.2175 65.2175 80.7902 65.2175 100C65.2175 119.21 80.7902 134.782 100 134.782Z" fill="#FF9811"/>
</g>
<defs>
<clipPath id="clip0">
<rect width="200" height="200" fill="white"/>
</clipPath>
</defs>
</svg>
