<svg width="200" height="200" viewBox="0 0 200 200" fill="none" xmlns="http://www.w3.org/2000/svg">
<path d="M143.478 9.92266C130.331 3.56563 115.582 0 99.9998 0C84.4173 0 69.6685 3.56563 56.5216 9.92266L47.8259 100L56.5216 190.077C69.6685 196.434 84.4173 200 99.9998 200C115.582 200 130.331 196.434 143.478 190.077L152.174 100L143.478 9.92266Z" fill="#F0F0F0"/>
<path d="M56.5219 9.92627C23.0723 26.1005 0 60.354 0 100C0 139.646 23.0723 173.9 56.5219 190.074V9.92627Z" fill="#6DA544"/>
<path d="M143.478 9.92627V190.074C176.927 173.9 200 139.646 200 100C200 60.3544 176.927 26.1005 143.478 9.92627Z" fill="#6DA544"/>
<path d="M126.087 130.435L100 47.8263L73.9131 130.435H93.4783V152.174H106.522V130.435H126.087Z" fill="#6DA544"/>
</svg>
