<svg width="200" height="200" viewBox="0 0 200 200" fill="none" xmlns="http://www.w3.org/2000/svg">
<path d="M100 200C155.228 200 200 155.228 200 100C200 44.7715 155.228 0 100 0C44.7715 0 0 44.7715 0 100C0 155.228 44.7715 200 100 200Z" fill="#F0F0F0"/>
<path d="M99.9998 0C60.3537 0 26.0975 23.0723 9.92249 56.5219H190.077C173.902 23.0723 139.646 0 99.9998 0Z" fill="#338AF3"/>
<path d="M99.9998 200C139.646 200 173.902 176.928 190.077 143.478H9.92249C26.0975 176.928 60.3537 200 99.9998 200Z" fill="#338AF3"/>
<path d="M99.9995 69.5653C83.1909 69.5653 69.5647 83.1915 69.5647 100C69.5647 116.809 83.1909 130.435 99.9995 130.435C116.808 130.435 130.434 116.809 130.434 100C130.434 83.1915 116.808 69.5653 99.9995 69.5653ZM99.9995 117.391C90.3948 117.391 82.6081 109.606 82.6081 100C82.6081 90.3946 90.3944 82.6087 99.9995 82.6087C109.605 82.6087 117.391 90.3946 117.391 100C117.391 109.606 109.604 117.391 99.9995 117.391Z" fill="#FFDA44"/>
<path d="M115.062 104.348L100 100L84.9384 104.348L79.9181 113.043H120.082L115.062 104.348Z" fill="#0052B4"/>
<path d="M100 78.261L89.959 95.6524L100 100L110.041 95.6524L100 78.261Z" fill="#338AF3"/>
<path d="M84.9386 104.348H115.062L110.041 95.6523H89.9593L84.9386 104.348Z" fill="#6DA544"/>
</svg>
