<svg width="200" height="200" viewBox="0 0 200 200" fill="none" xmlns="http://www.w3.org/2000/svg">
<path d="M200 100C200 155.228 155.228 200 100 200C44.7719 200 0 155.228 0 100C0 100.024 100 0.0109375 100 0C155.228 0 200 44.7719 200 100Z" fill="#FFDA44"/>
<path d="M100 47.8262V81.5539L65.2178 47.8262H100Z" fill="#0052B4"/>
<path d="M52.1736 99.9999H81.5529L52.1736 60.8694L47.8259 91.3042L52.1736 99.9999Z" fill="#0052B4"/>
<path d="M99.7327 100H100C100 99.9102 100 99.8227 100 99.7325C99.9112 99.8219 99.8221 99.911 99.7327 100Z" fill="#F0F0F0"/>
<path d="M100 52.1738C100 34.5781 100 23.0488 100 0H99.9832C44.7621 0.009375 0 44.777 0 100H52.1738V70.6207L81.5531 100H99.7328C99.8219 99.9109 99.9109 99.8219 100 99.7324C100 92.9953 100 86.984 100 81.5539L70.6203 52.1738H100Z" fill="#F0F0F0"/>
<path d="M100 87.7027L64.4712 52.1742H52.1743V52.175L99.9997 100H100C100 100 100 91.5207 100 87.7027Z" fill="#D80027"/>
<path d="M50.5921 13.0433C46.7371 15.2386 43.0437 17.6851 39.5312 20.3558H43.6343L32.7898 28.2363L36.9312 40.9851L26.0867 33.1062L24.9328 33.9449C20.43 39.0582 16.4378 44.6316 13.0437 50.5918V100H39.1308V39.1312V39.1304H100C100 30.9027 100 23.0644 100 13.0433H50.5921Z" fill="#D80027"/>
<path d="M42.7191 18.0281C41.6406 18.7832 40.5773 19.5593 39.53 20.3558L32.7898 28.2363L26.0867 33.1058L24.923 33.9511C22.4675 36.7402 20.1648 39.6667 18.0281 42.7187C20.4636 43.9007 23.1976 44.5652 26.0867 44.5652C36.2921 44.5652 44.5648 36.2925 44.5648 26.0871C44.5656 23.1972 43.9015 20.464 42.7191 18.0281Z" fill="#0052B4"/>
<path d="M24.9219 33.9511L26.0855 33.1058L36.9301 40.9851L32.7883 28.2363L43.632 20.3558H39.5281C34.218 24.3945 29.3246 28.9508 24.9219 33.9511Z" fill="#FFDA44"/>
<path d="M69.1171 17.3915L71.2757 24.0341H78.2601L72.6097 28.1399L74.7671 34.7825L69.1171 30.677L63.4668 34.7825L65.6238 28.1399L59.9734 24.0341H66.9582L69.1171 17.3915Z" fill="#FFDA44"/>
<path d="M26.0865 60.8696L28.2451 67.5122H35.2294L29.5794 71.6185L31.7369 78.261L26.0865 74.1552L20.4357 78.261L22.5931 71.6185L16.9431 67.5122H23.9275L26.0865 60.8696Z" fill="#FFDA44"/>
</svg>
