<svg width="200" height="200" viewBox="0 0 200 200" fill="none" xmlns="http://www.w3.org/2000/svg">
<g clip-path="url(#clip0)">
<path d="M100 200C155.228 200 200 155.228 200 100C200 44.7715 155.228 0 100 0C44.7715 0 0 44.7715 0 100C0 155.228 44.7715 200 100 200Z" fill="#F0F0F0"/>
<path d="M100 0C57.0036 0 20.3493 27.1375 6.22003 65.2176H193.781C179.651 27.1375 142.997 0 100 0Z" fill="#A2001D"/>
<path d="M100 200C142.997 200 179.651 172.863 193.78 134.782H6.22003C20.3493 172.863 57.0036 200 100 200Z" fill="#0052B4"/>
</g>
<defs>
<clipPath id="clip0">
<rect width="200" height="200" fill="white"/>
</clipPath>
</defs>
</svg>
