<svg width="200" height="200" viewBox="0 0 200 200" fill="none" xmlns="http://www.w3.org/2000/svg">
<path d="M100 200C155.228 200 200 155.228 200 100C200 44.7715 155.228 0 100 0C44.7715 0 0 44.7715 0 100C0 155.228 44.7715 200 100 200Z" fill="#F0F0F0"/>
<path d="M99.9997 0C69.6907 0 42.5333 13.4859 24.1946 34.7824H175.804C157.466 13.4859 130.309 0 99.9997 0Z" fill="#0052B4"/>
<path d="M175.805 165.218H24.1946C42.5333 186.514 69.6907 200 99.9997 200C130.309 200 157.466 186.514 175.805 165.218Z" fill="#0052B4"/>
<path d="M185.323 47.8262H14.6773C5.36914 63.0156 0 80.8801 0 100C0 119.12 5.36914 136.985 14.6773 152.174H185.323C194.631 136.985 200 119.12 200 100C200 80.8801 194.631 63.0156 185.323 47.8262Z" fill="#D80027"/>
<path d="M61.5218 138.478C82.7727 138.478 99.9999 121.251 99.9999 100C99.9999 78.7491 82.7727 61.5219 61.5218 61.5219C40.2709 61.5219 23.0437 78.7491 23.0437 100C23.0437 121.251 40.2709 138.478 61.5218 138.478Z" fill="#F0F0F0"/>
<path d="M61.522 61.5219L70.1552 88.0926H98.1388L75.4916 104.515L84.1923 131.165L61.522 114.664L38.8861 131.134L47.5525 104.515L24.9255 88.0926H52.8884L61.522 61.5219Z" fill="#D80027"/>
</svg>
