<svg width="200" height="200" viewBox="0 0 200 200" fill="none" xmlns="http://www.w3.org/2000/svg">
<path d="M100 200C155.228 200 200 155.228 200 100C200 44.7715 155.228 0 100 0C44.7715 0 0 44.7715 0 100C0 155.228 44.7715 200 100 200Z" fill="#F0F0F0"/>
<path d="M24.1948 34.7825C20.6858 38.8579 17.5002 43.2184 14.6768 47.8258H185.322C182.499 43.2184 179.314 38.8575 175.804 34.7825H24.1948Z" fill="#D80027"/>
<path d="M24.1948 165.218H175.805C179.314 161.142 182.499 156.782 185.323 152.174H14.6772C17.5003 156.781 20.6858 161.142 24.1948 165.218Z" fill="#D80027"/>
<path d="M87.203 81.7133L95.4077 93.02L108.696 88.7114L100.478 100.008L108.682 111.314L95.3987 106.989L87.1811 118.286L87.1893 104.317L73.9061 99.9922L87.1944 95.6836L87.203 81.7133Z" fill="#D80027"/>
<path d="M64.8106 128.261C49.2028 128.261 36.5497 115.608 36.5497 100C36.5497 84.3922 49.2028 71.739 64.8106 71.739C69.677 71.739 74.2563 72.9695 78.254 75.1359C71.9825 69.0027 63.4055 65.2172 53.9411 65.2172C34.7309 65.2172 19.1587 80.7898 19.1587 99.9996C19.1587 119.209 34.7313 134.782 53.9411 134.782C63.4055 134.782 71.9825 130.996 78.254 124.863C74.2563 127.03 69.6774 128.261 64.8106 128.261Z" fill="#D80027"/>
</svg>
