<svg width="200" height="200" viewBox="0 0 200 200" fill="none" xmlns="http://www.w3.org/2000/svg">
<g clip-path="url(#clip0)">
<path d="M100 200C155.228 200 200 155.228 200 100C200 44.7715 155.228 0 100 0C44.7715 0 0 44.7715 0 100C0 155.228 44.7715 200 100 200Z" fill="#F0F0F0"/>
<path d="M199.413 110.869L199.41 110.866L199.41 110.869H199.413Z" fill="#0052B4"/>
<path d="M199.41 110.87C199.41 110.869 199.411 110.868 199.411 110.866L89.7445 0.519897C84.7973 1.02419 79.9562 1.88904 75.2488 3.08787C31.9914 14.1015 0 100 0 100C0 100 139.999 193.686 155.971 182.877C159.166 180.714 162.23 178.371 165.148 175.864L100.154 110.87H199.41Z" fill="#0052B4"/>
<path d="M173.913 100L76.6582 2.74573C32.6906 13.2602 0 52.8094 0 100C0 155.228 44.7719 200 100 200C120.949 200 140.389 193.554 156.457 182.543L73.9129 100H173.913Z" fill="#D80027"/>
<path d="M95.106 147.654L82.8931 141.909L89.3966 130.081L76.1349 132.618L74.4544 119.221L65.2173 129.074L55.9802 119.221L54.2993 132.618L41.038 130.081L47.5415 141.909L35.3282 147.654L47.5415 153.398L41.038 165.226L54.3001 162.689L55.9798 176.086L65.2173 166.232L74.4544 176.086L76.1349 162.689L89.3962 165.226L82.8927 153.398L95.106 147.654Z" fill="#F0F0F0"/>
<path d="M86.9562 55.4622L78.0734 51.2844L82.8034 42.6817L73.1577 44.527L71.9355 34.7825L65.2171 41.9493L58.4988 34.7825L57.2761 44.527L47.6304 42.6817L52.3609 51.2844L43.4777 55.4622L65.2171 59.8106L86.9562 55.4622Z" fill="#F0F0F0"/>
<path d="M91.3037 55.4622C91.3037 69.8696 79.6241 81.5493 65.2166 81.5493C50.8092 81.5493 39.1295 69.8696 39.1295 55.4622" fill="#F0F0F0"/>
</g>
<defs>
<clipPath id="clip0">
<rect width="200" height="200" fill="white"/>
</clipPath>
</defs>
</svg>
