<svg width="200" height="200" viewBox="0 0 200 200" fill="none" xmlns="http://www.w3.org/2000/svg">
<path d="M100 200C155.228 200 200 155.228 200 100C200 44.7715 155.228 0 100 0C44.7715 0 0 44.7715 0 100C0 155.228 44.7715 200 100 200Z" fill="#0052B4"/>
<path d="M100 200C155.228 200 200 155.228 200 100C200 44.7715 155.228 0 100 0C44.7715 0 0 44.7715 0 100C0 155.228 44.7715 200 100 200Z" fill="#FFDA44"/>
<path d="M100 0C47.7018 0 4.78853 40.1488 0.381104 91.3043H199.62C195.212 40.1488 152.299 0 100 0Z" fill="#0052B4"/>
<path d="M100 200C152.299 200 195.212 159.851 199.62 108.696H0.381104C4.78853 159.851 47.7018 200 100 200Z" fill="#0052B4"/>
<path d="M82.6088 134.782L71.4033 140.053L77.3701 150.905L65.2026 148.578L63.6608 160.87L55.1854 151.829L46.7104 160.87L45.1686 148.578L33.0006 150.905L38.9678 140.053L27.7623 134.782L38.9682 129.512L33.0006 118.66L45.1682 120.987L46.7108 108.696L55.1854 117.736L63.6612 108.696L65.2026 120.987L77.3705 118.66L71.4037 129.512L82.6088 134.782Z" fill="#F0F0F0"/>
</svg>
