<svg width="200" height="200" viewBox="0 0 200 200" fill="none" xmlns="http://www.w3.org/2000/svg">
<path d="M200 100C200 155.228 155.228 200 100 200C44.7719 200 0 155.228 0 100C0 100.024 100 0.0109375 100 0C155.228 0 200 44.7719 200 100Z" fill="#0052B4"/>
<path d="M99.7322 100H99.9998C99.9998 99.9102 99.9998 99.8227 99.9998 99.7325C99.9107 99.8219 99.8216 99.911 99.7322 100Z" fill="#F0F0F0"/>
<path d="M100 52.1738C100 34.5781 100 23.0488 100 0H99.9832C44.7625 0.009375 0 44.777 0 100H52.1738V70.6207L81.5535 100H99.7328C99.8219 99.9109 99.9113 99.8219 100 99.7324C100 92.9953 100 86.984 100 81.5539L70.6203 52.1738H100Z" fill="#F0F0F0"/>
<path d="M50.592 13.0433C34.9518 21.9492 21.9494 34.9515 13.0436 50.5918V100H39.1307V39.1312V39.1304H100C100 30.9027 100 23.0644 100 13.0433H50.592Z" fill="#D80027"/>
<path d="M100 87.7027L64.4718 52.1742C64.4718 52.1742 52.1746 52.175 52.1746 52.1742V52.175L100 100H100C100 100 100 91.5207 100 87.7027Z" fill="#D80027"/>
<path d="M173.176 74.2028L175.334 80.8457H182.319L176.668 84.9512L178.827 91.5938L173.176 87.4887L167.525 91.5938L169.683 84.9512L164.032 80.8457H171.017L173.176 74.2028Z" fill="#D80027"/>
<path d="M148.208 122.029L151.445 131.993H161.922L153.446 138.151L156.684 148.116L148.208 141.957L139.731 148.116L142.969 138.151L134.493 131.993H144.97L148.208 122.029Z" fill="#D80027"/>
<path d="M149.151 43.7679L151.849 52.0722H160.58L153.516 57.2031L156.214 65.507L149.151 60.3746L142.088 65.507L144.786 57.2031L137.722 52.0722H146.453L149.151 43.7679Z" fill="#D80027"/>
<path d="M125.126 73.9129L128.363 83.8777H138.841L130.364 90.0356L133.602 100L125.126 93.8418L116.649 100L119.888 90.0356L111.411 83.8777H121.888L125.126 73.9129Z" fill="#D80027"/>
</svg>
