<svg width="200" height="200" viewBox="0 0 200 200" fill="none" xmlns="http://www.w3.org/2000/svg">
<g clip-path="url(#clip0)">
<path d="M100 200C155.228 200 200 155.228 200 100C200 44.7715 155.228 0 100 0C44.7715 0 0 44.7715 0 100C0 155.228 44.7715 200 100 200Z" fill="#F0F0F0"/>
<path d="M0 100C0 137.904 21.0898 170.881 52.1738 187.841V12.159C21.0898 29.1192 0 62.0957 0 100Z" fill="#D80027"/>
<path d="M193.78 134.782C197.8 123.949 200 112.232 200 100C200 87.7679 197.8 76.0503 193.78 65.2175H6.22031C2.20039 76.0503 0 87.7679 0 100C0 112.232 2.20039 123.949 6.22031 134.782L100 143.478L193.78 134.782Z" fill="#D80027"/>
<path d="M100 200C142.997 200 179.651 172.863 193.781 134.782H6.22046C20.3494 172.863 57.0041 200 100 200Z" fill="#6DA544"/>
<path d="M0 100C0 146.203 31.3363 185.08 73.9129 196.555V3.44489C31.3363 14.9199 0 53.7972 0 100Z" fill="#D80027"/>
<path d="M61.1784 44.0055L51.9554 34.7825L45.807 40.9317L39.6585 34.7825L30.4355 44.0055L36.5843 50.1543L30.4347 56.3036L39.6577 65.5266L45.8066 59.3774L51.9554 65.5266L61.1784 56.3036L55.0296 50.1543L61.1784 44.0055Z" fill="#F0F0F0"/>
</g>
<defs>
<clipPath id="clip0">
<rect width="200" height="200" fill="white"/>
</clipPath>
</defs>
</svg>
