<svg width="200" height="200" viewBox="0 0 200 200" fill="none" xmlns="http://www.w3.org/2000/svg">
<g clip-path="url(#clip0)">
<path d="M196.555 126.087C198.797 117.769 200 109.026 200 99.9999C200 90.9737 198.797 82.2308 196.555 73.9128L91.3043 0.380371C71.7648 2.06396 53.834 9.36475 39.1305 20.662L3.44492 73.9128C1.20313 82.2308 0 90.9737 0 99.9999C0 108.973 1.18867 117.668 3.40547 125.942L39.1301 179.338C53.8336 190.635 71.7645 197.936 91.3039 199.619L196.555 126.087Z" fill="#FFDA44"/>
<path d="M3.4447 126.087C9.23064 147.555 21.983 166.162 39.1302 179.338V126.087H3.4447Z" fill="#D80027"/>
<path d="M91.3035 199.619C94.1699 199.866 97.0687 200 99.9992 200C146.202 200 185.079 168.664 196.554 126.087H91.3035V199.619Z" fill="#D80027"/>
<path d="M196.554 73.9129C185.079 31.3363 146.202 0 99.9992 0C97.0687 0 94.1699 0.133594 91.3035 0.380469V73.9129H196.554Z" fill="#D80027"/>
<path d="M39.1302 20.6621C21.983 33.8379 9.23064 52.4445 3.4447 73.9129H39.1302V20.6621Z" fill="#D80027"/>
<path d="M199.154 86.9566H78.2613H78.2609V2.37695C69.0195 4.42617 60.2582 7.74766 52.1738 12.159V86.9562H0.846484C0.290625 91.2262 0 95.5793 0 100C0 104.421 0.290625 108.774 0.846484 113.043H52.1734H52.1738V187.841C60.2582 192.252 69.0195 195.574 78.2609 197.623V113.045V113.044H199.154C199.709 108.774 200 104.421 200 100C200 95.5793 199.709 91.2262 199.154 86.9566Z" fill="#0052B4"/>
</g>
<defs>
<clipPath id="clip0">
<rect width="200" height="200" fill="white"/>
</clipPath>
</defs>
</svg>
