<svg width="200" height="200" viewBox="0 0 200 200" fill="none" xmlns="http://www.w3.org/2000/svg">
<g clip-path="url(#clip0)">
<path d="M100 200C155.228 200 200 155.228 200 100C200 44.7715 155.228 0 100 0C44.7715 0 0 44.7715 0 100C0 155.228 44.7715 200 100 200Z" fill="#F0F0F0"/>
<path d="M0 100C0 137.904 21.0895 170.88 52.1738 187.841V12.159C21.0895 29.1195 0 62.0957 0 100Z" fill="#F0F0F0"/>
<path d="M100 0C82.676 0 66.3815 4.40742 52.1741 12.159V187.841C66.3815 195.593 82.676 200 100 200C155.228 200 200 155.228 200 100C200 44.7719 155.228 0 100 0Z" fill="#496E2D"/>
<path d="M142.756 116.539C130.104 125.68 112.438 122.834 103.297 110.183C94.156 97.5319 97.0017 79.8659 109.653 70.7253C113.597 67.8753 118.029 66.1905 122.538 65.605C113.864 64.3077 104.694 66.2624 97.0232 71.805C81.4529 83.0558 77.9502 104.798 89.2006 120.369C100.451 135.939 122.194 139.442 137.765 128.191C145.436 122.648 150.171 114.557 151.663 105.913C149.692 110.009 146.701 113.688 142.756 116.539Z" fill="#F0F0F0"/>
<path d="M142.214 65.2184L149.341 72.8985L158.847 68.4953L153.744 77.6453L160.87 85.3262L150.591 83.3008L145.488 92.4516L144.238 82.0492L133.958 80.0238L143.465 75.6207L142.214 65.2184Z" fill="#F0F0F0"/>
</g>
<defs>
<clipPath id="clip0">
<rect width="200" height="200" fill="white"/>
</clipPath>
</defs>
</svg>
