<svg width="200" height="200" viewBox="0 0 200 200" fill="none" xmlns="http://www.w3.org/2000/svg">
<path d="M100 200C155.228 200 200 155.228 200 100C200 44.7715 155.228 0 100 0C44.7715 0 0 44.7715 0 100C0 155.228 44.7715 200 100 200Z" fill="#F0F0F0"/>
<path d="M0 100C0 155.228 44.7719 200 100 200C100 161.971 100 100 100 100C100 100 34.7824 100 0 100Z" fill="#0052B4"/>
<path d="M100 0C155.228 0 200 44.7719 200 100C161.971 100 100 100 100 100C100 100 100 34.7824 100 0Z" fill="#D80027"/>
<path d="M59.5264 34.7825L66.0018 54.7114H86.9561L70.0037 67.0278L76.4787 86.9567L59.5264 74.6399L42.574 86.9567L49.049 67.0278L32.0967 54.7114H53.051L59.5264 34.7825Z" fill="#0052B4"/>
<path d="M140.473 113.043L146.949 132.972H167.903L150.95 145.289L157.425 165.217L140.473 152.901L123.521 165.217L129.996 145.289L113.043 132.972H133.998L140.473 113.043Z" fill="#D80027"/>
</svg>
