<svg width="200" height="200" viewBox="0 0 200 200" fill="none" xmlns="http://www.w3.org/2000/svg">
<path d="M200 100C200 155.228 155.228 200 100 200C44.7719 200 0 155.228 0 100C0 100.024 100 0.0109375 100 0C155.228 0 200 44.7719 200 100Z" fill="#0052B4"/>
<path d="M99.7328 100H100C100 99.9102 100 99.8227 100 99.7325C99.9113 99.8219 99.8222 99.911 99.7328 100Z" fill="#F0F0F0"/>
<path d="M100 52.1738C100 34.5781 100 23.0488 100 0H99.9832C44.7621 0.009375 0 44.777 0 100H52.1738V70.6207L81.5531 100H99.7328C99.8219 99.9109 99.9109 99.8219 100 99.7324C100 92.9953 100 86.984 100 81.5539L70.6203 52.1738H100Z" fill="#F0F0F0"/>
<path d="M50.592 13.0433C34.9518 21.9491 21.949 34.9515 13.0436 50.5917V99.9999H39.1307V39.1312V39.1304H100C100 30.9027 100 23.0644 100 13.0433H50.592Z" fill="#D80027"/>
<path d="M100 87.7028L64.4711 52.1743H52.1742V52.175L99.9996 100H100C100 100 100 91.5207 100 87.7028Z" fill="#D80027"/>
<path d="M156.522 60.8696L143.478 65.2177L130.435 60.8696L126.087 50.0001L130.435 39.1306H156.522L152.174 50.0001L156.522 60.8696Z" fill="#ACABB1"/>
<path d="M113.044 60.8694V108.695C113.044 131.992 143.478 139.13 143.478 139.13C143.478 139.13 173.913 131.992 173.913 108.695V60.8694H113.044Z" fill="#338AF3"/>
<path d="M115.788 120.026C123.269 134.389 143.479 139.131 143.479 139.131C143.479 139.131 163.689 134.389 171.171 120.026L143.479 73.9134L115.788 120.026Z" fill="#6DA544"/>
<path d="M173.913 108.212L143.478 60.8694L113.044 108.212V108.695C113.044 113.007 114.088 116.764 115.787 120.026L143.478 76.9495L171.17 120.025C172.869 116.763 173.913 113.007 173.913 108.695V108.212Z" fill="#FFDA44"/>
</svg>
