<svg width="200" height="200" viewBox="0 0 200 200" fill="none" xmlns="http://www.w3.org/2000/svg">
<path d="M100 200C155.228 200 200 155.228 200 100C200 44.7715 155.228 0 100 0C44.7715 0 0 44.7715 0 100C0 155.228 44.7715 200 100 200Z" fill="#F0F0F0"/>
<path d="M99.9997 0V100L29.2888 170.711C47.3853 188.807 72.3853 200 99.9997 200C155.228 200 200 155.228 200 100C200 44.7719 99.9997 0 99.9997 0Z" fill="#D80027"/>
<path d="M99.9997 0C72.3853 0 47.3853 11.193 29.2888 29.2891C53.824 53.8242 62.5337 62.5344 99.9997 100H200C200 44.7719 155.228 0 99.9997 0Z" fill="#0052B4"/>
<path d="M68.4731 100L56.2606 94.2556L62.7642 82.4278L49.5024 84.9649L47.822 71.5677L38.5845 81.4208L29.3474 71.5677L27.6665 84.9649L14.4052 82.4274L20.9087 94.2556L8.6958 100L20.9087 105.745L14.4052 117.572L27.6677 115.036L29.347 128.433L38.5845 118.579L47.822 128.433L49.5024 115.036L62.7634 117.573L56.2603 105.745L68.4731 100Z" fill="#FFDA44"/>
<path d="M26.6692 39.1306L30.7333 44.8114L37.3915 42.7025L33.2438 48.3228L37.3079 54.0036L30.6805 51.7962L26.5333 57.4161L26.5852 50.4318L19.9583 48.2239L26.6176 46.115L26.6692 39.1306Z" fill="#FFDA44"/>
<path d="M26.6692 142.584L30.7333 148.265L37.3915 146.156L33.2438 151.776L37.3079 157.457L30.6805 155.25L26.5333 160.87L26.5852 153.885L19.9583 151.678L26.6176 149.569L26.6692 142.584Z" fill="#FFDA44"/>
<path d="M84.6352 90.8576L80.5716 96.5385L73.913 94.4287L78.0606 100.049L73.9966 105.731L80.6239 103.523L84.7716 109.143L84.7192 102.159L91.3462 99.951L84.6872 97.842L84.6352 90.8576Z" fill="#FFDA44"/>
</svg>
