<svg width="200" height="200" viewBox="0 0 200 200" fill="none" xmlns="http://www.w3.org/2000/svg">
<g clip-path="url(#clip0)">
<path d="M170.711 170.711C131.658 209.763 68.342 209.763 29.2888 170.711C-9.7635 131.658 -9.7635 68.3414 29.2892 29.2887C68.3416 -9.76366 125.509 -3.61483 164.562 35.4379C203.613 74.4902 209.763 131.658 170.711 170.711Z" fill="black"/>
<path d="M29.2892 29.289C68.3415 -9.76334 131.658 -9.76256 170.711 29.2894C209.763 68.3417 209.763 131.658 170.711 170.711" fill="#A2001D"/>
<path d="M76.4227 134.783L78.0415 139.765H83.2801L79.0419 142.844L80.661 147.827L76.4227 144.747L72.1844 147.827L73.8032 142.844L69.5653 139.765H74.8036L76.4227 134.783Z" fill="#F0F0F0"/>
<path d="M63.0435 86.9567L65.7423 95.2606H74.4728L67.4091 100.392L70.1071 108.696L63.0435 103.564L55.9802 108.696L58.6786 100.392L51.6146 95.2606H60.3458L63.0435 86.9567Z" fill="#F0F0F0"/>
<path d="M63.0435 147.827L65.7415 156.13H74.4728L67.4083 161.262L70.1071 169.566L63.0435 164.433L55.9802 169.566L58.6778 161.262L51.6146 156.13H60.3446L63.0435 147.827Z" fill="#F0F0F0"/>
<path d="M88.5705 108.696L91.2693 117H99.9998L92.9361 122.131L95.6342 130.435L88.5705 125.303L81.5072 130.435L84.2056 122.131L77.142 117H85.8728L88.5705 108.696Z" fill="#F0F0F0"/>
<path d="M37.5155 108.696L40.2143 117H48.9444L41.8811 122.131L44.5788 130.435L37.5155 125.303L30.4518 130.435L33.1506 122.131L26.0866 117H34.8174L37.5155 108.696Z" fill="#F0F0F0"/>
<path d="M167.402 74.0472C162.933 69.5781 157.126 66.9379 150.885 66.4843L169.565 51.9558C162.126 44.5164 152.155 41.1566 142.425 41.8672C141.26 37.6812 139.039 33.7273 135.747 30.4355L128.369 45.1925C127.885 44.3105 127.272 43.4804 126.524 42.7332C122.279 38.4883 115.397 38.4883 111.153 42.7332C106.908 46.9781 106.907 53.8601 111.153 58.105C111.9 58.8523 112.73 59.4652 113.612 59.9496L98.8553 67.3281C102.148 70.6211 106.105 72.8433 110.293 74.0074C109.58 83.7371 112.936 93.7066 120.376 101.146L136.696 80.1629C137.924 78.9539 139.546 78.2863 141.271 78.2863C143.013 78.2863 144.65 78.9644 145.882 80.1968C147.114 81.4285 147.792 83.0664 147.792 84.8082C147.792 86.5504 147.114 88.1879 145.882 89.4199L152.031 95.5691C154.905 92.6949 156.488 88.8734 156.488 84.8086C156.488 81.4828 155.427 78.3211 153.469 75.707C156.322 76.4691 159.02 77.9621 161.254 80.1968C168.035 86.9777 168.035 98.0113 161.254 104.792L167.403 110.941C172.33 106.014 175.044 99.4629 175.044 92.4945C175.043 85.5254 172.329 78.9746 167.402 74.0472Z" fill="#FFDA44"/>
</g>
<defs>
<clipPath id="clip0">
<rect width="200" height="200" fill="white"/>
</clipPath>
</defs>
</svg>
