<svg width="200" height="200" viewBox="0 0 200 200" fill="none" xmlns="http://www.w3.org/2000/svg">
<g clip-path="url(#clip0)">
<path d="M100 200C155.228 200 200 155.228 200 100C200 44.7715 155.228 0 100 0C44.7715 0 0 44.7715 0 100C0 155.228 44.7715 200 100 200Z" fill="#F0F0F0"/>
<path d="M99.9997 0C67.284 0 38.2391 15.7121 19.9954 40H180.004C161.76 15.7121 132.715 0 99.9997 0Z" fill="#D80027"/>
<path d="M99.9997 200C132.715 200 161.76 184.288 180.004 160H19.9954C38.2391 184.288 67.284 200 99.9997 200Z" fill="#D80027"/>
<path d="M0 100C0 106.85 0.690625 113.538 2.00273 120H197.998C199.31 113.538 200 106.85 200 100C200 93.1505 199.309 86.4622 197.998 80.0001H2.00273C0.690625 86.4622 0 93.1505 0 100H0Z" fill="#D80027"/>
<path d="M29.2888 29.2891C-9.76357 68.3414 -9.76357 131.658 29.2888 170.711C45.4267 154.573 60.9474 139.052 99.9997 100L29.2888 29.2891Z" fill="#0052B4"/>
<path d="M40.473 73.913L46.9476 93.8412H67.9031L50.9507 106.158L57.425 126.087L40.473 113.77L23.5203 126.087L29.996 106.158L13.0437 93.8412H33.9976L40.473 73.913Z" fill="#F0F0F0"/>
</g>
<defs>
<clipPath id="clip0">
<rect width="200" height="200" fill="white"/>
</clipPath>
</defs>
</svg>
