<svg width="200" height="200" viewBox="0 0 200 200" fill="none" xmlns="http://www.w3.org/2000/svg">
<mask id="mask0_306_2780" style="mask-type:alpha" maskUnits="userSpaceOnUse" x="0" y="0" width="200" height="200">
<rect width="200" height="200" rx="100" fill="#C4C4C4"/>
</mask>
<g mask="url(#mask0_306_2780)">
<mask id="mask1_306_2780" style="mask-type:alpha" maskUnits="userSpaceOnUse" x="-33" y="-1" width="267" height="201">
<rect x="-33" y="-0.25" width="267" height="200.25" fill="white"/>
</mask>
<g mask="url(#mask1_306_2780)">
<path fill-rule="evenodd" clip-rule="evenodd" d="M-33 -0.25V200H234V-0.25H-33Z" fill="#F7FCFF"/>
<mask id="mask2_306_2780" style="mask-type:alpha" maskUnits="userSpaceOnUse" x="-33" y="-1" width="267" height="201">
<path fill-rule="evenodd" clip-rule="evenodd" d="M-33 -0.25V200H234V-0.25H-33Z" fill="white"/>
</mask>
<g mask="url(#mask2_306_2780)">
<path fill-rule="evenodd" clip-rule="evenodd" d="M100.501 151.768C127.224 151.768 148.887 128.762 148.887 100.382C148.887 72.003 127.224 48.9971 100.501 48.9971C73.7788 48.9971 52.1157 72.003 52.1157 100.382C52.1157 128.762 73.7788 151.768 100.501 151.768Z" fill="#3D58DB"/>
<mask id="mask3_306_2780" style="mask-type:alpha" maskUnits="userSpaceOnUse" x="52" y="48" width="97" height="104">
<path fill-rule="evenodd" clip-rule="evenodd" d="M100.501 151.768C127.224 151.768 148.887 128.762 148.887 100.382C148.887 72.003 127.224 48.9971 100.501 48.9971C73.7788 48.9971 52.1157 72.003 52.1157 100.382C52.1157 128.762 73.7788 151.768 100.501 151.768Z" fill="white"/>
</mask>
<g mask="url(#mask3_306_2780)">
<path fill-rule="evenodd" clip-rule="evenodd" d="M150.578 104.318C150.578 104.318 147.862 80.0878 127.748 78.7724C107.634 77.4571 102.211 96.5412 101.05 101.597C99.8897 106.653 96.9519 120.141 75.7743 120.141C54.5966 120.141 52.6863 85.8446 52.6863 85.8446V45.4038H150.578V104.318Z" fill="#E31D1C"/>
</g>
<path fill-rule="evenodd" clip-rule="evenodd" d="M27.9038 16.8728L35.538 23.7775L0.158384 65.0949L-7.47583 58.1903L27.9038 16.8728ZM40.4952 28.0478L48.1295 34.9524L14.018 75.6713L6.38381 68.7667L40.4952 28.0478ZM60.663 46.2623L53.0288 39.3576L18.8225 80.3855L26.4567 87.2902L60.663 46.2623Z" fill="#272727"/>
<path fill-rule="evenodd" clip-rule="evenodd" d="M178.629 13.9761L170.993 20.8549L184.238 36.3979L191.874 29.5191L178.629 13.9761ZM202.171 42.5683L194.535 49.4471L207.78 64.9902L215.416 58.1113L202.171 42.5683ZM145.789 43.2423L153.425 36.3634L166.669 51.9065L159.034 58.7853L145.789 43.2423ZM176.969 64.9552L169.333 71.834L182.578 87.377L190.214 80.4982L176.969 64.9552ZM158.87 31.7167L166.505 24.8378L203.373 69.7344L195.737 76.6132L158.87 31.7167Z" fill="#272727"/>
<path fill-rule="evenodd" clip-rule="evenodd" d="M184.395 118.591L176.695 111.685L163.339 127.289L171.039 134.195L184.395 118.591ZM161.939 146.05L154.239 139.145L140.882 154.748L148.582 161.654L161.939 146.05ZM201.012 133.522L208.712 140.428L195.355 156.032L187.655 149.126L201.012 133.522ZM187.355 168.527L179.655 161.621L166.299 177.225L173.999 184.131L187.355 168.527ZM166.969 149.754L174.669 156.659L160.727 173.321L153.027 166.416L166.969 149.754ZM197.543 128.898L189.843 121.993L175.901 138.655L183.601 145.56L197.543 128.898Z" fill="#272727"/>
<path fill-rule="evenodd" clip-rule="evenodd" d="M20.4538 123.986L28.0901 117.1L62.1709 156.152L54.5346 163.038L20.4538 123.986ZM28.4057 158.143L36.042 151.257L50.4375 167.073L42.8013 173.959L28.4057 158.143ZM2.95531 139.014L-4.68094 145.9L29.5768 185.478L37.2131 178.592L2.95531 139.014ZM8.39094 134.518L16.0272 127.631L28.5067 142.265L20.8704 149.152L8.39094 134.518Z" fill="#272727"/>
</g>
</g>
</g>
</svg>
