<svg width="200" height="200" viewBox="0 0 200 200" fill="none" xmlns="http://www.w3.org/2000/svg">
<path d="M0 100C0 142.996 27.1375 179.65 65.2168 193.78L73.9129 99.9997L65.2168 6.22C27.1375 20.3497 0 57.0036 0 100Z" fill="#6DA544"/>
<path d="M200 100C200 44.7719 155.228 0 100 0C87.768 0 76.0504 2.20039 65.2168 6.21992V193.78C76.0504 197.8 87.768 200 100 200C155.228 200 200 155.228 200 100Z" fill="#D80027"/>
<path d="M65.2175 134.782C84.4273 134.782 99.9999 119.21 99.9999 100C99.9999 80.7902 84.4273 65.2176 65.2175 65.2176C46.0077 65.2176 30.4351 80.7902 30.4351 100C30.4351 119.21 46.0077 134.782 65.2175 134.782Z" fill="#FFDA44"/>
<path d="M45.6528 82.6086V104.348C45.6528 115.153 54.4122 123.913 65.2181 123.913C76.0239 123.913 84.7833 115.154 84.7833 104.348V82.6086H45.6528Z" fill="#D80027"/>
<path d="M65.2172 110.869C61.6211 110.869 58.6953 107.944 58.6953 104.348V95.6523H71.7387V104.348C71.7387 107.944 68.8129 110.869 65.2172 110.869Z" fill="#F0F0F0"/>
</svg>
