<svg width="200" height="200" viewBox="0 0 200 200" fill="none" xmlns="http://www.w3.org/2000/svg">
<path d="M100 200C155.228 200 200 155.228 200 100C200 44.7715 155.228 0 100 0C44.7715 0 0 44.7715 0 100C0 155.228 44.7715 200 100 200Z" fill="#F0F0F0"/>
<path d="M99.9997 0C60.3537 0 26.0974 23.0723 9.92242 56.5219H190.077C173.902 23.0723 139.645 0 99.9997 0Z" fill="#D80027"/>
<path d="M99.9998 200C139.645 200 173.902 176.928 190.077 143.478H9.92242C26.0974 176.928 60.3537 200 99.9998 200Z" fill="#0052B4"/>
<path d="M124.595 71.0573L115.372 80.2803C119.306 84.2143 121.739 89.6491 121.739 95.6522C121.739 107.658 112.006 117.391 100 117.391C87.9945 117.391 78.2613 107.658 78.2613 95.6522C78.2613 89.6491 80.6949 84.2143 84.6289 80.2803L75.4059 71.0573C69.1109 77.351 65.218 86.0467 65.218 95.6522C65.218 114.862 80.7906 130.435 100 130.435C119.21 130.435 134.783 114.862 134.783 95.6522C134.782 86.0467 130.889 77.351 124.595 71.0573Z" fill="#6DA544"/>
<path d="M100 82.6086L103.238 92.5734H113.715L105.239 98.7312L108.477 108.696L100 102.537L91.5237 108.696L94.7616 98.7312L86.2854 92.5734H96.7624L100 82.6086Z" fill="#FFDA44"/>
</svg>
