<svg width="200" height="200" viewBox="0 0 200 200" fill="none" xmlns="http://www.w3.org/2000/svg">
<g clip-path="url(#clip0)">
<path d="M100 200C155.228 200 200 155.228 200 100C200 44.7715 155.228 0 100 0C44.7715 0 0 44.7715 0 100C0 155.228 44.7715 200 100 200Z" fill="#F0F0F0"/>
<path d="M60.8699 65.2176H193.78C179.651 27.1375 142.996 0 100 0C72.3856 0 47.3883 11.1949 29.293 29.2926L60.8699 65.2176Z" fill="black"/>
<path d="M60.8699 134.782H193.78C179.651 172.863 142.996 200 100 200C72.3856 200 47.3883 188.805 29.293 170.707L60.8699 134.782Z" fill="#6DA544"/>
<path d="M29.2888 29.2891C-9.76357 68.3414 -9.76357 131.658 29.2888 170.711C45.4267 154.573 60.9474 139.052 99.9997 100L29.2888 29.2891Z" fill="#D80027"/>
</g>
<defs>
<clipPath id="clip0">
<rect width="200" height="200" fill="white"/>
</clipPath>
</defs>
</svg>
