<svg width="200" height="200" viewBox="0 0 200 200" fill="none" xmlns="http://www.w3.org/2000/svg">
<path d="M100 200C155.228 200 200 155.228 200 100C200 44.7715 155.228 0 100 0C44.7715 0 0 44.7715 0 100C0 155.228 44.7715 200 100 200Z" fill="#F0F0F0"/>
<path d="M12.1591 52.1738H187.841C170.881 21.0895 137.904 0 100 0C62.0958 0 29.1196 21.0895 12.1591 52.1738Z" fill="#D80027"/>
<path d="M100 200C137.904 200 170.881 178.911 187.841 147.826H12.1591C29.1196 178.911 62.0958 200 100 200Z" fill="#D80027"/>
<path d="M134.782 99.9999C134.782 119.21 119.21 130.435 100 130.435C80.7902 130.435 65.2175 119.21 65.2175 99.9999C65.2175 80.7898 80.7902 65.2175 100 65.2175C119.21 65.2175 134.782 80.7898 134.782 99.9999Z" fill="#FFDA44"/>
<path d="M134.782 100C134.782 119.21 119.21 134.782 100 134.782C80.7902 134.782 65.2175 119.21 65.2175 100" fill="#0052B4"/>
<path d="M78.2609 91.3041H86.9566V108.696H78.2609V91.3041Z" fill="#D80027"/>
<path d="M113.043 91.3041H121.739V108.696H113.043V91.3041Z" fill="#D80027"/>
<path d="M95.6522 78.2609H104.348V108.696H95.6522V78.2609Z" fill="#D80027"/>
</svg>
