<svg width="200" height="200" viewBox="0 0 200 200" fill="none" xmlns="http://www.w3.org/2000/svg">
<g clip-path="url(#clip0)">
<path d="M100 200C155.228 200 200 155.228 200 100C200 44.7715 155.228 0 100 0C44.7715 0 0 44.7715 0 100C0 155.228 44.7715 200 100 200Z" fill="#F0F0F0"/>
<path d="M200 100C200 44.7719 155.228 0 100 0C80.4376 0 62.19 5.62305 46.7767 15.3324L68.6958 24.6453L39.1306 37.207L68.6958 49.7684L39.1306 62.3293L68.6958 74.8898L39.1306 87.4488L68.6958 100.007L39.1306 112.568L68.6958 125.128L39.1306 137.687L68.6958 150.247L39.1306 162.808L68.6958 175.367L46.7865 184.675C62.1978 194.38 80.4415 200 100 200C155.228 200 200 155.228 200 100Z" fill="#751A46"/>
</g>
<defs>
<clipPath id="clip0">
<rect width="200" height="200" fill="white"/>
</clipPath>
</defs>
</svg>
