<svg width="200" height="200" viewBox="0 0 200 200" fill="none" xmlns="http://www.w3.org/2000/svg">
<path d="M100 200C155.228 200 200 155.228 200 100C200 44.7715 155.228 0 100 0C44.7715 0 0 44.7715 0 100C0 155.228 44.7715 200 100 200Z" fill="#FCFCFC"/>
<path d="M130.435 82.6086V91.3043H142.369C137.389 98.2262 130.755 103.877 123.047 107.682C121.07 105.628 118.294 104.348 115.217 104.348C110.032 104.348 105.697 107.98 104.612 112.839C103.092 112.973 101.554 113.043 100 113.043C98.4458 113.043 96.908 112.972 95.3884 112.839C94.3029 107.98 89.9685 104.348 84.783 104.348C81.7068 104.348 78.9314 105.628 76.9533 107.682C69.2455 103.877 62.6119 98.2258 57.6314 91.3043H69.5654V82.6086H39.1306C39.1306 116.225 66.3833 143.478 100 143.478C133.618 143.478 160.87 116.225 160.87 82.6086H130.435Z" fill="#D80027"/>
</svg>
