<svg width="200" height="200" viewBox="0 0 200 200" fill="none" xmlns="http://www.w3.org/2000/svg">
<g clip-path="url(#clip0)">
<path d="M134.782 6.21953C123.949 2.20039 112.232 5.19912e-08 99.9999 5.19912e-08C87.7678 -0.000390573 76.0506 2.20039 65.2174 6.21953L56.5217 99.9996L65.2174 193.78C76.0502 197.8 87.7674 200 99.9999 200C112.231 200 123.949 197.8 134.782 193.78L143.478 100L134.782 6.21953Z" fill="#FFDA44"/>
<path d="M200 100C200 57.004 172.863 20.3489 134.782 6.22001V193.781C172.863 179.65 200 142.997 200 100Z" fill="#D80027"/>
<path d="M0 99.9997C0 142.997 27.1375 179.65 65.2168 193.781L65.2172 6.22042C27.1375 20.3493 0 57.0032 0 99.9997H0Z" fill="#0052B4"/>
</g>
<defs>
<clipPath id="clip0">
<rect width="200" height="200" fill="white"/>
</clipPath>
</defs>
</svg>
