<svg width="200" height="200" viewBox="0 0 200 200" fill="none" xmlns="http://www.w3.org/2000/svg">
<path d="M0 100C0 117.324 4.40742 133.619 12.159 147.826L100 156.522L187.841 147.826C195.593 133.619 200 117.324 200 100L100 91.3044L0 100Z" fill="#FFDA44"/>
<path d="M187.841 52.1738C170.88 21.0895 137.904 0 100 0C62.0957 0 29.1195 21.0895 12.159 52.1738C4.40742 66.3812 0 82.6758 0 100H200C200 82.6758 195.593 66.3812 187.841 52.1738Z" fill="#338AF3"/>
<path d="M100 200C137.904 200 170.881 178.911 187.841 147.826H12.1591C29.1196 178.911 62.0958 200 100 200Z" fill="#496E2D"/>
<path d="M113.044 58.5237L125.257 64.2687L118.753 76.0968L132.015 73.5601L133.696 86.9565L142.932 77.1034L152.17 86.9565L153.85 73.5601L167.112 76.096L160.608 64.2683L172.821 58.5237L160.608 52.7796L167.112 40.9515L153.85 43.4882L152.169 30.0917L142.932 39.9448L133.695 30.0917L132.015 43.4882L118.753 40.9515L125.256 52.78L113.044 58.5237Z" fill="#FFDA44"/>
</svg>
