<svg width="200" height="200" viewBox="0 0 200 200" fill="none" xmlns="http://www.w3.org/2000/svg">
<g clip-path="url(#clip0)">
<path d="M100 200C155.228 200 200 155.228 200 100C200 44.7715 155.228 0 100 0C44.7715 0 0 44.7715 0 100C0 155.228 44.7715 200 100 200Z" fill="#F0F0F0"/>
<path d="M100 -5.83223e-05C99.9066 -0.0703708 -0.0265572 99.9738 5.29435e-06 99.9999C5.29435e-06 44.7718 44.7719 -5.83223e-05 100 -5.83223e-05Z" fill="#D80027"/>
<path d="M100 -5.83221e-05C100.093 -0.0703708 200.027 99.9734 200 99.9999C200 44.7718 155.228 -5.83221e-05 100 -5.83221e-05Z" fill="#D80027"/>
<path d="M100 200C99.9066 200.07 -0.0265572 100.027 5.29435e-06 100C5.29435e-06 155.228 44.7719 200 100 200Z" fill="#0052B4"/>
<path d="M100 200C100.093 200.07 200.027 100.027 200 100C200 155.228 155.228 200 100 200Z" fill="#0052B4"/>
<path d="M99.9996 52.1739L110.792 85.3883H145.716L117.461 105.916L128.253 139.131L99.9996 118.603L71.7457 139.131L82.5378 105.916L54.2839 85.3883H89.2074L99.9996 52.1739Z" fill="#FFDA44"/>
</g>
<defs>
<clipPath id="clip0">
<rect width="200" height="200" fill="white"/>
</clipPath>
</defs>
</svg>
