<svg width="200" height="200" viewBox="0 0 200 200" fill="none" xmlns="http://www.w3.org/2000/svg">
<g clip-path="url(#clip0)">
<path d="M9.92266 56.5218C3.56563 69.6687 0 84.4175 0 100C0 115.582 3.56563 130.331 9.92266 143.478L100 152.174L190.077 143.478C196.434 130.331 200 115.582 200 100C200 84.4175 196.434 69.6687 190.077 56.5218L100 47.8261L9.92266 56.5218Z" fill="#F0F0F0"/>
<path d="M9.92676 143.478C26.101 176.928 60.3549 200 100.001 200C139.646 200 173.9 176.928 190.074 143.478H9.92676Z" fill="#496E2D"/>
<path d="M9.92676 56.5219H190.074C173.9 23.0723 139.647 0 100.001 0C60.3545 0 26.101 23.0723 9.92676 56.5219Z" fill="black"/>
<path d="M29.2888 29.2891C-9.76357 68.3414 -9.76357 131.658 29.2888 170.711C45.4267 154.573 60.9474 139.052 99.9997 100L29.2888 29.2891Z" fill="#D80027"/>
<path d="M126.087 100C126.087 85.4305 136.327 73.259 150 70.2731C147.899 69.8141 145.718 69.5653 143.478 69.5653C126.669 69.5653 113.043 83.1911 113.043 100C113.043 116.809 126.669 130.435 143.478 130.435C145.718 130.435 147.898 130.186 150 129.727C136.327 126.741 126.087 114.57 126.087 100Z" fill="#D80027"/>
<path d="M151.279 80.4347L155.596 93.7214H169.565L158.264 101.932L162.581 115.218L151.279 107.007L139.977 115.218L144.295 101.932L132.993 93.7214H146.962L151.279 80.4347Z" fill="#D80027"/>
</g>
<defs>
<clipPath id="clip0">
<rect width="200" height="200" fill="white"/>
</clipPath>
</defs>
</svg>
