<svg width="200" height="200" viewBox="0 0 200 200" fill="none" xmlns="http://www.w3.org/2000/svg">
<g clip-path="url(#clip0)">
<path d="M100 200C155.228 200 200 155.228 200 100C200 44.7715 155.228 0 100 0C44.7715 0 0 44.7715 0 100C0 155.228 44.7715 200 100 200Z" fill="#F0F0F0"/>
<path d="M199.154 86.9566H113.044H113.044V0.846484C108.774 0.290625 104.421 0 100 0C95.5793 0 91.2262 0.290625 86.9566 0.846484V86.9559V86.9563H0.846484C0.290625 91.2262 0 95.5793 0 100C0 104.421 0.290625 108.774 0.846484 113.043H86.9559H86.9563V199.154C91.2262 199.709 95.5793 200 100 200C104.421 200 108.774 199.71 113.043 199.154V113.045V113.044H199.154C199.709 108.774 200 104.421 200 100C200 95.5793 199.709 91.2262 199.154 86.9566Z" fill="#D80027"/>
<path d="M147.826 34.7824C139.722 34.7824 132.913 40.325 130.983 47.8258L147.826 52.1735L164.669 47.8258C162.739 40.3254 155.93 34.7824 147.826 34.7824Z" fill="black"/>
<path d="M130.435 73.9129L152.174 78.2606V69.0172C158.285 67.4438 163.095 62.6325 164.668 56.5215L147.826 52.1739H126.087L130.435 65.2172V73.9129Z" fill="black"/>
<path d="M164.669 47.8261H126.087V56.5218V65.2176H130.435V56.5218H164.668C165.026 55.1324 165.217 53.6754 165.217 52.1742C165.217 50.6726 165.027 49.2156 164.669 47.8261Z" fill="#ACABB1"/>
<path d="M56.5218 34.7824C48.4179 34.7824 41.6089 40.325 39.6784 47.8258L56.5218 52.1735L73.3651 47.8258C71.4347 40.3254 64.6257 34.7824 56.5218 34.7824Z" fill="black"/>
<path d="M39.1305 73.9129L60.8696 78.2606V69.0172C66.9809 67.4438 71.7911 62.6325 73.3641 56.5215L56.5219 52.1739H34.7825L39.1301 65.2172V73.9129H39.1305Z" fill="black"/>
<path d="M73.3653 47.8261H34.7825V56.5218V65.2176H39.1301V56.5218H73.3637C73.7215 55.1324 73.9129 53.6754 73.9129 52.1742C73.9129 50.6726 73.7231 49.2156 73.3653 47.8261Z" fill="#ACABB1"/>
<path d="M147.826 121.739C139.722 121.739 132.913 127.282 130.983 134.783L147.826 139.13L164.669 134.783C162.739 127.282 155.93 121.739 147.826 121.739Z" fill="black"/>
<path d="M130.435 160.87L152.174 165.217V155.974C158.285 154.401 163.095 149.589 164.668 143.478L147.826 139.131H126.087L130.435 152.174V160.87Z" fill="black"/>
<path d="M164.669 134.782H126.087V143.478V152.174H130.435V143.478H164.668C165.026 142.089 165.217 140.632 165.217 139.13C165.217 137.629 165.027 136.172 164.669 134.782Z" fill="#ACABB1"/>
<path d="M56.5218 121.739C48.4179 121.739 41.6089 127.282 39.6784 134.783L56.5218 139.13L73.3651 134.783C71.4347 127.282 64.6257 121.739 56.5218 121.739Z" fill="black"/>
<path d="M39.1305 160.87L60.8696 165.217V155.974C66.9809 154.401 71.7911 149.589 73.3641 143.478L56.5219 139.131H34.7825L39.1301 152.174V160.87H39.1305Z" fill="black"/>
<path d="M73.3653 134.782H34.7825V143.478V152.174H39.1301V143.478H73.3637C73.7215 142.089 73.9129 140.632 73.9129 139.13C73.9129 137.629 73.7231 136.172 73.3653 134.782Z" fill="#ACABB1"/>
</g>
<defs>
<clipPath id="clip0">
<rect width="200" height="200" fill="white"/>
</clipPath>
</defs>
</svg>
