<svg width="200" height="200" viewBox="0 0 200 200" fill="none" xmlns="http://www.w3.org/2000/svg">
<path d="M100 200C155.228 200 200 155.228 200 100C200 44.7715 155.228 0 100 0C44.7715 0 0 44.7715 0 100C0 155.228 44.7715 200 100 200Z" fill="#6DA544"/>
<path d="M56.5217 119.565C56.5217 126.769 62.3615 132.609 69.565 132.609H108.695C108.695 138.612 113.562 143.478 119.565 143.478H132.608C138.612 143.478 143.478 138.612 143.478 132.609V119.565H56.5217Z" fill="#F0F0F0"/>
<path d="M144.565 56.522V86.9568C144.565 91.7517 140.664 95.6525 135.869 95.6525V108.696C147.856 108.696 157.608 98.9435 157.608 86.9568V56.522H144.565Z" fill="#F0F0F0"/>
<path d="M51.0868 86.9573C51.0868 91.7523 47.186 95.653 42.3911 95.653V108.696C54.3782 108.696 64.1302 98.9441 64.1302 86.9573V56.5226H51.0868V86.9573Z" fill="#F0F0F0"/>
<path d="M125 56.522H138.043V86.9568H125V56.522Z" fill="#F0F0F0"/>
<path d="M105.435 73.913C105.435 75.1118 104.459 76.0868 103.261 76.0868C102.062 76.0868 101.087 75.1114 101.087 73.913V56.5216H88.0436V73.913C88.0436 75.1118 87.0682 76.0868 85.8698 76.0868C84.6714 76.0868 83.696 75.1114 83.696 73.913V56.5216H70.6522V73.913C70.6522 82.304 77.4788 89.1306 85.8698 89.1306C89.1014 89.1306 92.0983 88.115 94.5655 86.39C97.0323 88.1146 100.03 89.1306 103.261 89.1306C103.912 89.1306 104.552 89.0849 105.181 89.0048C104.257 92.813 100.827 95.6521 96.7393 95.6521V108.695C108.726 108.695 118.478 98.9431 118.478 86.9564V73.913V56.5216H105.435V73.913H105.435Z" fill="#F0F0F0"/>
<path d="M70.6522 95.6526H90.2175V108.696H70.6522V95.6526Z" fill="#F0F0F0"/>
</svg>
