<svg width="200" height="200" viewBox="0 0 200 200" fill="none" xmlns="http://www.w3.org/2000/svg">
<g clip-path="url(#clip0)">
<path d="M9.92266 56.5221C3.56563 69.669 0 84.4178 0 100C0 115.583 3.56563 130.331 9.92266 143.478L100 152.174L190.077 143.478C196.434 130.331 200 115.583 200 100C200 84.4178 196.434 69.669 190.077 56.5221L100 47.8264L9.92266 56.5221Z" fill="#F0F0F0"/>
<path d="M9.92615 143.478C26.1004 176.928 60.3539 200 100 200C139.646 200 173.9 176.928 190.074 143.478H9.92615Z" fill="black"/>
<path d="M9.92615 56.5219H190.074C173.9 23.0723 139.646 0 100 0C60.3539 0 26.1004 23.0723 9.92615 56.5219Z" fill="#D80027"/>
<path d="M29.2894 29.2888C-9.76296 68.3411 -9.76296 131.658 29.2894 170.711C45.4273 154.573 60.948 139.052 100 99.9997L29.2894 29.2888Z" fill="#496E2D"/>
</g>
<defs>
<clipPath id="clip0">
<rect width="200" height="200" fill="white"/>
</clipPath>
</defs>
</svg>
