<svg width="200" height="200" viewBox="0 0 200 200" fill="none" xmlns="http://www.w3.org/2000/svg">
<path d="M143.478 9.92266C130.331 3.56563 115.582 0 100 0C84.4182 0 69.669 3.56563 56.5221 9.92266L47.8264 100L56.5221 190.077C69.669 196.434 84.4182 200 100 200C115.582 200 130.331 196.434 143.478 190.077L152.174 100L143.478 9.92266Z" fill="#FFDA44"/>
<path d="M99.9999 65.2176L108.633 91.7879H136.573L113.97 108.211L122.603 134.782L99.9999 118.361L77.3963 134.782L86.0311 108.211L63.428 91.7879H91.3667L99.9999 65.2176Z" fill="#496E2D"/>
<path d="M56.5219 9.92609C23.0727 26.1007 0 60.3542 0 99.9999C0 139.646 23.0727 173.899 56.5219 190.074V9.92609Z" fill="#496E2D"/>
<path d="M143.478 9.92609V190.074C176.927 173.899 200 139.646 200 99.9999C200 60.3542 176.927 26.1007 143.478 9.92609Z" fill="#D80027"/>
</svg>
