<svg width="200" height="200" viewBox="0 0 200 200" fill="none" xmlns="http://www.w3.org/2000/svg">
<path d="M100 200C155.228 200 200 155.228 200 100C200 44.7715 155.228 0 100 0C44.7715 0 0 44.7715 0 100C0 155.228 44.7715 200 100 200Z" fill="#F0F0F0"/>
<path d="M0 100C0 44.7719 44.7719 0 100 0C155.228 0 200 44.7719 200 100" fill="#D80027"/>
<path d="M60.8697 52.1735C60.8697 37.604 71.1091 25.4329 84.7826 22.4466C82.681 21.988 80.5009 21.7391 78.2607 21.7391C61.4517 21.7391 47.8259 35.3649 47.8259 52.1739C47.8259 68.9829 61.4517 82.6087 78.2607 82.6087C80.5001 82.6087 82.6806 82.3598 84.7826 81.9009C71.1091 78.9145 60.8697 66.7434 60.8697 52.1735Z" fill="#F0F0F0"/>
<path d="M100 23.913L102.159 30.5556H109.144L103.492 34.6614L105.651 41.304L100 37.1989L94.3494 41.304L96.508 34.6614L90.8572 30.5556H97.8416L100 23.913Z" fill="#F0F0F0"/>
<path d="M83.0566 36.9563L85.2148 43.5993H92.1996L86.5488 47.7047L88.7074 54.3473L83.0566 50.2422L77.405 54.3473L79.564 47.7047L73.9128 43.5993H80.8976L83.0566 36.9563Z" fill="#F0F0F0"/>
<path d="M116.944 36.9563L119.103 43.5993H126.088L120.437 47.7047L122.596 54.3473L116.944 50.2422L111.294 54.3473L113.452 47.7047L107.802 43.5993H114.786L116.944 36.9563Z" fill="#F0F0F0"/>
<path d="M110.422 56.5216L112.581 63.1645H119.565L113.914 67.27L116.073 73.9126L110.422 69.8075L104.771 73.9126L106.93 67.27L101.279 63.1645H108.263L110.422 56.5216Z" fill="#F0F0F0"/>
<path d="M89.5787 56.5216L91.7369 63.1645H98.722L93.0708 67.27L95.2298 73.9126L89.5787 69.8075L83.9275 73.9126L86.0861 67.27L80.4353 63.1645H87.4201L89.5787 56.5216Z" fill="#F0F0F0"/>
</svg>
