<svg width="200" height="200" viewBox="0 0 200 200" fill="none" xmlns="http://www.w3.org/2000/svg">
<mask id="mask0_306_2578" style="mask-type:alpha" maskUnits="userSpaceOnUse" x="0" y="0" width="200" height="200">
<rect width="200" height="200" rx="100" fill="#C4C4C4"/>
</mask>
<g mask="url(#mask0_306_2578)">
<mask id="mask1_306_2578" style="mask-type:alpha" maskUnits="userSpaceOnUse" x="-88" y="-1" width="288" height="217">
<rect x="-88" y="-0.5" width="288" height="216" fill="white"/>
</mask>
<g mask="url(#mask1_306_2578)">
<path fill-rule="evenodd" clip-rule="evenodd" d="M-88 0.400391H200V216.4H-88V0.400391Z" fill="#2B409A"/>
<rect x="-88" y="-1" width="138" height="107.333" fill="#2B409A"/>
<mask id="mask2_306_2578" style="mask-type:alpha" maskUnits="userSpaceOnUse" x="-88" y="-1" width="138" height="108">
<rect x="-88" y="-1" width="138" height="107.333" fill="white"/>
</mask>
<g mask="url(#mask2_306_2578)">
<path d="M-103.367 98.6639L-72.9997 111.982L50.6882 13.479L66.7062 -6.31279L34.2328 -10.7642L-16.2165 31.6837L-56.823 60.2837L-103.367 98.6639Z" fill="#F7FCFF"/>
<path d="M-99.208 107.997L-83.7373 115.726L60.9559 -8.14974H39.2332L-99.208 107.997Z" fill="#F50100"/>
<path d="M65.3633 98.6639L34.996 111.982L-88.6918 13.479L-104.71 -6.31279L-72.2364 -10.7642L-21.7871 31.6837L18.8194 60.2837L65.3633 98.6639Z" fill="#F7FCFF"/>
<path d="M64.3264 105.362L48.8557 113.091L-12.7562 60.0529L-31.0227 54.1271L-106.252 -6.24429H-84.5292L-9.34231 52.6942L10.629 59.7998L64.3264 105.362Z" fill="#F50100"/>
<mask id="path-10-outside-1_306_2578" maskUnits="userSpaceOnUse" x="-90" y="-3" width="142" height="111" fill="black">
<rect fill="white" x="-90" y="-3" width="142" height="111"/>
<path fill-rule="evenodd" clip-rule="evenodd" d="M-11.4531 -1H-26.7865V45H-88V60.3333H-26.7865V106.333H-11.4531V60.3333H50V45H-11.4531V-1Z"/>
</mask>
<path fill-rule="evenodd" clip-rule="evenodd" d="M-11.4531 -1H-26.7865V45H-88V60.3333H-26.7865V106.333H-11.4531V60.3333H50V45H-11.4531V-1Z" fill="#F50100"/>
<path d="M-26.7865 -1V-2.5H-28.2865V-1H-26.7865ZM-11.4531 -1H-9.95312V-2.5H-11.4531V-1ZM-26.7865 45V46.5H-25.2865V45H-26.7865ZM-88 45V43.5H-89.5V45H-88ZM-88 60.3333H-89.5V61.8333H-88V60.3333ZM-26.7865 60.3333H-25.2865V58.8333H-26.7865V60.3333ZM-26.7865 106.333H-28.2865V107.833H-26.7865V106.333ZM-11.4531 106.333V107.833H-9.95312V106.333H-11.4531ZM-11.4531 60.3333V58.8333H-12.9531V60.3333H-11.4531ZM50 60.3333V61.8333H51.5V60.3333H50ZM50 45H51.5V43.5H50V45ZM-11.4531 45H-12.9531V46.5H-11.4531V45ZM-26.7865 0.5H-11.4531V-2.5H-26.7865V0.5ZM-25.2865 45V-1H-28.2865V45H-25.2865ZM-88 46.5H-26.7865V43.5H-88V46.5ZM-86.5 60.3333V45H-89.5V60.3333H-86.5ZM-26.7865 58.8333H-88V61.8333H-26.7865V58.8333ZM-25.2865 106.333V60.3333H-28.2865V106.333H-25.2865ZM-11.4531 104.833H-26.7865V107.833H-11.4531V104.833ZM-12.9531 60.3333V106.333H-9.95312V60.3333H-12.9531ZM50 58.8333H-11.4531V61.8333H50V58.8333ZM48.5 45V60.3333H51.5V45H48.5ZM-11.4531 46.5H50V43.5H-11.4531V46.5ZM-12.9531 -1V45H-9.95312V-1H-12.9531Z" fill="#F7FCFF" mask="url(#path-10-outside-1_306_2578)"/>
</g>
<path d="M130.863 166.464C130.31 166.464 128.303 165.383 128.303 165.383C128.303 165.383 126.849 167.684 126.087 167.817C125.326 167.953 121.382 166.399 121.382 166.399C121.382 166.399 118.614 168.561 117.991 168.425C117.368 168.292 111.001 166.94 111.001 166.94L107.541 164.775C107.541 164.775 105.604 167.885 105.534 167.817C105.465 167.749 99.7215 166.668 99.7215 166.668C99.7215 166.668 101.451 164.302 101.451 164.234C101.451 164.167 100.621 163.895 100.621 163.895L99.3754 164.911L94.2544 165.383L95.5002 161.866L97.507 158.892L122.074 135.559L134.184 157.403L132.386 163.963C132.386 163.963 131.416 166.464 130.863 166.464Z" fill="#6A4C2D"/>
<path d="M107.397 162.05C108.252 163.085 119.525 174.607 121.352 180.059C123.179 185.51 106.529 178.547 106.529 178.547C106.529 178.547 127.495 164.928 137.968 164.928C148.442 164.928 169.026 178.547 169.026 178.547C169.026 178.547 155.213 188.275 155.355 182.141C155.497 176.007 161.839 163.924 169.408 162.05" stroke="#FFBB00" stroke-width="0.5" stroke-linecap="round" stroke-linejoin="round"/>
<path d="M177.879 162.941L174.435 161.659L171.386 157.621L158.76 156.692L147.249 153.551L142.396 156.789L145.009 160.201L151.396 162.551L177.879 162.941Z" fill="#F7FCFF"/>
<path d="M127.45 88.2984C127.567 88.5932 130.142 88.0704 130.689 89.6127C133.46 85.5207 136.713 89.4231 136.713 89.4231L139.449 86.1829L142.539 89.109L145.374 88.8882L148.336 95.8412L124.958 95.4026C124.958 95.4026 127.333 88.0035 127.45 88.2984Z" fill="#656263"/>
<path d="M151.686 117.887C151.498 115.685 149.546 115.428 148.457 115.501C147.365 115.575 146.389 116.492 146.389 116.492L142.784 114.253C142.784 114.253 144.588 103.132 146.502 102.436C148.321 101.154 148.642 100.599 148.642 100.307C148.642 100.013 147.967 98.8217 147.967 98.8217L136.21 97.4634L125.093 98.7481C125.093 98.7481 124.23 100.489 124.343 101.004C124.456 101.516 124.494 102.068 126.483 103.573C128.687 105.229 130.201 114.731 130.201 114.731C130.201 114.731 127.085 116.234 126.897 116.05C126.709 115.869 125.771 115.685 125.281 115.759C124.795 115.832 123.179 116.639 123.179 118.73C123.179 120.824 124.795 122.035 124.795 122.035C124.795 122.035 135.423 129.824 137.001 132.685C138.541 129.235 148.642 121.447 149.844 120.858C150.333 120.567 151.874 120.088 151.686 117.887Z" fill="#656263"/>
<path d="M162.293 107.514C163.176 106.939 169.057 106.651 170.47 107.514C171.881 108.377 172.411 112.63 172.411 112.63C172.411 112.63 173.294 114.124 173.352 115.217C173.41 116.309 173.529 117.056 173.529 117.056C173.529 117.056 178.234 123.036 178.292 128.438C178.822 132.117 178.703 141.945 177.235 145.68C177.174 150.338 175.176 153.383 175.176 153.383C175.176 153.383 175.645 154.187 175.587 155.05C175.527 155.913 175.058 156.717 175.058 156.717L170.647 158.613L165.765 157.809L160.234 141.656L161.528 114.353L161.881 112.975L161.294 109.296C161.294 109.296 161.412 108.088 162.293 107.514Z" fill="black"/>
<path d="M130.36 121.851C130.36 121.851 136.311 121.851 136.954 123.738C138.08 121.223 143.226 121.381 143.226 121.381C146.336 121.276 149.446 121.172 152.554 121.067C152.609 128.402 152.661 135.737 152.716 143.072C150.894 151.61 144.567 157.637 137.597 160.204C129.285 157.584 124.032 150.721 122.318 142.914C121.994 135.946 121.672 128.976 121.351 122.009C124.354 121.955 127.357 121.905 130.36 121.851Z" fill="#F7FCFF"/>
<path d="M124.559 121.926L137.68 156.094L149.533 121.181C145.855 121.413 137.967 120.615 136.988 123.892C135.471 120.961 127.171 122.144 124.559 121.926V121.926Z" fill="#006B00"/>
<path fill-rule="evenodd" clip-rule="evenodd" d="M139.769 127.283C139.769 127.283 140.963 130.396 139.769 131.937C138.576 133.478 139.868 134.741 140.588 134.741C141.308 134.741 143.779 137.188 141.774 137.188C139.769 137.188 138.638 136.426 138.638 138.577C138.638 140.728 141.407 150.414 140.588 152.736C139.769 155.059 139.973 156.836 141.148 156.246C142.322 155.656 143.056 154.138 142.415 151.216C141.774 148.294 141.148 148.984 141.148 146.459C141.148 143.933 141.774 141.123 141.774 141.123C141.774 141.123 142.828 141.912 142.078 144.795C141.329 147.678 143.006 151.655 143.006 152.736C143.006 153.818 143.056 156.795 142.415 157.09C141.774 157.385 141.186 159.182 140.588 157.812C139.99 156.442 139.616 154.183 138.85 155.737C138.084 157.292 138.232 160.866 137.435 161.038C136.639 161.21 135.449 162.904 135.449 162.224C135.449 161.544 134.327 160.316 134.669 159.172C135.011 158.028 135.311 157.893 135.587 158.99C135.864 160.087 137.028 160.077 137.028 159.172C137.028 158.267 136.62 158.708 137.028 156.648C137.435 154.588 137.889 151.861 137.028 152.025C136.167 152.189 134.845 153.53 134.669 151.055C134.493 148.581 133.786 147.422 134.355 146.94C134.925 146.459 135.684 144.737 135.927 146.091C136.17 147.445 135.1 148.738 135.275 149.226C135.449 149.714 135.547 150.819 136.287 149.893C137.028 148.968 137.464 147.441 138.018 148.856C138.572 150.271 138.584 149.155 137.435 146.459C136.287 143.763 135.311 142.263 135.449 139.896C135.587 137.53 135.401 136.643 135.587 135.882C135.773 135.122 133.531 131.417 134.1 130.35C134.669 129.283 134.887 125.839 135.587 126.459C136.287 127.079 136.647 127.911 136.287 128.838C135.927 129.765 135.567 130.687 135.927 131.312C136.287 131.937 137.524 133.743 137.771 133.289C138.018 132.834 138.85 133.274 138.85 130.702C138.85 128.131 137.923 127.227 138.507 126.616C139.091 126.006 139.769 127.283 139.769 127.283Z" fill="#FFD100"/>
<path d="M149.606 121.188L151.375 121.145L148.216 125.056L152.006 129.38L144.55 138.56L151.586 146.835C150.813 148.688 149.916 150.375 148.72 151.9L144.677 147.534L152.006 138.603L145.983 131.933L149.606 121.188Z" fill="#1E5AA6"/>
<path d="M122.433 122.009L125.971 125.753L122.224 130.323L130.017 138.6L123.571 147.039C124.344 148.893 125.453 150.95 126.646 152.472L130.48 147.738L122.604 139.175L128.375 132.012L124.33 121.966L122.433 122.009Z" fill="#1E5AA6"/>
<path d="M133.091 144.201L130.311 147.824L140.253 159.064C142.008 158.198 143.386 157.21 144.889 156.019L139.705 150.172L141.814 144.119L144.846 147.535L135.367 159.353C133.781 158.693 132.026 157.663 130.439 156.387L135.451 150.172L133.091 144.201Z" fill="#1E5AA6"/>
<path d="M167.469 115.163C167.469 115.738 168.095 149.652 168.781 149.328C170.487 148.522 170.88 150.282 170.88 150.282C170.88 150.282 171.468 155.86 169.997 156.607C167.35 157.985 166.192 158.289 166.192 158.289L163.646 156.434C163.646 156.434 161.057 152.812 160.469 151.202C159.881 149.594 159.175 142.409 159.409 140.856C159.644 139.305 159.821 130.221 159.705 129.763C159.586 129.301 159.117 121.714 159.409 120.565C159.705 119.417 161.526 114.357 161.468 114.357C161.468 114.357 167.469 114.589 167.469 115.163Z" fill="url(#paint0_linear_306_2578)"/>
<path d="M161.588 109.355C162.822 109.355 163.763 110.391 164.058 111.311C164.116 111.713 163.94 112.001 163.997 112.748C164.058 113.496 155.058 112.918 155 112.862C155 112.862 159.176 108.897 161.588 109.355Z" fill="#FF7000"/>
<path d="M171.47 158.5C171.47 158.5 174.293 157.866 175.058 156.89C175.53 156.545 178 160.512 171.47 158.5Z" fill="white" stroke="black" stroke-width="0.5" stroke-linejoin="round"/>
<path d="M166.78 111.647C166.78 111.896 166.579 112.097 166.33 112.097C166.082 112.097 165.88 111.896 165.88 111.647C165.88 111.398 166.082 111.197 166.33 111.197C166.579 111.197 166.78 111.398 166.78 111.647Z" fill="black"/>
<path d="M144.386 106.679C144.386 106.679 149.072 111.634 152.104 111.58C152.654 113.035 150.725 114.388 149.955 115.033C148.412 114.549 147.016 115.12 143.434 110.813C143.657 108.066 144.441 106.786 144.386 106.679Z" fill="#F7FCFF"/>
<path d="M163.014 81.7441C163.455 84.9221 162.988 85.66 162.781 86.9945C162.574 88.3289 170.921 88.8217 173.069 86.1814C172.849 87.3671 170.344 92.192 158.989 92.1383C163.289 96.1256 157.614 99.3035 155.187 98.3329C159.652 94.9936 153.921 93.0014 150.724 95.1549C151.33 93.324 155.795 84.1156 163.014 81.7441Z" fill="#F7FCFF"/>
<path fill-rule="evenodd" clip-rule="evenodd" d="M155.455 104.055C154.603 100.554 154.19 96.5306 156.073 94.9925C153.591 93.3229 150.892 95.0463 150.892 95.0463C150.874 95.0881 150.823 95.1585 150.751 95.2581C150.174 96.0554 148.246 98.7207 150.892 103.508C143.838 101.677 146.789 108.081 147.31 108.565C147.585 107.54 151.332 106.572 152.27 111.796C152.586 112.855 150.685 114.381 150.076 114.871C149.94 114.98 149.869 115.038 149.899 115.028C149.899 115.028 155.866 116.239 156.64 108.357C157.658 107.752 162.616 104.45 162.465 97.6358C157.914 97.7293 155.903 102.745 155.455 104.055Z" fill="#0000FF"/>
<path d="M128.787 108.081C128.787 108.081 124.215 111.957 121.623 110.718C119.694 111.85 117.435 109.858 117.435 109.858C117.435 109.858 120.079 119.389 129.56 112.495C129.395 110.395 128.897 108.242 128.787 108.081Z" fill="#F7FCFF"/>
<path d="M121.57 110.559C121.955 108.567 123.554 107.596 124.822 109.481C126.53 109.806 128.239 102.967 122.175 104.096C123.884 95.1561 118.759 91.8169 118.759 91.8169C118.759 91.8169 116.941 101.727 117.767 103.558C118.594 105.389 116.555 100.165 109.997 98.7105C109.886 106.198 117.327 109.699 117.327 109.699C117.327 109.699 119.421 111.584 121.57 110.559Z" fill="#0000FF"/>
<path d="M115.371 99.7529C113.442 100.344 108.751 97.5163 111.727 93.8517C101.972 93.6366 96.6613 85.3952 99.9125 86.9667C103.164 88.5382 105.487 85.1895 107.912 86.9667C104.936 84.2755 108.951 82.1218 108.951 82.1218C108.951 82.1218 117.273 84.547 118.761 91.7632C118.265 93.164 118.044 95.6401 117.934 95.5326C117.934 95.4788 112.781 95.443 115.371 99.7529Z" fill="#F7FCFF"/>
<path d="M130.943 66.3828C130.987 66.1358 137.222 63.9943 137.642 60.4543C138.062 56.9142 137.558 59.3014 137.558 59.3014C137.558 59.3014 139.286 57.696 138.655 56.8312C138.021 55.9668 138.232 57.943 137.222 57.9017C136.211 57.8604 136.758 55.7609 136.758 55.7609C136.758 55.7609 136.674 55.5139 136.379 55.3904C135.956 55.4315 134.989 54.5258 134.989 54.5258C134.989 54.5258 134.358 53.7024 133.807 56.2961C134.103 59.0546 135.916 58.5192 135.916 60.3309C135.916 62.1423 134.314 63.542 133.851 63.5833C133.388 63.6243 133.556 62.06 133.556 62.06C133.556 62.06 133.304 61.3188 133.136 61.3188C132.968 61.3188 134.062 61.1541 133.894 59.0957C133.515 56.6255 133.22 59.6721 132.545 59.5485C131.87 59.4251 132.377 57.2843 132.629 57.0372C132.881 56.7902 132.334 55.761 130.86 58.3959C130.732 59.6721 130.564 58.0665 130.269 58.1488C129.765 59.178 129.849 59.9192 130.564 60.8661C131.618 61.8129 132.293 62.7598 132.25 63.2539C132.209 63.748 131.659 64.8596 130.903 64.8596C130.144 64.8596 130.943 63.501 130.903 63.0479C130.86 62.5951 129.597 60.9484 129.597 60.9484C129.597 60.9484 128.711 59.5485 128.795 59.5074C128.879 59.4661 126.773 61.5246 128.036 62.5951C127.069 62.4717 126.985 62.8422 126.985 62.8422C126.985 63.3363 128.291 63.542 128.459 64.4065C128.627 65.2713 127.109 65.7651 127.109 65.7651C127.109 65.7651 127.744 66.6297 129.51 64.9419C129.553 66.0122 128.838 66.7533 128.838 66.7533C129.426 67.014 129.889 66.9865 129.973 67.6592C129.973 67.6591 130.903 66.6296 130.943 66.3828Z" fill="#CDAD56"/>
<path d="M124.194 67.6616C124.194 67.6616 123.406 66.5192 123.371 66.2942C123.333 66.0695 119.496 66.5783 117.681 62.0047C116.5 59.8319 117.681 61.1056 117.681 61.1056L117.753 60.0566C117.753 60.0566 116.496 58.5545 117.033 57.7678C117.57 56.9811 117.349 58.7792 118.039 58.7829C118.897 58.7455 118.433 56.8348 118.433 56.8348C118.433 56.8348 118.504 56.6101 118.755 56.4978C119.111 56.5351 119.259 57.6623 119.58 57.7372C119.902 57.8122 120.568 56.4109 120.776 56.1227C121.072 56.0815 121.06 54.9618 121.526 57.3218C121.277 59.8319 119.149 59.3449 119.149 60.9933C119.149 62.6414 120.507 63.9151 120.901 63.9528C121.295 63.9901 121.153 62.5667 121.153 62.5667C121.153 62.5667 121.367 61.8923 121.509 61.8923C121.654 61.8923 120.258 62.1541 120.403 60.281C120.724 58.5273 121.437 60.3939 122.01 60.2813C122.583 60.169 121.943 58.4269 122.109 58.1609C122.146 57.8949 122.989 56.7524 123.316 59.2736C123.423 60.435 124.072 58.2741 124.321 58.3491C124.752 59.2855 124.133 60.5363 123.525 61.398C122.63 62.2594 122.224 63.2034 122.262 63.6531C122.297 64.1025 122.508 64.6611 123.154 64.6611C123.797 64.6611 123.371 63.8778 123.406 63.4658C123.441 63.0537 124.515 61.7197 124.515 61.7197C124.726 61.3906 124.55 60.7754 124.773 60.491C125.123 60.4947 125.268 60.0193 125.624 61.3303C125.983 62.6414 126.412 60.4686 126.412 60.4686C126.412 60.4686 126.913 62.0797 125.838 63.0537C126.661 62.9414 126.733 63.2784 126.733 63.2784C126.733 63.7281 126.342 63.9151 126.197 64.7018C126.053 65.4886 126.626 65.9382 126.626 65.9382C126.626 65.9382 126.09 66.7249 124.587 65.1889C124.55 66.1629 125.161 66.8373 125.161 66.8373C124.657 67.0747 124.266 67.0495 124.194 67.6616Z" fill="#CDAD56"/>
<path d="M134.079 66.7717C133.158 69.462 129.837 68.4413 129.837 68.4413C129.837 68.4413 129.947 69.7878 129.617 70.4338C129.889 70.6343 131.852 72.1448 133.914 72.5344C136.879 73.0948 142.952 71.5619 144.991 73.8268C147.029 76.0918 146.922 77.92 146.922 77.92C146.922 77.92 144.269 78.223 145.007 79.1571C145.485 79.7637 146.805 80.2145 146.922 80.8414C147.294 82.837 145.678 86.4276 146.259 87.7764C145.341 87.8585 145.269 88.798 145.269 88.798C145.217 89.8649 142.567 89.231 142.567 89.231C142.567 89.231 144.22 85.0824 144.33 84.1146C144.44 83.1439 143.172 81.4205 142.182 81.4205C141.188 81.4205 140.473 84.4909 140.473 84.4909C140.473 84.4909 139.978 86.8058 140.143 87.0208C140.308 87.2359 139.48 86.2681 139.48 86.2681C139.48 86.2681 139.22 87.2084 138.793 87.7764C138.314 88.4154 137.661 88.6905 137.661 88.6905C137.661 88.6905 137.166 87.2897 137.331 86.752C137.496 86.2143 140.033 84.1146 139.813 82.6062C139.715 81.9406 139.627 80.7787 138.793 80.3931C137.738 79.9051 135.802 80.2611 134.632 80.0203C133.989 81.1149 133.694 87.1284 134.134 87.5076C134.577 87.884 133.034 88.6905 133.034 88.6905L131.215 88.7442C131.186 87.9292 132.287 85.7021 132.287 83.8174C132.287 81.9327 132.426 79.9128 132.426 79.9128C132.426 79.9128 131.203 80.2205 130.552 81.4205C130.006 82.4268 130.007 84.3287 130.057 84.5985C130.167 85.1899 130.717 86.8595 130.552 87.3463C130.387 87.8302 127.523 88.4754 127.523 88.4754L127.41 86.9133C127.41 86.9133 128.623 86.1606 128.623 84.2759C128.623 82.3912 128.733 79.6971 128.678 79.5358C128.645 79.4389 127.686 75.3145 126.423 72.5344C125.581 70.6803 124.282 69.8308 124.216 69.6799C124.051 69.303 124.051 68.872 124.051 68.872C124.051 68.872 122.229 70.1647 120.081 67.418C122.05 65.7759 124.161 66.987 124.161 66.987C124.161 66.987 124.711 65.479 127.245 65.5868C129.782 65.6946 130.277 67.0949 130.167 66.9333C130.167 66.9333 132.04 65.3174 134.079 66.7717Z" fill="#923F00"/>
<path d="M144.034 94.7915C144.077 94.7915 148.714 94.9273 148.76 97.3497C148.806 99.7693 147.338 99.1438 147.292 99.1438C147.246 99.1438 143.895 98.7392 143.895 98.7392L144.034 94.7915Z" fill="#0000FF"/>
<path d="M139.536 94.1192C139.536 94.1192 145.319 94.0767 144.997 96.5416C144.676 99.0092 143.208 98.5168 143.208 98.5168L140.407 98.2904L139.536 94.1192Z" fill="#F7FCFF"/>
<path d="M136.277 93.8516L139.628 94.1204C139.628 94.1204 141.646 94.3892 141.556 96.2739C141.464 98.1586 139.489 98.2039 139.489 98.2039L136.231 98.0228L136.277 93.8516Z" fill="#0000FF"/>
<path d="M128.427 94.7915C128.381 94.7915 123.745 94.9273 123.698 97.3497C123.655 99.7693 125.123 99.1438 125.169 99.1438C125.216 99.1438 128.566 98.7392 128.566 98.7392L128.427 94.7915Z" fill="#F7FCFF"/>
<path d="M132.925 94.1192C132.925 94.1192 127.142 94.0767 127.464 96.5416C127.785 99.0092 129.253 98.5168 129.253 98.5168L132.054 98.2904L132.925 94.1192Z" fill="#0000FF"/>
<path d="M136.187 93.8516L132.836 94.1204C132.836 94.1204 130.815 94.3892 130.907 96.2739C131 98.1586 132.972 98.2039 132.972 98.2039L136.23 98.0228L136.187 93.8516Z" fill="#F7FCFF"/>
<path d="M148.581 117.984C149.467 118.272 148.792 120.958 148.369 121.207L145.155 121.082C145.155 121.082 147.564 117.613 148.581 117.984Z" fill="#5E0043"/>
<path d="M128.641 121.703C127.883 120.67 126.782 117.821 125.769 118.605C124.88 118.893 125.557 121.579 125.98 121.828L128.641 121.703Z" fill="#5E0043"/>
<path d="M124.651 101.776L136.246 109.19L146.689 102.327C146.689 102.327 148.866 101.153 148.678 100.31C148.493 99.4636 147.74 99.7947 147.363 99.9418C146.99 100.089 136.434 107.393 136.434 107.393L125.204 100.454C125.204 100.454 124.379 100.199 124.228 100.712C124.078 101.227 124.538 101.518 124.651 101.776Z" fill="#B4B6B9"/>
<path d="M163.522 156.347C163.522 156.347 158.454 157.877 159.866 157.921C160.911 157.953 165.946 157.921 165.946 157.921L163.522 156.347Z" fill="#FF7000"/>
<path d="M165.577 158.024L161.077 158.151C161.077 158.151 159.945 159.155 159.873 159.396C159.803 159.639 160.617 159.707 160.617 159.707C160.617 159.707 165.259 160.887 168.772 160.123C170.544 159.518 170.854 158.79 169.611 158.349C168.372 157.908 165.612 158.041 165.577 158.024Z" fill="#FF7000"/>
<path d="M113.517 116.41C113.517 116.41 112.931 118.21 113.517 119.11C114.103 120.009 117.787 127.291 117.787 127.291C117.787 127.291 120.299 124.263 121.22 124.181C122.141 124.101 121.721 132.036 121.721 132.036C121.721 132.036 120.215 133.426 119.294 133.344C118.373 133.262 121.553 136.454 121.469 139.154C121.385 141.853 117.285 155.27 115.778 155.513C114.271 155.759 112.97 152.987 112.97 150.59C112.97 148.194 114.522 144.389 114.438 143.325C114.354 142.261 106.95 154.727 106.502 156.674C106.417 157.043 106.904 158.377 106.904 158.377C106.904 158.377 104.002 158.615 104.644 162.305C96.1045 159.359 91.9188 154.288 92.0025 149.134C92.0346 147.159 90.1511 142.512 92.0025 137.381C94.9833 129.12 102.248 119.692 102.3 118.784C102.383 117.31 102.969 116.656 103.053 115.838C103.137 115.02 102.802 110.846 103.639 110.111C104.476 109.375 108.829 107.575 109.917 107.657C111.006 107.739 111.927 108.475 111.927 108.475C111.927 108.475 116.029 108.475 116.28 110.028C116.531 111.585 115.443 112.157 115.443 112.157C115.443 112.157 116.029 114.367 113.517 116.41Z" fill="#8A9396"/>
<path d="M115.959 162.812C117.342 163.769 120.537 164.335 120.537 164.335C120.537 164.335 112.689 166.448 104.716 162.345C103.987 159.15 106.426 158.437 107.03 158.412C108.438 158.044 114.576 161.853 115.959 162.812Z" fill="#2B2B2B"/>
<path d="M125.566 162.472C134.152 167.011 135.071 163.955 140.987 159.642C141.398 159.342 143.35 166.57 151.64 162.472C163.372 156.674 141.583 147.009 138.503 147.218C135.424 147.434 116.979 157.934 125.566 162.472Z" fill="#00713D"/>
</g>
</g>
<defs>
<linearGradient id="paint0_linear_306_2578" x1="166.478" y1="139.967" x2="173.161" y2="139.894" gradientUnits="userSpaceOnUse">
<stop stop-color="#D5DFFF"/>
<stop offset="1" stop-color="white"/>
</linearGradient>
</defs>
</svg>
