<svg width="200" height="200" viewBox="0 0 200 200" fill="none" xmlns="http://www.w3.org/2000/svg">
<path d="M100 200C155.228 200 200 155.228 200 100C200 44.7715 155.228 0 100 0C44.7715 0 0 44.7715 0 100C0 155.228 44.7715 200 100 200Z" fill="#F0F0F0"/>
<path d="M20.6723 39.1176C12.8172 49.3375 6.89414 61.1168 3.44531 73.9133H55.468L20.6723 39.1176Z" fill="#0052B4"/>
<path d="M196.556 73.9134C193.107 61.1173 187.184 49.338 179.329 39.118L144.534 73.9134H196.556Z" fill="#0052B4"/>
<path d="M3.44531 126.087C6.89453 138.883 12.8176 150.663 20.6723 160.882L55.4668 126.087H3.44531Z" fill="#0052B4"/>
<path d="M160.882 20.672C150.663 12.817 138.884 6.89392 126.087 3.4447V55.467L160.882 20.672Z" fill="#0052B4"/>
<path d="M39.1189 179.328C49.3388 187.183 61.1181 193.106 73.9142 196.555V144.533L39.1189 179.328Z" fill="#0052B4"/>
<path d="M73.9138 3.4447C61.1177 6.89392 49.3384 12.817 39.1189 20.6717L73.9138 55.4666V3.4447Z" fill="#0052B4"/>
<path d="M126.087 196.555C138.883 193.106 150.662 187.183 160.882 179.328L126.087 144.533V196.555Z" fill="#0052B4"/>
<path d="M144.534 126.087L179.329 160.883C187.184 150.663 193.107 138.883 196.556 126.087H144.534Z" fill="#0052B4"/>
<path d="M199.154 86.9566H113.044H113.044V0.846484C108.774 0.290625 104.421 0 100 0C95.5785 0 91.2262 0.290625 86.9566 0.846484V86.9559V86.9563H0.846484C0.290625 91.2262 0 95.5793 0 100C0 104.421 0.290625 108.774 0.846484 113.043H86.9559H86.9563V199.154C91.2262 199.709 95.5785 200 100 200C104.421 200 108.774 199.71 113.043 199.154V113.044V113.044H199.154C199.709 108.774 200 104.421 200 100C200 95.5793 199.709 91.2262 199.154 86.9566Z" fill="#D80027"/>
<path d="M126.087 126.087L170.71 170.711C172.763 168.659 174.721 166.514 176.588 164.291L138.385 126.087H126.087V126.087Z" fill="#D80027"/>
<path d="M73.9126 126.087H73.9119L29.2888 170.71C31.3404 172.763 33.4853 174.721 35.7087 176.589L73.9126 138.384V126.087Z" fill="#D80027"/>
<path d="M73.9125 73.9134V73.9127L29.289 29.2888C27.2367 31.3404 25.2789 33.4853 23.4109 35.7087L61.6152 73.913H73.9125V73.9134Z" fill="#D80027"/>
<path d="M126.087 73.9139L170.711 29.2897C168.659 27.2374 166.514 25.2796 164.291 23.412L126.087 61.6163V73.9139Z" fill="#D80027"/>
</svg>
