<svg width="200" height="200" viewBox="0 0 200 200" fill="none" xmlns="http://www.w3.org/2000/svg">
<g clip-path="url(#clip0)">
<path d="M43.6379 182.609C59.6872 193.579 79.0922 200 100 200C120.908 200 140.313 193.579 156.362 182.609L100 173.913L43.6379 182.609Z" fill="#D80027"/>
<path d="M156.362 17.3914C140.313 6.4207 120.908 0 100 0C79.0922 0 59.6864 6.4207 43.6379 17.3914L100 26.0871L156.362 17.3914Z" fill="#D80027"/>
<path d="M43.6379 182.609C59.6872 193.579 79.0922 200 100 200C120.908 200 140.313 193.579 156.362 182.609L100 173.913L43.6379 182.609Z" fill="#D80027"/>
<path d="M156.362 17.3914C140.313 6.4207 120.908 0 100 0C79.0922 0 59.6864 6.4207 43.6379 17.3914L100 26.0871L156.362 17.3914Z" fill="#D80027"/>
<path d="M199.746 93.4781C197.377 62.6148 178.624 32.6086 156.363 17.391H43.6384C18.9759 34.2508 2.24663 61.8633 0.210693 93.4781L100.001 100L199.746 93.4781Z" fill="#0052B4"/>
<path d="M0.210693 106.522C2.24663 138.137 18.9755 165.749 43.638 182.609H156.362C181.026 165.75 197.754 138.137 199.79 106.522L100.001 100L0.210693 106.522Z" fill="#0052B4"/>
<path d="M199.745 93.4776H106.522V13.0433H93.4785V93.4776H0.210547C0.071875 95.6339 0 97.8085 0 99.9999C0 102.191 0.0714844 104.365 0.210156 106.521H93.4785V186.957H106.522V106.521H199.79C199.929 104.365 200 102.191 200 99.9999C200 97.8245 199.912 95.6491 199.745 93.4776Z" fill="#D80027"/>
<path d="M39.1306 99.9999L99.9997 61.7413L160.87 99.9999L99.9997 138.259L39.1306 99.9999Z" fill="#F0F0F0"/>
<path d="M65.2175 117.392H143.478L126.087 91.3044L117.391 100L108.696 95.6525L100 108.696H82.6085L73.9128 100L65.2175 117.392Z" fill="#6DA544"/>
<path d="M99.9995 73.913L102.158 80.5556H109.142L103.492 84.6615L105.65 91.3044L99.9995 87.199L94.3487 91.3044L96.5073 84.6615L90.8569 80.5556H97.8409L99.9995 73.913Z" fill="#FFDA44"/>
<path d="M99.9993 50.81L21.7388 99.9999L99.9993 149.19L178.261 99.9999L99.9993 50.81ZM46.2497 99.9999L99.9993 66.2159L153.75 99.9999L99.9993 133.784L46.2497 99.9999Z" fill="#D80027"/>
</g>
<defs>
<clipPath id="clip0">
<rect width="200" height="200" fill="white"/>
</clipPath>
</defs>
</svg>
