<svg width="200" height="200" viewBox="0 0 200 200" fill="none" xmlns="http://www.w3.org/2000/svg">
<g clip-path="url(#clip0)">
<path d="M170.713 170.713C208.218 133.209 209.698 73.3324 175.172 34.0516L99.9998 99.9995L34.0515 175.172C73.3323 209.699 133.209 208.218 170.713 170.713Z" fill="#496E2D"/>
<path d="M29.287 29.2867C66.7912 -8.21755 126.668 -9.69841 165.949 24.8285L100 100.001L24.8292 165.949C-9.69812 126.668 -8.21687 66.7909 29.287 29.2867Z" fill="#0052B4"/>
<path d="M165.948 24.8281L24.8284 165.948C26.2549 167.571 27.7362 169.163 29.2866 170.713C30.8366 172.263 32.4291 173.744 34.0526 175.172L175.171 34.0515C173.745 32.428 172.263 30.8359 170.713 29.2855C169.164 27.7363 167.571 26.2546 165.948 24.8281Z" fill="#FFDA44"/>
<path d="M42.1331 34.7795L44.2921 41.4229H51.2768L45.6261 45.528L47.7843 52.1713L42.1331 48.0654L36.4819 52.1713L38.6409 45.528L32.9897 41.4229H39.9749L42.1331 34.7795Z" fill="#F0F0F0"/>
<path d="M77.8124 34.7795L79.9714 41.4229H86.9557L81.305 45.528L83.4636 52.1713L77.8124 48.0654L72.1612 52.1713L74.3202 45.528L68.6691 41.4229H75.6538L77.8124 34.7795Z" fill="#F0F0F0"/>
<path d="M42.1331 69.5635L44.2921 76.2069H51.2768L45.6261 80.3123L47.7843 86.9557L42.1331 82.8498L36.4819 86.9557L38.6409 80.3123L32.9897 76.2069H39.9749L42.1331 69.5635Z" fill="#F0F0F0"/>
<path d="M77.8124 69.5635L79.9714 76.2069H86.9557L81.305 80.3123L83.4636 86.9557L77.8124 82.8498L72.1612 86.9557L74.3202 80.3123L68.6691 76.2069H75.6538L77.8124 69.5635Z" fill="#F0F0F0"/>
<path d="M59.973 52.1713L62.1319 58.8147H69.1163L63.4655 62.9201L65.6241 69.5635L59.973 65.4576L54.3218 69.5635L56.4804 62.9201L50.8292 58.8147H57.8144L59.973 52.1713Z" fill="#F0F0F0"/>
</g>
<defs>
<clipPath id="clip0">
<rect width="200" height="200" fill="white"/>
</clipPath>
</defs>
</svg>
