<svg width="200" height="200" viewBox="0 0 200 200" fill="none" xmlns="http://www.w3.org/2000/svg">
<path d="M100 200C155.228 200 200 155.228 200 100C200 44.7715 155.228 0 100 0C44.7715 0 0 44.7715 0 100C0 155.228 44.7715 200 100 200Z" fill="#F0F0F0"/>
<path d="M100 0C60.3541 0 26.0979 23.0723 9.92285 56.5219H190.077C173.903 23.0723 139.646 0 100 0Z" fill="#0052B4"/>
<path d="M100 200C139.646 200 173.903 176.928 190.078 143.478H9.92285C26.0979 176.928 60.3541 200 100 200Z" fill="#0052B4"/>
<path d="M79.918 104.348L100 69.5653L120.082 104.348H79.918Z" fill="#FFDA44"/>
<path d="M126.087 115.833L100 128.876L73.9131 115.833V98.4415H126.087V115.833Z" fill="#6DA544"/>
<path d="M124.595 71.0573L115.372 80.2803C119.306 84.2143 121.74 89.6491 121.74 95.6522C121.74 107.658 112.006 117.391 100 117.391C87.9946 117.391 78.2614 107.658 78.2614 95.6522C78.2614 89.6491 80.695 84.2143 84.629 80.2803L75.4059 71.0573C69.111 77.351 65.218 86.0467 65.218 95.6522C65.218 114.862 80.7907 130.435 100 130.435C119.21 130.435 134.783 114.862 134.783 95.6522C134.782 86.0467 130.89 77.351 124.595 71.0573Z" fill="#FFDA44"/>
</svg>
