<svg width="200" height="200" viewBox="0 0 200 200" fill="none" xmlns="http://www.w3.org/2000/svg">
<g clip-path="url(#clip0)">
<path d="M200 100C200 155.228 155.228 200 100 200C44.7719 200 0 155.228 0 100C4.34766 100 100 86.9567 100 86.9567L200 100Z" fill="#338AF3"/>
<path d="M0 100C0 44.7719 44.7719 0 100 0C155.228 0 200 44.7719 200 100" fill="#F0F0F0"/>
<path d="M139.694 69.0015L99.9999 108.696L60.3061 69.0015C55.1729 76.6215 52.1741 85.7929 52.1741 95.6519V108.695C52.1741 129.639 65.7073 147.48 84.4874 153.937C81.9807 158.85 82.4034 164.981 86.0764 169.565C90.9545 165.655 96.0049 161.608 100.289 158.175C104.574 161.608 109.624 165.655 114.502 169.565C118.218 164.927 118.61 158.705 116.005 153.763C134.528 147.166 147.826 129.455 147.826 108.695V95.6523C147.826 85.7929 144.827 76.6218 139.694 69.0015Z" fill="#6DA544"/>
<path d="M100 143.478C80.8207 143.478 65.2175 127.875 65.2175 108.696V95.6522C65.2175 76.473 80.821 60.8698 100 60.8698C119.179 60.8698 134.782 76.4733 134.782 95.6522V108.696C134.782 127.875 119.179 143.478 100 143.478Z" fill="#FFDA44"/>
<path d="M121.739 108.696V95.6525C121.739 83.6654 111.987 73.9134 100 73.9134C88.0136 73.9134 78.2612 83.6658 78.2612 95.6525V108.696L100 113.044L121.739 108.696Z" fill="#338AF3"/>
<path d="M78.2612 108.696C78.2612 120.683 88.0136 130.435 100 130.435C111.987 130.435 121.739 120.683 121.739 108.696H78.2612Z" fill="#6DA544"/>
<path d="M126.087 60.8695C126.087 53.666 120.247 47.8261 113.043 47.8261C109.702 47.8261 106.656 49.0839 104.348 51.15V43.4781H108.695V34.7824H104.348V30.4347H95.6519V34.7824H91.3042V43.4781H95.6519V51.15C93.3437 49.0839 90.2976 47.8261 86.9562 47.8261C79.7527 47.8261 73.9128 53.666 73.9128 60.8695C73.9128 64.7316 75.5929 68.2003 78.2605 70.589V78.2609H121.739V70.589C124.407 68.2003 126.087 64.7316 126.087 60.8695Z" fill="#FFDA44"/>
</g>
<defs>
<clipPath id="clip0">
<rect width="200" height="200" fill="white"/>
</clipPath>
</defs>
</svg>
