<svg width="200" height="200" viewBox="0 0 200 200" fill="none" xmlns="http://www.w3.org/2000/svg">
<g clip-path="url(#clip0)">
<path d="M193.78 134.783C197.8 123.949 200 112.232 200 100C200 87.7681 197.8 76.0509 193.78 65.2177L100 56.522L6.21992 65.2177C2.20039 76.0509 0 87.7681 0 100C0 112.232 2.20039 123.949 6.21992 134.783L100 143.478L193.78 134.783Z" fill="#F0F0F0"/>
<path d="M100 200C142.996 200 179.651 172.863 193.78 134.782H6.2196C20.3493 172.863 57.0032 200 100 200Z" fill="#D80027"/>
<path d="M100 0C57.0032 0 20.3493 27.1375 6.2196 65.2176H193.78C179.651 27.1375 142.996 0 100 0Z" fill="#496E2D"/>
<path d="M99.9998 78.2609L105.395 94.8675H122.858L108.731 105.132L114.127 121.739L99.9998 111.476L85.8724 121.739L91.2689 105.132L77.142 94.8675H94.6041L99.9998 78.2609Z" fill="black"/>
<path d="M129.71 19.5653V39.8548C129.71 43.052 127.109 45.652 123.913 45.652V54.3477C131.904 54.3477 138.405 47.8466 138.405 39.8548V19.5653H129.71Z" fill="#F0F0F0"/>
<path d="M67.391 39.8548C67.391 43.052 64.7906 45.652 61.5938 45.652V54.3477C69.5855 54.3477 76.0867 47.8466 76.0867 39.8548V19.5653H67.391V39.8548Z" fill="#F0F0F0"/>
<path d="M116.665 19.5653H125.36V39.8548H116.665V19.5653Z" fill="#F0F0F0"/>
<path d="M103.623 31.1591C103.623 31.9583 102.973 32.6087 102.174 32.6087C101.375 32.6087 100.724 31.9583 100.724 31.1591V19.5653H92.0285V31.1591C92.0285 31.9583 91.3785 32.6087 90.5792 32.6087C89.78 32.6087 89.13 31.9583 89.13 31.1591V19.5653H80.4343V31.1591C80.4343 36.7536 84.9851 41.3044 90.5792 41.3044C92.7335 41.3044 94.732 40.6274 96.3761 39.4778C98.0211 40.6274 100.019 41.3044 102.173 41.3044C102.607 41.3044 103.034 41.2739 103.453 41.2204C102.837 43.7591 100.551 45.652 97.8257 45.652V54.3477C105.817 54.3477 112.318 47.8466 112.318 39.8548V31.1591V19.5653H103.623L103.623 31.1591Z" fill="#F0F0F0"/>
<path d="M80.4341 45.6523H93.4774V54.348H80.4341V45.6523Z" fill="#F0F0F0"/>
</g>
<defs>
<clipPath id="clip0">
<rect width="200" height="200" fill="white"/>
</clipPath>
</defs>
</svg>
