<svg width="200" height="200" viewBox="0 0 200 200" fill="none" xmlns="http://www.w3.org/2000/svg">
<path d="M100 200C155.228 200 200 155.228 200 100C200 44.7715 155.228 0 100 0C44.7715 0 0 44.7715 0 100C0 155.228 44.7715 200 100 200Z" fill="#F0F0F0"/>
<path d="M134.782 99.9999C134.782 108.696 119.21 130.435 100 130.435C80.7902 130.435 65.2175 108.696 65.2175 99.9999C65.2175 80.7898 80.7902 65.2175 100 65.2175C119.21 65.2175 134.782 80.7898 134.782 99.9999Z" fill="#D80027"/>
<path d="M134.782 100C134.782 119.21 119.21 134.782 100 134.782C80.7902 134.782 65.2175 119.21 65.2175 100" fill="#0052B4"/>
<path d="M136.865 130.745L146.087 121.524L152.234 127.671L143.013 136.893L136.865 130.745Z" fill="black"/>
<path d="M121.491 146.115L130.713 136.894L136.86 143.042L127.639 152.263L121.491 146.115Z" fill="black"/>
<path d="M155.31 149.188L164.531 139.966L170.679 146.114L161.458 155.336L155.31 149.188Z" fill="black"/>
<path d="M139.937 164.56L149.158 155.338L155.306 161.486L146.085 170.708L139.937 164.56Z" fill="black"/>
<path d="M146.087 139.967L155.309 130.746L161.457 136.893L152.235 146.115L146.087 139.967Z" fill="black"/>
<path d="M130.717 155.337L139.939 146.115L146.087 152.263L136.865 161.485L130.717 155.337Z" fill="black"/>
<path d="M155.351 69.2715L130.76 44.6803L136.908 38.5325L161.499 63.1236L155.351 69.2715Z" fill="black"/>
<path d="M130.755 63.1263L121.533 53.9047L127.681 47.7571L136.902 56.9788L130.755 63.1263Z" fill="black"/>
<path d="M146.125 78.4995L136.903 69.2778L143.05 63.1302L152.272 72.3519L146.125 78.4995Z" fill="black"/>
<path d="M149.196 44.6795L139.974 35.4578L146.122 29.31L155.344 38.5316L149.196 44.6795Z" fill="black"/>
<path d="M164.574 60.0548L155.352 50.8332L161.5 44.6853L170.722 53.9069L164.574 60.0548Z" fill="black"/>
<path d="M35.4514 139.95L60.0426 164.541L53.8947 170.689L29.3035 146.098L35.4514 139.95Z" fill="black"/>
<path d="M60.0405 146.093L69.2622 155.315L63.1146 161.462L53.8929 152.24L60.0405 146.093Z" fill="black"/>
<path d="M44.6697 130.726L53.8913 139.948L47.7435 146.096L38.5218 136.874L44.6697 130.726Z" fill="black"/>
<path d="M53.8931 121.502L78.4842 146.093L72.3364 152.241L47.7452 127.65L53.8931 121.502Z" fill="black"/>
<path d="M60.0396 35.4388L35.4484 60.03L29.3005 53.8822L53.8917 29.291L60.0396 35.4388Z" fill="black"/>
<path d="M69.2615 44.6594L44.6703 69.2506L38.5224 63.1027L63.1136 38.5116L69.2615 44.6594Z" fill="black"/>
<path d="M78.491 53.8868L53.8998 78.478L47.7522 72.3304L72.3434 47.7393L78.491 53.8868Z" fill="black"/>
</svg>
