<svg width="200" height="200" viewBox="0 0 200 200" fill="none" xmlns="http://www.w3.org/2000/svg">
<path d="M100 200C155.228 200 200 155.228 200 100C200 44.7715 155.228 0 100 0C44.7715 0 0 44.7715 0 100C0 155.228 44.7715 200 100 200Z" fill="#F0F0F0"/>
<path d="M100 0C44.7719 0 0 44.7719 0 100C0 112.232 2.20039 123.95 6.21992 134.782H193.78C197.8 123.95 200 112.232 200 100C200 44.7719 155.228 0 100 0Z" fill="#0052B4"/>
<path d="M99.9994 0C57.003 0 20.3487 27.1375 6.21936 65.2176H193.78C179.65 27.1375 142.996 0 99.9994 0Z" fill="#D80027"/>
<path d="M25.8578 56.522V106.407C25.8578 134.784 62.9285 143.479 62.9285 143.479C62.9285 143.479 99.9988 134.784 99.9988 106.407V56.522H25.8578Z" fill="#D80027"/>
<path d="M41.1903 65.2177H84.6688V47.8263L75.9731 52.1739L62.9298 39.1306L49.886 52.1739L41.1903 47.8263V65.2177Z" fill="#FFDA44"/>
<path d="M91.3043 113.353L63.0434 85.0918L34.7825 113.353L44.0055 122.576L63.0434 103.538L82.0813 122.576L91.3043 113.353Z" fill="#FFDA44"/>
<path d="M91.3043 86.9565H78.1184C78.8598 85.6768 79.2911 84.1948 79.2911 82.6096C79.2911 77.8065 75.3977 73.9139 70.5954 73.9139C67.277 73.9139 64.3954 75.7725 62.9293 78.505C61.4633 75.7729 58.5817 73.9139 55.2633 73.9139C50.461 73.9139 46.5676 77.8065 46.5676 82.6096C46.5676 84.1948 46.9989 85.6772 47.7403 86.9565H34.7825C34.7825 91.7593 38.9657 95.6522 43.7676 95.6522H43.4782C43.4782 100.455 47.3711 104.348 52.1739 104.348C52.1739 108.6 55.2278 112.133 59.261 112.889L52.4094 128.359C55.693 129.694 59.2813 130.435 63.0438 130.435C66.8063 130.435 70.3946 129.694 73.6782 128.359L66.8266 112.889C70.8598 112.134 73.9137 108.601 73.9137 104.348C78.7165 104.348 82.6094 100.455 82.6094 95.6522H82.32C87.1215 95.6522 91.3043 91.7589 91.3043 86.9565Z" fill="#F0F0F0"/>
</svg>
