<svg width="200" height="200" viewBox="0 0 200 200" fill="none" xmlns="http://www.w3.org/2000/svg">
<g clip-path="url(#clip0)">
<path d="M100 200C155.228 200 200 155.228 200 100C200 44.7715 155.228 0 100 0C44.7715 0 0 44.7715 0 100C0 155.228 44.7715 200 100 200Z" fill="#F0F0F0"/>
<path d="M192.199 61.2316C177.055 25.2586 141.48 0 100 0C72.3855 0 47.3883 11.1949 29.293 29.2926L54.3359 61.2316H192.199Z" fill="black"/>
<path d="M54.6199 138.406L29.293 170.708C47.3883 188.805 72.3855 200 100 200C141.62 200 177.296 174.573 192.354 138.406H54.6199Z" fill="#496E2D"/>
<path d="M21.7388 73.5508V126.087H196.555C198.798 117.77 200 109.026 200 100C200 90.843 198.766 81.9758 196.46 73.5508H21.7388Z" fill="#A2001D"/>
<path d="M29.2888 29.2891C-9.76357 68.3414 -9.76357 131.658 29.2888 170.711C45.4267 154.573 60.9474 139.052 99.9997 100L29.2888 29.2891Z" fill="#0052B4"/>
<path d="M32.5732 75.1375L44.7783 92.1691L64.7502 85.8234L52.324 102.696L64.5291 119.728L44.6431 113.124L32.2166 129.996L32.3533 109.041L12.4666 102.436L32.4369 96.091L32.5732 75.1375Z" fill="#FFDA44"/>
</g>
<defs>
<clipPath id="clip0">
<rect width="200" height="200" fill="white"/>
</clipPath>
</defs>
</svg>
