<svg width="200" height="200" viewBox="0 0 200 200" fill="none" xmlns="http://www.w3.org/2000/svg">
<path d="M100 200C155.228 200 200 155.228 200 100C200 44.7715 155.228 0 100 0C44.7715 0 0 44.7715 0 100C0 155.228 44.7715 200 100 200Z" fill="#F0F0F0"/>
<path d="M178.55 80.4345H145.652C145.652 74.4316 140.785 69.5651 134.782 69.5651L126.086 86.9563C126.086 86.9563 135.362 113.043 135.072 113.043H145.941C151.945 113.043 156.811 108.177 156.811 102.174C162.814 102.174 167.68 97.3077 167.68 91.3044H167.318C173.321 91.304 178.55 86.4379 178.55 80.4345Z" fill="#ACABB1"/>
<path d="M21.4491 80.4345H54.3476C54.3476 74.4316 59.2141 69.5651 65.217 69.5651L73.9128 86.9563C73.9128 86.9563 64.6373 113.043 64.9273 113.043H54.0579C48.0545 113.043 43.1884 108.177 43.1884 102.174C37.1851 102.174 32.319 97.3077 32.319 91.3044H32.681C26.6776 91.304 21.4491 86.4379 21.4491 80.4345Z" fill="#ACABB1"/>
<path d="M134.782 139.13V143.478H65.2172V139.13H47.826V156.521H65.2172V160.869H134.782V156.521H152.174V139.13H134.782Z" fill="#FFDA44"/>
<path d="M65.217 69.5646V113.042C65.217 139.667 99.9994 147.825 99.9994 147.825C99.9994 147.825 134.782 139.667 134.782 113.042V69.5646L99.9994 65.2169L65.217 69.5646Z" fill="#0052B4"/>
<path d="M65.2174 86.9583H134.782V113.045H65.2174V86.9583Z" fill="#D80027"/>
<path d="M117.391 47.8261V54.3478L113.043 56.5219L108.695 52.1738V39.1302H91.304V52.1738L86.9563 56.5219L82.6082 54.3478V47.8261H65.217V69.565H134.782V47.8261H117.391Z" fill="#FFDA44"/>
</svg>
