<svg width="200" height="200" viewBox="0 0 200 200" fill="none" xmlns="http://www.w3.org/2000/svg">
<path d="M100 200C155.228 200 200 155.228 200 100C200 44.7715 155.228 0 100 0C44.7715 0 0 44.7715 0 100C0 155.228 44.7715 200 100 200Z" fill="#FFDA44"/>
<path d="M60.8694 65.2176H193.78C179.651 27.1375 142.996 0 99.9998 0C72.385 0 47.3877 11.1949 29.2924 29.2926L60.8694 65.2176Z" fill="#6DA544"/>
<path d="M60.8694 134.782H193.78C179.651 172.863 142.996 200 99.9998 200C72.385 200 47.3877 188.805 29.2924 170.707L60.8694 134.782Z" fill="#6DA544"/>
<path d="M29.2893 29.2891C-9.76299 68.3414 -9.76299 131.658 29.2893 170.711C45.4272 154.573 60.9479 139.052 100 100L29.2893 29.2891Z" fill="#D80027"/>
<path d="M126.982 82.6086L131.299 95.8945H145.269L133.967 104.105L138.284 117.391L126.982 109.18L115.681 117.391L119.997 104.105L108.696 95.8945H122.665L126.982 82.6086Z" fill="black"/>
<path d="M170.46 82.6086L174.777 95.8945H188.746L177.445 104.105L181.761 117.391L170.46 109.18L159.158 117.391L163.475 104.105L152.174 95.8945H166.143L170.46 82.6086Z" fill="black"/>
</svg>
