<svg width="200" height="200" viewBox="0 0 200 200" fill="none" xmlns="http://www.w3.org/2000/svg">
<g clip-path="url(#clip0)">
<path d="M100 200C155.228 200 200 155.228 200 100C200 44.7715 155.228 0 100 0C44.7715 0 0 44.7715 0 100C0 155.228 44.7715 200 100 200Z" fill="#F0F0F0"/>
<path d="M193.78 65.2175H6.21953C2.20039 76.0511 0 87.7679 0 100C0 112.232 2.20039 123.95 6.21953 134.782H193.78C197.8 123.95 200 112.232 200 100C200 87.7679 197.8 76.0511 193.78 65.2175Z" fill="#A2001D"/>
<path d="M100.289 200C134.54 200 164.765 182.776 182.787 156.522H17.7909C35.8135 182.776 66.0378 200 100.289 200Z" fill="#6DA544"/>
<path d="M100.289 0.000793457C134.54 0.000793457 164.765 17.2242 182.787 43.4789H17.7909C35.8135 17.2242 66.0378 0.000793457 100.289 0.000793457Z" fill="#6DA544"/>
<path d="M100.001 65.2175L108.634 91.7878H136.573L113.97 108.211L122.604 134.782L100.001 118.361L77.3971 134.782L86.0315 108.211L63.428 91.7878H91.3674L100.001 65.2175Z" fill="#FFDA44"/>
</g>
<defs>
<clipPath id="clip0">
<rect width="200" height="200" fill="white"/>
</clipPath>
</defs>
</svg>
