<svg width="200" height="200" viewBox="0 0 200 200" fill="none" xmlns="http://www.w3.org/2000/svg">
<g clip-path="url(#clip0)">
<path d="M100 200C155.228 200 200 155.228 200 100C200 44.7715 155.228 0 100 0C44.7715 0 0 44.7715 0 100C0 155.228 44.7715 200 100 200Z" fill="#F0F0F0"/>
<path d="M100 200C155.228 200 200 155.228 200 100C200 87.7679 197.8 76.0503 193.78 65.2175H6.21992C2.20039 76.0503 0 87.7679 0 100C0 155.228 44.7719 200 100 200Z" fill="#0052B4"/>
<path d="M100 200C142.997 200 179.651 172.863 193.78 134.782H6.22003C20.3493 172.863 57.0036 200 100 200Z" fill="#D80027"/>
<path d="M25.8585 56.522V106.407C25.8585 134.784 62.9292 143.479 62.9292 143.479C62.9292 143.479 99.9995 134.784 99.9995 106.407V56.522H25.8585Z" fill="#F0F0F0"/>
<path d="M34.5543 56.522V106.407C34.5543 109.738 35.2942 112.884 36.7598 115.834H89.0985C90.5641 112.885 91.3039 109.738 91.3039 106.407V56.522H34.5543Z" fill="#D80027"/>
<path d="M80.3202 91.3042H67.2772V82.6085H75.9729V73.9128H67.2772V65.2175H58.5815V73.9128H49.8862V82.6085H58.5815V91.3042H45.5378V100H58.5815V108.696H67.2772V100H80.3202V91.3042Z" fill="#F0F0F0"/>
<path d="M48.6212 127.973C54.2247 131.494 59.9818 133.539 62.929 134.448C65.8763 133.539 71.6333 131.494 77.2369 127.973C82.8876 124.421 86.849 120.359 89.0982 115.834C86.6173 114.079 83.5904 113.044 80.3204 113.044C79.1298 113.044 77.9732 113.185 76.8611 113.444C74.5044 108.089 69.1548 104.348 62.9294 104.348C56.704 104.348 51.354 108.089 48.9978 113.444C47.8857 113.185 46.7286 113.044 45.5384 113.044C42.2685 113.044 39.2415 114.079 36.7607 115.834C39.0087 120.359 42.9701 124.421 48.6212 127.973Z" fill="#0052B4"/>
</g>
<defs>
<clipPath id="clip0">
<rect width="200" height="200" fill="white"/>
</clipPath>
</defs>
</svg>
