<svg width="200" height="200" viewBox="0 0 200 200" fill="none" xmlns="http://www.w3.org/2000/svg">
<g clip-path="url(#clip0)">
<path d="M100 200C155.228 200 200 155.228 200 100C200 44.7715 155.228 0 100 0C44.7715 0 0 44.7715 0 100C0 155.228 44.7715 200 100 200Z" fill="#F0F0F0"/>
<path d="M193.78 65.2177H86.9566V39.1306H34.7824V65.2177H6.21992C2.20039 76.0505 0 87.768 0 100C0 112.232 2.20039 123.949 6.21992 134.782L100 143.478L193.78 134.782C197.8 123.949 200 112.232 200 100C200 87.768 197.8 76.0505 193.78 65.2177Z" fill="#0052B4"/>
<path d="M100 200C142.997 200 179.651 172.863 193.78 134.782H6.22003C20.3493 172.863 57.0036 200 100 200Z" fill="#D80027"/>
<path d="M34.7825 65.2175V73.9128C34.7825 93.8819 60.8696 100 60.8696 100C60.8696 100 86.9567 93.8819 86.9567 73.9128V65.2175L78.261 73.9132L60.8696 60.8698L43.4782 73.9132L34.7825 65.2175Z" fill="#F0F0F0"/>
</g>
<defs>
<clipPath id="clip0">
<rect width="200" height="200" fill="white"/>
</clipPath>
</defs>
</svg>
