<svg width="200" height="200" viewBox="0 0 200 200" fill="none" xmlns="http://www.w3.org/2000/svg">
<g clip-path="url(#clip0)">
<path d="M190.077 143.478C196.434 130.331 200 115.582 200 99.9998C200 84.4177 196.434 69.6681 190.077 56.5216L100 52.1736L9.92266 56.5212C3.56563 69.6681 0 84.4177 0 99.9998C0 115.582 3.56563 130.331 9.92266 143.478L100 147.826L190.077 143.478Z" fill="#FFDA44"/>
<path d="M99.9997 0C60.3536 0 26.0974 23.0723 9.92236 56.5219H190.077C173.902 23.0723 139.645 0 99.9997 0Z" fill="black"/>
<path d="M99.9997 200C60.3536 200 26.0974 176.928 9.92236 143.478H190.077C173.902 176.928 139.645 200 99.9997 200Z" fill="#0052B4"/>
<path d="M195.278 69.5653H4.72227C1.65898 79.1626 0 89.3872 0 100C0 110.613 1.65898 120.838 4.72227 130.435H195.277C198.341 120.838 200 110.613 200 100C200 89.3872 198.341 79.1626 195.278 69.5653Z" fill="#A2001D"/>
<path d="M34.7825 95.6522H165.217V104.348H34.7825V95.6522Z" fill="#FFDA44"/>
<path d="M52.1743 78.2611H147.827V86.9568H52.1743V78.2611Z" fill="#FFDA44"/>
<path d="M148.447 100C148.447 100 126.087 126.087 100 126.087C73.9135 126.087 73.9131 100 73.9131 100C73.9131 100 73.9131 73.913 100 73.913C126.087 73.913 148.447 100 148.447 100Z" fill="#F0F0F0"/>
<path d="M100 126.087C73.9131 126.087 51.553 100 51.553 100C51.553 100 73.9131 73.913 100 73.913" fill="black"/>
<path d="M82.6084 91.3042H91.3041V108.696H82.6084V91.3042Z" fill="#F0F0F0"/>
<path d="M108.695 91.3042H117.391V108.696H108.695V91.3042Z" fill="black"/>
<path d="M34.7829 108.696C39.5854 108.696 43.4786 104.802 43.4786 99.9999C43.4786 95.1974 39.5854 91.3042 34.7829 91.3042C29.9804 91.3042 26.0872 95.1974 26.0872 99.9999C26.0872 104.802 29.9804 108.696 34.7829 108.696Z" fill="#0052B4"/>
<path d="M165.218 108.696C170.02 108.696 173.914 104.802 173.914 99.9999C173.914 95.1974 170.02 91.3042 165.218 91.3042C160.415 91.3042 156.522 95.1974 156.522 99.9999C156.522 104.802 160.415 108.696 165.218 108.696Z" fill="#0052B4"/>
</g>
<defs>
<clipPath id="clip0">
<rect width="200" height="200" fill="white"/>
</clipPath>
</defs>
</svg>
