<svg width="200" height="200" viewBox="0 0 200 200" fill="none" xmlns="http://www.w3.org/2000/svg">
<g clip-path="url(#clip0)">
<path d="M100 200C155.228 200 200 155.228 200 100C200 44.7715 155.228 0 100 0C44.7715 0 0 44.7715 0 100C0 155.228 44.7715 200 100 200Z" fill="#FFDA44"/>
<path d="M78.2604 86.9566H199.153C192.761 37.8914 150.806 0 99.9991 0C92.5327 0 85.2596 0.825391 78.26 2.37695V86.9566H78.2604Z" fill="#0052B4"/>
<path d="M52.1733 86.9563V12.159C24.7147 27.141 5.05806 54.6219 0.845947 86.9566H52.1733V86.9563Z" fill="#0052B4"/>
<path d="M52.1729 113.044H0.845947C5.05806 145.378 24.7147 172.859 52.1733 187.841L52.1729 113.044Z" fill="#0052B4"/>
<path d="M78.26 113.044V197.623C85.2596 199.175 92.5327 200 99.9991 200C150.806 200 192.761 162.109 199.153 113.044H78.26V113.044Z" fill="#0052B4"/>
</g>
<defs>
<clipPath id="clip0">
<rect width="200" height="200" fill="white"/>
</clipPath>
</defs>
</svg>
