<svg width="200" height="200" viewBox="0 0 200 200" fill="none" xmlns="http://www.w3.org/2000/svg">
<path d="M91.304 108.696C91.304 108.696 29.3474 29.2754 29.2888 29.2895C47.3849 11.193 72.3853 0 99.9997 0C155.228 0 200 44.7719 200 100L91.304 108.696Z" fill="#D80027"/>
<path d="M91.304 100C91.304 100 29.3474 170.725 29.2888 170.711C47.3849 188.807 72.3853 200 99.9997 200C155.228 200 200 155.228 200 100H91.304Z" fill="#0052B4"/>
<path d="M29.2893 29.2891C-9.76299 68.3414 -9.76299 131.658 29.2893 170.711C45.4272 154.573 60.9479 139.052 100 100L29.2893 29.2891Z" fill="#F0F0F0"/>
<path d="M10.9612 100C10.9065 100.718 10.8694 101.442 10.8694 102.174C10.8694 117.782 23.5226 130.435 39.1304 130.435C54.7382 130.435 67.3913 117.782 67.3913 102.174C67.3913 101.442 67.3542 100.718 67.2995 100H10.9612Z" fill="#FFDA44"/>
<path d="M39.1304 86.9567C43.9329 86.9567 47.8261 83.0635 47.8261 78.261C47.8261 73.4585 43.9329 69.5653 39.1304 69.5653C34.3279 69.5653 30.4347 73.4585 30.4347 78.261C30.4347 83.0635 34.3279 86.9567 39.1304 86.9567Z" fill="#FFDA44"/>
<path d="M19.5653 76.087V104.348C19.5653 119.324 39.1305 123.913 39.1305 123.913C39.1305 123.913 58.6958 119.324 58.6958 104.348V76.087H19.5653Z" fill="#D80027"/>
<path d="M39.14 114.813C35.5104 113.506 28.2607 110.168 28.2607 104.348V84.7825H50.0002V104.348C50.0002 110.187 42.7514 113.517 39.14 114.813Z" fill="#338AF3"/>
<path d="M43.4784 95.6524V91.3044L39.1307 89.1306L34.7827 91.3044V95.6524L32.6089 97.8263V106.522H45.6526V97.8263L43.4784 95.6524Z" fill="#F3F3F3"/>
</svg>
