<svg width="200" height="200" viewBox="0 0 200 200" fill="none" xmlns="http://www.w3.org/2000/svg">
<g clip-path="url(#clip0)">
<path d="M100 200C155.228 200 200 155.228 200 100C200 44.7715 155.228 0 100 0C44.7715 0 0 44.7715 0 100C0 155.228 44.7715 200 100 200Z" fill="#F0F0F0"/>
<path d="M167.503 26.2254C149.714 9.93945 126.018 0 99.9996 0C95.7402 0 91.543 0.268359 87.4234 0.785156L39.1301 56.5219L3.16406 125.051C5.4875 134.059 9.03984 142.573 13.623 150.409L99.9996 100L167.503 26.2254Z" fill="#FFDA44"/>
<path d="M183.254 155.406L43.345 182.406C59.4501 193.5 78.9649 200 100 200C134.735 200 165.328 182.288 183.254 155.406Z" fill="#6DA544"/>
<path d="M167.518 26.2387L13.6807 150.506C17.7045 157.369 22.5221 163.709 28.0092 169.4L200 100C200 70.7973 187.48 44.5208 167.518 26.2387Z" fill="#D80027"/>
<path d="M0 100C0 108.651 1.09922 117.045 3.16445 125.051L87.4238 0.785309C38.132 6.97046 0 49.0314 0 100Z" fill="#0052B4"/>
</g>
<defs>
<clipPath id="clip0">
<rect width="200" height="200" fill="white"/>
</clipPath>
</defs>
</svg>
