<svg width="200" height="200" viewBox="0 0 200 200" fill="none" xmlns="http://www.w3.org/2000/svg">
<g clip-path="url(#clip0)">
<path d="M100 200C155.228 200 200 155.228 200 100C200 44.7715 155.228 0 100 0C44.7715 0 0 44.7715 0 100C0 155.228 44.7715 200 100 200Z" fill="#F0F0F0"/>
<path d="M99.9996 0C57.0031 0 20.3488 27.1375 6.21948 65.2176H193.78C179.65 27.1375 142.996 0 99.9996 0Z" fill="#D80027"/>
<path d="M99.9996 200C142.996 200 179.65 172.863 193.78 134.782H6.21948C20.3488 172.863 57.0031 200 99.9996 200Z" fill="black"/>
<path d="M59.7511 76.087L65.1468 92.6933H82.6089L68.482 102.958L73.8781 119.565L59.7511 109.301L45.6242 119.565L51.0203 102.958L36.8933 92.6933H54.3554L59.7511 76.087Z" fill="#6DA544"/>
<path d="M140.249 76.087L145.645 92.6933H163.108L148.98 102.958L154.376 119.565L140.249 109.301L126.122 119.565L131.519 102.958L117.392 92.6933H134.854L140.249 76.087Z" fill="#6DA544"/>
</g>
<defs>
<clipPath id="clip0">
<rect width="200" height="200" fill="white"/>
</clipPath>
</defs>
</svg>
