<svg width="200" height="200" viewBox="0 0 200 200" fill="none" xmlns="http://www.w3.org/2000/svg">
<path d="M200 100C200 155.228 155.228 200 100 200C44.7719 200 0 155.228 0 100C0 100.024 100 0.0109375 100 0C155.228 0 200 44.7719 200 100Z" fill="#0052B4"/>
<path d="M99.7322 99.9998H99.9998C99.9998 99.9099 99.9998 99.8224 99.9998 99.7322C99.9107 99.8216 99.8216 99.9107 99.7322 99.9998Z" fill="#F0F0F0"/>
<path d="M100 52.1738C100 34.5781 100 23.0488 100 0H99.9832C44.7621 0.009375 0 44.777 0 100H52.1738V70.6207L81.5531 100H99.7328C99.8219 99.9109 99.9109 99.8219 100 99.7324C100 92.9953 100 86.984 100 81.5539L70.6203 52.1738H100Z" fill="#F0F0F0"/>
<path d="M50.592 13.0436C34.9518 21.9494 21.949 34.9518 13.0436 50.592V100H39.1307V39.1315V39.1307H100C100 30.903 100 23.0647 100 13.0436H50.592Z" fill="#D80027"/>
<path d="M100 87.7031L64.4711 52.1746H52.1742V52.1753L99.9996 100H100C100 100 100 91.521 100 87.7031Z" fill="#D80027"/>
<path d="M113.044 52.1736V99.9994C113.044 123.296 143.478 130.435 143.478 130.435C143.478 130.435 173.913 123.296 173.913 99.9994V52.1736H113.044Z" fill="#FFDA44"/>
<path d="M139.13 69.5651C139.13 74.3678 135.237 86.9565 130.435 86.9565C125.632 86.9565 121.739 74.3678 121.739 69.5651C121.739 64.7624 130.435 60.8694 130.435 60.8694C130.435 60.8694 139.13 64.7624 139.13 69.5651Z" fill="#FF9811"/>
<path d="M162.205 79.0358C163.608 75.612 164.7 70.6073 164.7 68.1159C164.7 64.1135 159.482 60.8694 159.482 60.8694C159.482 60.8694 154.265 64.1139 154.265 68.1159C154.265 70.6073 155.356 75.612 156.759 79.0358L153.747 85.8366C155.517 86.5561 157.453 86.9561 159.482 86.9561C161.511 86.9561 163.446 86.5561 165.217 85.8366L162.205 79.0358Z" fill="#A2001D"/>
<path d="M136.957 99.9999C136.957 99.9999 132.609 108.696 132.609 117.391H154.348C154.348 108.696 150 99.9999 150 99.9999L143.478 95.6522L136.957 99.9999Z" fill="#6DA544"/>
<path d="M150 99.9999V97.8261C150 94.2245 147.08 91.3042 143.478 91.3042C139.876 91.3042 136.956 94.2241 136.956 97.8261V99.9999H150Z" fill="#D80027"/>
</svg>
