<svg width="200" height="200" viewBox="0 0 200 200" fill="none" xmlns="http://www.w3.org/2000/svg">
<g clip-path="url(#clip0)">
<path d="M100 200C155.228 200 200 155.228 200 100C200 44.7715 155.228 0 100 0C44.7715 0 0 44.7715 0 100C0 155.228 44.7715 200 100 200Z" fill="#FFDA44"/>
<path d="M99.9994 0C99.9267 0.00078125 95.6517 40 95.6517 40H180.004C161.76 15.7121 132.715 0 99.9994 0Z" fill="#496E2D"/>
<path d="M99.9998 200C132.715 200 161.76 184.288 180.004 160H19.9955C38.2392 184.288 67.2842 200 99.9998 200Z" fill="#496E2D"/>
<path d="M197.997 80.0001H95.6517L99.9994 120H197.997C199.31 113.538 199.999 106.85 199.999 100C199.999 93.1505 199.309 86.4622 197.997 80.0001Z" fill="#496E2D"/>
<path d="M100 120C100 99.1305 100 23.4781 100 0C44.7719 0 0 44.7719 0 100C0 106.85 0.690625 113.538 2.00234 120H100Z" fill="#D80027"/>
<path d="M55.1784 47.8264L61.6534 67.7542H82.6085L65.6565 80.0717L72.1308 100L55.1784 87.6838L38.2261 100L44.7015 80.0717L27.7495 67.7542H48.7038L55.1784 47.8264Z" fill="#F0F0F0"/>
</g>
<defs>
<clipPath id="clip0">
<rect width="200" height="200" fill="white"/>
</clipPath>
</defs>
</svg>
