<svg width="200" height="200" viewBox="0 0 200 200" fill="none" xmlns="http://www.w3.org/2000/svg">
<path d="M100 200C155.228 200 200 155.228 200 100C200 44.7715 155.228 0 100 0C44.7715 0 0 44.7715 0 100C0 155.228 44.7715 200 100 200Z" fill="#F0F0F0"/>
<path d="M193.78 65.2175H6.21992C2.2 76.0507 0 87.7679 0 100C0 112.232 2.2 123.949 6.21992 134.782H193.78C197.8 123.949 200 112.232 200 100C200 87.7679 197.8 76.0507 193.78 65.2175Z" fill="#0052B4"/>
<path d="M99.9998 0C69.6908 0 42.5334 13.4859 24.1947 34.7824H175.804C157.466 13.4859 130.309 0 99.9998 0Z" fill="#D80027"/>
<path d="M175.805 165.218H24.1947C42.5334 186.514 69.6908 200 99.9998 200C130.309 200 157.466 186.514 175.805 165.218Z" fill="#D80027"/>
</svg>
