<svg width="200" height="200" viewBox="0 0 200 200" fill="none" xmlns="http://www.w3.org/2000/svg">
<g clip-path="url(#clip0)">
<path d="M100 200C155.228 200 200 155.228 200 100C200 44.7715 155.228 0 100 0C44.7715 0 0 44.7715 0 100C0 155.228 44.7715 200 100 200Z" fill="#F0F0F0"/>
<path d="M43.6379 17.3914C59.6868 6.42031 79.0922 0 100 0C120.908 0 140.313 6.42031 156.362 17.3914L100 21.7391L43.6379 17.3914Z" fill="#FFDA44"/>
<path d="M29.2945 170.705L75.4047 124.596L100 82.6083L124.593 124.593L170.705 170.705C188.803 152.61 200 127.614 200 99.9997C200 65.679 182.707 35.4001 156.362 17.3911H43.6379C17.2926 35.4001 0 65.679 0 99.9997C0 127.614 11.1969 152.61 29.2945 170.705Z" fill="#D80027"/>
<path d="M192.403 138.289L119.289 107.993L124.589 124.588L170.705 170.705C179.913 161.498 187.334 150.505 192.403 138.289Z" fill="#0052B4"/>
<path d="M200 99.9997C200 86.4352 197.296 73.5036 192.403 61.7102L100 99.9997H200Z" fill="#0052B4"/>
<path d="M170.705 29.2942C166.31 24.8997 161.51 20.9103 156.362 17.3911H134.231L100 99.9997L170.705 29.2942Z" fill="#0052B4"/>
<path d="M99.9999 17.3911H65.769L99.9999 99.9997V17.3911Z" fill="#0052B4"/>
<path d="M29.2944 29.2944C20.0866 38.5015 12.6659 49.494 7.59717 61.7101L99.9999 99.9999L29.2944 29.2944Z" fill="#0052B4"/>
<path d="M0 100C0 113.564 2.70352 126.496 7.59688 138.289L100 100H0Z" fill="#0052B4"/>
<path d="M43.6379 182.608C59.6864 193.579 79.0922 200 100 200C120.908 200 140.313 193.579 156.362 182.608H43.6379Z" fill="#FFDA44"/>
<path d="M99.9999 100L124.595 124.595C130.89 118.3 134.783 109.605 134.783 100C134.783 80.7898 119.21 65.2175 100 65.2175C80.7906 65.2175 65.2175 80.7898 65.2175 100C65.2175 109.605 69.1105 118.3 75.4054 124.595L99.9999 100Z" fill="#FFDA44"/>
<path d="M115.218 150C115.218 158.404 108.404 160.87 100 160.87C91.5961 160.87 84.7825 158.404 84.7825 150C84.7825 141.596 91.5961 134.782 100 134.782C108.404 134.782 115.218 141.596 115.218 150Z" fill="#FFDA44"/>
<path d="M115.218 150C115.218 158.404 108.404 165.218 100 165.218C91.5961 165.218 84.7825 158.404 84.7825 150" fill="#0052B4"/>
</g>
<defs>
<clipPath id="clip0">
<rect width="200" height="200" fill="white"/>
</clipPath>
</defs>
</svg>
