<svg width="200" height="200" viewBox="0 0 200 200" fill="none" xmlns="http://www.w3.org/2000/svg">
<g clip-path="url(#clip0)">
<path d="M9.92266 56.5221C3.56563 69.669 0 84.4182 0 100C0 115.582 3.56563 130.331 9.92266 143.478L100 152.174L190.077 143.478C196.434 130.331 200 115.582 200 100C200 84.4182 196.434 69.669 190.077 56.5221L100 47.8264L9.92266 56.5221Z" fill="#F0F0F0"/>
<path d="M9.92609 143.478C26.1007 176.927 60.3542 200 99.9999 200C139.646 200 173.9 176.927 190.074 143.478H9.92609Z" fill="#6DA544"/>
<path d="M9.92609 56.5219H190.074C173.9 23.0727 139.646 0 99.9999 0C60.3542 0 26.1007 23.0727 9.92609 56.5219Z" fill="#D80027"/>
<path d="M82.6089 126.087H117.392V111.304L110.435 114.782L100 104.348L89.5655 114.782L82.6089 111.304V126.087Z" fill="#FFDA44"/>
<path d="M62.7081 108.695L64.3272 113.677H69.5655L65.3272 116.757L66.9464 121.739L62.7081 118.66L58.4698 121.739L60.0889 116.757L55.8506 113.677H61.0889L62.7081 108.695Z" fill="#FFDA44"/>
<path d="M67.7274 91.3041L69.3466 96.2861H74.5848L70.3466 99.3654L71.9653 104.347L67.7274 101.269L63.4891 104.347L65.1083 99.3654L60.87 96.2861H66.1083L67.7274 91.3041Z" fill="#FFDA44"/>
<path d="M82.0756 78.2605L83.6948 83.2425H88.9327L84.6952 86.3218L86.3135 91.3039L82.0756 88.2249L77.8377 91.3039L79.4565 86.3218L75.2182 83.2425H80.4569L82.0756 78.2605Z" fill="#FFDA44"/>
<path d="M137.293 108.695L135.674 113.677H130.435L134.674 116.757L133.054 121.739L137.293 118.66L141.531 121.739L139.912 116.757L144.15 113.677H138.912L137.293 108.695Z" fill="#FFDA44"/>
<path d="M132.273 91.3041L130.654 96.2861H125.416L129.654 99.3654L128.035 104.347L132.273 101.269L136.512 104.347L134.892 99.3654L139.131 96.2861H133.892L132.273 91.3041Z" fill="#FFDA44"/>
<path d="M117.925 78.2605L116.305 83.2425H111.068L115.305 86.3218L113.686 91.3039L117.925 88.2249L122.162 91.3039L120.544 86.3218L124.782 83.2425H119.543L117.925 78.2605Z" fill="#FFDA44"/>
<path d="M100 71.7384L101.619 76.7204H106.858L102.619 79.7997L104.239 84.7818L100 81.7029L95.7621 84.7818L97.3812 79.7997L93.1429 76.7204H98.3812L100 71.7384Z" fill="#FFDA44"/>
</g>
<defs>
<clipPath id="clip0">
<rect width="200" height="200" fill="white"/>
</clipPath>
</defs>
</svg>
