<svg width="200" height="200" viewBox="0 0 200 200" fill="none" xmlns="http://www.w3.org/2000/svg">
<g clip-path="url(#clip0)">
<path d="M100 200C155.228 200 200 155.228 200 100C200 44.7715 155.228 0 100 0C44.7715 0 0 44.7715 0 100C0 155.228 44.7715 200 100 200Z" fill="#FFDA44"/>
<path d="M160.87 47.8262C159.973 52.1367 159.565 56.7277 159.565 61.3043C159.565 87.6848 175.291 110.517 197.829 120.796C199.248 114.086 200 107.131 200 100C200 44.7719 155.228 0 100 0C44.7719 0 0 44.7719 0 100C0 155.228 44.7719 200 100 200C134.251 200 164.476 182.777 182.498 156.522H56.5219V143.479H190.077C191.444 140.652 192.679 137.75 193.78 134.783H56.5219L160.87 47.8262Z" fill="#0052B4"/>
<path d="M73.4651 52.1736L75.6237 58.8166H82.6081L76.9577 62.9224L79.1163 69.565L73.4651 65.4599L67.8147 69.565L69.973 62.9224L64.3218 58.8166H71.3065L73.4651 52.1736Z" fill="#F0F0F0"/>
<path d="M45.0926 100L47.791 108.304H56.5215L49.4578 113.435L52.1562 121.739L45.0926 116.607L38.0293 121.739L40.7273 113.435L33.6641 108.304H42.3945L45.0926 100Z" fill="#F0F0F0"/>
<path d="M45.0926 30.4347L47.791 38.739H56.5215L49.4578 43.8698L52.1562 52.1738L45.0926 47.0417L38.0293 52.1738L40.7273 43.8698L33.6641 38.739H42.3945L45.0926 30.4347Z" fill="#F0F0F0"/>
<path d="M23.3538 69.5653L26.0522 77.8696H34.7823L27.719 83.0005L30.4175 91.3044L23.3538 86.1723L16.2905 91.3044L18.9886 83.0005L11.9253 77.8696H20.6554L23.3538 69.5653Z" fill="#F0F0F0"/>
</g>
<defs>
<clipPath id="clip0">
<rect width="200" height="200" fill="white"/>
</clipPath>
</defs>
</svg>
