<svg width="200" height="200" viewBox="0 0 200 200" fill="none" xmlns="http://www.w3.org/2000/svg">
<path d="M99.9998 0C92.5334 0 85.2603 0.825391 78.2611 2.37695L73.9135 99.9996L78.2611 197.623C85.2607 199.174 92.5338 200 99.9998 200C155.228 200 200 155.228 200 99.9996C199.999 44.7715 155.228 0 99.9998 0V0Z" fill="#496E2D"/>
<path d="M26.0871 32.6448C9.88246 50.4166 0.000427246 74.0534 0.000427246 99.9995C0.000427246 125.946 9.88285 149.582 26.0875 167.355L30.4352 99.9995L26.0871 32.6448Z" fill="#496E2D"/>
<path d="M146.258 75.4293C151.178 61.716 145.65 46.8015 133.788 39.3734C135.922 39.6511 138.058 40.1535 140.166 40.9094C155.987 46.5859 164.211 64.0125 158.535 79.8336C152.858 95.6558 135.432 103.879 119.61 98.2027C117.502 97.4465 115.534 96.4758 113.711 95.334C127.589 97.1414 141.338 89.1426 146.258 75.4293Z" fill="#F0F0F0"/>
<path d="M118.97 35.6145L114.695 41.1387L108.121 38.7797L112.053 44.5524L107.778 50.0758L114.484 48.1204L118.416 53.8922L118.627 46.911L125.333 44.9551L118.759 42.5969L118.97 35.6145Z" fill="#F0F0F0"/>
<path d="M130.514 53.614L126.238 59.1378L119.664 56.7789L123.596 62.5515L119.321 68.075L126.026 66.1187L129.959 71.8917L130.171 64.9101L136.876 62.9539L130.302 60.5953L130.514 53.614Z" fill="#F0F0F0"/>
<path d="M98.6169 42.1698L94.3415 47.6932L87.7676 45.335L91.7001 51.1073L87.425 56.6311L94.1297 54.6753L98.0626 60.4475L98.2743 53.4663L104.979 51.5104L98.4055 49.1514L98.6169 42.1698Z" fill="#F0F0F0"/>
<path d="M98.1482 62.7877L93.8732 68.3116L87.299 65.953L91.2318 71.7256L86.956 77.249L93.6619 75.2936L97.5943 81.0655L97.8056 74.0842L104.511 72.1283L97.9365 69.7694L98.1482 62.7877Z" fill="#F0F0F0"/>
<path d="M117.768 69.8274L113.493 75.3508L106.919 72.9922L110.852 78.7649L106.576 84.2879L113.282 82.3325L117.214 88.1051L117.425 81.1231L124.131 79.1676L117.556 76.809L117.768 69.8274Z" fill="#F0F0F0"/>
<path d="M26.087 32.6449V167.355C39.712 182.298 57.8096 193.089 78.2608 197.622V2.37695C57.8092 6.91055 39.7124 17.7016 26.087 32.6449Z" fill="#D80027"/>
<path d="M45.9975 52.6503L37.2628 46.1433V36.9413L45.9975 30.4347H58.351L67.0858 36.9413V46.1433L58.351 52.6503H45.9975Z" fill="#F0F0F0"/>
<path d="M52.1745 30.4347H45.9975L37.2628 36.9413V41.4402H52.1745V30.4347Z" fill="#FF9811"/>
<path d="M52.1746 52.6501H58.3511L67.0859 46.1431V41.449H52.1746V52.6501Z" fill="#FF9811"/>
<path d="M45.9975 169.564L37.2628 163.057V153.856L45.9975 147.349H58.351L67.0858 153.856V163.057L58.351 169.564H45.9975Z" fill="#F0F0F0"/>
<path d="M52.1745 147.349H45.9975L37.2628 153.856V158.355H52.1745V147.349Z" fill="#FF9811"/>
<path d="M52.1746 169.564H58.3511L67.0859 163.057V158.364H52.1746V169.564Z" fill="#FF9811"/>
<path d="M45.9969 111.108L37.2621 104.601V95.3991L45.9969 88.8921H58.3504L67.0851 95.3991V104.601L58.3504 111.108H45.9969Z" fill="#496E2D"/>
<path d="M67.3912 125.424H63.5865V121.619H56.9009L52.1736 116.892L47.4466 121.619H40.7611V125.424H36.9568V133.032H40.7611V136.837H47.4462L52.174 141.564L56.9009 136.837H63.5865V133.032H67.3912V125.424Z" fill="#496E2D"/>
<path d="M67.3912 66.9665H63.5865V63.1618H56.9009L52.1736 58.4344L47.4466 63.1618H40.7611V66.9665H36.9568V74.5751H40.7611V78.3794H47.4462L52.174 83.1075L56.9009 78.3794H63.5865V74.5751H67.3912V66.9665Z" fill="#496E2D"/>
<path d="M47.826 95.6514H56.5218V104.347H47.826V95.6514Z" fill="#D80027"/>
<path d="M52.1737 75.1167C54.5748 75.1167 56.5214 73.1702 56.5214 70.769C56.5214 68.3679 54.5748 66.4214 52.1737 66.4214C49.7726 66.4214 47.826 68.3679 47.826 70.769C47.826 73.1702 49.7726 75.1167 52.1737 75.1167Z" fill="#D80027"/>
<path d="M52.1737 133.577C54.5748 133.577 56.5214 131.631 56.5214 129.229C56.5214 126.828 54.5748 124.882 52.1737 124.882C49.7726 124.882 47.826 126.828 47.826 129.229C47.826 131.631 49.7726 133.577 52.1737 133.577Z" fill="#D80027"/>
</svg>
