<svg width="200" height="200" viewBox="0 0 200 200" fill="none" xmlns="http://www.w3.org/2000/svg">
<path d="M100 200C155.228 200 200 155.228 200 100C200 44.7715 155.228 0 100 0C44.7715 0 0 44.7715 0 100C0 155.228 44.7715 200 100 200Z" fill="#F0F0F0"/>
<path d="M65.2177 52.174V39.1306H52.174V52.174H39.1306V65.2177H52.174V78.2611H65.2177V65.2177H78.2611V52.174H65.2177Z" fill="#D80027"/>
<path d="M100 0V100C44.7719 100 22.8223 100 0 100C0 155.228 44.7719 200 100 200C155.228 200 200 155.228 200 100C200 44.7719 155.228 0 100 0Z" fill="#D80027"/>
</svg>
