<svg width="200" height="200" viewBox="0 0 200 200" fill="none" xmlns="http://www.w3.org/2000/svg">
<g clip-path="url(#clip0)">
<path d="M196.555 73.9129C185.08 31.3363 146.203 0 100 0C53.7977 0 14.9203 31.3363 3.44531 73.9129L100 78.2609L196.555 73.9129Z" fill="#A2001D"/>
<path d="M3.44531 126.087C14.9203 168.663 53.7977 200 100 200C146.203 200 185.08 168.663 196.555 126.087L100 121.739L3.44531 126.087Z" fill="#A2001D"/>
<path d="M196.555 73.913H3.44492C1.20313 82.2305 0 90.9739 0 100C0 109.026 1.20313 117.77 3.44492 126.087H196.555C198.797 117.77 200 109.026 200 100C200 90.9739 198.797 82.2305 196.555 73.913Z" fill="#6DA544"/>
</g>
<defs>
<clipPath id="clip0">
<rect width="200" height="200" fill="white"/>
</clipPath>
</defs>
</svg>
