<svg width="200" height="200" viewBox="0 0 200 200" fill="none" xmlns="http://www.w3.org/2000/svg">
<g clip-path="url(#clip0)">
<path d="M54.1463 11.104C45.194 15.7247 36.7905 21.7813 29.2858 29.286C21.7807 36.7911 15.7241 45.1946 11.1038 54.147L75.4034 124.596L145.852 188.895C154.805 184.275 163.208 178.218 170.713 170.714C178.218 163.209 184.274 154.805 188.895 145.853L124.596 75.4036L54.1463 11.104Z" fill="#F0F0F0"/>
<path d="M170.714 170.714C174.909 166.519 178.65 162.043 181.944 157.348L42.653 18.0565C37.9581 21.3499 33.4819 25.0913 29.287 29.2862C25.092 33.4811 21.3506 37.9573 18.0569 42.6526L157.348 181.943C162.042 178.65 166.519 174.909 170.714 170.714Z" fill="black"/>
<path d="M29.2859 170.714C60.8355 202.263 108.217 208.319 145.852 188.895L11.1043 54.1467C-8.31956 91.7819 -2.26214 139.164 29.2859 170.714Z" fill="#D80027"/>
<path d="M170.713 29.2862C139.164 -2.26305 91.7821 -8.3193 54.147 11.1037L188.895 145.853C208.319 108.218 202.263 60.8354 170.713 29.2862Z" fill="#D80027"/>
</g>
<defs>
<clipPath id="clip0">
<rect width="200" height="200" fill="white"/>
</clipPath>
</defs>
</svg>
