<svg width="200" height="200" viewBox="0 0 200 200" fill="none" xmlns="http://www.w3.org/2000/svg">
<path d="M100 200C155.228 200 200 155.228 200 100C200 44.7715 155.228 0 100 0C44.7715 0 0 44.7715 0 100C0 155.228 44.7715 200 100 200Z" fill="#D80027"/>
<path d="M99.9997 147.826C126.413 147.826 147.826 126.413 147.826 99.9998C147.826 73.5861 126.413 52.1736 99.9997 52.1736C73.5861 52.1736 52.1736 73.5861 52.1736 99.9998C52.1736 126.413 73.5861 147.826 99.9997 147.826Z" fill="#F0F0F0"/>
<path d="M105.892 81.713L114.097 93.0197L127.384 88.7111L119.167 100.008L127.371 111.314L114.087 106.989L105.87 118.286L105.878 104.317L92.5949 99.9919L105.883 95.6833L105.892 81.713Z" fill="#D80027"/>
<path d="M110.87 128.261C95.2617 128.261 82.6086 115.608 82.6086 100C82.6086 84.3922 95.2617 71.739 110.87 71.739C115.736 71.739 120.315 72.9695 124.313 75.1359C118.041 69.0027 109.465 65.2172 100 65.2172C80.7906 65.2172 65.2176 80.7898 65.2176 99.9996C65.2176 119.209 80.7906 134.782 100 134.782C109.465 134.782 118.042 130.996 124.313 124.863C120.315 127.03 115.736 128.261 110.87 128.261Z" fill="#D80027"/>
</svg>
