<svg width="200" height="200" viewBox="0 0 200 200" fill="none" xmlns="http://www.w3.org/2000/svg">
<path d="M100 200C155.228 200 200 155.228 200 100C200 44.7715 155.228 0 100 0C44.7715 0 0 44.7715 0 100C0 155.228 44.7715 200 100 200Z" fill="#D80027"/>
<path d="M95.9052 81.713L104.11 93.0197L117.398 88.7111L109.18 100.008L117.384 111.314L104.101 106.989L95.8833 118.286L95.8919 104.317L82.6083 99.9919L95.8966 95.6833L95.9052 81.713Z" fill="#F0F0F0"/>
<path d="M73.5132 128.261C57.9053 128.261 45.2522 115.608 45.2522 100C45.2522 84.3922 57.9053 71.739 73.5132 71.739C78.3796 71.739 82.9585 72.9699 86.9561 75.1359C80.6846 69.0023 72.1077 65.2172 62.6436 65.2172C43.4335 65.2172 27.8612 80.7898 27.8612 99.9996C27.8612 119.209 43.4339 134.782 62.6436 134.782C72.1085 134.782 80.685 130.996 86.9561 124.863C82.9585 127.03 78.3796 128.261 73.5132 128.261Z" fill="#F0F0F0"/>
</svg>
