<svg width="200" height="200" viewBox="0 0 200 200" fill="none" xmlns="http://www.w3.org/2000/svg">
<path d="M200 100C200 155.228 155.228 200 100 200C44.7719 200 0 155.228 0 100C0 100.024 100 0.0109375 100 0C155.228 0 200 44.7719 200 100Z" fill="#338AF3"/>
<path d="M47.8264 100H81.5538L52.1741 65.2175L47.8264 78.2609V100Z" fill="#0052B4"/>
<path d="M100 81.5542L65.2175 47.8264H100L100 81.5542Z" fill="#0052B4"/>
<path d="M99.7328 99.9998H100C100 99.9099 100 99.8224 100 99.7322C99.9113 99.8216 99.8222 99.9107 99.7328 99.9998Z" fill="#F0F0F0"/>
<path d="M100 52.1738C100 34.5781 100 23.0484 100 0H99.9836C44.7625 0.009375 0 44.777 0 100H52.1742V70.6207L81.5535 100H99.7332C99.8223 99.9109 99.9113 99.8219 100.001 99.7324C100.001 92.9953 100.001 86.984 100.001 81.5539L70.6203 52.1738H100Z" fill="#F0F0F0"/>
<path d="M50.592 13.0436C34.9518 21.9494 21.9494 34.9518 13.0436 50.592V100H39.1307V39.1315V39.1307H100C100 30.903 100 23.0647 100 13.0436H50.592Z" fill="#D80027"/>
<path d="M100.001 87.7031L64.4714 52.1746H52.1746V52.1753L100 100H100.001C100.001 100 100.001 91.521 100.001 87.7031Z" fill="#D80027"/>
<path d="M109.143 165.218L111.302 171.861H118.286L112.636 175.966L114.795 182.609L109.143 178.503L103.493 182.609L105.651 175.966L100 171.861H106.984L109.143 165.218Z" fill="#FFDA44"/>
<path d="M164.77 121.739L166.928 128.382H173.913L168.262 132.488L170.421 139.13L164.77 135.025L159.119 139.13L161.278 132.488L155.626 128.382H162.611L164.77 121.739Z" fill="#FFDA44"/>
<path d="M178.708 56.5217L180.866 63.1647H187.851L182.201 67.2702L184.359 73.9127L178.708 69.8077L173.057 73.9127L175.216 67.2702L169.565 63.1647H176.549L178.708 56.5217Z" fill="#FFDA44"/>
<path d="M182.161 104.348L184.32 110.991H191.304L185.654 115.097L187.813 121.739L182.161 117.634L176.511 121.739L178.67 115.097L173.018 110.991H180.003L182.161 104.348Z" fill="#FFDA44"/>
<path d="M119.159 149.593L125.384 152.765L130.322 147.826L129.23 154.724L135.453 157.895L128.554 158.988L127.461 165.887L124.291 159.663L117.392 160.756L122.33 155.818L119.159 149.593Z" fill="#FFDA44"/>
<path d="M119.159 123.506L125.384 126.678L130.322 121.739L129.23 128.637L135.453 131.808L128.554 132.901L127.461 139.8L124.291 133.576L117.392 134.669L122.33 129.731L119.159 123.506Z" fill="#FFDA44"/>
<path d="M140.898 140.228L147.122 143.4L152.061 138.461L150.969 145.359L157.192 148.53L150.293 149.623L149.2 156.522L146.03 150.298L139.131 151.391L144.069 146.453L140.898 140.228Z" fill="#FFDA44"/>
<path d="M140.898 84.3759L147.122 87.547L152.061 82.6083L150.969 89.5067L157.192 92.6774L150.293 93.7704L149.2 100.669L146.03 94.4458L139.131 95.5387L144.069 90.6001L140.898 84.3759Z" fill="#FFDA44"/>
<path d="M161.967 83.7063L168.191 86.8774L173.13 81.9387L172.037 88.8372L178.261 92.0079L171.362 93.1008L170.269 99.9997L167.099 93.7762L160.199 94.8692L165.138 89.9305L161.967 83.7063Z" fill="#FFDA44"/>
</svg>
