<svg width="200" height="200" viewBox="0 0 200 200" fill="none" xmlns="http://www.w3.org/2000/svg">
<path d="M200 100C200 155.228 155.228 200 100 200C44.7719 200 0 155.228 0 100C34.3477 65.6523 63.4781 36.5219 100 0C155.228 0 200 44.7719 200 100Z" fill="#D80027"/>
<path d="M100 100C100 44.7719 100 38.2609 100 0C44.7719 0 0 44.7719 0 100H100Z" fill="#0052B4"/>
<path d="M86.9566 58.5237L74.7437 64.269L81.2468 76.0968L67.9855 73.5592L66.3046 86.9565L57.0679 77.1034L47.8304 86.9565L46.1503 73.5592L32.8886 76.096L39.3917 64.2682L27.1792 58.5237L39.3921 52.7796L32.8886 40.9514L46.1499 43.4885L47.8308 30.0917L57.0679 39.9448L66.305 30.0917L67.9855 43.4885L81.2472 40.9514L74.7437 52.78L86.9566 58.5237Z" fill="#F0F0F0"/>
<path d="M57.0694 77.1362C67.3498 77.1362 75.6838 68.8023 75.6838 58.5218C75.6838 48.2413 67.3498 39.9073 57.0694 39.9073C46.7889 39.9073 38.4549 48.2413 38.4549 58.5218C38.4549 68.8023 46.7889 77.1362 57.0694 77.1362Z" fill="#0052B4"/>
<path d="M57.0679 68.4427C51.5988 68.4427 47.1495 63.9931 47.1495 58.524C47.1495 53.0548 51.5991 48.6052 57.0679 48.6052C62.537 48.6052 66.9866 53.0548 66.9866 58.524C66.9862 63.9931 62.5363 68.4427 57.0679 68.4427Z" fill="#F0F0F0"/>
</svg>
