<svg width="200" height="200" viewBox="0 0 200 200" fill="none" xmlns="http://www.w3.org/2000/svg">
<path d="M100 200C155.228 200 200 155.228 200 100C200 44.7715 155.228 0 100 0C44.7715 0 0 44.7715 0 100C0 155.228 44.7715 200 100 200Z" fill="#FFDA44"/>
<path d="M29.2888 170.711C33.4838 174.906 37.9595 178.647 42.6545 181.94L181.94 42.6549C178.647 37.9599 174.905 33.4842 170.71 29.2892C166.515 25.0943 162.04 21.3537 157.345 18.0599L18.0599 157.345C21.3529 162.039 25.0943 166.515 29.2888 170.711Z" fill="black"/>
<path d="M29.2892 29.2892C-2.25849 60.8377 -8.31513 108.217 11.1079 145.851L145.851 11.1084C108.217 -8.31467 60.8372 -2.25764 29.2892 29.2892Z" fill="#6DA544"/>
<path d="M170.711 170.711C202.258 139.163 208.314 91.7832 188.892 54.1492L54.1492 188.892C91.7824 208.315 139.162 202.259 170.711 170.711Z" fill="#338AF3"/>
</svg>
