<svg width="200" height="200" viewBox="0 0 200 200" fill="none" xmlns="http://www.w3.org/2000/svg">
<g clip-path="url(#clip0)">
<path d="M174.529 166.666C190.366 148.974 200 125.614 200 99.9999C200 74.3859 190.365 51.0253 174.528 33.3331L100 26.087L25.4719 33.3331C9.63477 51.0253 0 74.3859 0 99.9999C0 125.614 9.63438 148.974 25.4715 166.666L100 173.913L174.529 166.666Z" fill="#FFDA44"/>
<path d="M25.4724 33.3332H174.529C156.219 12.8773 129.615 0 100.001 0C70.3861 0 43.7826 12.8773 25.4724 33.3332Z" fill="black"/>
<path d="M0 100L100 108.696L200 100C200 88.3109 197.988 77.0929 194.302 66.6664H5.69844C2.01211 77.0929 0 88.3109 0 100H0Z" fill="#D80027"/>
<path d="M5.69844 133.333H194.302C197.988 122.907 200 111.689 200 100H0C0 111.689 2.01211 122.907 5.69844 133.333Z" fill="black"/>
<path d="M174.528 166.666H25.4714C43.7816 187.123 70.3851 200 100 200C129.615 200 156.218 187.123 174.528 166.666Z" fill="#D80027"/>
<path d="M133.369 99.9999C133.369 118.431 118.431 133.369 99.9999 133.369C81.569 133.369 66.6304 118.431 66.6304 99.9999C66.6304 81.569 81.569 66.6304 99.9999 66.6304C118.431 66.6304 133.369 81.569 133.369 99.9999Z" fill="#F0F0F0"/>
<path d="M112.225 101.702L100 96.4044C100 96.4044 102.86 86.9111 103.013 86.2614C103.124 85.7868 103.183 85.2919 103.183 84.7833C103.183 82.9822 102.453 81.3517 101.273 80.172L104.347 77.0978C102.38 75.131 99.6626 73.9142 96.661 73.9142C93.6594 73.9142 90.9419 75.1306 88.9751 77.0978L92.0493 80.172C90.8688 81.3521 90.1391 82.9825 90.1391 84.7833C90.1391 85.4419 90.2387 86.0767 90.4204 86.6763L85.7919 91.3044H94.2044C94.2044 91.3044 90.7262 96.5286 88.8274 100.819C86.9286 105.109 88.8536 110.346 93.2419 112.297L95.7794 113.424L100 117.392V121.739L95.6524 126.087H104.348V117.391L108.316 113.424H116.522C116.561 113.342 116.603 113.262 116.64 113.179C118.59 108.791 116.613 103.652 112.225 101.702Z" fill="black"/>
</g>
<defs>
<clipPath id="clip0">
<rect width="200" height="200" fill="white"/>
</clipPath>
</defs>
</svg>
