<svg width="200" height="200" viewBox="0 0 200 200" fill="none" xmlns="http://www.w3.org/2000/svg">
<mask id="mask0_306_2493" style="mask-type:alpha" maskUnits="userSpaceOnUse" x="0" y="0" width="200" height="200">
<rect width="200" height="200" rx="100" fill="#C4C4C4"/>
</mask>
<g mask="url(#mask0_306_2493)">
<mask id="mask1_306_2493" style="mask-type:alpha" maskUnits="userSpaceOnUse" x="-33" y="0" width="267" height="200">
<rect x="-33" width="266.667" height="200" fill="white"/>
</mask>
<g mask="url(#mask1_306_2493)">
<path fill-rule="evenodd" clip-rule="evenodd" d="M-33 0H233.667V200H-33V0Z" fill="#F7FCFF"/>
<path fill-rule="evenodd" clip-rule="evenodd" d="M-33 122.221V138.888H233.667V122.221H-33Z" fill="#E31D1C"/>
<path fill-rule="evenodd" clip-rule="evenodd" d="M-33 152.779V169.446H233.667V152.779H-33Z" fill="#E31D1C"/>
<path fill-rule="evenodd" clip-rule="evenodd" d="M-33 61.1123V77.779H233.667V61.1123H-33Z" fill="#E31D1C"/>
<path fill-rule="evenodd" clip-rule="evenodd" d="M-33 183.333V200H233.667V183.333H-33Z" fill="#E31D1C"/>
<path fill-rule="evenodd" clip-rule="evenodd" d="M-33 91.6667V108.333H233.667V91.6667H-33Z" fill="#E31D1C"/>
<path fill-rule="evenodd" clip-rule="evenodd" d="M-33 0V16.6667H233.667V0H-33Z" fill="#E31D1C"/>
<path fill-rule="evenodd" clip-rule="evenodd" d="M-33 30.5537V47.2204H233.667V30.5537H-33Z" fill="#E31D1C"/>
<rect x="-33" width="166.667" height="108.333" fill="#2E42A5"/>
<path fill-rule="evenodd" clip-rule="evenodd" d="M14.683 24.4899L8.63398 28.7307L10.6762 21.1839L5.30355 16.4013H12.3209L14.6745 10.2424L17.4343 16.4013H23.4164L18.7161 21.1839L20.5358 28.7307L14.683 24.4899ZM-18.6503 24.4903L-24.6993 28.7311L-22.6571 21.1843L-28.0297 16.4017H-21.0123L-18.6587 10.2428L-15.899 16.4017H-9.91685L-14.6172 21.1843L-12.7975 28.7311L-18.6503 24.4903ZM41.9673 28.7307L48.0163 24.4899L53.8691 28.7307L52.0494 21.1839L56.7497 16.4013H50.7676L48.0079 10.2424L45.6543 16.4013H38.6369L44.0095 21.1839L41.9673 28.7307ZM81.3496 24.4899L75.3006 28.7307L77.3428 21.1839L71.9702 16.4013H78.9876L81.3412 10.2424L84.1009 16.4013H90.0831L85.3828 21.1839L87.2025 28.7307L81.3496 24.4899ZM-24.6994 62.064L-18.6504 57.8233L-12.7975 62.064L-14.6172 54.5173L-9.91692 49.7347H-15.8991L-18.6588 43.5758L-21.0124 49.7347H-28.0298L-22.6571 54.5173L-24.6994 62.064ZM14.683 57.8233L8.63398 62.064L10.6762 54.5173L5.30355 49.7347H12.3209L14.6745 43.5758L17.4343 49.7347H23.4164L18.7161 54.5173L20.5358 62.064L14.683 57.8233ZM41.9673 62.064L48.0163 57.8233L53.8691 62.064L52.0494 54.5173L56.7497 49.7347H50.7676L48.0079 43.5758L45.6543 49.7347H38.6369L44.0095 54.5173L41.9673 62.064ZM81.3496 57.8233L75.3006 62.064L77.3428 54.5173L71.9702 49.7347H78.9876L81.3412 43.5758L84.1009 49.7347H90.0831L85.3828 54.5173L87.2025 62.064L81.3496 57.8233ZM-24.6994 95.3973L-18.6504 91.1566L-12.7975 95.3973L-14.6172 87.8506L-9.91692 83.068H-15.8991L-18.6588 76.9091L-21.0124 83.068H-28.0298L-22.6571 87.8506L-24.6994 95.3973ZM14.683 91.1566L8.63398 95.3973L10.6762 87.8506L5.30355 83.068H12.3209L14.6745 76.9091L17.4343 83.068H23.4164L18.7161 87.8506L20.5358 95.3973L14.683 91.1566ZM41.9673 95.3973L48.0163 91.1566L53.8691 95.3973L52.0494 87.8506L56.7497 83.068H50.7676L48.0079 76.9091L45.6543 83.068H38.6369L44.0095 87.8506L41.9673 95.3973ZM81.3496 91.1566L75.3006 95.3973L77.3428 87.8506L71.9702 83.068H78.9876L81.3412 76.9091L84.1009 83.068H90.0831L85.3828 87.8506L87.2025 95.3973L81.3496 91.1566ZM108.634 28.7307L114.683 24.4899L120.536 28.7307L118.716 21.1839L123.416 16.4013H117.434L114.675 10.2424L112.321 16.4013H105.304L110.676 21.1839L108.634 28.7307ZM114.683 57.8233L108.634 62.064L110.676 54.5173L105.304 49.7347H112.321L114.675 43.5758L117.434 49.7347H123.416L118.716 54.5173L120.536 62.064L114.683 57.8233ZM108.634 95.3973L114.683 91.1566L120.536 95.3973L118.716 87.8506L123.416 83.068H117.434L114.675 76.9091L112.321 83.068H105.304L110.676 87.8506L108.634 95.3973ZM-1.98369 41.1566L-8.03269 45.3973L-5.99048 37.8506L-11.3631 33.068H-4.34572L-1.99215 26.9091L0.767614 33.068H6.74975L2.04945 37.8506L3.86912 45.3973L-1.98369 41.1566ZM25.3006 45.3973L31.3496 41.1566L37.2025 45.3973L35.3828 37.8506L40.0831 33.068H34.1009L31.3412 26.9091L28.9876 33.068H21.9702L27.3429 37.8506L25.3006 45.3973ZM64.683 41.1566L58.634 45.3973L60.6762 37.8506L55.3036 33.068H62.3209L64.6745 26.9091L67.4343 33.068H73.4164L68.7161 37.8506L70.5358 45.3973L64.683 41.1566ZM-8.03269 78.7307L-1.98369 74.4899L3.86912 78.7307L2.04945 71.1839L6.74975 66.4013H0.767614L-1.99215 60.2424L-4.34572 66.4013H-11.3631L-5.99048 71.1839L-8.03269 78.7307ZM31.3496 74.4899L25.3006 78.7307L27.3429 71.1839L21.9702 66.4013H28.9876L31.3412 60.2424L34.1009 66.4013H40.0831L35.3828 71.1839L37.2025 78.7307L31.3496 74.4899ZM58.634 78.7307L64.683 74.4899L70.5358 78.7307L68.7161 71.1839L73.4164 66.4013H67.4343L64.6745 60.2424L62.3209 66.4013H55.3036L60.6762 71.1839L58.634 78.7307ZM98.0163 41.1566L91.9673 45.3973L94.0095 37.8506L88.6369 33.068H95.6543L98.0079 26.9091L100.768 33.068H106.75L102.049 37.8506L103.869 45.3973L98.0163 41.1566ZM91.9673 78.7307L98.0163 74.4899L103.869 78.7307L102.049 71.1839L106.75 66.4013H100.768L98.0079 60.2424L95.6543 66.4013H88.6369L94.0095 71.1839L91.9673 78.7307Z" fill="#F7FCFF"/>
</g>
</g>
</svg>
