<svg width="200" height="200" viewBox="0 0 200 200" fill="none" xmlns="http://www.w3.org/2000/svg">
<path d="M100 200C155.228 200 200 155.228 200 100C200 44.7715 155.228 0 100 0C44.7715 0 0 44.7715 0 100C0 155.228 44.7715 200 100 200Z" fill="#338AF3"/>
<path d="M99.7109 65.2175C80.5003 65.2175 64.9285 80.7902 64.9285 100C64.9285 119.21 80.5007 134.782 99.7109 134.782C118.92 134.782 134.493 119.21 134.493 100C134.493 80.7902 118.92 65.2175 99.7109 65.2175ZM91.0152 100C91.0152 95.1976 94.9082 91.3042 99.7109 91.3042C104.513 91.3042 108.407 95.1976 108.407 100C108.407 104.803 104.513 108.696 99.7109 108.696C94.9082 108.696 91.0152 104.803 91.0152 100ZM108.727 85.1253C107.377 84.3054 105.906 83.6687 104.348 83.2386V74.3324C108.27 75.0363 111.887 76.614 114.991 78.8617L108.727 85.1253ZM95.6527 83.0898C94.0211 83.48 92.4796 84.1 91.0632 84.9136L84.7703 78.6207C87.9515 76.3933 91.65 74.8546 95.6527 74.2285V83.0898ZM91.0629 115.086C92.4793 115.9 94.0207 116.52 95.6523 116.91V125.771C91.6492 125.145 87.9515 123.606 84.7703 121.378L91.0629 115.086ZM104.348 116.761C105.906 116.331 107.378 115.695 108.727 114.875L114.99 121.139C111.886 123.386 108.27 124.964 104.348 125.668V116.762H104.348V116.761ZM114.797 108.648C115.563 107.315 116.162 105.873 116.554 104.348H125.43C124.777 108.239 123.264 111.837 121.09 114.941L114.797 108.648ZM116.554 95.6523C116.162 94.1269 115.563 92.6859 114.797 91.3523L121.09 85.0593C123.263 88.1636 124.777 91.7605 125.43 95.6519H116.554V95.6523H116.554ZM78.5722 84.7207L84.8359 90.9843C83.9652 92.4179 83.2961 93.9867 82.8671 95.6523H73.9914C74.6683 91.6187 76.2695 87.9007 78.5722 84.7207ZM73.9914 104.348H82.8671C83.2957 106.013 83.9648 107.582 84.8359 109.016L78.5722 115.279C76.2695 112.099 74.6683 108.382 73.9914 104.348Z" fill="#F0F0F0"/>
<path d="M156.233 100C156.233 84.5393 150.023 70.5311 139.964 60.3264L130.741 69.5495C138.439 77.3932 143.189 88.1417 143.189 100C143.189 124.013 123.723 143.478 99.7112 143.478C75.6983 143.478 56.2331 124.013 56.2331 100C56.2331 87.9936 61.0991 77.1241 68.9674 69.2565L59.7444 60.0334C49.5159 70.262 43.1897 84.3924 43.1897 100C43.1897 125.865 60.5635 147.673 84.278 154.389C81.678 159.328 82.0741 165.546 85.7881 170.181C90.6663 166.272 95.7167 162.224 100.001 158.791C104.285 162.224 109.336 166.272 114.214 170.181C117.965 165.5 118.334 159.203 115.648 154.24C139.103 147.359 156.233 125.682 156.233 100Z" fill="#F0F0F0"/>
</svg>
