<svg width="200" height="200" viewBox="0 0 200 200" fill="none" xmlns="http://www.w3.org/2000/svg">
<path d="M100 200C155.228 200 200 155.228 200 100C200 44.7715 155.228 0 100 0C44.7715 0 0 44.7715 0 100C0 155.228 44.7715 200 100 200Z" fill="#F0F0F0"/>
<path d="M100 73.9132H196.555C194.048 64.6108 190.237 55.8448 185.323 47.826H100V73.9132Z" fill="#338AF3"/>
<path d="M37.751 178.261H162.248C171.374 170.992 179.201 162.163 185.322 152.174H14.6772C20.7987 162.163 28.6252 170.992 37.751 178.261Z" fill="#338AF3"/>
<path d="M100 0V21.7391H162.249C145.167 8.13438 123.535 0 100 0Z" fill="#338AF3"/>
<path d="M100 73.9132H196.555C194.048 64.6108 190.237 55.8448 185.323 47.826H100V73.9132Z" fill="#338AF3"/>
<path d="M0 100C0 109.026 1.20313 117.769 3.44492 126.087H196.555C198.797 117.769 200 109.026 200 100H0Z" fill="#338AF3"/>
<path d="M86.9566 58.5237L74.7433 64.2686L81.2468 76.0968L67.9851 73.56L66.3047 86.9565L57.0679 77.1034L47.8304 86.9565L46.1504 73.56L32.8886 76.096L39.3918 64.2682L27.1793 58.5237L39.3922 52.7796L32.8886 40.9514L46.15 43.4882L47.8308 30.0917L57.0679 39.9448L66.305 30.0917L67.9851 43.4882L81.2472 40.9514L74.7437 52.78L86.9566 58.5237Z" fill="#FFDA44"/>
</svg>
