<svg width="200" height="200" viewBox="0 0 200 200" fill="none" xmlns="http://www.w3.org/2000/svg">
<g clip-path="url(#clip0)">
<path d="M4.72188 69.5656C1.65859 79.1625 -0.000390556 89.3863 6.89667e-08 99.9992C-0.000390556 110.612 1.65898 120.837 4.72227 130.434L100 134.782L195.278 130.435C198.341 120.837 200 110.612 200 100C200 89.3867 198.341 79.1625 195.278 69.5652L100 65.2175L4.72188 69.5656Z" fill="#F0F0F0"/>
<path d="M195.277 69.5657L99.9996 65.218L4.72148 69.5657C3.81367 72.411 3.03203 75.3122 2.37695 78.2614H197.621C196.966 75.3118 196.185 72.4102 195.277 69.5657Z" fill="#D80027"/>
<path d="M2.37817 121.739C3.03247 124.688 3.81411 127.589 4.72192 130.434L4.7313 130.434L99.9993 134.782L195.277 130.434C196.185 127.589 196.966 124.688 197.621 121.739H2.37817Z" fill="#D80027"/>
<path d="M99.9997 200C144.615 200 182.4 170.78 195.277 130.434H4.72235C17.5993 170.779 55.3852 200 99.9997 200Z" fill="#6DA544"/>
<path d="M99.9997 0.000366215C55.3848 0.00075684 17.5997 29.2207 4.72192 69.5656L195.277 69.566C182.401 29.2203 144.615 -2.44101e-05 99.9997 0.000366215Z" fill="#338AF3"/>
<path d="M45.698 41.3046C45.698 31.9386 52.2804 24.1144 61.0706 22.1948C59.7198 21.8995 58.3179 21.7397 56.878 21.7397C46.0726 21.7397 37.3128 30.4991 37.3128 41.305C37.3128 52.1108 46.0718 60.8702 56.878 60.8702C58.3179 60.8702 59.7194 60.7101 61.0706 60.4151C52.2808 58.4948 45.698 50.6706 45.698 41.3046Z" fill="#F0F0F0"/>
<path d="M72.6349 50.1976L73.9591 54.2738H78.2451L74.7779 56.7933L76.1021 60.8695L72.6349 58.3504L69.167 60.8695L70.4916 56.7933L67.024 54.2738H71.3099L72.6349 50.1976Z" fill="#F0F0F0"/>
<path d="M86.3144 50.1976L87.639 54.2738H91.9249L88.4573 56.7933L89.782 60.8695L86.3144 58.3504L82.8468 60.8695L84.1714 56.7933L80.7042 54.2738H84.9898L86.3144 50.1976Z" fill="#F0F0F0"/>
<path d="M99.9947 50.1976L101.319 54.2738H105.605L102.138 56.7933L103.462 60.8695L99.9947 58.3504L96.5268 60.8695L97.8518 56.7933L94.3838 54.2738H98.6701L99.9947 50.1976Z" fill="#F0F0F0"/>
<path d="M113.674 50.1976L114.999 54.2738H119.285L115.817 56.7933L117.142 60.8695L113.674 58.3504L110.207 60.8695L111.532 56.7933L108.064 54.2738H112.349L113.674 50.1976Z" fill="#F0F0F0"/>
<path d="M127.354 50.1976L128.679 54.2738H132.965L129.498 56.7933L130.822 60.8695L127.354 58.3504L123.887 60.8695L125.212 56.7933L121.744 54.2738H126.03L127.354 50.1976Z" fill="#F0F0F0"/>
<path d="M86.3144 35.9688L87.639 40.0445H91.9249L88.4573 42.5645L89.782 46.6402L86.3144 44.1211L82.8468 46.6402L84.1714 42.5645L80.7042 40.0445H84.9898L86.3144 35.9688Z" fill="#F0F0F0"/>
<path d="M99.9947 35.9688L101.319 40.0445H105.605L102.138 42.5645L103.462 46.6402L99.9947 44.1211L96.5268 46.6402L97.8518 42.5645L94.3838 40.0445H98.6701L99.9947 35.9688Z" fill="#F0F0F0"/>
<path d="M113.674 35.9688L114.999 40.0445H119.285L115.817 42.5645L117.142 46.6402L113.674 44.1211L110.207 46.6402L111.532 42.5645L108.064 40.0445H112.349L113.674 35.9688Z" fill="#F0F0F0"/>
<path d="M127.354 35.9688L128.679 40.0445H132.965L129.498 42.5645L130.822 46.6402L127.354 44.1211L123.887 46.6402L125.212 42.5645L121.744 40.0445H126.03L127.354 35.9688Z" fill="#F0F0F0"/>
<path d="M99.9947 21.7389L101.319 25.8155H105.605L102.138 28.3346L103.462 32.4112L99.9947 29.892L96.5268 32.4112L97.8518 28.3346L94.3838 25.8155H98.6701L99.9947 21.7389Z" fill="#F0F0F0"/>
<path d="M113.674 21.7389L114.999 25.8155H119.285L115.817 28.3346L117.142 32.4112L113.674 29.892L110.207 32.4112L111.532 28.3346L108.064 25.8155H112.349L113.674 21.7389Z" fill="#F0F0F0"/>
<path d="M127.354 21.7389L128.679 25.8155H132.965L129.498 28.3346L130.822 32.4112L127.354 29.892L123.887 32.4112L125.212 28.3346L121.744 25.8155H126.03L127.354 21.7389Z" fill="#F0F0F0"/>
</g>
<defs>
<clipPath id="clip0">
<rect width="200" height="200" fill="white"/>
</clipPath>
</defs>
</svg>
