<svg width="200" height="200" viewBox="0 0 200 200" fill="none" xmlns="http://www.w3.org/2000/svg">
<path d="M99.9998 0C155.228 0 200 44.7719 200 100C200 155.228 155.228 200 99.9998 200C99.9998 195.652 86.9564 100 86.9564 100L99.9998 0Z" fill="#F0F0F0"/>
<path d="M100 200C44.7719 200 0 155.228 0 100C0 44.7719 44.7719 0 100 0" fill="#FFDA44"/>
<path d="M138.293 87.0177L157.087 111.879C154.126 116.363 154.141 122.404 157.566 126.934C161.91 132.68 170.09 133.818 175.837 129.474C181.583 125.13 182.721 116.95 178.376 111.203C174.952 106.673 169.144 105.011 164.023 106.636L134.734 67.8892L127.797 73.1329L117.391 80.9978L127.878 94.8708L138.293 87.0177ZM165.349 115.6C167.265 114.151 169.992 114.531 171.44 116.446C172.887 118.361 172.509 121.088 170.593 122.537C168.678 123.984 165.951 123.606 164.503 121.69C163.055 119.774 163.434 117.047 165.349 115.6Z" fill="#ACABB1"/>
<path d="M170.527 94.8704L181.015 80.9973L170.609 73.1317L163.673 67.8879L134.383 106.635C129.263 105.009 123.455 106.672 120.03 111.202C115.686 116.949 116.823 125.129 122.57 129.472C128.317 133.816 136.496 132.679 140.84 126.932C144.264 122.402 144.28 116.362 141.319 111.878L160.113 87.0165L170.527 94.8704ZM133.903 121.689C132.456 123.606 129.729 123.984 127.814 122.536C125.898 121.088 125.519 118.361 126.967 116.445C128.415 114.531 131.142 114.151 133.058 115.599C134.973 117.047 135.351 119.774 133.903 121.689Z" fill="#FFDA44"/>
</svg>
