<svg width="200" height="200" viewBox="0 0 200 200" fill="none" xmlns="http://www.w3.org/2000/svg">
<path d="M147.826 12.159C133.619 4.40742 117.324 0 100 0C82.6759 0 66.3814 4.40742 52.174 12.159L43.4783 100L52.174 187.841C66.3814 195.593 82.6759 200 100 200C117.324 200 133.619 195.593 147.826 187.841L156.522 100L147.826 12.159Z" fill="#FFDA44"/>
<path d="M52.1738 187.84V12.1586C21.0895 29.1196 0 62.0957 0 100C0 137.904 21.0895 170.881 52.1738 187.84Z" fill="#338AF3"/>
<path d="M200 100C200 62.0957 178.91 29.1196 147.826 12.1586V187.84C178.91 170.881 200 137.904 200 100Z" fill="#6DA544"/>
<path d="M78.2608 126.087L60.869 100L78.2604 73.9131L95.6526 100L78.2608 126.087Z" fill="#6DA544"/>
<path d="M121.739 126.087L104.348 100L121.739 73.9131L139.131 100L121.739 126.087Z" fill="#6DA544"/>
<path d="M99.9997 160.87L82.6083 134.783L99.9997 108.696L117.391 134.783L99.9997 160.87Z" fill="#6DA544"/>
</svg>
