<svg width="200" height="200" viewBox="0 0 200 200" fill="none" xmlns="http://www.w3.org/2000/svg">
<g clip-path="url(#clip0)">
<path d="M190.077 143.478C196.435 130.331 200 115.583 200 100C200 84.4178 196.435 69.669 190.077 56.5221L100 47.8264L9.92266 56.5221C3.56523 69.669 0 84.4178 0 100C0 115.583 3.56523 130.331 9.92266 143.478L100 152.174L190.077 143.478Z" fill="#0052B4"/>
<path d="M99.9998 200C139.646 200 173.902 176.928 190.077 143.478H9.92249C26.0975 176.928 60.3537 200 99.9998 200Z" fill="#D80027"/>
<path d="M173.19 119.63L167.908 123.757L170.2 130.054L164.643 126.307L159.361 130.434L161.208 123.99L155.651 120.242L162.35 120.008L164.198 113.565L166.491 119.863L173.19 119.63Z" fill="#F0F0F0"/>
<path d="M159.664 96.2042L156.113 101.889L160.422 107.023L153.918 105.403L150.366 111.086L149.897 104.4L143.394 102.778L149.609 100.266L149.142 93.5796L153.45 98.7151L159.664 96.2042Z" fill="#F0F0F0"/>
<path d="M138.943 78.8162L137.55 85.3728L143.354 88.7244L136.688 89.4271L135.295 95.9818L132.568 89.8591L125.901 90.5587L130.883 86.0736L128.157 79.9509L133.962 83.3017L138.943 78.8162Z" fill="#F0F0F0"/>
<path d="M113.524 69.5652L114.458 76.2031L121.059 77.3664L115.034 80.3062L115.968 86.9437L111.311 82.1218L105.286 85.0601L108.433 79.141L103.777 74.3199L110.378 75.4835L113.524 69.5652Z" fill="#F0F0F0"/>
<path d="M86.4755 69.5652L89.6228 75.4835L96.2228 74.3191L91.5677 79.1421L94.7134 85.0609L88.6892 82.1218L84.0322 86.9425L84.9661 80.3062L78.9415 77.3679L85.5427 76.2031L86.4755 69.5652Z" fill="#F0F0F0"/>
<path d="M61.0557 78.8162L66.0377 83.3017L71.8412 79.9509L69.1158 86.0759L74.0967 90.5603L67.4307 89.8591L64.7033 95.9818L63.3115 89.4259L56.6451 88.7259L62.4498 85.3736L61.0557 78.8162Z" fill="#F0F0F0"/>
<path d="M40.3345 96.2042L46.5505 98.7152L50.8575 93.5808L50.3915 100.269L56.6056 102.78L50.1021 104.401L49.6337 111.086L46.0829 105.403L39.5786 107.024L43.8872 101.889L40.3345 96.2042Z" fill="#F0F0F0"/>
<path d="M26.8097 119.63L33.5097 119.864L35.8011 113.566L37.6507 120.01L44.3488 120.244L38.7917 123.992L40.6386 130.435L35.3573 126.308L29.7999 130.056L32.0925 123.757L26.8097 119.63Z" fill="#F0F0F0"/>
<path d="M190.077 56.5219C173.902 23.0723 139.646 0 99.9998 0C60.3537 0 26.0975 23.0723 9.92249 56.5219H190.077Z" fill="#FFDA44"/>
</g>
<defs>
<clipPath id="clip0">
<rect width="200" height="200" fill="white"/>
</clipPath>
</defs>
</svg>
