<svg width="200" height="200" viewBox="0 0 200 200" fill="none" xmlns="http://www.w3.org/2000/svg">
<path d="M200 100C200 155.228 155.228 200 100 200C44.7719 200 0 155.228 0 100C0 100.024 100 0.0109375 100 0C155.228 0 200 44.7719 200 100Z" fill="#0052B4"/>
<path d="M99.7322 100H99.9998C99.9998 99.9102 99.9998 99.8227 99.9998 99.7325C99.9107 99.8219 99.8216 99.911 99.7322 100Z" fill="#F0F0F0"/>
<path d="M100 52.1738C100 34.5781 100 23.0488 100 0H99.9832C44.7621 0.009375 0 44.777 0 100H52.1738V70.6207L81.5531 100H99.7328C99.8219 99.9109 99.9109 99.8219 100 99.7324C100 92.9953 100 86.984 100 81.5539L70.6203 52.1738H100Z" fill="#F0F0F0"/>
<path d="M50.592 13.0433C34.9518 21.9492 21.949 34.9515 13.0436 50.5918V100H39.1307V39.1312V39.1304H100C100 30.9027 100 23.0644 100 13.0433H50.592Z" fill="#D80027"/>
<path d="M143.478 100L116.449 127.029C121.515 136.798 131.714 143.478 143.478 143.478C155.242 143.478 165.441 136.798 170.507 127.029L143.478 100Z" fill="#FFDA44"/>
<path d="M99.9998 87.7028L64.4705 52.1743H52.1736V52.1751L99.999 100H99.9998C99.9998 100 99.9998 91.5208 99.9998 87.7028Z" fill="#D80027"/>
<path d="M113.044 52.1738V99.9996V100C113.044 123.296 143.478 130.435 143.478 130.435C143.478 130.435 173.913 123.296 173.913 100V99.9996V52.1738H113.044Z" fill="#6DA544"/>
<path d="M136.956 73.9128H150V108.695H136.956V73.9128Z" fill="#F0F0F0"/>
<path d="M143.478 80.4347C147.08 80.4347 150 77.5148 150 73.9129C150 70.3109 147.08 67.391 143.478 67.391C139.876 67.391 136.956 70.3109 136.956 73.9129C136.956 77.5148 139.876 80.4347 143.478 80.4347Z" fill="#A2001D"/>
<path d="M121.739 60.8696H130.435V69.5653H121.739V60.8696Z" fill="#FFDA44"/>
<path d="M121.739 80.4349H130.435V89.1306H121.739V80.4349Z" fill="#FFDA44"/>
<path d="M121.739 100H130.435V108.696H121.739V100Z" fill="#FFDA44"/>
<path d="M156.522 60.8696H165.217V69.5653H156.522V60.8696Z" fill="#FFDA44"/>
<path d="M156.522 80.4349H165.217V89.1306H156.522V80.4349Z" fill="#FFDA44"/>
<path d="M156.522 100H165.217V108.696H156.522V100Z" fill="#FFDA44"/>
</svg>
