<svg width="200" height="200" viewBox="0 0 200 200" fill="none" xmlns="http://www.w3.org/2000/svg">
<path d="M100 200C155.228 200 200 155.228 200 100C200 44.7715 155.228 0 100 0C44.7715 0 0 44.7715 0 100C0 155.228 44.7715 200 100 200Z" fill="#FCFCFC"/>
<path d="M116.984 69.8616C116.984 60.482 109.381 52.8781 100 52.8781C90.6204 52.8781 83.0165 60.482 83.0165 69.8616H45.6528C45.6528 79.0964 53.6974 86.5835 62.9321 86.5835H62.3759C62.3759 95.8191 69.8618 103.307 79.0981 103.307C79.0981 111.484 84.9708 118.278 92.7267 119.73L92.6833 119.828H107.318L107.275 119.73C115.031 118.277 120.903 111.483 120.903 103.307C130.139 103.307 137.625 95.8191 137.625 86.5835H137.068C146.303 86.5835 154.348 79.0964 154.348 69.8616H116.984Z" fill="#FFDA44"/>
<path d="M92.5346 118.095L82.0042 141.87C87.5604 144.128 93.6334 145.384 100.001 145.384C106.369 145.384 112.442 144.129 117.997 141.87L107.467 118.095H92.5346Z" fill="#FFDA44"/>
<path d="M78.2612 78.2139V107.468C78.2612 124.108 100 129.207 100 129.207C100 129.207 121.739 124.108 121.739 107.468V78.2139H78.2612Z" fill="#F0F0F0"/>
<path d="M24.2499 100.704L36.0073 133.588L47.6425 100.704H56.5222L39.5589 144.182H32.4554L15.3706 100.704H24.2499Z" fill="#338AF3"/>
<path d="M160.87 144.182V100.704H169.32V144.182H160.87Z" fill="#338AF3"/>
<path d="M86.9563 87.6604V123.111C89.945 125.311 93.1606 126.824 95.652 127.792V87.6604H86.9563Z" fill="#D80027"/>
<path d="M113.043 87.6604V123.111C110.054 125.311 106.838 126.824 104.347 127.792V87.6604H113.043Z" fill="#D80027"/>
<path d="M78.2612 78.2131H121.739V92.0084H78.2612V78.2131Z" fill="#0052B4"/>
</svg>
