<svg width="200" height="200" viewBox="0 0 200 200" fill="none" xmlns="http://www.w3.org/2000/svg">
<g clip-path="url(#clip0)">
<path d="M200 100C200 95.5793 199.71 91.2262 199.153 86.9567H86.9556C66.5256 66.5278 29.2878 29.2923 29.2893 29.2892C-9.76295 68.3415 -9.76295 131.658 29.2893 170.711L86.9568 113.044H199.153C199.709 108.774 200 104.421 200 100Z" fill="black"/>
<path d="M199.971 102.275C199.966 102.468 199.962 102.662 199.957 102.855C199.961 102.661 199.966 102.468 199.971 102.275Z" fill="#F0F0F0"/>
<path d="M199.875 105.008C199.866 105.199 199.852 105.389 199.842 105.58C199.852 105.389 199.865 105.199 199.875 105.008Z" fill="#F0F0F0"/>
<path d="M199.74 107.187C199.72 107.468 199.7 107.749 199.678 108.029C199.7 107.749 199.72 107.468 199.74 107.187Z" fill="#F0F0F0"/>
<path d="M199.406 89.1013C199.443 89.4357 199.479 89.7697 199.513 90.1048C199.479 89.7693 199.442 89.4357 199.406 89.1013Z" fill="#F0F0F0"/>
<path d="M199.842 94.4211C199.852 94.6118 199.865 94.802 199.874 94.993C199.865 94.802 199.852 94.6114 199.842 94.4211Z" fill="#F0F0F0"/>
<path d="M199.956 97.1472C199.962 97.3402 199.966 97.5339 199.97 97.7269C199.966 97.5331 199.961 97.3402 199.956 97.1472Z" fill="#F0F0F0"/>
<path d="M199.678 91.9719C199.7 92.252 199.72 92.5329 199.74 92.8137C199.72 92.5329 199.7 92.252 199.678 91.9719Z" fill="#F0F0F0"/>
<path d="M199.153 86.9565C199.198 87.299 199.238 87.6436 199.279 87.9869C193.344 38.4237 151.162 0.000366211 100 0.000366211C72.3852 0.000366211 47.3849 11.1937 29.2885 29.2909L86.954 86.9568H199.153V86.9565Z" fill="#D80027"/>
<path d="M199.153 113.044H86.954L29.2885 170.71C47.3849 188.806 72.3852 200 100 200C151.162 200 193.344 161.577 199.279 112.013C199.238 112.357 199.198 112.701 199.153 113.044Z" fill="#6DA544"/>
<path d="M199.512 109.896C199.479 110.231 199.442 110.565 199.406 110.899C199.442 110.565 199.479 110.231 199.512 109.896Z" fill="#F0F0F0"/>
<path d="M199.74 92.8135C199.778 93.3482 199.813 93.8842 199.842 94.4213C199.812 93.8842 199.778 93.3482 199.74 92.8135Z" fill="black"/>
<path d="M199.279 87.9868C199.324 88.3575 199.366 88.729 199.406 89.1009C199.366 88.729 199.323 88.3579 199.279 87.9868Z" fill="black"/>
<path d="M199.513 90.1045C199.574 90.7252 199.629 91.3475 199.678 91.9721C199.629 91.3475 199.574 90.7248 199.513 90.1045Z" fill="black"/>
<path d="M200 100C200 100.761 199.988 101.518 199.971 102.274C199.988 101.518 200 100.76 200 100Z" fill="black"/>
<path d="M199.842 105.579C199.813 106.116 199.778 106.652 199.741 107.187C199.778 106.652 199.812 106.116 199.842 105.579Z" fill="black"/>
<path d="M199.678 108.029C199.629 108.653 199.574 109.275 199.513 109.896C199.574 109.275 199.629 108.653 199.678 108.029Z" fill="black"/>
<path d="M199.406 110.899C199.366 111.271 199.324 111.642 199.279 112.013C199.323 111.642 199.366 111.271 199.406 110.899Z" fill="black"/>
<path d="M199.971 97.7261C199.988 98.4823 200 99.2401 200 99.9999C200 99.2401 199.988 98.4823 199.971 97.7261Z" fill="black"/>
<path d="M199.875 94.9929C199.91 95.7085 199.937 96.4269 199.957 97.1464C199.937 96.4265 199.911 95.7085 199.875 94.9929Z" fill="black"/>
<path d="M199.957 102.854C199.936 103.574 199.91 104.292 199.875 105.008C199.911 104.292 199.937 103.574 199.957 102.854Z" fill="black"/>
<path d="M199.905 95.6161H83.2819L23.377 35.7201C21.4406 37.7623 19.3418 40.6138 18.0438 42.6447L75.3323 99.9633L17.9957 157.301C19.1309 159.321 21.6039 162.31 23.3402 164.255L83.2831 104.312H199.919C199.981 102.87 200 101.421 200 99.9641C200 98.0118 199.946 96.5723 199.905 95.6161Z" fill="#FFDA44"/>
<path d="M24.2921 121.317V112.941C32.6506 112.941 39.4502 106.141 39.4502 97.7828C39.4502 91.8691 34.6389 87.0582 28.7257 87.0582C24.6971 87.0582 21.4194 90.3355 21.4194 94.3648C21.4194 96.941 23.5151 99.0371 26.0917 99.0371C27.5479 99.0371 28.7327 97.8515 28.7327 96.3953H37.1084C37.1084 102.471 32.1663 107.413 26.0921 107.413C18.8972 107.413 13.0444 101.559 13.0444 94.3656C13.0444 85.7183 20.0796 78.6836 28.726 78.6836C39.2581 78.6836 47.8268 87.2523 47.8268 97.784C47.8264 110.759 37.269 121.317 24.2921 121.317Z" fill="#FFDA44"/>
</g>
<defs>
<clipPath id="clip0">
<rect width="200" height="200" fill="white"/>
</clipPath>
</defs>
</svg>
