<svg width="200" height="200" viewBox="0 0 200 200" fill="none" xmlns="http://www.w3.org/2000/svg">
<path d="M100 200C155.228 200 200 155.228 200 100C200 44.7715 155.228 0 100 0C44.7715 0 0 44.7715 0 100C0 155.228 44.7715 200 100 200Z" fill="#F0F0F0"/>
<path d="M200 100C200 155.228 155.228 200 100 200C44.7719 200 0 155.228 0 100" fill="#496E2D"/>
<path d="M173.052 69.5868C169.476 59.445 159.813 52.174 148.448 52.174H126.087C111.68 52.174 100 63.8536 100 78.2611C100 82.9681 101.253 87.4919 103.434 91.3044C95.1305 91.2365 87.4458 91.3618 82.6086 91.3044C82.6086 81.2435 82.6086 68.4271 82.6086 65.7454L83.636 64.7181C88.2477 60.1064 86.7098 52.4204 86.7098 52.4204C86.7098 52.4204 79.0247 50.8833 74.4129 55.495L69.0383 60.8697H63.0434C49.8364 60.8697 39.1305 71.5759 39.1305 84.7825H56.5219V104.348C56.5219 107.21 57.0989 109.936 58.1415 112.418L52.1739 117.391H43.4782V108.695H34.7825V126.087H73.9129V143.478H65.2172V152.174H82.6086V134.783L90.5793 125.217H109.42L117.391 134.783V143.478H108.695V152.174H143.478V104.347C143.478 97.1439 149.318 91.304 156.521 91.304C156.706 91.304 156.89 91.3107 157.073 91.3181C156.713 89.9243 156.521 88.463 156.521 86.9564C156.522 77.6404 163.847 70.0357 173.052 69.5868ZM126.087 143.478V125.217H126.812L134.782 134.782V143.478H126.087Z" fill="#D80027"/>
</svg>
