<svg width="200" height="200" viewBox="0 0 200 200" fill="none" xmlns="http://www.w3.org/2000/svg">
<path d="M200 100C200 155.228 155.228 200 100 200C44.7719 200 0 155.228 0 100C34.3477 65.6523 63.4781 36.5219 100 0C155.228 0 200 44.7719 200 100Z" fill="#D80027"/>
<path d="M100 100C100 44.7719 100 38.2609 100 0C44.7719 0 0 44.7719 0 100H100Z" fill="#0052B4"/>
<path d="M80.0986 65.2176L81.7178 70.2H86.9561L82.7178 73.2785L84.3369 78.2609L80.0986 75.1816L75.8604 78.2609L77.4795 73.2785L73.2412 70.2H78.4795L80.0986 65.2176Z" fill="#F0F0F0"/>
<path d="M53.7873 26.087L56.4853 34.3913H65.2166L58.1525 39.5221L60.8514 47.826L53.7873 42.6936L46.7236 47.826L49.4221 39.5221L42.3584 34.3913H51.0889L53.7873 26.087Z" fill="#F0F0F0"/>
<path d="M79.8745 34.7824L82.5725 43.0871H91.3034L84.2397 48.218L86.9377 56.5219L79.8745 51.3895L72.8108 56.5219L75.5092 48.218L68.4456 43.0871H77.176L79.8745 34.7824Z" fill="#F0F0F0"/>
<path d="M59.2548 69.565L61.9533 77.8693H70.6837L63.6201 83.0001L66.3185 91.3041L59.2548 86.172L52.1912 91.3041L54.8896 83.0001L47.8259 77.8693H56.5568L59.2548 69.565Z" fill="#F0F0F0"/>
<path d="M36.3963 47.8261L39.0947 56.1304H47.8256L40.7615 61.2613L43.46 69.5652L36.3963 64.4332L29.333 69.5652L32.0311 61.2613L24.9678 56.1304H33.6982L36.3963 47.8261Z" fill="#F0F0F0"/>
</svg>
