<svg width="200" height="200" viewBox="0 0 200 200" fill="none" xmlns="http://www.w3.org/2000/svg">
<g clip-path="url(#clip0)">
<path d="M100 200C155.228 200 200 155.228 200 100C200 44.7715 155.228 0 100 0C44.7715 0 0 44.7715 0 100C0 155.228 44.7715 200 100 200Z" fill="#F0F0F0"/>
<path d="M99.9996 200C142.996 200 179.65 172.863 193.78 134.782H6.21948C20.3488 172.863 57.0031 200 99.9996 200Z" fill="black"/>
<path d="M99.9996 0C57.0031 0 20.3488 27.1375 6.21948 65.2176H193.78C179.65 27.1375 142.996 0 99.9996 0Z" fill="#D80027"/>
</g>
<defs>
<clipPath id="clip0">
<rect width="200" height="200" fill="white"/>
</clipPath>
</defs>
</svg>
