<svg width="200" height="200" viewBox="0 0 200 200" fill="none" xmlns="http://www.w3.org/2000/svg">
<g clip-path="url(#clip0)">
<path d="M100 200C155.228 200 200 155.228 200 100C200 44.7715 155.228 0 100 0C44.7715 0 0 44.7715 0 100C0 155.228 44.7715 200 100 200Z" fill="#F0F0F0"/>
<path d="M29.2888 170.711C-9.76357 131.658 -9.76357 68.3418 29.2888 29.2891C29.286 29.2934 86.9563 100 86.9563 100L29.2888 170.711Z" fill="black"/>
<path d="M86.9568 99.9999L13.263 50.2003C10.9783 54.1717 8.96343 58.3171 7.23218 62.6077L44.5404 100L7.23335 137.395C8.96304 141.682 10.9759 145.825 13.2591 149.794L86.9568 99.9999Z" fill="#FFDA44"/>
<path d="M199.153 86.9567H86.9537L29.2881 29.2907C23.074 35.5048 17.6752 42.5325 13.2627 50.2009L62.9654 100L13.2588 149.793C17.6713 157.463 23.0725 164.493 29.2881 170.709L86.9537 113.043H199.153C199.709 108.774 200 104.421 200 100C200 95.5794 199.709 91.2263 199.153 86.9567Z" fill="#6DA544"/>
<path d="M39.116 179.327C55.9789 192.289 77.0871 200 99.9996 200C146.202 200 185.08 168.664 196.555 126.087H92.3562L39.116 179.327Z" fill="#0052B4"/>
<path d="M196.555 73.9129C185.08 31.3363 146.202 0 99.9996 0C77.0871 0 55.9789 7.71133 39.116 20.673L92.3558 73.9129H196.555Z" fill="#D80027"/>
</g>
<defs>
<clipPath id="clip0">
<rect width="200" height="200" fill="white"/>
</clipPath>
</defs>
</svg>
