<svg width="200" height="200" viewBox="0 0 200 200" fill="none" xmlns="http://www.w3.org/2000/svg">
<path d="M100 200C155.228 200 200 155.228 200 100C200 44.7715 155.228 0 100 0C44.7715 0 0 44.7715 0 100C0 155.228 44.7715 200 100 200Z" fill="#F0F0F0"/>
<path d="M190.429 57.2669C185.348 46.5348 178.414 36.854 170.039 28.6333L100 21.7391L29.9611 28.6337C29.7376 28.8528 29.5197 29.077 29.2986 29.2985L57.2673 57.2673L100 58.5723L190.429 57.2669Z" fill="#FFDA44"/>
<path d="M29.2974 170.703C29.6653 171.071 30.0325 171.439 30.406 171.802L100 178.261L169.593 171.802C178.055 163.599 185.074 153.917 190.225 143.168L60.8692 139.131C49.7392 150.261 36.9017 163.098 29.2974 170.703Z" fill="#FFDA44"/>
<path d="M199.006 85.9004L82.6086 82.6086L100 100C94.8489 105.151 87.159 112.841 82.6086 117.391L198.945 114.534C199.636 109.789 200 104.937 200 100C200 95.2133 199.656 90.5078 199.006 85.9004Z" fill="black"/>
<path d="M100 0C72.7234 0 48.0023 10.9258 29.9609 28.6336H170.039C151.998 10.9258 127.277 0 100 0Z" fill="#6DA544"/>
<path d="M85.9002 85.9004H199.005C197.578 75.7914 194.642 66.1687 190.428 57.2668H57.2666L85.9002 85.9004Z" fill="#D80027"/>
<path d="M56.8318 143.168H190.226C194.489 134.273 197.472 124.649 198.945 114.534H85.4654C74.3767 125.623 64.9791 135.021 56.8318 143.168Z" fill="#D80027"/>
<path d="M100 200C127.053 200 151.592 189.253 169.593 171.801H30.4067C48.4083 189.253 72.9474 200 100 200Z" fill="#6DA544"/>
<path d="M35.709 23.4117C33.4859 25.2797 31.341 27.2379 29.2891 29.289L100 100L29.2891 170.711C31.3406 172.762 33.4859 174.72 35.709 176.588L112.297 100L35.709 23.4117Z" fill="black"/>
<path d="M40.205 73.913L46.6796 93.8412H67.6347L50.6824 106.158L57.1574 126.087L40.205 113.77L23.2523 126.087L29.7281 106.158L12.7761 93.8412H33.73L40.205 73.913Z" fill="#D80027"/>
<path d="M58.0153 101.63L41.1411 95.6523C41.1411 95.6523 39.8942 83.9558 39.8188 83.5593C39.2461 80.5425 36.595 78.2609 33.4114 78.2609C29.8098 78.2609 26.8895 81.1808 26.8895 84.7827C26.8895 85.38 26.9766 85.9554 27.127 86.5054L22.3958 91.2683H30.8083C30.8083 99.9999 24.2926 99.9999 24.2926 108.696L27.9071 117.391H49.6461L53.2696 108.696H53.268C53.6309 107.861 53.8512 107.001 53.9422 106.141C57.0657 104.878 58.0153 101.63 58.0153 101.63Z" fill="#FFDA44"/>
</svg>
