<svg width="703" height="308" viewBox="0 0 703 308" fill="none" xmlns="http://www.w3.org/2000/svg">
<path fill-rule="evenodd" clip-rule="evenodd" d="M479.341 99.1194L478.942 99.2574L494.547 0H453.442L444.334 57.8715H395.367L404.476 0H250.681L245.478 32.8212H283.742L266.537 142.454H307.642L324.847 32.8212H358.209L340.973 142.454H382.082L390.178 90.6927H439.146L431.049 142.454H472.151L478.542 101.805L478.783 102.663L479.341 99.1194ZM0.118164 142.454L22.5143 0H82.3703C97.6954 0 110.622 3.64184 120.712 11.2642C131.101 19.1119 135.97 30.5182 135.97 44.7173C135.97 54.2876 133.411 62.927 128.174 70.5005L128.154 70.5294C122.922 77.9623 115.544 83.7488 106.183 87.9045L106.129 87.9286C96.7082 91.9805 85.7721 93.9278 73.4642 93.9278H48.9105L41.219 142.454H0.118164ZM44.722 89.6486H73.4642C85.204 89.6486 95.392 87.7915 104.028 84.0771C112.664 80.243 119.344 74.9711 124.067 68.2613C128.79 61.4318 131.151 53.5838 131.151 44.7173C131.151 39.4905 130.453 34.7634 129.056 30.5359C130.453 34.7632 131.151 39.4901 131.151 44.7166C131.151 53.583 128.789 61.431 124.066 68.2606C119.343 74.9703 112.664 80.2422 104.028 84.0764C95.3916 87.7907 85.2036 89.6478 73.4639 89.6478H44.7217L37.0301 138.174H5.65706L5.65694 138.174H37.0305L44.722 89.6486ZM94.11 33.0352C90.6016 30.0398 85.8112 28.5421 79.7389 28.5421H54.2353L48.5679 65.385H48.5674L54.2349 28.5413H79.7386C85.8109 28.5413 90.6012 30.039 94.1097 33.0344C95.6035 34.2135 96.791 35.5637 97.6723 37.0852C96.7911 35.564 95.6036 34.214 94.11 33.0352ZM89.3382 56.5625C92.9339 53.463 94.7558 49.6218 94.7558 44.7173C94.7558 40.844 93.3781 38.1829 90.9083 36.2335L90.8378 36.1778L90.7698 36.1198C88.3682 34.0694 84.8898 32.8212 79.7389 32.8212H58.4411L54.0901 61.1065H75.4883C81.431 61.1065 85.9047 59.5188 89.3382 56.5625ZM98.1266 142.454L174.79 0H223.481L255.353 142.454H212.476L206.809 115.135H158.834L144.463 142.454H98.1266ZM155.766 110.856H210.821L210.821 110.855H155.766L141.394 138.174H105.771L105.771 138.174H141.395L155.766 110.856ZM216.489 138.174L216.489 138.174H249.481L249.482 138.174H216.489ZM219.525 4.27917L249.481 138.174L219.525 4.27917H219.525ZM320.652 28.5421H358.301L362.147 4.27917H362.146L358.3 28.5413H320.652L303.447 138.174H272.074L272.074 138.174H303.448L320.652 28.5421ZM289.279 28.5413L289.278 28.5421H251.023L251.024 28.5413H289.279ZM385.982 86.4136H444.68L444.68 86.4128H385.981L377.885 138.174H346.512L346.512 138.174H377.885L385.982 86.4136ZM436.584 138.174L436.584 138.174H467.957L489.008 4.27917H489.008L467.958 138.174H436.584ZM389.827 62.1499L398.936 4.27917H398.936L389.828 62.1499H389.827ZM168.315 86.5925H168.316L195.236 35.5513L195.235 35.5506L168.315 86.5925ZM175.894 82.3141L193.209 49.4834L199.979 82.3141H175.894Z" fill="black"/>
<path fill-rule="evenodd" clip-rule="evenodd" d="M39.1216 265.58L39.4249 266.657C41.7694 274.984 46.1148 282.321 52.453 288.604C58.7662 294.861 66.5284 299.658 75.6595 303.004L75.6841 303.013C84.9661 306.361 95.173 308 106.24 308C116.791 308 126.528 306.006 135.359 301.957C144.248 297.944 151.422 292.454 156.763 285.481C162.322 278.401 165.103 270.421 165.103 261.665C165.103 252.284 162.026 244.137 155.668 237.518C149.528 230.986 140.435 226.084 128.863 222.574L128.848 222.569L102.766 214.49C98.7998 213.263 96.281 211.784 94.7786 210.268C93.3603 208.837 92.6402 207.173 92.6402 205.052C92.6402 201.617 93.9841 199.175 96.6545 197.283C99.624 195.274 103.876 194.054 109.884 194.054C116.565 194.054 122.019 195.576 126.486 198.452L126.541 198.487L126.597 198.521C131.165 201.291 134.392 205.198 136.254 210.466L137.801 214.845L172.9 202.619L171.832 198.949C168.442 187.305 161.155 178.04 150.07 171.338C139.139 164.527 125.923 161.233 110.693 161.233C99.7642 161.233 89.7596 163.217 80.7797 167.269L80.7509 167.282C71.9811 171.305 64.8787 176.804 59.5451 183.776L59.5337 183.791C54.2463 190.766 51.6281 198.677 51.6281 207.388C51.6281 216.865 54.6357 225.144 60.8477 231.961C67.0092 238.724 76.0345 243.732 87.4803 247.204L114.234 255.302L114.27 255.313C118.467 256.518 120.845 257.884 122.058 259.105C123.257 260.311 123.888 261.743 123.888 263.642C123.888 266.777 122.505 269.344 119.264 271.593C115.974 273.875 111.56 275.179 105.633 275.179C98.6787 275.179 92.5278 273.422 87.0294 269.898C81.5356 266.258 77.5822 261.371 75.1802 255.079L73.5627 250.843L39.5933 262.585L39.1216 265.58ZM150.08 176.635C149.194 176.023 148.277 175.43 147.329 174.858C137.344 168.628 125.132 165.512 110.693 165.512C100.438 165.512 91.1944 167.369 82.9631 171.084C74.8667 174.798 68.3895 179.83 63.5317 186.181L63.5246 186.19L63.5317 186.181C68.3895 179.831 74.8666 174.799 82.963 171.084C91.1944 167.37 100.438 165.513 110.693 165.513C125.132 165.513 137.344 168.628 147.329 174.858C148.277 175.431 149.194 176.023 150.08 176.635ZM161.099 305.843L183.495 163.39H243.351C258.676 163.39 271.602 167.032 281.693 174.654C291.788 182.28 296.671 193.267 296.939 206.911C301.45 198.079 307.596 190.317 315.368 183.654C323.506 176.559 332.931 171.048 343.608 167.129L343.629 167.122C354.503 163.183 366.191 161.233 378.644 161.233C390.241 161.233 400.971 162.929 410.775 166.384C420.632 169.811 429.204 174.657 436.43 180.937C443.796 187.101 449.432 194.422 453.325 202.857C457.372 211.215 459.367 220.292 459.367 230.034C459.367 240.996 457.093 251.276 452.504 260.828L452.494 260.848C447.926 270.227 441.493 278.48 433.216 285.579C425.071 292.681 415.573 298.192 404.765 302.108C394.022 306.049 382.465 308 370.143 308C358.668 308 347.946 306.3 338.025 302.853L338.003 302.846C328.267 299.413 319.704 294.563 312.356 288.295L312.321 288.266C305.122 282.001 299.504 274.707 295.481 266.414L295.47 266.392C291.418 257.91 289.42 248.709 289.42 238.84C289.42 236.936 289.489 235.054 289.626 233.194C289.471 233.427 289.314 233.659 289.154 233.89L289.134 233.919C283.902 241.352 276.524 247.139 267.164 251.294L267.11 251.318C257.688 255.37 246.753 257.318 234.445 257.318H209.891L202.199 305.843H161.099ZM187.688 167.669L187.688 167.669H243.351C255.984 167.669 266.552 170.284 275.053 175.512C266.552 170.283 255.984 167.669 243.351 167.669H187.688ZM345.449 171.084C343.097 171.947 340.811 172.891 338.59 173.916C340.811 172.891 343.097 171.947 345.449 171.084C355.704 167.369 366.769 165.512 378.644 165.512C389.709 165.512 399.83 167.13 409.006 170.365C412.195 171.473 415.233 172.736 418.122 174.153C415.233 172.736 412.195 171.473 409.006 170.365C399.83 167.13 389.709 165.513 378.644 165.513C366.769 165.513 355.704 167.37 345.449 171.084ZM250.319 219.952C253.914 216.853 255.736 213.012 255.736 208.107C255.736 204.234 254.359 201.573 251.889 199.623L251.818 199.568L251.75 199.51C249.349 197.459 245.87 196.211 240.719 196.211H219.421L215.071 224.496H236.469C242.411 224.496 246.885 222.909 250.319 219.952ZM349.442 269.803C343.605 266.838 338.96 262.725 335.468 257.39C332.155 252.126 330.432 245.983 330.432 238.84C330.432 230.159 332.617 222.655 336.857 216.2C341.308 209.507 347.126 204.359 354.332 200.672L354.354 200.66C361.686 196.863 369.749 194.953 378.644 194.953C386.556 194.953 393.335 196.483 399.125 199.421L399.176 199.447L399.227 199.471C405.162 202.317 409.764 206.347 413.1 211.636L413.128 211.68L413.157 211.724C416.565 216.837 418.355 222.949 418.355 230.213C418.355 238.874 416.114 246.436 411.737 253.02L411.725 253.039C407.409 259.608 401.65 264.771 394.402 268.589C387.233 272.365 379.186 274.28 370.143 274.28C362.241 274.28 355.384 272.754 349.442 269.803ZM450.798 305.843L473.194 163.39H533.05C548.375 163.39 561.301 167.032 571.392 174.654C575.719 177.923 579.089 181.809 581.548 186.257L585.172 163.39H702.183L696.981 196.211H659.338L642.133 305.843H601.028L618.233 196.211H585.343C586.22 199.917 586.65 203.889 586.65 208.107C586.65 218.463 583.646 227.711 577.511 235.683L577.489 235.711C572.26 242.392 565.309 247.577 556.761 251.287L583.064 305.843H539.153L516.281 257.318H499.59L491.898 305.843H450.798ZM477.387 167.669L477.387 167.669H533.05C543.129 167.669 551.894 169.333 559.343 172.662C551.894 169.333 543.129 167.669 533.05 167.669H477.387ZM696.638 167.669H589.361V167.669H696.638V167.669ZM540.018 219.952C543.613 216.853 545.435 213.012 545.435 208.107C545.435 204.234 544.058 201.573 541.588 199.623L541.517 199.568L541.449 199.51C539.048 197.459 535.569 196.211 530.418 196.211H509.121L504.77 224.496H526.168C532.11 224.496 536.584 222.909 540.018 219.952Z" fill="black"/>
</svg>
