<svg width="37" height="36" viewBox="0 0 37 36" fill="none" xmlns="http://www.w3.org/2000/svg">
<rect width="37" height="36" fill="#045694"/>
<g clip-path="url(#clip0_286:2475)">
<path d="M6.5874 14.0069V22H9.12054V19.1154H10.8766L11.5589 17.3631H9.12054V15.7457H12.0926L12.7409 14.0069H6.5874ZM13.5112 14.0069L13.5046 22H16.0104V14.0069H13.5112ZM25.8255 19.3914L26.7915 16.0623L27.7912 19.3917H25.8255V19.3914ZM28.129 14.0071H25.5351L22.6572 22H25.0758L25.3862 20.9286H28.2031L28.5275 22H31.02L28.129 14.0069V14.0071ZM17.733 14.0069V22H20.2662V19.1154H22.0223L22.7112 17.3631H20.2662V15.7454H23.2383L23.8935 14.0069H17.733ZM30.4862 14.856H30.6621C30.6891 14.856 30.7159 14.856 30.7429 14.8491C30.77 14.8491 30.7903 14.8357 30.8107 14.8291C30.8296 14.8168 30.8457 14.8007 30.8577 14.7817C30.8724 14.7573 30.8795 14.7292 30.8781 14.7009C30.8796 14.6746 30.8725 14.6485 30.8577 14.6266C30.8444 14.6066 30.8307 14.5931 30.8107 14.5866C30.7905 14.5736 30.767 14.5665 30.7429 14.566C30.7159 14.566 30.6958 14.5594 30.6688 14.5594H30.4932V14.856H30.4862ZM30.2836 14.4046H30.6822C30.8107 14.4046 30.9118 14.4246 30.9729 14.4717C31.0403 14.5189 31.074 14.5997 31.074 14.7146C31.074 14.802 31.0537 14.8694 30.9996 14.9166C30.9525 14.9637 30.8848 14.9909 30.797 14.9974L31.0807 15.4626H30.8781L30.6011 15.0043H30.4862V15.4626H30.2836V14.4043V14.4046ZM30.6484 15.6914C30.7499 15.6914 30.8374 15.6711 30.9255 15.6374C31.0133 15.5971 31.0877 15.5497 31.1484 15.4826C31.2092 15.4151 31.2633 15.334 31.3037 15.2466C31.3374 15.1523 31.3577 15.0511 31.3577 14.9431C31.3577 14.8354 31.3374 14.7346 31.3037 14.64C31.263 14.5457 31.2159 14.4714 31.1484 14.404C31.0807 14.3366 31.0133 14.2829 30.9255 14.2491C30.8375 14.2138 30.7435 14.1955 30.6484 14.1951C30.547 14.1951 30.4595 14.2151 30.3714 14.2491C30.2836 14.2894 30.2095 14.3366 30.1487 14.404C30.0877 14.4714 30.0339 14.5526 29.9999 14.64C29.9645 14.7373 29.9462 14.8398 29.9458 14.9431C29.9458 15.0511 29.9662 15.1523 29.9999 15.2466C30.0406 15.3409 30.0877 15.4151 30.1484 15.4826C30.2162 15.5497 30.2906 15.6037 30.3714 15.6374C30.4528 15.6711 30.5473 15.6914 30.6484 15.6914ZM30.6484 15.8734C30.523 15.8729 30.399 15.8476 30.2836 15.7991C30.1716 15.7524 30.0705 15.6836 29.9865 15.5971C29.9021 15.5118 29.8356 15.4111 29.7906 15.3006C29.742 15.1851 29.7167 15.0615 29.7162 14.9366C29.7169 14.6905 29.8137 14.4541 29.9865 14.276C30.0724 14.1917 30.173 14.1234 30.2836 14.0743C30.3984 14.0203 30.5205 14 30.6484 14C30.7769 14 30.8984 14.02 31.0133 14.0743C31.1281 14.1214 31.2226 14.1886 31.3104 14.2763C31.3918 14.364 31.4659 14.4583 31.513 14.5729C31.5604 14.6874 31.5874 14.8089 31.5874 14.9369C31.5874 15.0649 31.5604 15.1863 31.513 15.3009C31.4664 15.4121 31.3975 15.513 31.3104 15.5974C31.2276 15.6854 31.1262 15.7543 31.0133 15.7994C30.8979 15.8479 30.7739 15.8732 30.6484 15.8737V15.8734Z" fill="white"/>
</g>
<defs>
<clipPath id="clip0_286:2475">
<rect width="26" height="15" fill="white" transform="translate(6.34863 10)"/>
</clipPath>
</defs>
</svg>
