<svg width="37" height="36" viewBox="0 0 37 36" fill="none" xmlns="http://www.w3.org/2000/svg">
<rect width="37" height="36" fill="#4285F4"/>
<rect width="37" height="36" fill="black" fill-opacity="0.2"/>
<rect width="37" height="36" fill="url(#paint0_radial_256:2432)"/>
<rect width="37" height="36" fill="url(#paint1_radial_256:2432)"/>
<path d="M18.9062 8.25391C16.2122 8.25391 15.8741 8.26567 14.816 8.31375C13.76 8.36203 13.0392 8.52897 12.4085 8.77391C11.7561 9.0269 11.2026 9.36531 10.6513 9.91607C10.0995 10.4666 9.76059 11.0192 9.50641 11.6705C9.26049 12.3005 9.09309 13.0204 9.04556 14.0745C8.99824 15.131 8.98584 15.4688 8.98584 18.1588C8.98584 20.8488 8.99783 21.1853 9.04577 22.2418C9.09433 23.2963 9.26152 24.0161 9.50661 24.6458C9.76018 25.2973 10.0991 25.8499 10.6507 26.4004C11.2018 26.9514 11.7552 27.2906 12.4072 27.5436C13.0384 27.7886 13.7594 27.9555 14.8152 28.0038C15.8733 28.0519 16.2112 28.0636 18.9049 28.0636C21.5991 28.0636 21.9362 28.0519 22.9942 28.0038C24.0502 27.9555 24.7719 27.7886 25.403 27.5436C26.0552 27.2906 26.6078 26.9514 27.159 26.4004C27.7107 25.8499 28.0497 25.2973 28.3038 24.646C28.5477 24.0161 28.7151 23.2961 28.7647 22.2421C28.8122 21.1855 28.8246 20.8488 28.8246 18.1588C28.8246 15.4688 28.8122 15.1312 28.7647 14.0747C28.7151 13.0202 28.5477 12.3005 28.3038 11.6707C28.0497 11.0192 27.7107 10.4666 27.159 9.91607C26.6072 9.36511 26.0554 9.02669 25.4024 8.77391C24.77 8.52897 24.0488 8.36203 22.9928 8.31375C21.9347 8.26567 21.5979 8.25391 18.9031 8.25391H18.9062ZM18.0163 10.0388C18.2804 10.0384 18.5751 10.0388 18.9062 10.0388C21.5547 10.0388 21.8686 10.0483 22.9145 10.0958C23.8816 10.14 24.4065 10.3013 24.7562 10.4369C25.2191 10.6164 25.5491 10.831 25.8961 11.1777C26.2433 11.5244 26.4582 11.8545 26.6384 12.3168C26.7742 12.6655 26.936 13.1896 26.98 14.1553C27.0275 15.1995 27.0379 15.5131 27.0379 18.1565C27.0379 20.7999 27.0275 21.1135 26.98 22.1577C26.9358 23.1234 26.7742 23.6475 26.6384 23.9962C26.4586 24.4585 26.2433 24.7876 25.8961 25.1341C25.5489 25.4807 25.2193 25.6953 24.7562 25.8749C24.4069 26.0111 23.8816 26.172 22.9145 26.2162C21.8688 26.2636 21.5547 26.274 18.9062 26.274C16.2574 26.274 15.9435 26.2636 14.8979 26.2162C13.9307 26.1716 13.4058 26.0102 13.0559 25.8747C12.593 25.6951 12.2624 25.4805 11.9152 25.1339C11.568 24.7872 11.3531 24.4579 11.1729 23.9954C11.0371 23.6467 10.8753 23.1226 10.8313 22.1568C10.7837 21.1127 10.7742 20.799 10.7742 18.154C10.7742 15.509 10.7837 15.197 10.8313 14.1529C10.8755 13.1871 11.0371 12.663 11.1729 12.3139C11.3527 11.8516 11.568 11.5215 11.9152 11.1748C12.2624 10.8281 12.593 10.6135 13.0559 10.4336C13.4056 10.2974 13.9307 10.1364 14.8979 10.0921C15.8129 10.0508 16.1676 10.0384 18.0163 10.0364V10.0388ZM24.2011 11.6835C23.5439 11.6835 23.0108 12.2152 23.0108 12.8716C23.0108 13.5278 23.5439 14.0602 24.2011 14.0602C24.8583 14.0602 25.3914 13.5278 25.3914 12.8716C25.3914 12.2154 24.8583 11.6831 24.2011 11.6831V11.6835ZM18.9062 13.0722C16.0929 13.0722 13.8121 15.3497 13.8121 18.1588C13.8121 20.9678 16.0929 23.2443 18.9062 23.2443C21.7194 23.2443 23.9994 20.9678 23.9994 18.1588C23.9994 15.3497 21.7192 13.0722 18.906 13.0722H18.9062ZM18.9062 14.8571C20.7322 14.8571 22.2127 16.3352 22.2127 18.1588C22.2127 19.9821 20.7322 21.4604 18.9062 21.4604C17.0799 21.4604 15.5997 19.9821 15.5997 18.1588C15.5997 16.3352 17.0799 14.8571 18.9062 14.8571Z" fill="white"/>
<defs>
<radialGradient id="paint0_radial_256:2432" cx="0" cy="0" r="1" gradientUnits="userSpaceOnUse" gradientTransform="translate(9.82817 44.1592) rotate(-90) scale(44.1592 42.2124)">
<stop stop-color="#FFDD55"/>
<stop offset="0.1" stop-color="#FFDD55"/>
<stop offset="0.5" stop-color="#FF543E"/>
<stop offset="1" stop-color="#C837AB"/>
</radialGradient>
<radialGradient id="paint1_radial_256:2432" cx="0" cy="0" r="1" gradientUnits="userSpaceOnUse" gradientTransform="translate(-6.1977 2.59338) rotate(78.3747) scale(15.9658 67.4934)">
<stop stop-color="#3771C8"/>
<stop offset="0.128" stop-color="#3771C8"/>
<stop offset="1" stop-color="#6600FF" stop-opacity="0"/>
</radialGradient>
</defs>
</svg>
