<svg width="46" height="44" viewBox="0 0 46 44" fill="none" xmlns="http://www.w3.org/2000/svg">
<rect x="0.325684" width="44.7608" height="43.6149" fill="#1883BB"/>
<g clip-path="url(#clip0_141_2100)">
<path d="M17.8391 30.9991V18.8566H13.8026V30.9991H17.8391ZM15.8213 17.1951C16.1106 17.2197 16.4018 17.1842 16.6767 17.0909C16.9515 16.9975 17.2041 16.8483 17.4186 16.6526C17.633 16.4569 17.8046 16.219 17.9226 15.9538C18.0406 15.6885 18.1025 15.4018 18.1044 15.1115C18.1062 14.8212 18.048 14.5337 17.9333 14.267C17.8187 14.0003 17.6501 13.7602 17.4382 13.5618C17.2263 13.3634 16.9756 13.211 16.7019 13.1141C16.4283 13.0173 16.1375 12.9781 15.848 12.9991C15.5596 12.9739 15.2691 13.0085 14.9946 13.1008C14.7202 13.193 14.4678 13.3409 14.2531 13.5352C14.0385 13.7295 13.8662 13.966 13.7472 14.2299C13.6281 14.4938 13.5648 14.7794 13.5612 15.0689C13.5576 15.3584 13.6138 15.6455 13.7262 15.9123C13.8387 16.1791 14.005 16.4198 14.2147 16.6194C14.4244 16.8189 14.6731 16.9731 14.9451 17.0721C15.2172 17.1712 15.5067 17.213 15.7957 17.1951H15.8219H15.8213ZM20.0733 30.9991H24.1098V24.2168C24.0942 23.8832 24.1392 23.5496 24.2426 23.232C24.3937 22.8026 24.6737 22.4302 25.0444 22.166C25.4152 21.9017 25.8584 21.7584 26.3137 21.7556C27.7744 21.7556 28.3586 22.8691 28.3586 24.5019V30.9991H32.3925V24.0343C32.3925 20.3038 30.4009 18.5685 27.7451 18.5685C27.0051 18.5388 26.2713 18.7141 25.6246 19.0752C24.9779 19.4362 24.4436 19.9689 24.0805 20.6144H24.1077V18.854H20.0738C20.1261 19.9936 20.0738 30.9985 20.0738 30.9985L20.0733 30.9991Z" fill="white"/>
</g>
<defs>
<clipPath id="clip0_141_2100">
<rect width="18.8305" height="18" fill="white" transform="translate(13.5649 13)"/>
</clipPath>
</defs>
</svg>
