<svg width="37" height="36" viewBox="0 0 37 36" fill="none" xmlns="http://www.w3.org/2000/svg">
<rect width="37" height="36" fill="black"/>
<g clip-path="url(#clip0_256:2441)">
<path fill-rule="evenodd" clip-rule="evenodd" d="M16.7532 24.598H15.0453V10.365H17.6882L19.4562 22.106C19.1921 19.3155 18.8464 14.81 18.8464 12.438V10.365H20.5538V24.598H18.1348L16.5085 13.195C16.6512 15.7465 16.7527 18.7965 16.7527 20.511V24.5975L16.7532 24.598ZM21.5295 24.598V10.365H23.9481C25.5539 10.365 26.5496 11.222 26.5496 13.2155V15.3085C26.5496 16.6045 26.1428 17.262 25.5738 17.601C26.1428 17.96 26.5496 18.5975 26.5496 19.694V21.767C26.5496 23.7205 25.4928 24.598 23.9481 24.598H21.5295ZM23.4806 12.159V16.8635H23.7242C24.4155 16.8635 24.5986 16.6045 24.5986 15.827V13.116C24.5986 12.458 24.3952 12.159 23.8058 12.159H23.4806ZM23.4806 18.4185V22.8035H23.8058C24.4155 22.8035 24.5986 22.465 24.5986 21.787V19.375C24.5986 18.6775 24.3742 18.4185 23.7242 18.4185H23.4806ZM30.2059 21.9265H28.9864L28.8233 24.598H26.8524L28.2748 10.365H31.0389L32.4215 24.598H30.3685L30.2054 21.9265H30.2059ZM29.0675 20.312H30.1044L29.9413 17.7005C29.8806 16.664 29.718 13.375 29.5962 11.6005H29.5146L29.2301 17.7005L29.0675 20.312ZM11.6628 10H8.0906C7.67181 10.0003 7.27025 10.1635 6.97412 10.454C6.67798 10.7444 6.5115 11.1383 6.51123 11.549V23.413C6.51136 23.824 6.67774 24.2181 6.97384 24.5089C7.26995 24.7997 7.67158 24.9633 8.0906 24.964H11.6603C12.0796 24.9635 12.4817 24.7999 12.7784 24.5092C13.0751 24.2185 13.2422 23.8243 13.2432 23.413V11.549C13.2425 11.1382 13.0758 10.7444 12.7795 10.4541C12.4832 10.1637 12.0816 10.0004 11.6628 10" fill="#FFFFFE"/>
<path fill-rule="evenodd" clip-rule="evenodd" d="M10.7765 12.7432L10.7801 12.7942C10.8892 12.8562 10.9443 12.9072 11.0544 12.9762C11.3455 13.1562 11.7044 13.4762 11.659 14.5777C11.7406 14.8177 11.7768 15.2897 11.8527 15.4412C12.0041 15.7362 12.1056 15.9282 12.15 16.2067C12.15 16.2067 12.1933 16.6402 12.2504 16.6717C12.5517 16.7387 12.4645 16.7677 12.5089 16.8182C12.5558 16.8777 12.7296 16.8747 12.7296 17.0337C12.7898 17.1127 12.8346 17.1952 12.8683 17.2807V11.5492C12.868 11.2356 12.7409 10.9348 12.5149 10.7128C12.2889 10.4909 11.9824 10.3659 11.6626 10.3652H10.5084C10.694 10.4302 10.799 10.5062 10.8596 10.6272C11.0085 10.6397 11.1859 10.9672 10.9096 11.4517C11.032 11.5317 10.9366 11.6507 10.8489 11.7892C10.8234 11.8337 10.7954 11.9127 10.7133 11.9072C10.6088 12.1237 10.4819 12.3332 10.3865 12.3462C10.3575 12.3812 10.3366 12.4742 10.3799 12.5182C10.5206 12.5797 10.6919 12.6647 10.7765 12.7432ZM12.8683 18.0572C12.7885 18.2538 12.6504 18.4223 12.4717 18.5409C12.2931 18.6595 12.0822 18.7227 11.8665 18.7222C11.7252 18.7223 11.5853 18.6951 11.4547 18.6421C11.3241 18.5891 11.2055 18.5114 11.1055 18.4134C11.0056 18.3154 10.9263 18.1991 10.8722 18.0711C10.8181 17.9431 10.7903 17.8058 10.7903 17.6672C10.7903 17.1697 11.139 16.7522 11.6126 16.6407C11.4887 16.3357 11.2267 15.8422 11.1487 15.6807C11.0753 15.5197 10.8979 14.5157 10.8596 14.3172C10.851 14.2737 10.3952 14.5767 10.3942 14.5952C10.3677 14.6202 10.0526 15.4282 10.0394 15.4717C10.0327 15.4992 10.0322 15.6067 10.0322 15.6067C10.0322 15.6067 10.1872 15.6257 10.2764 15.8912C10.3646 16.1562 10.6333 17.1227 10.6333 17.1227C10.6333 17.1227 10.5609 17.1967 10.5578 17.1927C10.8979 18.3087 10.7791 18.7892 10.9315 19.1167C11.1232 19.5777 11.1752 19.5172 11.3394 19.9052C11.4576 20.1877 11.5892 21.2992 11.633 21.3482C11.8165 21.5767 11.9154 21.7547 11.9154 21.8832C11.9154 22.0132 11.76 22.3957 11.8165 22.6187C11.8512 22.7502 11.8691 23.0437 11.9312 23.0997C11.9312 23.0997 11.9883 23.2102 11.9603 23.2597C11.9521 23.2762 11.9358 23.3017 11.9435 23.3222C12.0444 23.6722 12.3717 24.2702 11.842 24.5832H11.8532C12.1373 24.5399 12.396 24.3979 12.5823 24.1831C12.7686 23.9684 12.8701 23.6952 12.8683 23.4132V18.0572Z" fill="#B52532"/>
<path fill-rule="evenodd" clip-rule="evenodd" d="M11.5093 23.1853C11.3155 23.0153 11.445 22.9438 11.4369 22.8768C11.3094 22.3583 10.8893 22.0448 11.1065 21.8738C11.053 21.7028 10.9439 21.4878 10.948 21.4883C10.2939 21.1198 9.73667 20.5213 9.64236 20.4333C9.52765 20.3113 9.33189 20.1883 9.29569 20.0893C9.13816 19.9478 8.36734 18.8753 8.18789 18.4803L7.87487 18.4368C7.73212 17.8668 7.25699 17.3883 7.24526 16.8168C7.24118 16.6003 7.34518 16.1373 7.38393 16.0453C7.42216 15.9513 7.60416 15.7978 7.60416 15.7978V15.6448C6.92154 15.6638 7.11781 15.5953 7.00056 15.3348C6.91797 15.1548 6.97711 15.1148 7.00667 14.9898C7.09844 14.6213 7.40279 14.0523 7.5282 13.7938C7.56695 13.6633 7.69848 13.3488 7.69848 13.3488C8.20726 12.3328 8.39742 12.4073 9.00154 12.3498L9.03111 12.3078C9.63675 12.2818 9.53734 12.2373 9.62248 11.6653C9.53479 11.7023 9.50828 11.4858 9.50828 11.4858C9.46036 11.1608 9.60005 11.2223 9.66632 11.2158C9.68111 10.6808 9.73667 10.5118 10.1302 10.3643H8.09103C7.93234 10.3643 7.77521 10.3949 7.62861 10.4545C7.48202 10.5141 7.34884 10.6014 7.23668 10.7115C7.12451 10.8216 7.03557 10.9523 6.97494 11.0962C6.91431 11.24 6.88317 11.3941 6.8833 11.5498V23.4133C6.8833 24.0678 7.42369 24.5983 8.09154 24.5983H11.6627C11.2538 24.3813 11.4955 23.9688 11.5093 23.1858" fill="#253B73"/>
</g>
<defs>
<clipPath id="clip0_256:2441">
<rect width="26" height="15" fill="white" transform="translate(6.10938 10)"/>
</clipPath>
</defs>
</svg>
