<svg width="20" height="20" viewBox="0 0 20 20" fill="none" xmlns="http://www.w3.org/2000/svg">
<rect width="20" height="20" rx="10" fill="#4CC096"/>
<path fill-rule="evenodd" clip-rule="evenodd" d="M13.4325 6.56201C13.651 6.63851 13.797 6.84451 13.797 7.07601V10.4625C13.797 11.409 13.453 12.3125 12.8455 13.0125C12.54 13.365 12.1535 13.6395 11.743 13.8615L9.964 14.8225L8.182 13.861C7.771 13.639 7.384 13.365 7.078 13.012C6.47 12.312 6.125 11.408 6.125 10.4605V7.07601C6.125 6.84451 6.271 6.63851 6.4895 6.56201L9.7805 5.40551C9.8975 5.36451 10.025 5.36451 10.1415 5.40551L13.4325 6.56201Z" stroke="white" stroke-width="1.5" stroke-linecap="round" stroke-linejoin="round"/>
<path d="M8.66113 9.95904L9.60713 10.9055L11.5561 8.95654" stroke="white" stroke-width="1.5" stroke-linecap="round" stroke-linejoin="round"/>
</svg>
