<svg width="14" height="14" viewBox="0 0 14 14" fill="none" xmlns="http://www.w3.org/2000/svg">
<path fill-rule="evenodd" clip-rule="evenodd" d="M11.0049 2.98888C11.2598 3.07813 11.4302 3.31847 11.4302 3.58855V7.53947C11.4302 8.64372 11.0288 9.6978 10.3201 10.5145C9.96366 10.9257 9.51274 11.246 9.03383 11.505L6.95833 12.6261L4.87933 11.5044C4.39983 11.2454 3.94833 10.9257 3.59133 10.5139C2.88199 9.69722 2.47949 8.64255 2.47949 7.53714V3.58855C2.47949 3.31847 2.64983 3.07813 2.90474 2.98888L6.74424 1.63963C6.88074 1.5918 7.02949 1.5918 7.16541 1.63963L11.0049 2.98888Z" stroke="white" stroke-width="1.5" stroke-linecap="round" stroke-linejoin="round"/>
<path d="M5.43848 6.95205L6.54214 8.0563L8.81598 5.78247" stroke="white" stroke-width="1.5" stroke-linecap="round" stroke-linejoin="round"/>
</svg>
