<svg width="35" height="35" viewBox="0 0 35 35" fill="none" xmlns="http://www.w3.org/2000/svg">
<path d="M7.19313 7.19313C3.50713 10.8791 1.07913 15.8091 0.282134 20.7741L14.1041 34.5961C19.0691 33.7991 23.9991 31.3711 27.6851 27.6851C31.3711 23.9991 33.7991 19.0691 34.5961 14.1041L20.7741 0.282134C15.8091 1.07913 10.8791 3.50713 7.19313 7.19313ZM32.8081 2.07013C30.1461 0.591134 27.0731 -0.0508659 23.9111 0.00313406L34.8761 10.9671C34.9291 7.80513 34.2871 4.73213 32.8081 2.07013ZM2.07013 32.8081C4.73213 34.2871 7.80613 34.9291 10.9681 34.8751L0.00313406 23.9111C-0.0508659 27.0721 0.591134 30.1461 2.07013 32.8081Z" fill="#662113"/>
<path d="M22.2671 11.1961L19.8531 13.6101L19.1461 12.9031C18.7551 12.5121 18.1231 12.5121 17.7321 12.9031C17.3411 13.2941 17.3411 13.9271 17.7321 14.3171L18.4391 15.0251L15.0251 18.4391L14.3181 17.7321C13.9271 17.3411 13.2951 17.3411 12.9041 17.7321C12.5131 18.1231 12.5131 18.7551 12.9041 19.1461L13.6111 19.8531L11.1971 22.2671L10.4901 21.5601C10.0991 21.1691 9.46711 21.1691 9.07611 21.5601C8.68511 21.9511 8.68511 22.5841 9.07611 22.9741L9.78311 23.6811L8.78311 24.6811C8.39211 25.0731 8.39211 25.7051 8.78311 26.0961C9.17411 26.4871 9.80611 26.4871 10.1971 26.0961L11.1971 25.0961L11.9041 25.8031C12.2951 26.1941 12.9271 26.1941 13.3181 25.8031C13.7091 25.4111 13.7091 24.7791 13.3181 24.3891L12.6111 23.6821L15.0251 21.2681L15.7321 21.9751C16.1231 22.3671 16.7551 22.3671 17.1461 21.9751C17.5371 21.5841 17.5371 20.9511 17.1461 20.5611L16.4391 19.8531L19.8531 16.4391L20.5601 17.1461C20.9511 17.5371 21.5841 17.5371 21.9741 17.1461C22.3651 16.7551 22.3661 16.1231 21.9741 15.7321L21.2671 15.0251L23.6811 12.6111L24.3881 13.3181C24.7791 13.7091 25.4111 13.7081 25.8021 13.3181C26.1931 12.9271 26.1931 12.2951 25.8021 11.9041L25.0951 11.1971L26.0951 10.1971C26.4851 9.80614 26.4851 9.17414 26.0951 8.78314C25.7041 8.39214 25.0711 8.39214 24.6801 8.78314L23.6801 9.78314L22.9731 9.07614C22.5831 8.68514 21.9491 8.68514 21.5591 9.07614C21.1681 9.46614 21.1681 10.0991 21.5591 10.4901L22.2671 11.1961ZM0.00311279 23.9111L10.9681 34.8761C12.0081 34.8581 13.0561 34.7651 14.1041 34.5971L0.282113 20.7741C0.114113 21.8231 0.0211128 22.8701 0.00311279 23.9111ZM23.9111 0.00314331C22.8711 0.0211433 21.8231 0.114143 20.7751 0.282143L34.5971 14.1041C34.7651 13.0551 34.8581 12.0081 34.8761 10.9681L23.9111 0.00314331Z" fill="#E1E8ED"/>
</svg>
