<svg width="37" height="36" viewBox="0 0 37 36" fill="none" xmlns="http://www.w3.org/2000/svg">
<path d="M30.9263 28.9214C31.3083 29.3034 31.3083 29.9234 30.9263 30.3064C30.5433 30.6884 29.9233 30.6884 29.5413 30.3064L16.0413 16.8054C15.6593 16.4234 15.6593 15.8034 16.0413 15.4214C16.4233 15.0394 17.0423 15.0394 17.4253 15.4214L30.9263 28.9214Z" fill="#55ACEE"/>
<path d="M36.1024 33.3603C36.6884 33.9463 36.6884 34.8963 36.1024 35.4813C35.5174 36.0673 34.5674 36.0673 33.9814 35.4813L28.3254 29.8253C27.7394 29.2393 27.7394 28.2893 28.3254 27.7043C28.9104 27.1183 29.8604 27.1183 30.4464 27.7043L36.1024 33.3603Z" fill="#292F33"/>
<path d="M2.98828 5.12135L3.69528 4.41435L15.7193 16.4314L15.0123 17.1383L2.98828 5.12135ZM4.40528 2.29135L5.11228 1.58435L17.8403 14.3124L17.1323 15.0194L4.40528 2.29135Z" fill="#99AAB5"/>
<path d="M1.57629 9.36235L10.0613 0.87735L10.7683 1.58435L2.28329 10.0693L1.57629 9.36235ZM2.28329 12.8973L12.8913 2.29135L13.5983 2.99835L2.99029 13.6053L2.28329 12.8973ZM4.40529 15.0193L15.7183 3.70635L16.4253 4.41335L5.11229 15.7263L4.40529 15.0193ZM7.23329 16.4344L17.1323 6.53435L17.8393 7.24135L7.93929 17.1413L7.23329 16.4344ZM10.0613 17.8474L18.5463 9.36235L19.2533 10.0693L10.7683 18.5554L10.0613 17.8474Z" fill="#99AAB5"/>
<path d="M1.57629 7.94835L2.28329 7.24135L12.8913 17.8474L12.1843 18.5543L1.57629 7.94835ZM7.94129 1.58435L8.64729 0.87735L19.2543 11.4833L18.5473 12.1913L7.94129 1.58435Z" fill="#99AAB5"/>
<path d="M3.00932 2.38935C-0.461682 5.86135 -0.109682 11.8413 3.79532 15.7463C7.70132 19.6523 13.6803 20.0033 17.1513 16.5323C20.6233 13.0603 20.2723 7.08235 16.3653 3.17635C12.4603 -0.729653 6.48132 -1.08165 3.00932 2.38935ZM15.8553 15.2353C13.1223 17.9683 8.32032 17.5993 5.13032 14.4103C1.94132 11.2213 1.57332 6.42035 4.30632 3.68635C7.04032 0.952347 11.8413 1.32235 15.0303 4.51135C18.2193 7.70035 18.5893 12.5023 15.8553 15.2353Z" fill="#55ACEE"/>
<path d="M17.8393 14.3124C18.2303 14.7034 18.2293 15.3364 17.8393 15.7264L16.4243 17.1414C16.0343 17.5314 15.4013 17.5324 15.0103 17.1414C14.6193 16.7504 14.6193 16.1174 15.0103 15.7264L16.4243 14.3124C16.8153 13.9214 17.4483 13.9214 17.8393 14.3124Z" fill="#226699"/>
<path d="M18.5463 16.4334C18.9373 16.8244 18.9373 17.4574 18.5463 17.8484C18.1553 18.2394 17.5223 18.2394 17.1323 17.8484L16.4253 17.1414C16.0343 16.7504 16.0353 16.1174 16.4253 15.7264C16.8163 15.3354 17.4483 15.3354 17.8403 15.7264L18.5463 16.4334Z" fill="#226699"/>
<path d="M30.1013 27.3613C30.6873 27.9463 29.9793 28.1893 29.3943 28.7753C28.8083 29.3603 28.5653 30.0673 27.9803 29.4823C27.3943 28.8963 27.3943 27.9463 27.9803 27.3613C28.5653 26.7753 29.5163 26.7753 30.1013 27.3613Z" fill="#226699"/>
<path d="M22.3514 3.10336C21.5704 3.88436 21.5704 5.15036 22.3514 5.93136L23.0584 6.63836L23.7654 5.93136L25.1794 4.51736L25.8884 3.81036L25.1794 3.10336C24.4004 2.32236 23.1334 2.32236 22.3514 3.10336Z" fill="#BE1931"/>
<path d="M23.0613 6.63736L25.8913 3.80936L26.5983 4.51636L23.7683 7.34536L23.0613 6.63736Z" fill="#99AAB5"/>
<path d="M23.7664 7.34533L26.5964 4.51733C28.0694 5.00533 35.7214 9.58633 35.4574 9.85133C34.6994 10.6103 33.5454 10.0523 33.5454 10.0523C33.5454 10.0523 34.3894 10.8583 33.6624 11.5843C32.9354 12.3103 32.1314 11.4663 32.1314 11.4663C32.1314 11.4663 33.1004 12.2073 32.2804 13.0303C31.4544 13.8563 30.7184 12.8813 30.7184 12.8813C30.7184 12.8813 31.4474 13.8623 30.8164 14.4943C30.1834 15.1253 29.3024 14.2953 29.3024 14.2953C29.3024 14.2953 29.7204 15.2933 28.9604 16.0513C28.5984 16.4153 24.3514 8.72133 23.7664 7.34533Z" fill="#E1E8ED"/>
<path d="M26.9553 7.74436C27.5333 7.06136 32.3873 11.4714 31.5353 12.3234C30.6823 13.1744 26.2603 8.56436 26.9553 7.74436ZM28.6603 15.1924C29.3403 14.7494 25.5883 9.37636 25.1253 9.76536C25.0943 9.79136 25.0803 9.83736 25.0723 9.89136C25.9553 11.5174 27.0783 13.4854 27.8963 14.7584C28.2323 15.1004 28.5123 15.2884 28.6603 15.1924ZM28.9323 5.95936C28.5413 6.42136 33.9163 10.1734 34.3593 9.49436C34.4743 9.31636 34.1893 8.95336 33.7033 8.52436C32.4883 7.74236 30.8473 6.75736 29.4183 5.95336C29.1783 5.88836 29.0003 5.87936 28.9323 5.95936ZM25.9433 8.81836C26.3693 8.38936 30.5843 13.4074 29.9453 13.9114C29.3073 14.4114 25.4303 9.33536 25.9433 8.81836ZM27.9843 6.77736C27.5563 7.20336 32.5743 11.4174 33.0763 10.7794C33.5783 10.1404 28.5023 6.26336 27.9843 6.77736Z" fill="#CCD6DD"/>
</svg>
