<svg width="29" height="36" viewBox="0 0 29 36" fill="none" xmlns="http://www.w3.org/2000/svg">
<path d="M16.0192 0C25.6322 0 28.2622 1.697 28.2622 11.311C28.2622 16.817 27.0952 19.799 27.0952 24.799C27.0952 27.757 22.5442 27.799 18.4362 27.799C14.2182 27.799 9.29421 27.998 7.09521 25.799C1.09521 19.799 -3.44979 9.35 5.09521 6.799C5.55021 0.288 6.40521 0 16.0192 0Z" fill="#BE1931"/>
<path d="M23.1573 25.674C25.3863 25.674 27.4213 26.532 27.4213 28.577V32.096C27.4213 34.141 25.3863 35.674 23.1573 35.674H11.4213V25.674H23.1573Z" fill="#99AAB5"/>
<path d="M18.7623 25.674C21.2163 25.674 23.4213 26.532 23.4213 28.577V32.096C23.4213 34.141 21.2163 35.674 18.7623 35.674H11.4293C8.97427 35.674 7.42126 34.141 7.42126 32.096V28.577C7.42126 26.532 8.97427 25.674 11.4293 25.674H18.7623Z" fill="#CCD6DD"/>
<path d="M0.713257 10.622C1.42826 10.047 2.57526 9.19799 3.09626 11.8C4.09626 16.8 6.89026 21.184 6.09626 18.8C5.09626 15.8 5.09626 6.79999 5.09626 6.79999C2.65926 7.52699 1.29026 8.89699 0.713257 10.622Z" fill="#A0041E"/>
<path d="M18.0953 27.674C19.2003 27.674 20.4213 28.212 20.4213 29.133V32.466C20.4213 33.386 19.2003 33.674 18.0953 33.674H13.0953C11.9913 33.674 11.4213 33.386 11.4213 32.466V29.133C11.4213 28.212 11.9913 27.674 13.0953 27.674H18.0953Z" fill="#E1E8ED"/>
</svg>
