<svg width="37" height="36" viewBox="0 0 37 36" fill="none" xmlns="http://www.w3.org/2000/svg">
<path d="M36.1666 26.4285C36.1666 26.4285 37.4946 28.6425 33.5086 32.6295C29.5216 36.6155 27.3076 35.2875 27.3076 35.2875L7.8136 15.7955C7.8136 15.7955 8.7906 13.0475 11.3576 10.4795C13.9256 7.91249 16.6736 6.93549 16.6736 6.93549L36.1666 26.4285Z" fill="#D99E82"/>
<path d="M14.0167 9.5935C14.9957 10.5725 18.5387 15.7025 17.5606 16.6815C16.5816 17.6595 11.4517 14.1165 10.4727 13.1375L1.61265 4.2775C0.63465 3.2985 0.63465 1.7125 1.61265 0.7335C2.59165 -0.2445 4.17765 -0.2445 5.15665 0.7335L14.0167 9.5935Z" fill="#C1694F"/>
<path d="M1.61169 4.27749L5.15669 0.73349L10.4727 6.04949L6.92869 9.59349L1.61169 4.27749Z" fill="#292F33"/>
<path d="M19.6287 35.7495C22.3901 35.7495 24.6287 33.5109 24.6287 30.7495C24.6287 27.9881 22.3901 25.7495 19.6287 25.7495C16.8672 25.7495 14.6287 27.9881 14.6287 30.7495C14.6287 33.5109 16.8672 35.7495 19.6287 35.7495Z" fill="#BE1931"/>
<path d="M19.6287 35.7495C19.0767 35.7495 18.6287 35.3025 18.6287 34.7495V26.7495C18.6287 26.1965 19.0767 25.7495 19.6287 25.7495C20.1817 25.7495 20.6287 26.1965 20.6287 26.7495V34.7495C20.6287 35.3025 20.1817 35.7495 19.6287 35.7495Z" fill="#662113"/>
</svg>
