<svg width="36" height="36" viewBox="0 0 36 36" fill="none" xmlns="http://www.w3.org/2000/svg">
<path d="M18 36C27.9411 36 36 27.9411 36 18C36 8.05887 27.9411 0 18 0C8.05887 0 0 8.05887 0 18C0 27.9411 8.05887 36 18 36Z" fill="#F5F8FA"/>
<path d="M18 11C17.448 11 17 10.552 17 9.99999V2.99999C17 2.44799 17.448 1.99999 18 1.99999C18.552 1.99999 19 2.44799 19 2.99999V9.99999C19 10.552 18.552 11 18 11ZM11.417 15.5C11.317 15.5 11.215 15.485 11.115 15.453L3.07399 12.911C2.54699 12.744 2.25499 12.183 2.42199 11.656C2.58799 11.129 3.15199 10.838 3.67699 11.004L11.719 13.546C12.246 13.713 12.538 14.275 12.371 14.801C12.235 15.227 11.841 15.5 11.417 15.5ZM25.042 15.209C24.608 15.209 24.209 14.924 24.082 14.487C23.928 13.956 24.233 13.402 24.764 13.248L31.514 11.29C32.045 11.137 32.599 11.443 32.752 11.972C32.906 12.503 32.601 13.057 32.07 13.211L25.32 15.169C25.228 15.196 25.134 15.209 25.042 15.209ZM27.043 30.167C26.737 30.167 26.437 30.027 26.24 29.764L20.781 22.431C20.451 21.989 20.543 21.362 20.986 21.032C21.428 20.701 22.055 20.794 22.385 21.237L27.844 28.57C28.174 29.012 28.082 29.639 27.639 29.969C27.46 30.103 27.25 30.167 27.043 30.167ZM8.74899 30.084C8.55199 30.084 8.35399 30.026 8.17899 29.905C7.72499 29.589 7.61399 28.967 7.92899 28.513L13.054 21.138C13.369 20.684 13.992 20.572 14.446 20.887C14.9 21.202 15.011 21.826 14.696 22.279L9.57099 29.654C9.37699 29.935 9.06499 30.084 8.74899 30.084ZM3.49999 27.062C3.05999 27.062 2.65599 26.769 2.53499 26.324L0.346994 18.262C0.201994 17.729 0.516994 17.18 1.05099 17.035C1.58599 16.894 2.13399 17.206 2.27799 17.739L4.46599 25.801C4.61099 26.334 4.29599 26.883 3.76199 27.027C3.67399 27.052 3.58599 27.062 3.49999 27.062ZM22 34H13C12.448 34 12 33.553 12 33C12 32.447 12.448 32 13 32H22C22.553 32 23 32.447 23 33C23 33.553 22.553 34 22 34ZM32.126 27.125C32.047 27.125 31.966 27.116 31.886 27.096C31.35 26.964 31.022 26.422 31.155 25.886L33.28 17.261C33.413 16.725 33.959 16.399 34.49 16.529C35.026 16.661 35.354 17.203 35.221 17.74L33.096 26.365C32.983 26.82 32.575 27.125 32.126 27.125ZM30.312 7.68799C30.142 7.68799 29.97 7.64499 29.812 7.55399L22.25 3.17899C21.772 2.90199 21.608 2.29099 21.886 1.81199C22.161 1.33399 22.772 1.16899 23.252 1.44699L30.814 5.82199C31.292 6.09899 31.456 6.70999 31.178 7.18899C30.993 7.50899 30.657 7.68799 30.312 7.68799ZM5.50099 7.68799C5.18899 7.68799 4.88299 7.54299 4.68799 7.27099C4.36599 6.82099 4.46799 6.19699 4.91699 5.87499L11.105 1.43699C11.554 1.11499 12.179 1.21799 12.501 1.66599C12.823 2.11499 12.72 2.73999 12.272 3.06199L6.08299 7.49999C5.90599 7.62599 5.70299 7.68799 5.50099 7.68799Z" fill="#CCD6DD"/>
<path d="M25.493 13.516L18.285 8.433C17.937 8.188 17.471 8.19 17.124 8.439L9.957 13.606C9.614 13.854 9.463 14.29 9.582 14.697L12.082 23.28C12.206 23.706 12.597 24 13.042 24H22C22.43 24 22.81 23.726 22.948 23.319L25.865 14.652C26.006 14.233 25.854 13.771 25.493 13.516ZM1.292 19.542C1.35 19.542 1.409 19.537 1.467 19.526C1.761 19.474 2.017 19.293 2.164 19.032L5.539 13.032C5.59 12.941 5.626 12.844 5.647 12.741L6.98 6.2C7.04 5.906 6.964 5.6 6.774 5.368C6.584 5.135 6.3 5 6 5H5.572C2.145 8.277 0 12.884 0 18C0 18.266 0.028 18.525 0.04 18.788L0.642 19.302C0.824 19.458 1.055 19.542 1.292 19.542ZM10.617 2.995C10.723 3.214 10.93 3.368 11.17 3.407L17.545 4.449C17.585 4.455 17.626 4.459 17.666 4.459C17.706 4.459 17.747 4.456 17.788 4.449L23.872 3.449C24.072 3.416 24.252 3.303 24.367 3.135C24.483 2.967 24.525 2.76 24.485 2.56L24.193 1.117C22.26 0.407 20.18 0 18 0C15.575 0 13.266 0.486 11.155 1.356L10.634 2.306C10.517 2.519 10.511 2.776 10.617 2.995ZM31.134 5.719L29.63 5.624C29.402 5.611 29.175 5.7 29.021 5.873C28.869 6.046 28.803 6.275 28.846 6.503L30.013 12.701C30.03 12.787 30.061 12.849 30.106 12.925C31.598 15.429 33.258 18.226 33.487 18.707C33.511 18.791 33.549 18.786 33.601 18.858C33.741 19.053 33.973 19 34.213 19H34.22C34.418 19 34.543 19.094 35.988 18.247C35.989 18.164 36 18.083 36 18C36 13.247 34.144 8.936 31.134 5.719ZM14.541 33.376C14.552 33.177 14.483 32.981 14.35 32.832L9.85 27.832C9.79 27.766 9.719 27.71 9.639 27.669C3.754 24.6 3.645 24.564 3.573 24.539C3.495 24.514 3.412 24.5 3.331 24.5C2.794 24.5 2.636 24.565 2.146 26.524C4.382 30.673 8.199 33.84 12.79 35.227L14.29 33.894C14.439 33.762 14.529 33.575 14.541 33.376ZM32.374 24.809C32.185 24.729 31.969 24.731 31.782 24.814L25.699 27.481C25.593 27.527 25.499 27.597 25.425 27.686L21.175 32.769C21.046 32.923 20.985 33.121 21.003 33.321C21.023 33.521 21.12 33.705 21.275 33.831C21.958 34.39 22.536 34.861 23.042 35.271C27.479 33.977 31.196 31.023 33.496 27.125L32.784 25.236C32.712 25.043 32.563 24.889 32.374 24.809Z" fill="#31373D"/>
</svg>
