<svg width="37" height="26" viewBox="0 0 37 26" fill="none" xmlns="http://www.w3.org/2000/svg">
<path d="M2.92463 7.80501L2.92063 7.80301C2.92063 7.80301 0.869629 20.22 0.869629 22.01C0.869629 23.834 2.21263 25.312 3.86963 25.312C4.54963 25.312 5.16963 25.054 5.67263 24.634L15.8386 15.696L2.92463 7.80501ZM34.6146 7.80501L34.6186 7.80301C34.6186 7.80301 36.6696 20.22 36.6696 22.01C36.6696 23.834 35.3266 25.312 33.6696 25.312C32.9896 25.312 32.3696 25.054 31.8666 24.634L21.7006 15.696L34.6146 7.80501Z" fill="#31373D"/>
<path d="M26.7697 17C31.4641 17 35.2697 13.1944 35.2697 8.5C35.2697 3.80558 31.4641 0 26.7697 0C22.0752 0 18.2697 3.80558 18.2697 8.5C18.2697 13.1944 22.0752 17 26.7697 17Z" fill="#14171A"/>
<path d="M10.7697 17C15.4641 17 19.2697 13.1944 19.2697 8.5C19.2697 3.80558 15.4641 0 10.7697 0C6.07523 0 2.26965 3.80558 2.26965 8.5C2.26965 13.1944 6.07523 17 10.7697 17Z" fill="#14171A"/>
<path d="M10.7697 0H26.7697V16.87H10.7697V0Z" fill="#14171A"/>
<path d="M13.8696 21.25C16.6311 21.25 18.8696 19.0114 18.8696 16.25C18.8696 13.4886 16.6311 11.25 13.8696 11.25C11.1082 11.25 8.86963 13.4886 8.86963 16.25C8.86963 19.0114 11.1082 21.25 13.8696 21.25Z" fill="#14171A"/>
<path d="M23.6697 21.25C26.4311 21.25 28.6697 19.0114 28.6697 16.25C28.6697 13.4886 26.4311 11.25 23.6697 11.25C20.9083 11.25 18.6697 13.4886 18.6697 16.25C18.6697 19.0114 20.9083 21.25 23.6697 21.25Z" fill="#14171A"/>
<path d="M23.6697 19.25C25.3265 19.25 26.6697 17.9069 26.6697 16.25C26.6697 14.5931 25.3265 13.25 23.6697 13.25C22.0128 13.25 20.6697 14.5931 20.6697 16.25C20.6697 17.9069 22.0128 19.25 23.6697 19.25Z" fill="#67757F"/>
<path d="M13.8696 19.25C15.5265 19.25 16.8696 17.9069 16.8696 16.25C16.8696 14.5931 15.5265 13.25 13.8696 13.25C12.2128 13.25 10.8696 14.5931 10.8696 16.25C10.8696 17.9069 12.2128 19.25 13.8696 19.25Z" fill="#67757F"/>
<path d="M26.5296 5.685C27.4149 5.685 28.1326 4.96732 28.1326 4.082C28.1326 3.19669 27.4149 2.479 26.5296 2.479C25.6443 2.479 24.9266 3.19669 24.9266 4.082C24.9266 4.96732 25.6443 5.685 26.5296 5.685Z" fill="#FFCC4D"/>
<path d="M26.5296 12.159C27.4149 12.159 28.1326 11.4413 28.1326 10.556C28.1326 9.67069 27.4149 8.953 26.5296 8.953C25.6443 8.953 24.9266 9.67069 24.9266 10.556C24.9266 11.4413 25.6443 12.159 26.5296 12.159Z" fill="#77B255"/>
<path d="M23.2926 8.922C24.1779 8.922 24.8956 8.20432 24.8956 7.319C24.8956 6.43369 24.1779 5.716 23.2926 5.716C22.4073 5.716 21.6896 6.43369 21.6896 7.319C21.6896 8.20432 22.4073 8.922 23.2926 8.922Z" fill="#50A5E6"/>
<path d="M29.7666 8.922C30.6519 8.922 31.3696 8.20432 31.3696 7.319C31.3696 6.43369 30.6519 5.716 29.7666 5.716C28.8813 5.716 28.1636 6.43369 28.1636 7.319C28.1636 8.20432 28.8813 8.922 29.7666 8.922Z" fill="#DD2E44"/>
<path d="M11.9427 5.46301V3.29501C11.9427 3.01601 11.7167 2.79001 11.4377 2.79001H9.87968C9.60068 2.79001 9.37468 3.01601 9.37468 3.29501V5.46301L10.6587 6.74801L11.9427 5.46301ZM9.37368 9.09301V11.261C9.37368 11.54 9.59968 11.766 9.87868 11.766H11.4367C11.7157 11.766 11.9417 11.54 11.9417 11.261V9.09301L10.6577 7.80801L9.37368 9.09301ZM14.6427 5.99301H12.4747L11.1897 7.27801L12.4747 8.56301H14.6427C14.9217 8.56301 15.1477 8.33601 15.1477 8.05801V6.49901C15.1477 6.22001 14.9217 5.99301 14.6427 5.99301ZM8.84368 5.99301H6.67468C6.39568 5.99301 6.16968 6.22001 6.16968 6.49801V8.05601C6.16968 8.33501 6.39568 8.56101 6.67468 8.56101H8.84268L10.1277 7.27601L8.84368 5.99301Z" fill="#8899A6"/>
</svg>
