<svg width="37" height="36" viewBox="0 0 37 36" fill="none" xmlns="http://www.w3.org/2000/svg">
<path d="M4.47668 35.8742H32.4767C34.4767 35.8742 36.2077 33.8742 36.2077 31.8742C36.2077 27.5192 31.5737 20.8742 18.4767 20.8742C4.98468 20.8742 0.669678 27.3332 0.669678 31.8742C0.669678 33.8742 2.47668 35.8742 4.47668 35.8742Z" fill="#77B255"/>
<path d="M11.7687 29.3742C11.7687 29.3742 12.7267 30.0412 13.7267 30.0412C15.9347 25.1662 26.7267 22.5412 27.7267 22.5412C27.8767 22.5412 28.0567 22.5232 28.2387 22.4942C27.5227 22.2142 26.7367 21.9732 25.9087 21.7572C21.2827 21.8202 12.8777 25.6742 11.7687 29.3742Z" fill="#5C913B"/>
<path d="M12.9767 32.8742C16.5665 32.8742 19.4767 31.7549 19.4767 30.3742C19.4767 28.9935 16.5665 27.8742 12.9767 27.8742C9.38683 27.8742 6.47668 28.9935 6.47668 30.3742C6.47668 31.7549 9.38683 32.8742 12.9767 32.8742Z" fill="#292F33"/>
<path d="M10.4767 3.87424V29.8742C10.4767 30.4272 10.9247 30.7182 11.4767 30.7182C12.0287 30.7182 12.4767 30.4272 12.4767 29.8742V3.87424H10.4767Z" fill="#FFAC33"/>
<path d="M10.4767 2.87424C10.4767 0.674244 12.1717 -0.520756 14.2437 0.219244L23.7097 3.60024C25.7807 4.34024 25.7807 5.55124 23.7097 6.29024L14.2437 9.67124C12.1717 10.4122 10.4767 9.21724 10.4767 7.01724V2.87424Z" fill="#DD2E44"/>
</svg>
