<svg width="36" height="36" viewBox="0 0 36 36" fill="none" xmlns="http://www.w3.org/2000/svg">
<path d="M3.61987 21C6.02887 21 5.61987 23 5.61987 24C5.61987 25 5.61987 27 7.61987 27C9.61987 27 11.0839 24.535 14.6199 21L35.6199 0V7C35.6199 7 22.1199 21.5 17.6199 26C13.1199 30.5 10.6199 33 7.61987 33C4.10687 33 0.619873 30.395 0.619873 26C0.619873 22 2.61987 21 3.61987 21Z" fill="#C1694F"/>
<path d="M26.1199 36C29.7097 36 32.6199 33.0899 32.6199 29.5C32.6199 25.9101 29.7097 23 26.1199 23C22.53 23 19.6199 25.9101 19.6199 29.5C19.6199 33.0899 22.53 36 26.1199 36Z" fill="#DD2E44"/>
<path d="M24.6299 18.712C29.8739 13.171 35.6199 7 35.6199 7V0L24.6299 10.99V18.712ZM21.6199 21.878L22.6199 20.829V13L21.6199 14V21.878Z" fill="#FFAC33"/>
</svg>
