<svg width="37" height="31" viewBox="0 0 37 31" fill="none" xmlns="http://www.w3.org/2000/svg">
<path d="M36.6199 0C35.6199 1.295 33.5929 3.803 32.2289 5.671C28.4129 10.896 25.0729 12.125 21.9009 13.303C18.7289 14.481 11.4939 14.332 8.02086 14.157C4.54786 13.982 2.28586 13.578 1.60086 14.572C-0.50114 17.625 0.98886 21.053 4.02686 21.521C6.40486 21.887 13.5709 21.201 16.9259 20.905C20.2819 20.608 23.9499 19.604 25.2089 19.12C26.4679 18.637 27.4879 18.24 27.8059 17.476C28.1239 16.711 29.6819 14.659 31.5889 11.559C32.6649 9.811 35.6199 6.55 36.6199 5V0Z" fill="#F4900C"/>
<path d="M7.61987 21.591C10.6199 21.477 14.6749 21.104 16.9289 20.905C19.2179 20.703 21.6329 20.173 23.3479 19.702L22.9239 12.918C22.5799 13.05 22.2379 13.177 21.8999 13.303C18.7279 14.481 11.4949 14.332 8.02287 14.157C7.88187 14.149 7.61987 14.14 7.61987 14.132V21.591ZM17.6199 25V29C17.6199 30.104 20.7549 31 24.6199 31C28.4859 31 31.6199 30.104 31.6199 29V25H17.6199Z" fill="#31373D"/>
<path d="M24.6158 27C28.4818 27 31.6158 26.1046 31.6158 25C31.6158 23.8954 28.4818 23 24.6158 23C20.7499 23 17.6158 23.8954 17.6158 25C17.6158 26.1046 20.7499 27 24.6158 27Z" fill="#66757F"/>
</svg>
