<svg width="36" height="31" viewBox="0 0 36 31" fill="none" xmlns="http://www.w3.org/2000/svg">
<path d="M25.6875 27.6063C27.6875 29.6063 14.6875 29.6063 16.6875 27.6063C19.6875 27.6063 19.6875 24.6063 19.6875 24.6063H22.6875C22.6875 24.6063 22.6875 27.6063 25.6875 27.6063ZM11.6875 27.6063C13.6875 29.6063 0.687458 29.6063 2.68746 27.6063C5.68746 27.6063 5.68746 24.6063 5.68746 24.6063H8.68746C8.68746 24.6063 8.68746 27.6063 11.6875 27.6063Z" fill="#99AAB5"/>
<path d="M29.6875 30.6063H1.68752C0.583517 30.6063 -0.416483 27.6063 0.687517 27.6063H28.6875C31.6875 27.6063 31.6875 24.6063 32.6875 23.6063C37.6875 26.6063 34.6875 30.6063 29.6875 30.6063Z" fill="#99AAB5"/>
<path d="M0.6875 22.6063C0.6875 13.6063 2.6875 8.60633 2.6875 1.60633C2.6875 -0.672673 15.6875 -0.393673 15.6875 1.60633C15.6875 3.60633 14.1875 11.6063 20.6875 14.6063C26.9555 17.4993 35.6875 16.6063 35.6875 22.6063H0.6875Z" fill="#E6E7E8"/>
<path d="M35.6875 22.6063C11.6875 22.6063 16.6865 21.6063 10.6875 21.6063H0.6875V22.6063C0.6875 23.7103 1.5835 24.6063 2.6875 24.6063H10.6875C13.0205 24.6063 11.0855 22.5653 13.6875 23.6063C18.6875 25.6063 33.6875 24.6063 33.6875 24.6063C34.7915 24.6063 35.6875 23.7103 35.6875 22.6063Z" fill="#E6E7E8"/>
<path d="M15.9995 15.3563C15.7495 15.3563 15.4995 15.2633 15.3055 15.0763C14.9075 14.6933 14.8965 14.0593 15.2805 13.6623L16.9685 11.9123C17.3525 11.5163 17.9855 11.5043 18.3825 11.8873C18.7805 12.2703 18.7915 12.9033 18.4075 13.3013L16.7195 15.0513C16.5235 15.2533 16.2615 15.3563 15.9995 15.3563ZM19.6865 17.6063C19.5365 17.6063 19.3835 17.5723 19.2405 17.5013C18.7465 17.2543 18.5465 16.6533 18.7935 16.1593L19.7935 14.1593C20.0415 13.6653 20.6415 13.4673 21.1355 13.7123C21.6295 13.9593 21.8295 14.5603 21.5825 15.0543L20.5825 17.0543C20.4065 17.4043 20.0535 17.6063 19.6865 17.6063ZM23.6885 18.6063C23.6415 18.6063 23.5935 18.6033 23.5455 18.5963C22.9985 18.5173 22.6185 18.0113 22.6965 17.4643L22.9055 16.0063C22.9845 15.4593 23.4925 15.0833 24.0375 15.1573C24.5845 15.2363 24.9645 15.7423 24.8865 16.2893L24.6775 17.7473C24.6055 18.2473 24.1775 18.6063 23.6885 18.6063Z" fill="#DD2E44"/>
</svg>
