<svg width="35" height="36" viewBox="0 0 35 36" fill="none" xmlns="http://www.w3.org/2000/svg">
<path d="M33.4778 5.922C31.4778 2.922 24.4778 1.922 17.4778 1.922C10.4778 1.922 2.47776 2.922 1.47776 4.922C-0.429236 8.736 0.477764 24.922 0.477764 25.922C0.477764 26.922 5.47776 26.922 5.47776 26.922V13.922L6.47776 11.922V34.922C6.47776 34.922 9.47776 35.922 17.4778 35.922C25.4778 35.922 28.4778 34.922 28.4778 34.922V11.922L29.4778 13.922V26.922C29.4778 26.922 34.4778 26.922 34.4778 25.922C34.4778 24.922 35.8428 9.47 33.4778 5.922Z" fill="#E1E8ED"/>
<path d="M6.47778 26.922H5.47778V13.922C5.47778 12.922 6.47778 11.922 6.47778 11.922V26.922ZM29.4778 26.922H28.4778V11.922C28.4778 11.922 29.4778 12.922 29.4778 13.922V26.922Z" fill="#99AAB5"/>
<path d="M11.2588 1.922L17.5398 13.266L23.4778 1.922L17.3688 0.671997L11.2588 1.922Z" fill="#66757F"/>
<path d="M11.4778 0.547C11.4778 0.547 13.7278 0 17.4778 0C21.2278 0 23.4778 0.547 23.4778 0.547V2.922C23.4778 2.922 21.8528 1.922 17.4778 1.922C13.1028 1.922 11.4778 2.922 11.4778 2.922V0.547Z" fill="#CCD6DD"/>
<path d="M6.47778 34.922C6.47778 34.922 24.2258 3.263 24.2258 2.284C24.2258 1.284 23.4778 0.546997 23.4778 0.546997L6.47778 31.922V34.922Z" fill="#99AAB5"/>
<path d="M17.2958 14.644C17.2958 14.644 10.6038 3.263 10.6038 2.284C10.6038 1.284 11.4778 0.546997 11.4778 0.546997L18.2388 13.12L17.2958 14.644Z" fill="#99AAB5"/>
<path d="M6.47778 21.922C6.47778 21.922 11.4778 23.922 17.4778 23.922C23.4778 23.922 28.4778 21.922 28.4778 21.922V24.922C28.4778 24.922 24.4778 26.922 17.4778 26.922C10.4778 26.922 6.47778 24.922 6.47778 24.922V21.922Z" fill="#292F33"/>
<path d="M20.4778 23.922C20.4778 23.922 18.4778 22.922 17.4778 22.922C16.4778 22.922 14.4778 23.922 14.4778 23.922C14.4778 23.922 13.4778 23.922 13.4778 24.922C13.4778 25.922 14.4778 26.922 14.4778 26.922C14.4778 26.922 16.4778 27.922 17.4778 27.922C18.4778 27.922 20.4778 26.922 20.4778 26.922C20.4778 26.922 21.4778 25.922 21.4778 24.922C21.4778 23.922 20.4778 23.922 20.4778 23.922Z" fill="#292F33"/>
<path d="M11.4778 32.922L14.4778 33.922C14.4778 33.922 15.4778 28.922 17.4778 26.922L15.4778 23.922C15.4778 23.922 12.4778 27.922 11.4778 32.922ZM23.4778 32.922L20.4778 33.922C20.4778 33.922 19.4778 28.922 17.4778 26.922L19.4778 23.922C19.4778 23.922 22.4778 27.922 23.4778 32.922Z" fill="#292F33"/>
</svg>
