<svg width="37" height="36" viewBox="0 0 37 36" fill="none" xmlns="http://www.w3.org/2000/svg">
<path d="M18.8696 36C28.8108 36 36.8696 27.9411 36.8696 18C36.8696 8.05887 28.8108 0 18.8696 0C8.9285 0 0.869629 8.05887 0.869629 18C0.869629 27.9411 8.9285 36 18.8696 36Z" fill="#31373D"/>
<path d="M18.8696 27C23.8402 27 27.8696 22.9706 27.8696 18C27.8696 13.0294 23.8402 9 18.8696 9C13.8991 9 9.86963 13.0294 9.86963 18C9.86963 22.9706 13.8991 27 18.8696 27Z" fill="#E1E8ED"/>
<path d="M14.5726 20.203C14.5726 18.797 15.3456 17.76 16.4536 17.162C15.6276 16.564 15.1176 15.756 15.1176 14.648C15.1176 12.591 16.8226 11.273 18.9146 11.273C20.9536 11.273 22.7286 12.574 22.7286 14.648C22.7286 15.632 22.2366 16.617 21.3746 17.162C22.5696 17.76 23.2556 18.85 23.2556 20.203C23.2556 22.646 21.2696 24.211 18.9136 24.211C16.4886 24.211 14.5726 22.559 14.5726 20.203ZM17.3146 20.027C17.3146 20.923 17.8416 21.785 18.9146 21.785C19.9166 21.785 20.5146 20.924 20.5146 20.027C20.5146 18.92 19.8816 18.269 18.9146 18.269C17.8946 18.27 17.3146 19.043 17.3146 20.027ZM17.6486 14.93C17.6486 15.721 18.1056 16.266 18.9146 16.266C19.7236 16.266 20.1976 15.721 20.1976 14.93C20.1976 14.174 19.7406 13.594 18.9146 13.594C18.0886 13.594 17.6486 14.174 17.6486 14.93Z" fill="#31373D"/>
</svg>
