<svg width="37" height="36" viewBox="0 0 37 36" fill="none" xmlns="http://www.w3.org/2000/svg">
<path d="M21.6195 25C19.0635 25 17.5575 21.872 16.4585 20.324C16.0465 19.744 15.1925 19.744 14.7815 20.324C13.6815 21.872 12.1765 25 9.61945 25C5.06845 25 1.69645 21.967 0.835454 17.381C-0.184546 11.955 4.20845 7 9.72945 7H21.5095C27.0305 7 31.4235 11.955 30.4035 17.381C29.5425 21.967 26.1705 25 21.6195 25Z" fill="#66757F"/>
<path d="M18.6195 22L15.6195 19L12.6195 22L10.6195 24C12.6195 24 13.6195 27 15.6195 27C17.6195 27 18.6195 24 20.6195 24L18.6195 22Z" fill="#292F33"/>
<path d="M21.6195 25C19.0635 25 17.5575 21.872 16.4585 20.324C16.0465 19.744 15.1925 19.744 14.7815 20.324C13.6815 21.872 12.1765 25 9.61945 25C5.06845 25 1.69645 21.967 0.835454 17.381C-0.184546 11.955 4.20845 7 9.72945 7H21.5095C27.0305 7 31.4235 11.955 30.4035 17.381C29.5425 21.967 26.1705 25 21.6195 25Z" fill="#4E9322"/>
<path d="M21.6195 23C20.5785 23 19.5065 21.336 18.7235 20.12C18.4975 19.77 18.2865 19.444 18.0885 19.166C17.5205 18.366 16.5975 17.889 15.6195 17.889C14.6405 17.889 13.7185 18.366 13.1505 19.164C12.9515 19.445 12.7405 19.77 12.5155 20.121C11.7325 21.336 10.6615 23 9.61946 23C6.10746 23 3.49446 20.705 2.80046 17.012C2.43546 15.071 2.94746 13.142 4.24246 11.581C5.60346 9.941 7.60346 9 9.72946 9H21.5095C23.6355 9 25.6355 9.941 26.9955 11.581C28.2905 13.142 28.8035 15.071 28.4375 17.012C27.7445 20.706 25.1315 23 21.6195 23Z" fill="#88C9F9"/>
<path d="M27.3804 11.262C25.9244 9.507 23.7844 8.5 21.5094 8.5H9.72944C7.45444 8.5 5.31444 9.507 3.85844 11.262C2.46644 12.94 1.91644 15.014 2.30944 17.104C3.05044 21.049 5.85144 23.5 9.61944 23.5C10.9334 23.5 12.0434 21.777 12.9354 20.392C13.1564 20.048 13.3634 19.729 13.5574 19.454C14.0324 18.787 14.8024 18.389 15.6194 18.389C16.4364 18.389 17.2064 18.787 17.6814 19.456C17.8754 19.728 18.0824 20.049 18.3034 20.391C19.1954 21.776 20.3054 23.5 21.6194 23.5C25.3884 23.5 28.1884 21.05 28.9294 17.104C29.3224 15.015 28.7714 12.94 27.3804 11.262ZM27.9464 16.92C27.3004 20.362 24.8764 22.5 21.6194 22.5C20.8504 22.5 19.7824 20.841 19.1434 19.849C18.9134 19.493 18.6984 19.161 18.4964 18.877C17.8344 17.946 16.7594 17.39 15.6194 17.39C14.4794 17.39 13.4044 17.945 12.7424 18.876C12.5394 19.163 12.3254 19.494 12.0944 19.852C11.4554 20.842 10.3884 22.5 9.61944 22.5C6.36344 22.5 3.93844 20.361 3.29144 16.919C2.95544 15.127 3.42944 13.345 4.62744 11.9C5.89344 10.375 7.75244 9.5 9.72944 9.5H21.5094C23.4864 9.5 25.3454 10.375 26.6114 11.9C27.8084 13.345 28.2834 15.128 27.9464 16.92Z" fill="#292F33"/>
<path d="M13.1145 9.505L4.13745 18.482C4.57345 19.772 5.22845 20.795 6.13345 21.486L18.1145 9.505H13.1145Z" fill="#BBDDF5"/>
<path d="M15.6194 15C13.7824 15 11.9454 19.215 10.1084 22.227C10.9354 21.67 11.8404 20.396 12.3944 19.535C12.6034 19.21 12.7994 18.908 12.9834 18.647C13.5104 17.906 14.4984 17.37 15.6184 17.37C16.9334 17.37 17.9704 18.089 18.4974 18.831C18.6814 19.089 18.8774 19.392 19.0864 19.716C19.6474 20.587 20.2134 21.76 21.1444 22.253C19.3044 19.24 17.4614 15 15.6194 15Z" fill="#3C96CE"/>
<path d="M26.6194 36C23.0624 36 19.7454 34.086 17.9604 31.005C17.4074 30.049 17.7334 28.826 18.6894 28.273C19.6474 27.719 20.8694 28.045 21.4224 29.002C22.4934 30.851 24.4844 32 26.6194 32C29.9284 32 32.6194 29.309 32.6194 26V2C32.6194 0.896 33.5154 0 34.6194 0C35.7234 0 36.6194 0.896 36.6194 2V26C36.6194 31.514 32.1334 36 26.6194 36Z" fill="#F4900C"/>
<path d="M22.2054 30.146L18.4734 31.586C17.4474 31.982 16.2834 31.466 15.8874 30.44C15.4914 29.414 16.0074 28.25 17.0334 27.854L20.7654 26.414C21.7914 26.018 22.9554 26.534 23.3514 27.56C23.7474 28.587 23.2314 29.75 22.2054 30.146Z" fill="#292F33"/>
<path d="M32.6195 5H36.6195V9H32.6195V5ZM32.6195 12H36.6195V16H32.6195V12Z" fill="#FFCC4D"/>
</svg>
