<svg width="36" height="35" viewBox="0 0 36 35" fill="none" xmlns="http://www.w3.org/2000/svg">
<path d="M23.4854 4.72182C17.9944 -0.769184 8.76343 -1.77018 3.68643 3.30782C-1.39057 8.38482 -0.390568 17.6158 5.10043 23.1068C8.65443 26.6608 12.8854 27.4298 16.8074 26.1648L16.7924 26.1778L16.9224 26.1258C17.1864 26.0378 17.4494 25.9468 17.7104 25.8418C18.4084 25.6038 19.4444 25.2838 20.6524 25.0358C22.5004 24.6558 24.1934 26.6418 25.6074 28.0568C27.0214 29.4708 29.8494 33.7138 30.5564 34.4208C31.2634 35.1278 31.9704 34.4208 32.6784 33.7138L33.3854 33.0068L34.0924 32.2998C34.7994 31.5918 35.5064 30.8848 34.7994 30.1778C34.0924 29.4708 29.8494 26.6428 28.4354 25.2288C27.0214 23.8148 25.0354 22.1218 25.4144 20.2738C25.6124 19.3088 25.8554 18.4588 26.0674 17.7928C28.0414 13.5708 27.6044 8.84082 23.4854 4.72182Z" fill="#DD2E44"/>
<path d="M15.9435 26.4058C16.2325 26.3358 16.5215 26.2568 16.8075 26.1648L16.7925 26.1778L16.9225 26.1258C17.1865 26.0378 17.4495 25.9468 17.7105 25.8418C18.4085 25.6038 19.4445 25.2838 20.6525 25.0358C22.5005 24.6558 24.1935 26.6418 25.6075 28.0568C27.0215 29.4708 29.8495 33.7138 30.5565 34.4208C31.2635 35.1278 31.9705 34.4208 32.6785 33.7138L33.3855 33.0068L34.0925 32.2998C34.7995 31.5918 35.5065 30.8848 34.7995 30.1778C34.0925 29.4708 29.8495 26.6428 28.4355 25.2288C27.0215 23.8148 25.0355 22.1218 25.4145 20.2738C25.6125 19.3088 25.8555 18.4588 26.0675 17.7928C26.4245 17.0288 26.7005 16.2498 26.8915 15.4588L15.9435 26.4058Z" fill="#D99E82"/>
<path d="M20.6565 21.6928L22.0705 20.2788L34.0925 32.2998L32.6785 33.7138L20.6565 21.6928Z" fill="#FFCC4D"/>
<path d="M31.8794 8.75082C33.8124 8.75082 35.3794 7.18382 35.3794 5.25082C35.3794 3.31783 33.8124 1.75082 31.8794 1.75082C29.9464 1.75082 28.3794 3.31783 28.3794 5.25082C28.3794 7.18382 29.9464 8.75082 31.8794 8.75082Z" fill="#CCD6DD"/>
</svg>
