<svg width="37" height="36" viewBox="0 0 37 36" fill="none" xmlns="http://www.w3.org/2000/svg">
<path d="M18.8792 36C28.8203 36 36.8792 27.9411 36.8792 18C36.8792 8.05887 28.8203 0 18.8792 0C8.93802 0 0.87915 8.05887 0.87915 18C0.87915 27.9411 8.93802 36 18.8792 36Z" fill="#77B255"/>
<path d="M26.8792 18C26.8792 24.048 29.6712 28.221 32.6812 29.546C35.2992 26.42 36.8792 22.396 36.8792 18C36.8792 13.604 35.2992 9.58001 32.6812 6.45401C29.6712 7.77901 26.8792 11.952 26.8792 18Z" fill="#A6D388"/>
<path d="M27.8792 18C27.8792 11.952 29.6712 7.77901 32.6812 6.45401C32.2362 5.92301 31.7552 5.42601 31.2532 4.95001C28.2852 6.60501 25.8792 10.578 25.8792 18C25.8792 25.421 28.2852 29.395 31.2532 31.05C31.7552 30.574 32.2372 30.077 32.6812 29.546C29.6712 28.221 27.8792 24.048 27.8792 18Z" fill="white"/>
<path d="M10.8792 18C10.8792 11.952 8.08715 7.78001 5.07715 6.45401C2.45915 9.58001 0.87915 13.604 0.87915 18C0.87915 22.396 2.45915 26.42 5.07715 29.546C8.08715 28.22 10.8792 24.048 10.8792 18Z" fill="#A6D388"/>
<path d="M5.07715 6.45399C8.08715 7.77999 9.87915 11.952 9.87915 18C9.87915 24.048 8.08715 28.22 5.07715 29.546C5.52215 30.077 6.00315 30.573 6.50515 31.05C9.47215 29.395 11.8791 25.421 11.8791 18C11.8791 10.579 9.47315 6.60499 6.50515 4.95099C6.00315 5.42699 5.52115 5.92299 5.07715 6.45399Z" fill="white"/>
</svg>
