<svg width="36" height="36" viewBox="0 0 36 36" fill="none" xmlns="http://www.w3.org/2000/svg">
<path d="M18 36C27.9411 36 36 27.9411 36 18C36 8.05887 27.9411 0 18 0C8.05887 0 0 8.05887 0 18C0 27.9411 8.05887 36 18 36Z" fill="#E6E7E8"/>
<path d="M32.809 7.779C30.653 7.692 27.485 7.965 24.599 9.745C24.59 9.75 24.58 9.749 24.571 9.754C24.551 9.765 24.54 9.784 24.521 9.796C22.373 11.144 20.39 13.335 19.11 16.85C16.715 16.801 14.541 16.564 12.622 16.135C16.789 4.13 25.77 3.83 29.699 4.337C28.789 3.557 27.805 2.864 26.751 2.276C21.68 2.516 14.353 4.887 10.686 15.611C8.889 15.033 7.367 14.261 6.152 13.299C6.203 13.224 6.25 13.144 6.28 13.053C9.604 2.972 18.478 0.735 21.108 0.286C20.097 0.11 19.062 0 18 0C16.963 0 15.954 0.107 14.965 0.275C11.227 2.109 6.884 5.52 4.609 11.794C3.499 10.42 3.071 9.078 2.91 8.206C2.409 8.977 1.967 9.789 1.587 10.636C2.012 11.62 2.664 12.71 3.683 13.773C6.851 17.08 12.178 18.783 19.49 18.861C20.131 21.096 20.459 23.148 20.554 25.013C8.84 25.432 2.909 20.599 0.064 16.736C0.035 17.155 0 17.573 0 18C0 18.589 0.033 19.171 0.088 19.746C3.51 23.373 9.391 27.043 19.202 27.043C19.647 27.043 20.109 27.027 20.57 27.011C20.5 28.941 20.188 30.64 19.753 32.105C10.225 31.849 4.812 28.744 1.821 25.85C2.752 27.765 4.003 29.491 5.519 30.952C8.794 32.618 13.2 33.858 19.085 33.981C18.769 34.738 18.431 35.41 18.095 35.995C18.895 35.991 19.678 35.919 20.451 35.814C22.279 32.065 23.756 26.058 21.293 17.876L21.096 17.263C22.006 14.9 23.277 13.252 24.688 12.119C29.153 21.203 26.793 29.818 24.587 34.739C25.527 34.369 26.424 33.919 27.279 33.403C29.306 27.902 30.714 19.659 26.373 11.02C27.777 10.291 29.221 9.945 30.517 9.807C30.525 9.821 30.525 9.838 30.534 9.852C34.829 16.545 32.94 24.919 30.461 30.971C32.06 29.435 33.367 27.607 34.314 25.572C35.713 19.508 35.207 14.111 32.798 9.75C33.284 9.777 33.708 9.823 34.046 9.872C33.677 9.146 33.269 8.444 32.809 7.779Z" fill="#99AAB5"/>
</svg>
